<?xml version="1.0" encoding="UTF-8"?>
<svg id="_レイヤー_2" data-name="レイヤー 2" xmlns="http://www.w3.org/2000/svg" viewBox="0 0 664.99 411.35">
  <defs>
    <style>
      .cls-1 {
        stroke: #fff;
        stroke-width: 6px;
      }

      .cls-1, .cls-2 {
        fill: none;
        stroke-miterlimit: 10;
      }

      .cls-2 {
        stroke: #000;
        stroke-width: 20px;
      }
    </style>
  </defs>
  <g id="_レイヤー_1-2" data-name="レイヤー 1">
    <g>
      <path d="M630.31,192.79c0-3.57-.17-5.3-.35-7.13-.2-2.01-.4-18.6-.4-22.69s.14-6.06.27-8.03c.13-1.87.25-15.51.25-19.15,0-3.96.1-5.97.19-7.92.09-1.9.18-16.76.18-20.46s-.08-5.51-.17-7.41c-.09-1.94-.18-3.95-.18-7.9s.24-6.24.48-8.28c.21-1.81-.43-7.41-.43-10.93s-.14-5.36-.29-7.22c-.16-1.99-.33-4.05-.33-8.1s.05-5.88.1-7.8c.02-.91.05-1.81.06-2.88-5.68-1.04-10.32-3.75-13.84-8.11-1.67-2.06-2.9-4.33-4.1-6.51-1.47-2.67-2.85-5.2-4.74-6.8-2.72-2.31-6.8-3.43-12.47-3.43-4.22,0-6.46-.32-8.44-.59-1.86-.26-3.47-.49-6.93-.49s-5.25.2-7.06.41c-2.04.23-4.15.48-8.3.48-3.57,0-5.3.17-7.14.36-2.02.2-4.12.42-8.23.42-4.33,0-6.63-.41-8.65-.78-1.81-.33-3.37-.61-6.72-.61s-4.96.26-6.79.57c-2.01.34-4.29.72-8.59.72s-6.19-.2-8.21-.4c-1.84-.18-3.58-.35-7.16-.35s-5.07.23-6.94.49c-1.98.28-4.22.59-8.44.59s-6.46-.31-8.43-.58c-1.86-.26-3.47-.48-6.94-.48-4.05,0-6.11-.15-8.1-.3-1.87-.14-3.64-.27-7.28-.27-3.39,0-4.97.26-6.79.57-2.01.34-4.29.72-8.58.72s-6.23-.22-8.26-.44c-1.83-.2-3.56-.38-7.11-.38-3.77,0-5.6.05-7.53.11-1.93.06-3.92.11-7.85.11s-5.72.02-7.63.04c-1.94.02-3.87.04-7.74.04-4.14,0-6.25-.23-8.29-.46-1.82-.2-3.55-.39-7.09-.39s-5.03.24-6.87.52c-1.99.3-4.25.65-8.51.65s-6.16-.18-8.17-.36c-1.86-.16-3.61-.32-7.22-.32-3.42,0-5.01.25-6.85.54-2,.32-4.27.67-8.54.67-4.51,0-6.9-.6-9.01-1.13-1.78-.45-3.19-.8-6.37-.8-3.76,0-5.58.06-7.52.12-1.93.06-3.93.12-7.85.12s-5.88-.04-7.8-.08c-1.95-.04-3.79-.08-7.57-.08s-5.4.14-7.27.28c-1.99.15-4.05.31-8.11.31-3.54,0-5.27.19-7.09.39-2.04.23-4.14.46-8.29.46s-6.15-.18-8.16-.36c-1.85-.16-3.61-.32-7.21-.32s-5.58.06-7.51.12-3.93.13-7.86.13c-3.6,0-5.35.16-7.2.33-2.01.18-4.09.37-8.18.37-4.38,0-6.71-.47-8.76-.88-1.78-.36-3.31-.67-6.62-.67-3.62,0-5.38.15-7.24.3-2,.17-4.07.34-8.14.34-3.7,0-5.49.1-7.39.2-1.96.11-3.99.22-7.98.22s-5.91-.05-7.83-.1c-1.94-.05-3.77-.1-7.55-.1-4.22,0-6.46-.31-8.44-.59-1.86-.26-3.47-.48-6.94-.48-3.22,0-4.65.33-6.46.76-2.09.49-4.45,1.04-8.92,1.04s-6.88-.58-8.97-1.09c-1.79-.44-3.21-.78-6.4-.78-3.67,0-5.46.11-7.35.23-1.98.13-4.02.26-8.04.26-3.44,0-5.03.24-6.88.52-1.99.3-4.25.64-8.51.64-6.97,0-9.98,1.76-12.02,3.48-3.58,3.04-6.59,6.78-9.49,10.4l-1.52,1.89c-2.79,3.48-6.42,7.97-12.45,9.67.05.2.1.4.15.6.55,2.11,1.17,4.5,1.17,9.02,0,3.99-.12,6.02-.24,7.98-.11,1.89-.22,3.67-.22,7.33,0,4.19.53,10.31.27,12.28-.25,1.86-.47,3.47-.47,6.93s.22,5.17.45,6.95c.25,1.96.54,4.18.54,8.36s-.48,19.76-.9,21.81c-.36,1.76-.67,3.29-.67,6.57,0,3.52.2,17.09.4,18.91.23,2.03.47,4.14.47,8.28,0,3.76.04,20.1.09,22.03.05,1.92.09,3.9.09,7.79,0,4.11-.22,6.2-.42,8.22-.19,1.83-.37,3.55-.37,7.1s.09,5.49.18,7.39c.1,1.95.2,25.29.2,29.25,0,3.55.18,5.28.37,7.1.21,2.02.42,4.11.42,8.22,0,3.61.14,20.67.29,22.53.16,1.99.33,13.86.33,17.91s-.32,6.46-.61,8.44c-.27,1.85-.5,14.59-.5,18.03s.16,5.31.34,7.14c.19,2.01-.45.19-.45,4.28,0,3.73.07,5.54.14,7.46.07,1.93.15,3.94.15,7.87,0,4.31-.4,6.59-.76,8.6-.08.43-.15.85-.22,1.29,5.46,1.15,10.15,4.12,13.99,8.87,1.2,1.49,2.29,3.02,3.34,4.5,2.03,2.86,3.95,5.56,6.44,7.68,3.67,3.11,6.45,5.15,11.46,5.15,3.35,0,4.91-.29,6.71-.62,2.03-.37,4.33-.8,8.68-.8s6.44.3,8.42.56c1.87.25,3.49.47,6.97.47,4.18,0,6.4.28,8.36.53,1.8.23,3.51.44,7.01.44,3.78,0,5.61-.05,7.56-.09,1.92-.05,3.91-.1,7.82-.1,3.42,0,5-.25,6.84-.54,2-.32,4.27-.67,8.54-.67,3.76,0,5.59-.05,7.53-.11,1.93-.06,3.92-.12,7.85-.12s5.7-.03,7.6-.06c1.94-.03,3.89-.06,7.78-.06s5.93.06,7.86.12c1.93.06,3.76.12,7.52.12,4.35,0,6.65.43,8.69.81,1.8.34,3.35.63,6.69.63s5.04-.24,6.89-.51c1.99-.3,4.24-.63,8.49-.63,3.75,0,5.57-.06,7.5-.13,1.94-.07,3.94-.14,7.87-.14s6.09.15,8.07.29c1.88.13,3.65.26,7.3.26s5.7-.03,7.6-.06c1.94-.03,3.89-.07,7.78-.07s5.84.04,7.79.07c1.9.03,3.79.07,7.59.07,3.52,0,5.24-.2,7.05-.42,2.05-.24,4.16-.49,8.32-.49,4.41,0,6.75.5,8.82.94,1.76.38,3.28.7,6.55.7s4.9-.29,6.71-.62c2.03-.37,4.33-.8,8.67-.8,4.11,0,6.2.2,8.22.4,1.84.18,3.58.35,7.17.35s5.56-.07,7.49-.14c1.94-.07,3.95-.15,7.9-.15s6.24.23,8.27.45c1.83.2,3.55.38,7.1.38,3.9,0,5.89.04,7.81.08,1.95.04,3.79.08,7.57.08,3.39,0,4.97-.26,6.79-.57,2.01-.34,4.29-.72,8.58-.72,3.73,0,5.55-.08,7.47-.15,1.94-.08,3.96-.16,7.91-.16s5.63-.04,7.58-.08c1.92-.04,3.9-.08,7.8-.08,4.43,0,6.77.51,8.84.96,1.76.38,3.28.71,6.54.71,3.9,0,5.88.04,7.8.08,1.95.04,3.79.08,7.58.08s5.49-.1,7.39-.2c1.96-.11,3.99-.22,7.99-.22s5.73-.02,7.64-.03c1.93-.02,3.87-.03,7.73-.03s5.94.07,7.88.14c1.93.07,3.75.13,7.49.13,3.26,0,4.78-.33,6.53-.71,2.07-.45,4.41-.96,8.84-.96s6.97.64,9.09,1.21c1.76.47,3.16.84,6.29.84s4.58-.35,6.37-.8c2.11-.53,4.49-1.13,9.01-1.13s6.63.42,8.65.78c1.8.33,3.36.61,6.72.61s5.22-.21,7.03-.43c1.96-.24,4.17-.51,8.35-.51,6.75,0,9.96-1.99,12-3.71,2.58-2.19,4.62-5,6.78-7.97,1.02-1.4,2.07-2.86,3.2-4.25,3.8-4.71,8.29-7.43,13.88-8.38-.05-1.09-.12-1.97-.19-2.88-.16-1.99-.32-4.04-.32-8.09,0-3.7-.09-5.5-.18-7.4-.1-1.95-.19-3.96-.19-7.93s1.03-2.26,1.21-4.27c.17-1.84.33-3.58.33-7.16s-.15-16.5-.31-18.35c-.17-2-.34-4.06-.34-8.12,0-3.59-.16-15.15-.32-16.99-.18-2-.37-19.38-.37-23.45,0-4.37.46-6.68.87-8.72.35-1.77.66-3.3.66-6.6,0-3.93.08-27.26.15-29.2.07-1.92.14-3.73.14-7.45,0-3.39-.25-4.97-.55-6.79-.32-2-.69-4.26-.69-8.52Z"/>
      <g>
        <path class="cls-2" d="M641.29,365.15c-.06-1.71-.16-2.96-.26-4.18-.15-1.86-.29-3.62-.29-7.24,0-3.96-.1-5.98-.19-7.93-.09-1.9-.52-3.71-.18-7.4.44-4.78.44-3.94.61-5.78.18-2.01.93-1.57.93-5.64s-.17-17.27-.34-19.27c-.16-1.85-.31-3.6-.31-7.2,0-4.07-.19-15.96-.37-17.96-.17-1.84-.32-18.89-.32-22.48,0-3.29.31-4.83.66-6.6.41-2.04.87-4.36.87-8.72,0-3.72.07-26.86.14-28.78.08-1.93.15-3.93.15-7.87,0-4.26-.37-6.53-.69-8.52-.29-1.82-.55-3.4-.55-6.79,0-4.09-.2-6.17-.4-8.18-.18-1.83-.35-18.07-.35-21.64s.12-5.41.25-7.29c.13-1.97.27-15.88.27-19.89,0-3.7.09-5.5.18-7.4.09-1.95.19-17.02.19-20.98s-.09-5.96-.18-7.9c-.09-1.91-.17-3.71-.17-7.41s.2-5.23.41-7.04c.24-2.03-.36-8.03-.36-12.17s-.17-6.1-.33-8.09c-.15-1.86-.29-3.61-.29-7.22s.05-5.58.1-7.51c.03-1.02.05-2.06.07-3.39,3.34-.89,6.35-2.63,8.98-5.24,3.71-3.67,5.43-8.24,5.43-14.36,0-9.22-6.68-16.45-15.21-16.45-7.72,0-13.11,5.45-13.11,13.26,0,3,2.43,5.43,5.43,5.43s5.43-2.43,5.43-5.43c0-2.4,1.15-2.4,2.26-2.4,2.83,0,4.36,2.88,4.36,5.6,0,3.69-.89,5.33-2.22,6.65-1.96,1.94-4.02,2.8-6.7,2.8-4.99,0-8.35-1.41-10.9-4.56-1.06-1.31-2.02-3.06-3.03-4.91-1.79-3.26-3.82-6.96-7.24-9.87-4.77-4.04-11.14-6-19.49-6-3.46,0-5.07-.23-6.93-.49-1.98-.28-4.22-.59-8.44-.59s-6.26.24-8.3.48c-1.82.21-3.53.41-7.07.41-4.12,0-6.21.21-8.23.42-1.84.19-3.57.36-7.14.36-3.36,0-4.92-.28-6.72-.61-2.03-.37-4.32-.78-8.65-.78s-6.57.38-8.59.72c-1.82.31-3.4.57-6.79.57-3.58,0-5.32-.17-7.16-.35-2.02-.2-4.11-.4-8.21-.4s-6.46.31-8.44.59c-1.86.26-3.47.49-6.94.49s-5.08-.22-6.95-.48c-1.98-.27-4.22-.58-8.43-.58-3.64,0-5.41-.13-7.28-.27-1.99-.15-4.05-.3-8.09-.3-4.3,0-6.58.38-8.59.72-1.82.31-3.4.57-6.79.57s-5.28-.18-7.11-.38c-2.03-.22-4.13-.44-8.26-.44s-5.92.06-7.84.11c-1.94.06-3.77.11-7.53.11s-5.81.02-7.74.04c-1.91.02-3.82.04-7.63.04-3.55,0-5.27-.19-7.09-.39-2.04-.22-4.14-.46-8.29-.46s-6.51.34-8.51.65c-1.84.28-3.44.52-6.87.52-3.61,0-5.36-.15-7.22-.32-2.01-.18-4.08-.36-8.17-.36s-6.54.36-8.54.67c-1.84.29-3.43.54-6.85.54-3.17,0-4.58-.35-6.37-.8-2.11-.53-4.49-1.13-9.01-1.13-3.93,0-5.92.06-7.85.12-1.93.06-3.76.12-7.52.12s-5.63-.04-7.57-.08c-1.92-.04-3.9-.08-7.8-.08s-6.12.16-8.11.31c-1.87.15-3.63.28-7.27.28-4.14,0-6.25.23-8.29.46-1.82.2-3.55.39-7.09.39s-5.36-.15-7.21-.32c-2.01-.18-4.08-.36-8.16-.36s-5.93.06-7.86.13-3.76.12-7.51.12c-4.09,0-6.17.19-8.18.37-1.85.17-3.6.33-7.2.33-3.3,0-4.84-.31-6.62-.67-2.05-.41-4.37-.88-8.76-.88-4.07,0-6.14.17-8.14.34-1.86.15-3.62.3-7.24.3-3.99,0-6.02.11-7.98.22-1.9.1-3.7.2-7.39.2s-5.61-.05-7.55-.1c-1.93-.05-3.92-.1-7.83-.1-3.47,0-5.08-.22-6.94-.48-1.98-.27-4.22-.59-8.43-.59-4.47,0-6.84.55-8.93,1.04-1.81.42-3.24.76-6.45.76s-4.61-.35-6.4-.78c-2.1-.51-4.48-1.09-8.97-1.09-4.02,0-6.06.13-8.04.26-1.89.12-3.67.23-7.35.23-4.26,0-6.51.34-8.51.64-1.85.28-3.44.52-6.88.52-8.11,0-14.16,1.92-19.03,6.06-4.38,3.71-7.86,8.06-10.94,11.89l-1.52,1.89c-2.7,3.36-4.56,5.48-7.36,6.1-.8-.47-1.72-.76-2.72-.76-.82,0-1.59.2-2.29.52-1.83-.5-3.51-1.37-4.63-2.49-1.48-1.47-2.4-4.46-2.4-7.8,0-2.87,2.95-4.64,5.68-4.64,2.55,0,2.55.61,2.55,1.45,0,3,2.43,5.43,5.43,5.43s5.43-2.43,5.43-5.43c0-7.36-5.39-12.3-13.4-12.3-9.12,0-16.54,6.95-16.54,15.49,0,6.32,2.05,11.97,5.62,15.51,2.48,2.45,5.88,4.28,9.55,5.27.22,1.34.5,2.43.76,3.44.46,1.77.82,3.16.82,6.3,0,3.67-.11,5.45-.22,7.33-.12,1.96-.24,3.99-.24,7.98,0,3.46.62,8.96.36,10.82-.27,1.96-.57,4.19-.57,8.38s.29,6.4.54,8.36c.23,1.79.45,3.48.45,6.96,0,3.28-.31,17.87-.67,19.63-.42,2.05-.9,4.37-.9,8.75,0,4.14.24,18.1.47,20.14.21,1.81.4,3.52.4,7.04,0,3.89.05,20.38.09,22.3.05,1.94.09,3.76.09,7.53,0,3.55-.18,5.27-.37,7.1-.21,2.02-.42,4.11-.42,8.22s.1,5.98.2,7.93c.09,1.9.18,25.02.18,28.72,0,4.11.22,6.2.42,8.22.19,1.83.37,3.55.37,7.1,0,4.05.17,21.41.33,23.4.15,1.86.29,13.43.29,17.04s-.23,5.04-.5,6.88c-.29,1.98-.61,15.37-.61,19.59s.2,6.16.39,8.17c.17,1.84-.49-.32-.49,3.25,0,3.93.08,5.93.15,7.87.07,1.92.14,3.73.14,7.46,0,3.36-.27,4.92-.59,6.72-.17.95-.34,1.96-.48,3.21-3.97.84-7.45,2.58-9.96,5.06-4.22,4.18-4.22,10.21-4.22,15.53,0,9.37,6.66,16.7,15.15,16.7,7.57,0,12.46-5.3,12.46-13.51,0-3-2.43-5.43-5.43-5.43s-5.43,2.43-5.43,5.43c0,2.66-.61,2.66-1.61,2.66-2.69,0-4.3-2.97-4.3-5.85s0-6.83,1-7.82c1.16-1.15,3.18-1.99,5.49-2.33.62.24,1.28.39,1.99.39.77,0,1.51-.17,2.18-.46,3.66.41,6.61,2.11,9.17,5.29.99,1.23,1.94,2.56,2.94,3.97,2.22,3.13,4.74,6.68,8.27,9.67,3.63,3.08,9.11,7.73,18.48,7.73,4.34,0,6.64-.42,8.68-.8,1.8-.33,3.36-.62,6.71-.62s5.1.22,6.97.47c1.97.26,4.21.56,8.42.56,3.5,0,5.21.21,7.01.44,1.96.25,4.18.53,8.36.53,3.91,0,5.9-.05,7.82-.1,1.94-.05,3.78-.09,7.56-.09,4.27,0,6.54-.36,8.53-.67,1.84-.29,3.42-.54,6.84-.54,3.92,0,5.92-.06,7.85-.12,1.94-.06,3.77-.11,7.53-.11s5.83-.03,7.78-.06c1.9-.03,3.8-.06,7.6-.06s5.59.06,7.52.12c1.93.06,3.93.12,7.86.12,3.34,0,4.89.29,6.69.63,2.03.38,4.34.81,8.69.81s6.5-.34,8.49-.63c1.85-.28,3.45-.51,6.89-.51,3.94,0,5.94-.07,7.87-.13,1.93-.07,3.75-.13,7.5-.13s5.42.13,7.3.26c1.98.14,4.04.29,8.07.29s5.83-.03,7.78-.07c1.9-.03,3.8-.06,7.6-.06s5.69.03,7.59.07c1.95.04,3.89.07,7.79.07,4.16,0,6.28-.25,8.33-.49,1.81-.22,3.53-.42,7.05-.42,3.27,0,4.79.32,6.55.7,2.06.44,4.4.94,8.82.94s6.64-.42,8.67-.8c1.8-.33,3.36-.62,6.71-.62,3.58,0,5.32.17,7.17.35,2.02.2,4.11.4,8.22.4s5.95-.08,7.89-.15c1.93-.07,3.75-.14,7.49-.14,3.55,0,5.28.19,7.1.38,2.03.22,4.14.45,8.27.45,3.79,0,5.63.04,7.57.08,1.92.04,3.9.08,7.81.08,4.3,0,6.57-.38,8.58-.72,1.82-.31,3.4-.57,6.79-.57,3.96,0,5.97-.08,7.91-.16,1.92-.08,3.73-.15,7.47-.15s5.88-.04,7.8-.08c1.95-.04,3.79-.08,7.58-.08,3.26,0,4.78.33,6.54.71,2.07.45,4.41.96,8.84.96,3.79,0,5.63.04,7.57.08,1.92.04,3.9.08,7.8.08s6.02-.11,7.99-.22c1.9-.1,3.69-.2,7.39-.2s5.8-.02,7.73-.03c1.91-.01,3.82-.03,7.64-.03s5.57.06,7.49.13c1.94.07,3.94.14,7.88.14,4.43,0,6.77-.51,8.84-.96,1.76-.38,3.27-.71,6.53-.71s4.52.37,6.29.84c2.12.57,4.53,1.21,9.09,1.21s6.9-.6,9.01-1.13c1.78-.45,3.19-.8,6.36-.8,3.36,0,4.91.28,6.72.61,2.03.37,4.32.78,8.65.78s6.39-.27,8.35-.51c1.81-.22,3.51-.43,7.03-.43,7.91,0,13.95-2,19.01-6.29,3.58-3.03,6.22-6.67,8.55-9.87.98-1.35,1.91-2.63,2.86-3.81,2.36-2.92,4.89-4.74,10.23-4.74,2.78,0,4.74.77,6.56,2.58,1.41,1.4,2.29,2.98,2.29,6.51,0,1.78-.45,4.15-4.29,4.15-1.34,0-1.99-.19-2.23-.29-.03-.12-.06-.34-.06-.67,0-3-2.43-5.43-5.43-5.43s-5.43,2.43-5.43,5.43c0,8.71,6.79,11.82,13.14,11.82,8.92,0,15.15-6.17,15.15-15.01,0-5.98-1.75-10.5-5.5-14.22-2.4-2.38-5.09-3.99-8.12-4.89ZM616.54,373.08c-1.13,1.4-2.18,2.85-3.2,4.25-2.16,2.97-4.2,5.78-6.78,7.97-2.04,1.73-5.25,3.71-12,3.71-4.17,0-6.39.27-8.35.51-1.81.22-3.51.43-7.03.43s-4.91-.28-6.72-.61c-2.03-.37-4.32-.78-8.65-.78s-6.9.6-9.01,1.13c-1.78.45-3.19.8-6.37.8s-4.52-.37-6.29-.84c-2.12-.57-4.53-1.21-9.09-1.21s-6.77.51-8.84.96c-1.76.38-3.27.71-6.53.71-3.75,0-5.57-.06-7.49-.13-1.94-.07-3.94-.14-7.88-.14s-5.8.02-7.73.03c-1.91.01-3.82.03-7.64.03s-6.03.11-7.99.22c-1.9.1-3.69.2-7.39.2s-5.63-.04-7.58-.08c-1.92-.04-3.9-.08-7.8-.08-3.26,0-4.78-.33-6.54-.71-2.07-.45-4.41-.96-8.84-.96-3.9,0-5.88.04-7.8.08-1.95.04-3.79.08-7.58.08s-5.97.08-7.91.16c-1.92.08-3.73.15-7.47.15-4.3,0-6.57.38-8.58.72-1.82.31-3.4.57-6.79.57-3.79,0-5.63-.04-7.57-.08-1.92-.04-3.9-.08-7.81-.08-3.55,0-5.28-.19-7.1-.38-2.03-.22-4.13-.45-8.27-.45s-5.96.08-7.9.15c-1.93.07-3.75.14-7.49.14s-5.32-.17-7.17-.35c-2.02-.2-4.11-.4-8.22-.4-4.34,0-6.64.42-8.67.8-1.8.33-3.36.62-6.71.62s-4.79-.32-6.55-.7c-2.06-.44-4.4-.94-8.82-.94-4.16,0-6.28.25-8.32.49-1.81.22-3.53.42-7.05.42-3.79,0-5.69-.03-7.59-.07-1.95-.04-3.89-.07-7.79-.07s-5.83.03-7.78.07c-1.9.03-3.8.06-7.6.06s-5.42-.13-7.3-.26c-1.99-.14-4.04-.29-8.07-.29s-5.94.07-7.87.14c-1.93.07-3.75.13-7.5.13-4.25,0-6.5.34-8.49.63-1.85.28-3.45.51-6.89.51s-4.89-.29-6.69-.63c-2.03-.38-4.34-.81-8.69-.81-3.76,0-5.58-.06-7.52-.12-1.93-.06-3.93-.12-7.86-.12s-5.83.03-7.78.06c-1.9.03-3.8.06-7.6.06s-5.92.06-7.85.12c-1.94.06-3.77.11-7.53.11-4.27,0-6.54.36-8.54.67-1.84.29-3.42.54-6.84.54-3.91,0-5.9.05-7.82.1-1.94.05-3.78.09-7.56.09-3.5,0-5.21-.21-7.01-.44-1.96-.25-4.18-.53-8.36-.53-3.48,0-5.1-.22-6.97-.47-1.97-.26-4.21-.56-8.42-.56s-6.64.42-8.68.8c-1.8.33-3.36.62-6.71.62-5.01,0-7.79-2.04-11.46-5.15-2.49-2.11-4.41-4.81-6.44-7.68-1.05-1.48-2.14-3.02-3.34-4.5-3.83-4.75-8.52-7.72-13.99-8.87.07-.43.14-.85.22-1.29.35-2.01.76-4.3.76-8.6,0-3.93-.08-5.94-.15-7.87-.07-1.92-.14-3.73-.14-7.46,0-4.09.64-2.27.45-4.28-.17-1.84-.34-3.57-.34-7.14s.23-16.19.5-18.03c.29-1.98.61-4.22.61-8.44s-.17-15.92-.33-17.91c-.15-1.86-.29-18.92-.29-22.53,0-4.11-.22-6.2-.42-8.22-.19-1.83-.37-3.55-.37-7.1,0-3.96-.1-27.3-.2-29.25-.09-1.9-.18-3.7-.18-7.39s.18-5.27.37-7.1c.21-2.02.42-4.11.42-8.22,0-3.89-.05-5.88-.09-7.79-.05-1.94-.09-18.27-.09-22.03,0-4.14-.24-6.24-.47-8.28-.21-1.81-.4-15.38-.4-18.91,0-3.28.31-4.8.67-6.57.42-2.05.9-17.43.9-21.81s-.29-6.4-.54-8.36c-.23-1.79-.45-3.48-.45-6.95s.22-5.07.47-6.93c.27-1.96-.27-8.08-.27-12.28,0-3.67.11-5.45.22-7.33.12-1.96.24-3.99.24-7.98,0-4.52-.62-6.91-1.17-9.02-.05-.21-.1-.4-.15-.6,6.03-1.7,9.66-6.19,12.45-9.67l1.52-1.89c2.9-3.62,5.91-7.36,9.49-10.4,2.03-1.72,5.05-3.48,12.02-3.48,4.26,0,6.51-.34,8.51-.64,1.85-.28,3.44-.52,6.88-.52,4.02,0,6.06-.13,8.04-.26,1.89-.12,3.67-.23,7.35-.23,3.19,0,4.61.35,6.4.78,2.1.51,4.48,1.09,8.97,1.09s6.84-.55,8.92-1.04c1.81-.42,3.24-.76,6.46-.76,3.47,0,5.08.22,6.94.48,1.98.27,4.22.59,8.44.59,3.77,0,5.61.05,7.55.1,1.93.05,3.92.1,7.83.1s6.02-.11,7.98-.22c1.9-.1,3.7-.2,7.39-.2,4.07,0,6.14-.17,8.14-.34,1.86-.15,3.62-.3,7.24-.3,3.3,0,4.84.31,6.62.67,2.05.41,4.37.88,8.76.88,4.09,0,6.17-.19,8.18-.37,1.85-.17,3.6-.33,7.2-.33,3.93,0,5.93-.06,7.86-.13s3.76-.12,7.51-.12,5.36.15,7.21.32c2.01.18,4.08.36,8.16.36s6.25-.23,8.29-.46c1.82-.2,3.55-.39,7.09-.39,4.05,0,6.11-.16,8.11-.31,1.87-.15,3.63-.28,7.27-.28s5.63.04,7.57.08c1.92.04,3.9.08,7.8.08s5.92-.06,7.85-.12c1.93-.06,3.76-.12,7.52-.12,3.17,0,4.58.35,6.37.8,2.11.53,4.49,1.13,9.01,1.13,4.27,0,6.54-.36,8.54-.67,1.84-.29,3.43-.54,6.85-.54,3.61,0,5.36.15,7.22.32,2.01.18,4.08.36,8.17.36s6.51-.34,8.51-.65c1.84-.28,3.44-.52,6.87-.52s5.27.19,7.09.39c2.04.23,4.14.46,8.29.46,3.87,0,5.81-.02,7.74-.04,1.91-.02,3.82-.04,7.63-.04s5.92-.06,7.85-.11c1.94-.06,3.77-.11,7.53-.11,3.56,0,5.28.18,7.11.38,2.03.22,4.13.44,8.26.44s6.57-.38,8.58-.72c1.82-.31,3.4-.57,6.79-.57,3.64,0,5.41.13,7.28.27,1.99.15,4.05.3,8.1.3,3.47,0,5.08.22,6.94.48,1.98.27,4.22.58,8.43.58s6.46-.31,8.44-.59c1.86-.26,3.47-.49,6.94-.49s5.32.17,7.16.35c2.02.2,4.11.4,8.21.4s6.58-.38,8.59-.72c1.82-.31,3.4-.57,6.79-.57s4.92.28,6.72.61c2.03.37,4.32.78,8.65.78s6.21-.21,8.23-.42c1.84-.19,3.57-.36,7.14-.36,4.15,0,6.26-.24,8.3-.48,1.82-.21,3.53-.41,7.06-.41s5.07.23,6.93.49c1.98.28,4.22.59,8.44.59,5.67,0,9.75,1.12,12.47,3.43,1.89,1.6,3.28,4.13,4.74,6.8,1.2,2.19,2.44,4.45,4.1,6.51,3.52,4.37,8.17,7.08,13.84,8.11-.02,1.08-.04,1.97-.07,2.88-.05,1.92-.1,3.9-.1,7.8s.17,6.11.33,8.1c.15,1.86.29,3.61.29,7.22s.64,9.12.43,10.93c-.24,2.03-.48,4.14-.48,8.28s.09,5.96.18,7.9c.09,1.91.17,3.71.17,7.41s-.09,18.56-.18,20.46c-.09,1.95-.19,3.96-.19,7.92,0,3.64-.12,17.28-.25,19.15-.13,1.97-.27,4.01-.27,8.03s.2,20.68.4,22.69c.18,1.83.35,3.57.35,7.13,0,4.26.37,6.53.69,8.52.29,1.82.55,3.4.55,6.79,0,3.72-.07,5.53-.14,7.45-.08,1.93-.15,25.26-.15,29.2,0,3.29-.31,4.82-.66,6.6-.41,2.04-.87,4.36-.87,8.72,0,4.07.19,21.45.37,23.45.17,1.84.32,13.4.32,16.99,0,4.06.17,6.12.34,8.12.16,1.85.31,14.75.31,18.35s.01,3.48-.16,5.32c-.18,2.01-1.43,2.7-1.38,6.11.05,3.96.1,5.98.19,7.93.09,1.9.18,3.7.18,7.4,0,4.05.16,6.1.32,8.09.07.91.14,1.79.19,2.88-5.59.95-10.08,3.67-13.88,8.38Z"/>
        <path class="cls-1" d="M641.08,365.4c-.06-1.71.32-3.23.23-4.45-.15-1.86-.43-3.6-.43-7.21,0-3.96-.05-5.99-.14-7.94-.09-1.9-.28-3.67.06-7.35.44-4.78.17-3.97.34-5.81.18-2.01.6-1.58.6-5.66s-.28-17.25-.45-19.25c-.16-1.85-.53-3.63-.53-7.23,0-4.07.17-15.95,0-17.95-.17-1.84-.36-18.9-.36-22.49,0-3.29.27-4.87.63-6.64.41-2.04.98-4.31.98-8.68,0-1.8.13-8.12.15-14.39.03-6.72-.21-13.41-.17-14.4.08-1.93.32-3.92.32-7.86,0-4.26-.35-6.51-.68-8.51-.29-1.82-.39-3.41-.39-6.81,0-4.09-.71-6.13-.91-8.14-.18-1.83.44-18.12.44-21.68s-.67-5.45-.55-7.32c.13-1.97,1.04-15.85,1.04-19.86,0-3.7-.48-5.51-.38-7.41.09-1.95.12-17.01.12-20.97s.42-5.97.34-7.91c-.09-1.91-.79-3.7-.79-7.4s.62-5.23.83-7.04c.24-2.03.07-8.03.07-12.17s-.55-6.11-.71-8.1c-.15-1.86-.33-3.61-.33-7.22s-.23-5.59-.18-7.52c.03-1.02.24-2.2.26-3.53,3.34-.89,6.65-2.28,9.28-4.9,3.71-3.67,5.52-8.44,5.52-14.56,0-9.22-6.98-16.64-15.51-16.64-7.72,0-13.18,5.64-13.18,13.45,0,3,2.5,5.02,5.5,5.02s5.06-2.03,5.06-5.02c0-2.4,1.52-2.02,2.63-2.02,2.83,0,4.75,2.5,4.75,5.21,0,3.69-1.02,5.59-2.35,6.91-1.96,1.94-4.28,2.79-6.95,2.79-4.99,0-8.1-1.86-10.65-5.01-1.06-1.31-2.08-2.96-3.1-4.81-1.79-3.26-3.75-7.16-7.18-10.06-4.77-4.04-11.39-6.14-19.74-6.14-3.46,0-5.06.11-6.92-.15-1.98-.28-4.23-.83-8.46-.83s-6.26.58-8.3.82c-1.82.21-3.53.6-7.07.6-4.12,0-6.24-.33-8.26-.12-1.84.19-3.54.39-7.11.39-3.36,0-4.97.3-6.77-.03-2.03-.37-4.27-.77-8.6-.77s-6.63-.22-8.64.12c-1.82.31-3.34.71-6.73.71-3.58,0-5.32-.04-7.16-.21-2.02-.2-4.11-.08-8.22-.08s-6.52-.37-8.5-.1c-1.86.26-3.41.47-6.88.47s-5.06.07-6.93-.19c-1.98-.27-4.23-.14-8.45-.14-3.64,0-5.4-.56-7.27-.7-1.99-.15-4.06.28-8.1.28-4.3,0-6.57-.07-8.58.27-1.82.31-3.4.8-6.79.8s-5.24-.82-7.07-1.01c-2.03-.22-4.17.23-8.31.23s-5.93-.6-7.86-.55c-1.94.06-3.76.86-7.52.86s-5.81-.82-7.75-.8c-1.91.02-3.81.9-7.63.9-3.55,0-5.28-.48-7.11-.68-2.04-.22-4.13-.46-8.27-.46s-6.5.28-8.5.59c-1.84.28-3.45.24-6.88.24-3.61,0-5.34-.14-7.2-.31-2.01-.18-4.1-.5-8.19-.5s-6.59.37-8.59.69c-1.84.29-3.37.53-6.79.53-3.17,0-4.59.03-6.38-.42-2.11-.53-4.48-1.27-9-1.27-3.93,0-5.91.41-7.84.47-1.93.06-3.77-.2-7.53-.2s-5.62-.14-7.57-.18c-1.92-.04-3.9-.15-7.8-.15s-6.11.47-8.1.63c-1.87.15-3.64.2-7.27.2-4.14,0-6.22.49-8.26.71-1.82.2-3.57.13-7.12.13s-5.32-.61-7.17-.77c-2.01-.18-4.12.07-8.2.07s-5.93,0-7.87.05-3.75-.2-7.51-.2c-4.09,0-6.21.22-8.22.4-1.85.17-3.56.99-7.16.99-3.3,0-4.81-.7-6.59-1.05-2.05-.41-4.4-.59-8.78-.59-4.07,0-6.11.35-8.11.52-1.86.15-3.65.4-7.27.4-3.99,0-6.01-.06-7.97.05-1.9.1-3.71.32-7.41.32s-5.61-.33-7.55-.38c-1.93-.05-3.91-.06-7.83-.06-3.47,0-5.05-.6-6.91-.86-1.98-.27-4.25-.07-8.47-.07-4.47,0-6.93-.13-9.02.36-1.81.42-3.14,1.19-6.36,1.19s-4.65-.21-6.44-.65c-2.1-.51-4.44-1.16-8.93-1.16-4.02,0-6.06.01-8.04.14-1.89.12-3.67.02-7.35.02-4.26,0-6.54.39-8.53.7-1.85.28-3.41.24-6.85.24-8.11,0-14.21,2.32-19.09,6.46-4.38,3.71-8,7.97-11.07,11.8-.76.94-.25,1.35-1.01,2.29-2.7,3.36-4.9,4.83-7.7,5.45-.8-.47-1.71.11-2.7.11-.82,0-1.57-.55-2.27-.22-1.83-.5-3.67-.95-4.8-2.07-1.48-1.47-2.55-4.61-2.55-7.95,0-2.87,3.24-4.87,5.97-4.87,2.55,0,2.46.84,2.46,1.68,0,3,2.52,5.09,5.52,5.09s5.34-2.09,5.34-5.09c0-7.36-5.3-12.03-13.32-12.03-9.12,0-16.69,6.68-16.69,15.23,0,6.32,2.14,12.02,5.71,15.56,2.48,2.45,5.77,4.5,9.43,5.49.22,1.34,1.02,2.06,1.28,3.07.46,1.77.09,3.25.09,6.39,0,3.67.18,5.44.07,7.33-.12,1.96-.32,4-.32,7.99,0,3.46,1,8.99.75,10.85-.27,1.96-1.22,4.16-1.22,8.36s1.08,6.35,1.33,8.31c.23,1.79-.19,3.53-.19,7,0,3.28-.18,17.83-.55,19.6-.42,2.05-.65,4.4-.65,8.78,0,4.14,0,18.12.23,20.16.21,1.81.26,3.5.26,7.03,0,3.89.47,20.38.51,22.29.05,1.94-.13,3.77-.13,7.53,0,3.55-.05,5.28-.24,7.1-.21,2.02-.41,4.11-.41,8.21s-.28,6-.19,7.95c.05.98.67,7.63.7,14.34.03,6.26-.34,12.58-.34,14.36,0,4.11.56,6.18.77,8.2.19,1.83-.14,3.57-.14,7.12,0,4.05.55,21.41.71,23.39.15,1.86.62,13.43.62,17.05s-.27,5.09-.54,6.93c-.29,1.98-.56,15.32-.56,19.54s.07,6.14.26,8.14c.17,1.84-.71-.29-.71,3.28,0,3.93.13,5.93.21,7.86.07,1.92-.43,3.73-.43,7.46,0,3.36-.12,4.86-.44,6.67-.17.95-.1,1.9-.24,3.15-3.97.84-7.1,2.99-9.61,5.48-4.22,4.18-4.2,9.91-4.2,15.23,0,9.37,6.34,16.97,14.84,16.97,7.57,0,12.82-5.57,12.82-13.78,0-3-2.78-5.39-5.78-5.39s-5.85,2.39-5.85,5.39c0,2.66-.18,2.44-1.19,2.44-2.69,0-4.25-2.75-4.25-5.63s.14-6.63,1.14-7.63c1.16-1.15,3-1.78,5.31-2.13.62.24,1.27-.08,1.97-.08.77,0,1.52-.49,2.19-.78,3.66.41,6.7,2.42,9.26,5.6.99,1.23,1.9,2.6,2.9,4.01,2.22,3.13,4.72,6.68,8.25,9.67,3.63,3.08,9.08,7.43,18.45,7.43,4.34,0,6.7.19,8.73-.19,1.8-.33,3.31-.62,6.66-.62s5.1-.09,6.97.16c1.97.26,4.2.12,8.41.12,3.5,0,5.18.91,6.98,1.14,1.96.25,4.21.04,8.39.04,3.91,0,5.9.04,7.82,0,1.94-.05,3.78-.29,7.56-.29,4.27,0,6.58.28,8.58-.03,1.84-.29,3.38-.81,6.79-.81,3.92,0,5.93.38,7.86.33,1.94-.06,3.75-.98,7.52-.98s5.84.6,7.78.56c1.9-.03,3.8-.11,7.6-.11s5.6-.52,7.53-.45c1.93.06,3.92.09,7.85.09,3.34,0,4.97.3,6.77.64,2.03.38,4.26,1.13,8.61,1.13s6.46-.51,8.45-.81c1.85-.28,3.49-.35,6.93-.35,3.94,0,5.93-.22,7.86-.29,1.93-.07,3.76.45,7.51.45s5.43-.26,7.3-.13c1.98.14,4.03.71,8.07.71s5.83-.5,7.78-.53c1.9-.03,3.8.04,7.6.04s5.69.21,7.58.24c1.95.04,3.9-.06,7.79-.06,4.16,0,6.28-.27,8.33-.52,1.81-.22,3.52-.1,7.05-.1,3.27,0,4.88-.44,6.64-.06,2.06.44,4.31,1.86,8.73,1.86s6.58-1.25,8.61-1.62c1.8-.33,3.42.01,6.77.01,3.58,0,5.28.32,7.12.5,2.02.2,4.15-.27,8.26-.27s5.97.56,7.91.49c1.93-.07,3.73-.17,7.48-.17,3.55,0,5.32-.61,7.15-.42,2.03.22,4.09,1.11,8.23,1.11,3.79,0,5.63-.56,7.58-.51,1.92.04,3.9.19,7.8.19,4.3,0,6.6,0,8.61-.34,1.82-.31,3.37-1.01,6.77-1.01,3.96,0,5.96.08,7.91,0,1.92-.08,3.74-.32,7.47-.32s5.89.54,7.8.5c1.95-.04,3.79-.68,7.58-.68,3.26,0,4.81.55,6.56.93,2.07.45,4.39,1.17,8.81,1.17,3.79,0,5.64-.5,7.58-.46,1.92.04,3.89.1,7.79.1s6.05.7,8.01.59c1.9-.1,3.67-.34,7.37-.34s5.8-.1,7.73-.11c1.91-.01,3.82.23,7.64.23s5.57-.38,7.49-.31c1.94.07,3.94-.28,7.88-.28,4.43,0,6.8.07,8.87-.38,1.76-.38,3.24-1.08,6.5-1.08s4.46.82,6.22,1.29c2.12.57,4.59.52,9.15.52s6.81-.5,8.92-1.03c1.78-.45,3.28-.72,6.46-.72,3.36,0,4.92.56,6.72.89,2.03.37,4.32.39,8.65.39s6.42.35,8.38.11c1.81-.22,3.49-1.14,7-1.14,7.91,0,14.15-1.28,19.21-5.57,3.58-3.03,6.13-6.82,8.45-10.03.98-1.35,1.58-2.9,2.53-4.08,2.36-2.92,5.13-4.74,10.47-4.74,2.78,0,4.46,1.24,6.28,3.05,1.41,1.4,2.27,2.7,2.27,6.23,0,1.78-.15,4.2-4,4.2-1.34,0-2.09-.11-2.34-.21-.03-.12-.08-.47-.08-.8,0-3-2.3-5.47-5.3-5.47s-5.82,2.47-5.82,5.47c0,8.71,7.18,11.44,13.53,11.44,8.92,0,14.79-5.79,14.79-14.63,0-5.98-1.55-10.34-5.3-14.06-2.4-2.38-5.14-3.9-8.18-4.79ZM616.79,373.29c-1.13,1.4-2.66,2.48-3.68,3.88-2.16,2.97-4.06,5.84-6.64,8.03-2.04,1.73-5.16,3.63-11.91,3.63-4.17,0-6.44.04-8.4.27-1.81.22-3.46.69-6.98.69s-4.95.04-6.75-.28c-2.03-.37-4.29-.67-8.62-.67s-6.78.8-8.89,1.33c-1.78.45-3.31.46-6.49.46s-4.57-.34-6.33-.81c-2.12-.57-4.49-1.17-9.04-1.17s-6.75.4-8.82.85c-1.76.38-3.3.6-6.56.6-3.75,0-5.58.21-7.5.14-1.94-.07-3.93-.3-7.87-.3s-5.8,0-7.73.02c-1.91.01-3.82-.13-7.64-.13s-6,.63-7.96.73c-1.9.1-3.72-.59-7.41-.59s-5.64.76-7.58.72c-1.92-.04-3.89-.84-7.79-.84-3.26,0-4.83.23-6.59-.15-2.07-.45-4.36-.88-8.79-.88-3.9,0-5.88-.48-7.8-.44-1.95.04-3.79.7-7.58.7s-5.97-.34-7.91-.26c-1.92.08-3.73-.27-7.47-.27-4.3,0-6.58.76-8.59,1.1-1.82.31-3.39.61-6.78.61-3.79,0-5.63.24-7.58.2-1.92-.04-3.9-.19-7.8-.19-3.55,0-5.25-.65-7.07-.84-2.03-.22-4.17-.46-8.3-.46s-5.96.18-7.9.25c-1.93.07-3.74.26-7.48.26s-5.36.3-7.21.12c-2.02-.2-4.07-.43-8.18-.43-4.34,0-6.71-.33-8.74.04-1.8.33-3.29,1.39-6.64,1.39s-4.87-.36-6.63-.73c-2.06-.44-4.33-1.04-8.74-1.04-4.16,0-6.32-.32-8.36-.08-1.81.22-3.49.53-7.01.53-3.79,0-5.68-.21-7.58-.25-1.95-.04-3.9-.11-7.79-.11s-5.83.37-7.78.4c-1.9.03-3.8-.17-7.59-.17s-5.42.21-7.3.08c-1.99-.14-4.04-.1-8.07-.1s-5.95-.47-7.89-.4c-1.93.07-3.74.16-7.49.16-4.25,0-6.46.92-8.45,1.21-1.85.28-3.49.52-6.93.52s-4.83-.89-6.63-1.23c-2.03-.38-4.4-.68-8.74-.68-3.76,0-5.58.08-7.52.02-1.93-.06-3.93.19-7.86.19s-5.84-.66-7.78-.63c-1.9.03-3.79.05-7.59.05s-5.92.34-7.85.4c-1.94.06-3.76.55-7.53.55-4.27,0-6.56-.07-8.56.25-1.84.29-3.4,1.13-6.82,1.13-3.91,0-5.9-.4-7.82-.35-1.94.05-3.78.32-7.56.32-3.5,0-5.16-.84-6.96-1.07-1.96-.25-4.23.14-8.41.14-3.48,0-5.05-.87-6.92-1.12-1.97-.26-4.26.19-8.47.19s-6.73-.4-8.76-.03c-1.8.33-3.28,1.48-6.63,1.48-5.01,0-7.87-2.36-11.54-5.47-2.49-2.11-4.43-4.83-6.46-7.7-1.05-1.48-2.09-3.05-3.29-4.54-3.83-4.75-8.41-7.97-13.88-9.13.07-.43.29-.6.36-1.03.35-2.01.9-4.33.9-8.64,0-3.93-.08-5.95-.16-7.88-.07-1.92-.14-3.72-.14-7.44,0-4.09.25-2.27.06-4.28-.17-1.84-.2-3.58-.2-7.15s-.12-16.22.15-18.07c.29-1.98.93-4.18.93-8.4s-.06-15.94-.22-17.92c-.15-1.86-.23-18.9-.23-22.52,0-4.11-.53-6.19-.74-8.21-.19-1.83-.29-3.56-.29-7.11,0-1.91-.28-8.29-.31-14.63-.04-6.84.18-13.62.13-14.63-.09-1.9.28-3.69.28-7.39s-.26-5.27-.07-7.1c.21-2.02.5-4.11.5-8.22,0-3.89.28-5.89.23-7.8-.05-1.94-.12-18.26-.12-22.02,0-4.14-.91-6.21-1.14-8.25-.21-1.81-.01-15.41-.01-18.93,0-3.28.02-4.84.38-6.6.42-2.05.71-17.4.71-21.78s-.38-6.34-.63-8.3c-.23-1.79-.29-3.54-.29-7.01s.1-5.12.36-6.98c.27-1.96.01-8.03.01-12.22,0-3.67.06-5.46.18-7.34.12-1.96.62-3.98.62-7.97,0-4.52-1.13-6.84-1.68-8.95-.05-.21.3-.09.25-.29,6.03-1.7,9.51-6.6,12.3-10.08.76-.95.66-1.03,1.42-1.98,2.9-3.62,5.98-7.33,9.56-10.37,2.03-1.72,5.11-3.39,12.08-3.39,4.26,0,6.55-.14,8.54-.44,1.85-.28,3.41-.57,6.84-.57,4.02,0,6.09.15,8.07.03,1.89-.12,3.64-.61,7.32-.61,3.19,0,4.55.5,6.34.93,2.1.51,4.54.45,9.03.45s6.93.24,9.02-.25c1.81-.42,3.15-1.61,6.37-1.61,3.47,0,5.04.96,6.9,1.22,1.98.27,4.25.11,8.47.11,3.77,0,5.61-.03,7.55.02,1.93.05,3.91.16,7.82.16s6.03.21,7.99.1c1.9-.1,3.69-.63,7.39-.63,4.07,0,6.13.08,8.13-.09,1.86-.15,3.63-.49,7.25-.49,3.3,0,4.81.73,6.59,1.08,2.05.41,4.4.81,8.79.81,4.09,0,6.2.05,8.21-.13,1.85-.17,3.57-1.02,7.17-1.02,3.93,0,5.94.68,7.87.61s3.75-.41,7.5-.41,5.34.24,7.2.4c2.01.18,4.09-.03,8.17-.03s6.3.41,8.33.19c1.82-.2,3.5-1.18,7.04-1.18,4.05,0,6.14.49,8.13.33,1.87-.15,3.61-.41,7.25-.41s5.63-.21,7.58-.17c1.92.04,3.9.32,7.8.32s5.93.08,7.86.02c1.93-.06,3.75-.53,7.51-.53,3.17,0,4.56.57,6.34,1.02,2.11.53,4.52,1.01,9.04,1.01,4.27,0,6.53-.37,8.53-.69,1.84-.29,3.43-.16,6.85-.16,3.61,0,5.38-.42,7.23-.25,2.01.18,4.07.75,8.15.75s6.49-.69,8.48-.99c1.84-.28,3.46-.02,6.9-.02s5.28-.19,7.1,0c2.04.23,4.14.13,8.28.13,3.87,0,5.8.01,7.74,0,1.91-.02,3.82-.08,7.64-.08s5.91.06,7.84,0c1.94-.06,3.77.11,7.54.11,3.56,0,5.3.13,7.13.32,2.03.22,4.12,1.01,8.25,1.01s6.62-.54,8.64-.87c1.82-.31,3.35-.74,6.74-.74,3.64,0,5.44-.42,7.31-.28,1.99.15,4.01.41,8.06.41,3.47,0,5.04.81,6.91,1.07,1.98.27,4.25.67,8.47.67s6.46-.7,8.44-.98c1.86-.26,3.48-.02,6.94-.02s5.3-.03,7.14.15c2.02.2,4.13.23,8.24.23s6.62-.17,8.63-.5c1.82-.31,3.35-.44,6.74-.44s4.93-.19,6.74.14c2.03.37,4.31.46,8.64.46s6.2.05,8.22-.15c1.84-.19,3.58-.31,7.15-.31,4.15,0,6.26-.22,8.3-.45,1.82-.21,3.54-.69,7.07-.69s5.03.84,6.89,1.1c1.98.28,4.26.59,8.48.59,5.67,0,9.76.82,12.49,3.13,1.89,1.6,3.67,3.93,5.14,6.6,1.2,2.19,1.85,4.82,3.51,6.88,3.52,4.37,8.44,6.7,14.11,7.73-.02,1.08.03,2.21,0,3.13-.05,1.92.09,3.9.09,7.8s-.48,6.13-.32,8.12c.15,1.86.56,3.59.56,7.2s.2,9.06-.01,10.87c-.24,2.03.39,4.19.39,8.33s-.54,5.97-.45,7.91c.09,1.91.21,3.7.21,7.4s.49,18.58.4,20.48c-.09,1.95-.16,3.94-.16,7.9,0,3.64-.13,17.31-.26,19.18-.13,1.97-.6,3.99-.6,8s.38,20.65.57,22.66c.18,1.83.18,3.59.18,7.16,0,4.26.51,6.49.84,8.48.29,1.82-.03,3.44-.03,6.83,0,3.72.32,5.54.24,7.45-.04,1-.49,7.77-.52,14.59-.03,6.33.42,12.71.42,14.6,0,3.29-.41,4.83-.76,6.6-.41,2.04-1.04,4.36-1.04,8.72,0,4.07.32,21.45.5,23.45.17,1.84.34,13.4.34,16.99,0,4.06-.15,6.15.02,8.15.16,1.85,1.07,14.72,1.07,18.32s-.92,3.43-1.09,5.27c-.18,2.01-.6,2.74-.56,6.15.05,3.96-.54,6-.44,7.95.09,1.9.03,3.68.03,7.38,0,4.05.83,6.08.99,8.07.07.91-.22,1.41-.17,2.5-5.59.95-9.67,4.28-13.47,8.99Z"/>
        <path d="M641.29,365.15c-.06-1.71-.16-2.96-.26-4.18-.15-1.86-.29-3.62-.29-7.24,0-3.96-.1-5.98-.19-7.93-.09-1.9-.52-3.71-.18-7.4.44-4.78.44-3.94.61-5.78.18-2.01.93-1.57.93-5.64s-.17-17.27-.34-19.27c-.16-1.85-.31-3.6-.31-7.2,0-4.07-.19-15.96-.37-17.96-.17-1.84-.32-18.89-.32-22.48,0-3.29.31-4.83.66-6.6.41-2.04.87-4.36.87-8.72,0-3.72.07-26.86.14-28.78.08-1.93.15-3.93.15-7.87,0-4.26-.37-6.53-.69-8.52-.29-1.82-.55-3.4-.55-6.79,0-4.09-.2-6.17-.4-8.18-.18-1.83-.35-18.07-.35-21.64s.12-5.41.25-7.29c.13-1.97.27-15.88.27-19.89,0-3.7.09-5.5.18-7.4.09-1.95.19-17.02.19-20.98s-.09-5.96-.18-7.9c-.09-1.91-.17-3.71-.17-7.41s.2-5.23.41-7.04c.24-2.03-.36-8.03-.36-12.17s-.17-6.1-.33-8.09c-.15-1.86-.29-3.61-.29-7.22s.05-5.58.1-7.51c.03-1.02.05-2.06.07-3.39,3.34-.89,6.35-2.63,8.98-5.24,3.71-3.67,5.43-8.24,5.43-14.36,0-9.22-6.68-16.45-15.21-16.45-7.72,0-13.11,5.45-13.11,13.26,0,3,2.43,5.43,5.43,5.43s5.43-2.43,5.43-5.43c0-2.4,1.15-2.4,2.26-2.4,2.83,0,4.36,2.88,4.36,5.6,0,3.69-.89,5.33-2.22,6.65-1.96,1.94-4.02,2.8-6.7,2.8-4.99,0-8.35-1.41-10.9-4.56-1.06-1.31-2.02-3.06-3.03-4.91-1.79-3.26-3.82-6.96-7.24-9.87-4.77-4.04-11.14-6-19.49-6-3.46,0-5.07-.23-6.93-.49-1.98-.28-4.22-.59-8.44-.59s-6.26.24-8.3.48c-1.82.21-3.53.41-7.07.41-4.12,0-6.21.21-8.23.42-1.84.19-3.57.36-7.14.36-3.36,0-4.92-.28-6.72-.61-2.03-.37-4.32-.78-8.65-.78s-6.57.38-8.59.72c-1.82.31-3.4.57-6.79.57-3.58,0-5.32-.17-7.16-.35-2.02-.2-4.11-.4-8.21-.4s-6.46.31-8.44.59c-1.86.26-3.47.49-6.94.49s-5.08-.22-6.95-.48c-1.98-.27-4.22-.58-8.43-.58-3.64,0-5.41-.13-7.28-.27-1.99-.15-4.05-.3-8.09-.3-4.3,0-6.58.38-8.59.72-1.82.31-3.4.57-6.79.57s-5.28-.18-7.11-.38c-2.03-.22-4.13-.44-8.26-.44s-5.92.06-7.84.11c-1.94.06-3.77.11-7.53.11s-5.81.02-7.74.04c-1.91.02-3.82.04-7.63.04-3.55,0-5.27-.19-7.09-.39-2.04-.22-4.14-.46-8.29-.46s-6.51.34-8.51.65c-1.84.28-3.44.52-6.87.52-3.61,0-5.36-.15-7.22-.32-2.01-.18-4.08-.36-8.17-.36s-6.54.36-8.54.67c-1.84.29-3.43.54-6.85.54-3.17,0-4.58-.35-6.37-.8-2.11-.53-4.49-1.13-9.01-1.13-3.93,0-5.92.06-7.85.12-1.93.06-3.76.12-7.52.12s-5.63-.04-7.57-.08c-1.92-.04-3.9-.08-7.8-.08s-6.12.16-8.11.31c-1.87.15-3.63.28-7.27.28-4.14,0-6.25.23-8.29.46-1.82.2-3.55.39-7.09.39s-5.36-.15-7.21-.32c-2.01-.18-4.08-.36-8.16-.36s-5.93.06-7.86.13-3.76.12-7.51.12c-4.09,0-6.17.19-8.18.37-1.85.17-3.6.33-7.2.33-3.3,0-4.84-.31-6.62-.67-2.05-.41-4.37-.88-8.76-.88-4.07,0-6.14.17-8.14.34-1.86.15-3.62.3-7.24.3-3.99,0-6.02.11-7.98.22-1.9.1-3.7.2-7.39.2s-5.61-.05-7.55-.1c-1.93-.05-3.92-.1-7.83-.1-3.47,0-5.08-.22-6.94-.48-1.98-.27-4.22-.59-8.43-.59-4.47,0-6.84.55-8.93,1.04-1.81.42-3.24.76-6.45.76s-4.61-.35-6.4-.78c-2.1-.51-4.48-1.09-8.97-1.09-4.02,0-6.06.13-8.04.26-1.89.12-3.67.23-7.35.23-4.26,0-6.51.34-8.51.64-1.85.28-3.44.52-6.88.52-8.11,0-14.16,1.92-19.03,6.06-4.38,3.71-7.86,8.06-10.94,11.89l-1.52,1.89c-2.7,3.36-4.56,5.48-7.36,6.1-.8-.47-1.72-.76-2.72-.76-.82,0-1.59.2-2.29.52-1.83-.5-3.51-1.37-4.63-2.49-1.48-1.47-2.4-4.46-2.4-7.8,0-2.87,2.95-4.64,5.68-4.64,2.55,0,2.55.61,2.55,1.45,0,3,2.43,5.43,5.43,5.43s5.43-2.43,5.43-5.43c0-7.36-5.39-12.3-13.4-12.3-9.12,0-16.54,6.95-16.54,15.49,0,6.32,2.05,11.97,5.62,15.51,2.48,2.45,5.88,4.28,9.55,5.27.22,1.34.5,2.43.76,3.44.46,1.77.82,3.16.82,6.3,0,3.67-.11,5.45-.22,7.33-.12,1.96-.24,3.99-.24,7.98,0,3.46.62,8.96.36,10.82-.27,1.96-.57,4.19-.57,8.38s.29,6.4.54,8.36c.23,1.79.45,3.48.45,6.96,0,3.28-.31,17.87-.67,19.63-.42,2.05-.9,4.37-.9,8.75,0,4.14.24,18.1.47,20.14.21,1.81.4,3.52.4,7.04,0,3.89.05,20.38.09,22.3.05,1.94.09,3.76.09,7.53,0,3.55-.18,5.27-.37,7.1-.21,2.02-.42,4.11-.42,8.22s.1,5.98.2,7.93c.09,1.9.18,25.02.18,28.72,0,4.11.22,6.2.42,8.22.19,1.83.37,3.55.37,7.1,0,4.05.17,21.41.33,23.4.15,1.86.29,13.43.29,17.04s-.23,5.04-.5,6.88c-.29,1.98-.61,15.37-.61,19.59s.2,6.16.39,8.17c.17,1.84-.49-.32-.49,3.25,0,3.93.08,5.93.15,7.87.07,1.92.14,3.73.14,7.46,0,3.36-.27,4.92-.59,6.72-.17.95-.34,1.96-.48,3.21-3.97.84-7.45,2.58-9.96,5.06-4.22,4.18-4.22,10.21-4.22,15.53,0,9.37,6.66,16.7,15.15,16.7,7.57,0,12.46-5.3,12.46-13.51,0-3-2.43-5.43-5.43-5.43s-5.43,2.43-5.43,5.43c0,2.66-.61,2.66-1.61,2.66-2.69,0-4.3-2.97-4.3-5.85s0-6.83,1-7.82c1.16-1.15,3.18-1.99,5.49-2.33.62.24,1.28.39,1.99.39.77,0,1.51-.17,2.18-.46,3.66.41,6.61,2.11,9.17,5.29.99,1.23,1.94,2.56,2.94,3.97,2.22,3.13,4.74,6.68,8.27,9.67,3.63,3.08,9.11,7.73,18.48,7.73,4.34,0,6.64-.42,8.68-.8,1.8-.33,3.36-.62,6.71-.62s5.1.22,6.97.47c1.97.26,4.21.56,8.42.56,3.5,0,5.21.21,7.01.44,1.96.25,4.18.53,8.36.53,3.91,0,5.9-.05,7.82-.1,1.94-.05,3.78-.09,7.56-.09,4.27,0,6.54-.36,8.53-.67,1.84-.29,3.42-.54,6.84-.54,3.92,0,5.92-.06,7.85-.12,1.94-.06,3.77-.11,7.53-.11s5.83-.03,7.78-.06c1.9-.03,3.8-.06,7.6-.06s5.59.06,7.52.12c1.93.06,3.93.12,7.86.12,3.34,0,4.89.29,6.69.63,2.03.38,4.34.81,8.69.81s6.5-.34,8.49-.63c1.85-.28,3.45-.51,6.89-.51,3.94,0,5.94-.07,7.87-.13,1.93-.07,3.75-.13,7.5-.13s5.42.13,7.3.26c1.98.14,4.04.29,8.07.29s5.83-.03,7.78-.07c1.9-.03,3.8-.06,7.6-.06s5.69.03,7.59.07c1.95.04,3.89.07,7.79.07,4.16,0,6.28-.25,8.33-.49,1.81-.22,3.53-.42,7.05-.42,3.27,0,4.79.32,6.55.7,2.06.44,4.4.94,8.82.94s6.64-.42,8.67-.8c1.8-.33,3.36-.62,6.71-.62,3.58,0,5.32.17,7.17.35,2.02.2,4.11.4,8.22.4s5.95-.08,7.89-.15c1.93-.07,3.75-.14,7.49-.14,3.55,0,5.28.19,7.1.38,2.03.22,4.14.45,8.27.45,3.79,0,5.63.04,7.57.08,1.92.04,3.9.08,7.81.08,4.3,0,6.57-.38,8.58-.72,1.82-.31,3.4-.57,6.79-.57,3.96,0,5.97-.08,7.91-.16,1.92-.08,3.73-.15,7.47-.15s5.88-.04,7.8-.08c1.95-.04,3.79-.08,7.58-.08,3.26,0,4.78.33,6.54.71,2.07.45,4.41.96,8.84.96,3.79,0,5.63.04,7.57.08,1.92.04,3.9.08,7.8.08s6.02-.11,7.99-.22c1.9-.1,3.69-.2,7.39-.2s5.8-.02,7.73-.03c1.91-.01,3.82-.03,7.64-.03s5.57.06,7.49.13c1.94.07,3.94.14,7.88.14,4.43,0,6.77-.51,8.84-.96,1.76-.38,3.27-.71,6.53-.71s4.52.37,6.29.84c2.12.57,4.53,1.21,9.09,1.21s6.9-.6,9.01-1.13c1.78-.45,3.19-.8,6.36-.8,3.36,0,4.91.28,6.72.61,2.03.37,4.32.78,8.65.78s6.39-.27,8.35-.51c1.81-.22,3.51-.43,7.03-.43,7.91,0,13.95-2,19.01-6.29,3.58-3.03,6.22-6.67,8.55-9.87.98-1.35,1.91-2.63,2.86-3.81,2.36-2.92,4.89-4.74,10.23-4.74,2.78,0,4.74.77,6.56,2.58,1.41,1.4,2.29,2.98,2.29,6.51,0,1.78-.45,4.15-4.29,4.15-1.34,0-1.99-.19-2.23-.29-.03-.12-.06-.34-.06-.67,0-3-2.43-5.43-5.43-5.43s-5.43,2.43-5.43,5.43c0,8.71,6.79,11.82,13.14,11.82,8.92,0,15.15-6.17,15.15-15.01,0-5.98-1.75-10.5-5.5-14.22-2.4-2.38-5.09-3.99-8.12-4.89ZM616.54,373.08c-1.13,1.4-2.18,2.85-3.2,4.25-2.16,2.97-4.2,5.78-6.78,7.97-2.04,1.73-5.25,3.71-12,3.71-4.17,0-6.39.27-8.35.51-1.81.22-3.51.43-7.03.43s-4.91-.28-6.72-.61c-2.03-.37-4.32-.78-8.65-.78s-6.9.6-9.01,1.13c-1.78.45-3.19.8-6.37.8s-4.52-.37-6.29-.84c-2.12-.57-4.53-1.21-9.09-1.21s-6.77.51-8.84.96c-1.76.38-3.27.71-6.53.71-3.75,0-5.57-.06-7.49-.13-1.94-.07-3.94-.14-7.88-.14s-5.8.02-7.73.03c-1.91.01-3.82.03-7.64.03s-6.03.11-7.99.22c-1.9.1-3.69.2-7.39.2s-5.63-.04-7.58-.08c-1.92-.04-3.9-.08-7.8-.08-3.26,0-4.78-.33-6.54-.71-2.07-.45-4.41-.96-8.84-.96-3.9,0-5.88.04-7.8.08-1.95.04-3.79.08-7.58.08s-5.97.08-7.91.16c-1.92.08-3.73.15-7.47.15-4.3,0-6.57.38-8.58.72-1.82.31-3.4.57-6.79.57-3.79,0-5.63-.04-7.57-.08-1.92-.04-3.9-.08-7.81-.08-3.55,0-5.28-.19-7.1-.38-2.03-.22-4.13-.45-8.27-.45s-5.96.08-7.9.15c-1.93.07-3.75.14-7.49.14s-5.32-.17-7.17-.35c-2.02-.2-4.11-.4-8.22-.4-4.34,0-6.64.42-8.67.8-1.8.33-3.36.62-6.71.62s-4.79-.32-6.55-.7c-2.06-.44-4.4-.94-8.82-.94-4.16,0-6.28.25-8.32.49-1.81.22-3.53.42-7.05.42-3.79,0-5.69-.03-7.59-.07-1.95-.04-3.89-.07-7.79-.07s-5.83.03-7.78.07c-1.9.03-3.8.06-7.6.06s-5.42-.13-7.3-.26c-1.99-.14-4.04-.29-8.07-.29s-5.94.07-7.87.14c-1.93.07-3.75.13-7.5.13-4.25,0-6.5.34-8.49.63-1.85.28-3.45.51-6.89.51s-4.89-.29-6.69-.63c-2.03-.38-4.34-.81-8.69-.81-3.76,0-5.58-.06-7.52-.12-1.93-.06-3.93-.12-7.86-.12s-5.83.03-7.78.06c-1.9.03-3.8.06-7.6.06s-5.92.06-7.85.12c-1.94.06-3.77.11-7.53.11-4.27,0-6.54.36-8.54.67-1.84.29-3.42.54-6.84.54-3.91,0-5.9.05-7.82.1-1.94.05-3.78.09-7.56.09-3.5,0-5.21-.21-7.01-.44-1.96-.25-4.18-.53-8.36-.53-3.48,0-5.1-.22-6.97-.47-1.97-.26-4.21-.56-8.42-.56s-6.64.42-8.68.8c-1.8.33-3.36.62-6.71.62-5.01,0-7.79-2.04-11.46-5.15-2.49-2.11-4.41-4.81-6.44-7.68-1.05-1.48-2.14-3.02-3.34-4.5-3.83-4.75-8.52-7.72-13.99-8.87.07-.43.14-.85.22-1.29.35-2.01.76-4.3.76-8.6,0-3.93-.08-5.94-.15-7.87-.07-1.92-.14-3.73-.14-7.46,0-4.09.64-2.27.45-4.28-.17-1.84-.34-3.57-.34-7.14s.23-16.19.5-18.03c.29-1.98.61-4.22.61-8.44s-.17-15.92-.33-17.91c-.15-1.86-.29-18.92-.29-22.53,0-4.11-.22-6.2-.42-8.22-.19-1.83-.37-3.55-.37-7.1,0-3.96-.1-27.3-.2-29.25-.09-1.9-.18-3.7-.18-7.39s.18-5.27.37-7.1c.21-2.02.42-4.11.42-8.22,0-3.89-.05-5.88-.09-7.79-.05-1.94-.09-18.27-.09-22.03,0-4.14-.24-6.24-.47-8.28-.21-1.81-.4-15.38-.4-18.91,0-3.28.31-4.8.67-6.57.42-2.05.9-17.43.9-21.81s-.29-6.4-.54-8.36c-.23-1.79-.45-3.48-.45-6.95s.22-5.07.47-6.93c.27-1.96-.27-8.08-.27-12.28,0-3.67.11-5.45.22-7.33.12-1.96.24-3.99.24-7.98,0-4.52-.62-6.91-1.17-9.02-.05-.21-.1-.4-.15-.6,6.03-1.7,9.66-6.19,12.45-9.67l1.52-1.89c2.9-3.62,5.91-7.36,9.49-10.4,2.03-1.72,5.05-3.48,12.02-3.48,4.26,0,6.51-.34,8.51-.64,1.85-.28,3.44-.52,6.88-.52,4.02,0,6.06-.13,8.04-.26,1.89-.12,3.67-.23,7.35-.23,3.19,0,4.61.35,6.4.78,2.1.51,4.48,1.09,8.97,1.09s6.84-.55,8.92-1.04c1.81-.42,3.24-.76,6.46-.76,3.47,0,5.08.22,6.94.48,1.98.27,4.22.59,8.44.59,3.77,0,5.61.05,7.55.1,1.93.05,3.92.1,7.83.1s6.02-.11,7.98-.22c1.9-.1,3.7-.2,7.39-.2,4.07,0,6.14-.17,8.14-.34,1.86-.15,3.62-.3,7.24-.3,3.3,0,4.84.31,6.62.67,2.05.41,4.37.88,8.76.88,4.09,0,6.17-.19,8.18-.37,1.85-.17,3.6-.33,7.2-.33,3.93,0,5.93-.06,7.86-.13s3.76-.12,7.51-.12,5.36.15,7.21.32c2.01.18,4.08.36,8.16.36s6.25-.23,8.29-.46c1.82-.2,3.55-.39,7.09-.39,4.05,0,6.11-.16,8.11-.31,1.87-.15,3.63-.28,7.27-.28s5.63.04,7.57.08c1.92.04,3.9.08,7.8.08s5.92-.06,7.85-.12c1.93-.06,3.76-.12,7.52-.12,3.17,0,4.58.35,6.37.8,2.11.53,4.49,1.13,9.01,1.13,4.27,0,6.54-.36,8.54-.67,1.84-.29,3.43-.54,6.85-.54,3.61,0,5.36.15,7.22.32,2.01.18,4.08.36,8.17.36s6.51-.34,8.51-.65c1.84-.28,3.44-.52,6.87-.52s5.27.19,7.09.39c2.04.23,4.14.46,8.29.46,3.87,0,5.81-.02,7.74-.04,1.91-.02,3.82-.04,7.63-.04s5.92-.06,7.85-.11c1.94-.06,3.77-.11,7.53-.11,3.56,0,5.28.18,7.11.38,2.03.22,4.13.44,8.26.44s6.57-.38,8.58-.72c1.82-.31,3.4-.57,6.79-.57,3.64,0,5.41.13,7.28.27,1.99.15,4.05.3,8.1.3,3.47,0,5.08.22,6.94.48,1.98.27,4.22.58,8.43.58s6.46-.31,8.44-.59c1.86-.26,3.47-.49,6.94-.49s5.32.17,7.16.35c2.02.2,4.11.4,8.21.4s6.58-.38,8.59-.72c1.82-.31,3.4-.57,6.79-.57s4.92.28,6.72.61c2.03.37,4.32.78,8.65.78s6.21-.21,8.23-.42c1.84-.19,3.57-.36,7.14-.36,4.15,0,6.26-.24,8.3-.48,1.82-.21,3.53-.41,7.06-.41s5.07.23,6.93.49c1.98.28,4.22.59,8.44.59,5.67,0,9.75,1.12,12.47,3.43,1.89,1.6,3.28,4.13,4.74,6.8,1.2,2.19,2.44,4.45,4.1,6.51,3.52,4.37,8.17,7.08,13.84,8.11-.02,1.08-.04,1.97-.07,2.88-.05,1.92-.1,3.9-.1,7.8s.17,6.11.33,8.1c.15,1.86.29,3.61.29,7.22s.64,9.12.43,10.93c-.24,2.03-.48,4.14-.48,8.28s.09,5.96.18,7.9c.09,1.91.17,3.71.17,7.41s-.09,18.56-.18,20.46c-.09,1.95-.19,3.96-.19,7.92,0,3.64-.12,17.28-.25,19.15-.13,1.97-.27,4.01-.27,8.03s.2,20.68.4,22.69c.18,1.83.35,3.57.35,7.13,0,4.26.37,6.53.69,8.52.29,1.82.55,3.4.55,6.79,0,3.72-.07,5.53-.14,7.45-.08,1.93-.15,25.26-.15,29.2,0,3.29-.31,4.82-.66,6.6-.41,2.04-.87,4.36-.87,8.72,0,4.07.19,21.45.37,23.45.17,1.84.32,13.4.32,16.99,0,4.06.17,6.12.34,8.12.16,1.85.31,14.75.31,18.35s.01,3.48-.16,5.32c-.18,2.01-1.43,2.7-1.38,6.11.05,3.96.1,5.98.19,7.93.09,1.9.18,3.7.18,7.4,0,4.05.16,6.1.32,8.09.07.91.14,1.79.19,2.88-5.59.95-10.08,3.67-13.88,8.38Z"/>
      </g>
    </g>
  </g>
</svg>