<svg width="249" height="32" viewBox="0 0 249 32" fill="none" xmlns="http://www.w3.org/2000/svg">
<path d="M21.7799 29.412V29.448C21.7799 30.06 21.2039 30.42 20.6999 30.42C20.2319 30.42 19.7999 30.132 19.7999 29.556V29.52L20.0159 22.032H19.9079C18.7559 22.032 17.4959 22.212 16.3799 22.356H16.3439C15.8399 22.356 15.0479 21.384 14.7599 20.772C13.3559 22.068 11.7359 23.292 9.86387 24.444L9.57587 24.552L9.43187 29.232C9.39587 29.916 8.71187 30.384 8.13587 30.384C7.70387 30.384 7.30787 30.096 7.30787 29.484V29.304C7.66787 26.028 8.27987 15.048 8.27987 10.584V10.224C8.24387 9.97202 8.24387 9.72002 8.24387 9.50402C3.81587 15.372 0.971871 16.956 0.683871 16.956C0.323871 16.956 -0.000128902 16.632 -0.000128902 16.308C-0.000128902 16.2 0.0718711 16.092 0.179871 15.984C4.49987 12.6 9.79187 5.07602 11.0519 1.33202C11.0879 1.11602 11.1239 1.00802 11.2319 1.00802C11.8799 1.00802 14.1479 2.44802 14.1479 3.13202C14.1479 3.45602 13.7159 3.63602 13.0679 3.63602H12.7439C12.3839 3.63602 12.2399 3.92402 12.0239 4.24802C11.2319 5.36402 10.4399 6.55202 9.57587 7.74002C10.4759 7.95602 11.1239 8.38802 11.1239 8.56802C11.1239 8.74802 10.9439 8.92802 10.4039 9.18002C10.0799 9.32402 10.0079 9.50402 10.0079 9.82802C9.86387 12.096 9.71987 18.036 9.61187 23.004C14.4719 19.548 17.6759 15.192 20.1959 10.764V10.62H20.0879C18.6479 10.62 16.1279 10.62 13.4639 11.16C12.8159 11.304 11.3759 9.46802 11.3759 9.03602C11.3759 8.92802 11.4479 8.85602 11.5919 8.85602H11.6279C15.5519 9.21602 17.7479 9.28802 20.1959 9.32402C20.1239 6.04802 20.0519 3.27602 19.7639 1.36802V1.18802C19.7639 0.936022 19.8359 0.864022 20.0879 0.864022C20.6639 0.864022 23.2919 1.33202 23.2919 2.05202C23.2919 2.34002 22.9679 2.66402 22.2479 2.98802C21.7799 3.16802 21.7439 3.24002 21.6359 9.32402L25.8119 9.28802C26.2079 9.28802 26.5679 9.18002 26.8199 8.78402C28.1519 6.94802 28.4759 6.91202 28.6919 6.91202C29.4119 6.91202 31.6799 8.92802 31.6799 10.008C31.6799 10.368 31.4279 10.62 30.7799 10.62H21.6359V11.016C23.9759 14.976 28.5839 19.692 34.9199 21.744C35.0639 21.816 35.1359 21.996 35.1359 22.176C35.1359 22.5 34.9559 22.896 34.6679 22.896C34.3439 22.896 32.7239 22.896 31.8239 23.508C31.7519 23.58 31.6439 23.58 31.5719 23.58C30.7439 23.58 24.8039 18.612 21.5999 13.212C21.5999 15.66 21.5999 18.18 21.6359 20.736H22.1759C22.7159 20.736 22.9319 20.592 23.2199 20.196C23.5439 19.728 23.6879 19.44 23.9759 19.224C24.1559 19.044 24.2999 18.972 24.4439 18.972C25.0559 18.972 26.7839 20.556 26.7839 21.528C26.7839 21.816 26.5679 22.032 25.9559 22.032H21.6359L21.7799 29.412ZM19.6919 20.736H20.0519C20.0879 18.468 20.1599 16.164 20.1599 13.896C18.8999 16.164 17.3159 18.36 15.1919 20.376C16.3799 20.556 18.2519 20.736 19.6919 20.736ZM69.2639 25.272V25.452C69.2639 25.992 69.4079 26.424 69.9119 26.676C70.4519 26.964 70.7759 27.036 70.7759 27.54C70.7759 29.304 66.2039 29.592 64.1879 29.592C62.1359 29.592 60.1199 29.448 60.1199 26.892V26.82C60.1559 25.2 60.2999 22.212 60.2999 20.088C60.2999 19.368 60.2639 18.72 60.2279 18.288H55.3679L55.4039 20.016C55.4039 20.628 54.7919 20.988 54.2159 20.988C53.7479 20.988 53.3519 20.772 53.3519 20.196V20.088C53.6039 17.748 53.7119 14.076 53.7119 10.512C53.7119 7.09202 53.6039 3.60002 53.3159 1.51202V1.36802C53.3159 1.26002 53.3159 1.18802 53.4599 1.18802C53.9639 1.18802 55.5839 2.08802 56.1239 2.44802H62.3519C62.8559 2.44802 62.9279 2.30402 63.2159 1.98002C63.4319 1.72802 63.6479 1.47602 63.9719 1.47602C64.5479 1.47602 66.2759 2.73602 66.2759 3.24002C66.2759 3.52802 66.0239 3.81602 65.3759 4.10402C64.9799 4.32002 64.7999 4.42802 64.7999 9.43202C64.7999 13.14 65.0159 16.848 65.1239 19.548C65.1239 19.8 64.9439 20.448 63.9359 20.448C63.5039 20.448 63.1439 20.232 63.1439 19.764V19.692C63.1439 19.332 63.1799 18.864 63.1799 18.288H62.7479C62.7479 18.468 62.6759 18.612 62.4239 18.72C62.1359 18.864 62.0999 18.972 62.0639 19.332C61.9199 20.808 61.8119 23.292 61.8119 25.164C61.8119 27.936 61.9919 27.936 64.2239 27.936C64.9439 27.936 65.8079 27.9 66.3119 27.828C67.6079 27.576 67.6799 26.712 68.1119 22.14C68.1479 21.816 68.4359 21.672 68.7599 21.672C69.0839 21.672 69.4079 21.852 69.4079 22.176V22.212C69.3719 22.608 69.2639 24.984 69.2639 25.272ZM50.3999 12.888H46.8719C46.8719 15.192 46.8719 17.532 46.9079 19.908C48.8879 19.188 50.7959 18.468 52.1279 17.892C52.1999 17.856 52.2359 17.856 52.2719 17.856C52.5959 17.856 52.8119 18.216 52.8119 18.504C52.8119 18.684 52.7399 18.864 52.5599 18.972C49.6799 20.556 43.8119 22.932 41.1479 23.94C40.8599 24.048 40.7879 25.02 40.3559 25.02C39.7799 25.02 38.3399 22.68 38.3399 22.392C38.3399 22.284 38.4119 22.248 38.5559 22.212C39.8879 22.068 41.3999 21.816 45.1799 20.52C45.2519 18.432 45.2519 15.624 45.2879 12.888C44.3519 12.96 43.3079 13.14 42.4439 13.248C41.9039 13.32 40.7519 12.06 40.7519 11.34C40.7519 11.268 40.7879 11.196 40.8959 11.196H40.9319C42.1199 11.376 43.6319 11.664 45.1079 11.664H45.2879C45.2879 9.82802 45.2519 8.06402 45.2159 6.66002L45.1079 4.82402C43.8839 4.86002 42.0479 5.04002 41.1479 5.18402C40.6079 5.25602 39.4919 3.85202 39.4919 3.27602C39.4919 3.16802 39.5639 3.09602 39.6719 3.09602H39.7079C40.9319 3.27602 43.5239 3.56402 45.0719 3.56402H47.0519C47.6279 3.56402 47.8439 3.38402 48.1319 3.02402C49.2119 1.69202 49.4279 1.62002 49.6079 1.62002C50.2919 1.62002 51.9479 3.31202 51.9479 4.24802C51.9479 4.57202 51.7319 4.78802 51.1199 4.78802H47.5199C47.6999 4.86002 47.8439 5.00402 47.8439 5.14802C47.8439 5.29202 47.7359 5.43602 47.4119 5.65202C47.1959 5.79602 46.9439 5.97602 46.9439 6.69602C46.9079 8.38802 46.8719 10.044 46.8719 11.664C47.4119 11.664 47.4479 11.484 47.7359 11.088C47.9879 10.728 48.3119 10.26 48.5639 10.044C48.7079 9.86402 48.8519 9.79202 48.9959 9.79202C49.7519 9.79202 51.1559 11.7 51.1559 12.348C51.1559 12.672 50.9399 12.888 50.3999 12.888ZM57.9599 21.852C54.3959 30.312 40.7519 30.672 40.4999 30.672C40.1399 30.672 39.8879 30.24 39.8879 29.844C39.8879 29.592 39.9959 29.376 40.2839 29.34C49.5719 28.692 54.2159 25.236 55.9799 21.78C56.5199 20.772 56.5199 20.376 56.7359 19.332C56.7719 19.152 56.8079 18.9 57.1319 18.9C57.2759 18.9 59.7959 19.62 59.7959 20.34C59.7959 20.556 59.5079 20.772 59.0039 20.952C58.4999 21.096 58.3559 20.988 57.9599 21.852ZM63.2519 13.32H55.3319C55.3319 14.508 55.3679 15.732 55.3679 16.956H63.2159C63.2159 15.876 63.2159 14.616 63.2519 13.32ZM62.6759 3.78002H55.8359L55.6919 3.88802C55.3679 4.17602 55.2959 4.39202 55.2959 4.68002V7.20002H63.2519C63.2159 5.90402 63.2159 4.89602 63.2159 4.32002C63.2159 4.10402 63.1799 3.78002 62.6759 3.78002ZM63.2519 11.916V8.56802H55.2959C55.2959 9.68402 55.3319 10.8 55.3319 11.916H63.2519ZM98.4599 24.84V25.02C98.4599 26.928 96.2999 27.756 95.2919 27.756C95.1479 27.756 95.0039 27.684 94.8959 27.504C94.4639 26.856 93.4199 26.712 92.4839 26.532C92.2679 26.496 92.1959 26.28 92.1959 26.028C92.1959 25.704 92.3759 25.308 92.5919 25.308H92.6279C93.7439 25.416 94.6439 25.632 95.3279 25.632C96.5879 25.632 96.6239 25.2 96.6239 22.464C96.6239 21.528 96.5879 20.628 96.5519 19.872C96.5159 19.656 96.4799 19.368 95.9759 19.368H90.3959C90.3599 20.628 90.3599 22.104 90.3599 23.688C90.3599 25.596 90.3599 27.612 90.4319 29.448C90.4319 29.484 90.3239 30.564 89.2079 30.564C88.7759 30.564 88.3799 30.312 88.3799 29.736V29.664C88.5599 26.676 88.6679 22.428 88.6679 19.368H83.4119C83.3759 19.404 83.3399 19.44 83.3039 19.44C82.7999 19.836 82.7639 20.232 82.7639 24.732C82.7639 25.488 82.7639 26.316 82.7999 27.18C82.8359 28.008 81.9359 28.152 81.5759 28.152C81.1079 28.152 80.7119 27.936 80.7119 27.396V27.252C80.9639 25.128 81.1079 23.22 81.1079 21.384C81.1079 19.908 80.9999 18.504 80.8559 17.028C80.8559 16.74 80.9639 16.74 80.9639 16.74C81.3959 16.74 83.5199 17.892 83.7359 18.036H88.6679V17.352C88.6319 16.632 88.5599 16.056 88.4879 15.408C88.4879 15.3 88.4519 15.228 88.4519 15.156C88.4519 14.904 88.5599 14.832 88.8119 14.832C89.3519 14.832 91.4039 15.156 91.4039 15.696C91.4039 15.948 91.1879 16.2 90.8279 16.38C90.5039 16.488 90.4679 16.776 90.4319 17.424V18.036H95.6519C96.2999 18.036 96.2639 17.748 96.6599 17.388C96.8759 17.172 96.9839 17.028 97.1999 17.028C97.8119 17.028 99.7199 18.18 99.7199 18.792C99.7199 19.08 99.4319 19.404 98.7839 19.692C98.4599 19.836 98.2799 19.944 98.2799 21.564C98.2799 22.644 98.3519 24.012 98.4599 24.84ZM99.5039 13.824H79.5959C78.7679 17.1 76.6799 18.468 75.8519 18.468C75.2399 18.468 74.8439 17.964 74.8439 17.388C74.8439 16.848 75.1319 16.236 75.8879 15.768C77.5079 14.76 78.3719 12.816 78.5159 10.584C78.5159 10.332 78.8039 10.26 79.1279 10.26C79.5239 10.26 79.9919 10.404 79.9919 10.692V10.728C79.9919 11.268 79.9559 11.844 79.8839 12.384H90.6839C92.5199 9.07202 92.8799 8.06402 93.1319 6.80402C93.1679 6.66002 93.2039 6.55202 93.3479 6.55202C93.7799 6.55202 96.1559 7.63202 96.1559 8.28002C96.1559 8.49602 95.9399 8.71202 95.2559 8.78402C94.7879 8.82002 94.6079 8.85602 94.3919 9.14402L92.1959 12.384H99.6479C100.152 12.384 100.26 12.06 100.548 11.772C100.8 11.484 101.016 11.304 101.304 11.304C101.844 11.304 104.4 12.816 104.4 13.86C104.4 14.364 103.824 14.76 102.564 14.76C101.268 14.76 100.152 16.344 99.3239 17.244C99.2519 17.316 99.1079 17.352 98.9639 17.352C98.6039 17.352 98.1719 17.1 98.1719 16.776C98.1719 16.668 98.2079 16.596 98.2439 16.524C98.4239 16.164 99.5759 14.58 99.8279 14.04C99.8279 14.004 99.8639 13.968 99.8639 13.932C99.8639 13.824 99.7199 13.824 99.5039 13.824ZM100.368 6.30002H87.0839C85.6079 6.30002 82.5119 6.30002 79.5959 6.84002C79.0919 6.94802 77.5799 5.50802 77.5799 4.68002C77.5799 4.53602 77.6519 4.46402 77.8319 4.46402H77.8679C82.1159 4.82402 84.7439 4.93202 87.2999 4.93202H88.7039C88.7039 2.62802 88.7039 2.30402 88.3079 0.468021C88.3079 0.396022 88.2719 0.288021 88.2719 0.216022C88.2719 0.072022 88.3079 2.28882e-05 88.5599 2.28882e-05H88.7039C91.6919 0.504023 91.9439 0.540022 91.9439 1.00802C91.9439 1.33202 91.5119 1.69202 90.8639 1.98002C90.6119 2.08802 90.5399 2.16002 90.5039 2.91602C90.4679 3.34802 90.4679 4.14002 90.4319 4.93202H95.1119C95.5439 4.93202 95.9039 4.82402 96.1919 4.42802C96.4799 4.03202 97.1999 3.16802 97.5599 2.80802C97.7399 2.66402 97.9199 2.59202 98.0999 2.59202C98.8199 2.59202 101.268 4.57202 101.268 5.72402C101.268 6.04802 101.016 6.30002 100.368 6.30002ZM87.1199 12.168C86.7239 12.168 86.2919 11.88 85.9679 11.196C85.4279 9.97202 84.2039 8.56802 83.2679 7.77602C83.1959 7.70402 83.1599 7.63202 83.1599 7.56002C83.1599 7.27202 83.5919 6.94802 83.9879 6.94802C84.2759 6.94802 87.9839 9.18002 87.9839 11.124C87.9839 11.772 87.5879 12.168 87.1199 12.168ZM137.988 29.952V29.988C137.988 30.636 137.268 31.104 136.656 31.104C136.188 31.104 135.828 30.852 135.828 30.348V30.312C135.828 29.628 135.828 28.836 135.864 28.044H115.488L115.524 29.808C115.524 30.312 115.2 31.032 114.156 31.032C113.724 31.032 113.328 30.816 113.328 30.312V30.24C113.58 25.56 113.724 19.404 113.724 14.04C113.724 5.79602 113.508 3.31202 113.292 1.98002V1.76402C113.292 1.58402 113.328 1.51202 113.472 1.51202C113.832 1.51202 115.308 2.23202 116.172 2.95202H135.072C135.576 2.95202 135.72 2.66402 136.008 2.34002C136.296 2.01602 136.476 1.76402 136.8 1.76402C137.628 1.76402 139.356 3.45602 139.356 3.85202C139.356 4.17602 139.104 4.53602 138.276 4.96802C137.916 5.18402 137.628 5.32802 137.628 13.32C137.628 18.828 137.808 25.488 137.988 29.952ZM115.488 26.532H135.864C135.936 22.392 135.972 17.208 135.972 12.708C135.972 9.72002 135.972 7.02002 135.9 5.14802C135.864 4.71602 135.72 4.39202 135.216 4.39202H116.172C115.812 4.57202 115.524 4.78802 115.488 5.36402C115.416 8.49602 115.38 11.592 115.38 14.688C115.38 18.648 115.416 22.572 115.488 26.532ZM133.092 22.32H124.272C122.112 22.32 120.096 22.536 118.908 22.716C118.332 22.788 117.18 21.384 117.18 20.772C117.18 20.664 117.252 20.592 117.36 20.592H117.396C118.692 20.772 122.04 21.096 124.488 21.096H124.74C124.776 19.512 124.812 17.424 124.812 15.408H124.488C122.904 15.408 121.86 15.588 120.708 15.732C120.06 15.804 118.944 14.436 118.944 13.932C118.944 13.824 119.016 13.752 119.124 13.752H119.16C120.312 13.932 122.796 14.148 124.38 14.148H124.812C124.812 13.284 124.776 12.42 124.776 11.664C124.74 10.8 124.704 10.08 124.632 9.54002H124.272C122.112 9.54002 120.924 9.75602 119.736 9.90002C119.124 9.97202 117.972 8.67602 117.972 8.02802C117.972 7.92002 118.044 7.84802 118.152 7.84802H118.188C119.448 8.02802 122.04 8.28002 124.488 8.28002H127.944C128.556 8.28002 128.772 8.13602 129.096 7.74002C129.384 7.38002 129.672 7.05602 129.96 6.84002C130.14 6.66002 130.284 6.58802 130.428 6.58802C131.22 6.58802 132.876 8.35202 132.876 9.03602C132.876 9.32402 132.66 9.54002 132.012 9.54002H126.432C126.576 9.57602 126.756 9.64802 126.9 9.72002C127.08 9.79202 127.224 9.90002 127.224 10.08C127.224 10.224 127.116 10.368 126.792 10.584C126.576 10.692 126.324 10.872 126.324 11.592C126.288 12.456 126.288 13.32 126.288 14.148H127.656C128.16 14.148 128.376 13.932 128.628 13.644C129.528 12.528 129.852 12.528 129.924 12.528C130.572 12.528 132.264 14.112 132.264 14.904C132.264 15.192 132.048 15.408 131.436 15.408H126.288C126.288 17.28 126.288 19.152 126.324 21.096H129.06C129.636 21.096 129.816 20.88 130.14 20.52C130.572 19.98 131.076 19.368 131.508 19.368C132.228 19.368 133.956 21.06 133.956 21.816C133.956 22.104 133.74 22.32 133.092 22.32ZM128.088 15.948C128.088 15.948 130.284 16.452 131.148 17.496C131.436 17.856 131.544 18.216 131.544 18.54C131.544 19.08 131.22 19.512 130.752 19.512C130.428 19.512 130.068 19.296 129.708 18.756C129.204 18 128.556 17.316 127.584 16.884C127.512 16.848 127.476 16.776 127.476 16.704C127.476 16.416 127.836 15.948 128.088 15.948ZM171.72 29.412V29.376C171.756 28.836 171.756 28.296 171.756 27.792H164.772V29.556C164.772 30.168 164.16 30.528 163.62 30.528C163.188 30.528 162.792 30.312 162.792 29.772V29.628C163.008 27.684 163.116 20.34 163.116 15.804C163.116 12.528 163.044 11.664 162.9 9.86402C162.9 9.75602 162.864 9.64802 162.864 9.57602C162.864 9.46802 162.9 9.39602 162.972 9.39602C163.224 9.39602 164.52 10.044 165.42 10.692H169.632C170.316 10.692 170.316 10.368 170.712 9.97202C170.892 9.79202 171 9.68402 171.144 9.68402C171.252 9.68402 171.36 9.72002 171.54 9.79202C171.684 9.82802 171.864 9.90002 172.008 10.008C172.656 9.18002 173.484 8.06402 173.484 7.77602C173.484 7.63202 173.34 7.56002 173.16 7.56002H162.756C162.54 9.79202 161.172 11.304 160.092 11.304C159.912 11.304 159.768 11.304 159.66 11.232C159.876 11.484 160.02 11.7 160.02 11.916C160.02 12.168 159.804 12.456 159.264 12.708C158.832 12.96 158.796 12.96 158.796 15.012C158.796 16.668 158.868 18.936 158.976 20.736C158.976 20.844 158.796 21.636 157.932 21.636C157.5 21.636 157.14 21.42 157.14 20.916V20.844C157.14 20.556 157.14 20.232 157.176 19.908H151.992C151.992 21.996 151.956 24.048 151.956 25.596C153.756 25.02 155.448 24.408 156.492 24.012C155.988 23.508 155.448 23.004 154.872 22.608C154.728 22.536 154.692 22.428 154.692 22.284C154.692 21.96 155.124 21.528 155.448 21.528C155.7 21.528 160.632 24.264 160.632 26.64C160.632 27.324 160.272 27.828 159.804 27.828C159.408 27.828 158.904 27.504 158.472 26.604C158.22 26.136 157.824 25.56 157.356 24.948C154.908 26.172 149.616 28.008 147.348 28.872C147.024 28.98 146.916 29.808 146.52 29.808C146.088 29.808 145.188 28.296 144.936 27.612C144.936 27.54 144.9 27.504 144.9 27.468C144.9 27.324 145.008 27.288 145.152 27.252C146.088 27.252 148.104 26.748 150.228 26.1C150.264 22.896 150.372 19.116 150.372 15.912C150.372 14.832 150.372 13.788 150.336 12.888C150.336 12.06 150.3 11.268 150.192 10.476V10.44C147.204 14.184 145.296 15.552 144.828 15.552C144.432 15.552 144.072 15.192 144.072 14.904C144.072 14.76 144.144 14.652 144.252 14.58C147.42 12.204 152.496 4.75202 153.9 0.864022C153.936 0.648023 154.008 0.576022 154.188 0.576022C154.656 0.576022 156.888 1.76402 156.888 2.55602C156.888 2.88002 156.528 3.06002 155.916 3.06002H155.7C155.484 3.06002 155.304 3.13202 155.16 3.27602C157.176 4.21202 160.416 5.79602 160.416 7.63202C160.416 8.28002 160.056 8.82002 159.552 8.82002C159.192 8.82002 158.76 8.53202 158.364 7.88402C157.572 6.58802 156.24 5.29202 154.512 4.21202C153.54 5.86802 152.1 7.99202 150.552 10.008C150.552 10.008 150.588 10.044 150.624 10.044C151.02 10.188 151.848 10.476 152.748 11.088H153.936C153.936 8.92802 153.936 8.46002 153.648 7.52402C153.612 7.34402 153.576 7.23602 153.576 7.12802C153.576 6.94802 153.684 6.91202 153.972 6.91202C155.052 6.91202 156.744 7.30802 156.744 7.81202C156.744 8.06402 156.384 8.35202 155.916 8.56802C155.628 8.71202 155.556 9.07202 155.556 9.50402C155.556 9.75602 155.52 10.548 155.52 11.088H156.6C157.068 11.088 157.14 10.836 157.428 10.548C157.644 10.332 157.752 10.188 157.968 10.188C158.184 10.188 158.688 10.404 159.192 10.8C159.084 10.656 159.048 10.44 159.048 10.26C159.048 9.86402 159.264 9.43202 159.84 9.07202C161.172 8.28002 161.496 7.30802 161.496 5.40002V4.71602C161.496 4.50002 161.748 4.35602 162.036 4.35602C162.36 4.35602 162.648 4.50002 162.684 4.78802C162.756 5.25602 162.792 5.72402 162.792 6.19202H166.824C166.824 4.60802 166.788 2.80802 166.5 1.44002C166.464 1.26002 166.428 1.11602 166.428 1.00802C166.428 0.828023 166.536 0.756022 166.752 0.756022C167.688 0.756022 169.848 1.08002 169.848 1.76402C169.848 2.08802 169.452 2.37602 168.876 2.59202C168.444 2.73602 168.444 2.98802 168.444 6.19202H173.304C173.7 6.19202 173.772 6.04802 173.988 5.79602C174.204 5.54402 174.348 5.36402 174.6 5.36402C174.924 5.36402 177.264 6.44402 177.264 7.52402C177.264 7.95602 176.796 8.24402 175.896 8.42402C174.852 8.60402 174.204 9.64802 173.016 10.692C173.304 10.944 173.448 11.16 173.448 11.34C173.448 11.592 173.16 11.844 172.512 12.276C172.26 12.456 172.08 12.492 172.08 13.428C172.044 13.788 172.044 14.112 172.044 14.436C172.044 15.408 172.116 16.38 172.26 17.892C172.296 18.504 171.576 18.792 171.18 18.792C170.748 18.792 170.388 18.576 170.388 18.072V18.036L170.424 17.388H164.7V20.628H170.892C171.576 20.628 171.576 20.304 171.936 19.908C172.116 19.728 172.224 19.62 172.368 19.62C172.908 19.62 174.708 20.628 174.708 21.276C174.708 21.528 174.42 21.816 173.772 22.212C173.412 22.464 173.34 22.608 173.34 23.94C173.34 25.344 173.448 27.432 173.628 29.232C173.664 29.808 172.98 30.132 172.512 30.132C172.08 30.132 171.72 29.916 171.72 29.412ZM171.144 21.924H164.736L164.772 26.46H171.756C171.756 24.84 171.72 23.4 171.684 22.356C171.684 21.924 171.468 21.924 171.144 21.924ZM169.884 11.988H165.096C164.808 12.168 164.664 12.348 164.664 12.636V16.056H170.46C170.496 15.3 170.496 14.688 170.496 14.112C170.496 13.536 170.496 12.996 170.46 12.42C170.46 11.988 170.244 11.988 169.884 11.988ZM157.248 16.056H152.028V18.648H157.212C157.212 17.784 157.248 16.884 157.248 16.056ZM157.248 14.796V12.816C157.248 12.276 157.068 12.276 156.816 12.276H152.748C152.172 12.6 152.064 12.708 152.064 12.996C152.064 13.536 152.028 14.148 152.028 14.796H157.248ZM198.468 15.768H198.648C200.7 14.868 203.256 14.472 203.94 14.472C204.66 14.472 204.912 14.868 204.912 15.264C204.912 16.344 203.796 16.776 202.284 16.956C201.132 17.1 199.692 17.28 198.9 17.46C195.912 18.108 191.088 20.52 191.088 23.292C191.088 25.272 193.86 26.604 197.856 26.604C201.636 26.604 202.788 25.92 203.508 25.524C204.084 25.2 204.768 25.056 205.344 25.056C206.748 25.056 206.856 25.884 206.856 26.064C206.856 27.936 201.708 28.404 198.864 28.404C192.42 28.404 189.54 26.028 189.54 23.436C189.54 20.34 193.716 17.928 196.488 16.668C194.796 15.984 194.544 13.968 194.544 12.744C194.544 11.052 195.048 9.39602 195.3 7.70402C195.336 7.56002 195.336 7.41602 195.336 7.30802C195.336 6.33602 194.688 5.76002 192.816 4.82402C192.492 4.64402 192.384 4.46402 192.384 4.28402C192.384 4.03202 192.852 3.49202 193.716 3.49202C194.868 3.49202 197.46 5.36402 197.46 6.48002V6.62402C197.46 6.84002 197.424 7.02002 197.352 7.27202C196.416 11.052 196.164 12.348 196.164 13.14C196.164 14.724 196.668 15.768 198.468 15.768ZM239.4 21.708L239.184 12.564C238.644 12.636 238.068 12.672 237.528 12.672C233.712 12.672 230.976 10.872 230.976 9.32402C230.976 8.85602 231.264 8.53202 231.624 8.53202C231.948 8.53202 232.38 8.82002 232.74 9.54002C233.316 10.656 235.296 11.196 237.276 11.196C237.888 11.196 238.536 11.16 239.112 11.052C239.112 7.56002 239.04 6.51602 236.34 6.12002C235.944 6.04802 235.764 5.79602 235.764 5.50802C235.764 4.78802 236.556 4.57202 237.132 4.57202C238.068 4.57202 239.94 5.72402 240.156 5.83202C240.768 6.15602 241.02 6.51602 241.056 6.98402C241.092 7.05602 241.092 7.16402 241.092 7.27202C241.092 7.38002 241.092 7.48802 241.056 7.59602L241.704 7.92002C242.208 8.10002 242.712 8.28002 243.288 8.28002H243.612C244.368 8.28002 244.584 8.60402 244.584 9.00002C244.584 9.68402 243.792 11.376 240.696 12.276V12.78C240.696 15.912 240.984 19.188 241.056 22.068C243.612 22.716 246.096 23.724 247.788 24.624C248.616 25.056 248.976 25.704 248.976 26.244C248.976 26.388 248.94 27.18 248.112 27.18C247.788 27.18 247.356 27 246.852 26.64C245.196 25.38 243.18 24.192 241.056 23.436C240.84 25.956 239.22 27.432 237.312 27.432C235.476 27.432 232.776 25.524 232.776 23.724C232.776 23.112 233.064 21.456 236.844 21.456C237.672 21.456 238.536 21.564 239.4 21.708ZM226.332 23.652V23.904C226.332 24.48 226.44 25.056 226.764 25.74C226.908 26.028 226.98 26.316 226.98 26.568C226.98 26.928 226.764 27.216 226.26 27.216C224.784 27.216 222.624 23.508 222.624 19.548C222.624 16.74 223.452 13.788 224.316 11.124C224.712 9.97202 224.712 9.57602 224.712 9.46802C224.712 9.28802 224.352 7.56002 223.128 7.05602C222.624 6.87602 222.444 6.55202 222.444 6.26402C222.444 5.90402 222.732 5.50802 223.344 5.50802C224.496 5.50802 226.764 8.42402 226.764 9.64802C226.764 10.08 226.512 10.728 226.296 11.052C224.388 14.868 223.956 17.64 223.956 19.188C223.956 20.556 224.496 21.816 224.676 21.816C224.712 21.816 224.748 21.708 224.82 21.528C225.252 19.908 226.692 15.516 228.24 12.42C228.384 12.096 228.636 11.952 228.888 11.952C228.924 11.952 229.572 11.952 229.572 12.564C229.572 12.672 229.536 12.816 229.464 12.924C227.448 16.704 226.332 21.204 226.332 23.652ZM239.436 23.004C238.572 22.824 237.744 22.716 236.88 22.716C234.9 22.716 234.072 23.04 234.072 23.76C234.072 24.408 235.512 25.812 237.024 25.812C238.284 25.812 239.292 24.84 239.436 23.004ZM240.912 8.60402V8.78402C240.84 9.28802 240.804 9.97202 240.768 10.584C241.452 10.296 242.028 9.82802 242.028 9.61202C242.028 9.28802 241.164 8.74802 240.912 8.60402Z" fill="#0A0814"/>
</svg>
