<svg width="143" height="32" viewBox="0 0 143 32" fill="none" xmlns="http://www.w3.org/2000/svg">
<path d="M34.2361 18.6121H34.5241C34.7041 18.6121 34.7761 18.7921 34.7761 19.0441C34.7761 19.3321 34.6681 19.6561 34.4881 19.7281C34.0201 19.8721 32.0041 20.3401 31.3921 20.9881C31.2841 21.0961 31.1041 21.2041 30.8881 21.2041C30.2041 21.2041 23.0401 19.5481 17.4961 13.6441C15.4441 15.5161 13.1401 17.2441 10.6201 18.7561L10.6921 18.7921C11.0881 18.9361 12.2041 19.5121 13.1761 20.2321H21.6001C22.2841 20.2321 22.3921 19.8001 22.7881 19.3681C22.9321 19.1881 23.0761 19.0801 23.2201 19.0801C23.7961 19.0801 25.5601 20.4841 25.5601 21.0961C25.5601 21.3841 25.3081 21.6721 24.6961 21.9961C24.1561 22.2121 24.1561 22.4641 24.1561 24.8761C24.1561 26.5681 24.3001 27.6841 24.4441 29.8081C24.4801 30.4921 23.7961 30.8881 23.2561 30.8881C22.8241 30.8881 22.4281 30.6361 22.4281 29.9881V29.9521C22.4641 29.3401 22.5001 28.7281 22.5001 28.1521H12.4201V30.1321C12.4201 30.6361 11.9881 31.0681 11.1961 31.0681C10.7641 31.0681 10.3681 30.8521 10.3681 30.3481V30.2401C10.5481 28.3681 10.6561 26.7481 10.6561 24.6961C10.6561 22.5001 10.5121 20.1601 10.3321 19.0441C10.3321 19.0081 10.2961 19.0081 10.2961 18.9721C5.00405 22.1041 0.756051 23.0401 0.720051 23.0401C0.360051 23.0401 5.08204e-05 22.6441 5.08204e-05 22.2841C5.08204e-05 22.1041 0.0720508 21.9241 0.324051 21.8521C6.66005 19.8721 12.1681 16.2001 16.3081 12.2401C15.1201 10.8001 14.0761 9.18007 13.2481 7.38006C8.60405 12.8161 4.57205 15.5881 4.10405 15.5881C3.70805 15.5881 3.34805 15.1921 3.34805 14.8681C3.34805 14.7241 3.38405 14.6161 3.49205 14.5441C7.92005 11.3761 14.2921 4.14007 15.3001 0.900065C15.3721 0.684065 15.4081 0.612064 15.4801 0.612064C15.8761 0.612064 18.4681 1.72806 18.4681 2.55606C18.4681 2.84407 18.2161 3.06006 17.6401 3.06006C17.4961 3.06006 17.3521 3.06006 17.1721 3.02407H17.0641C16.7401 3.02407 16.5241 3.31207 16.3081 3.60006L15.2281 5.00407H21.1321C21.5281 5.00407 21.6721 4.78807 21.9241 4.57206C22.1401 4.35607 22.3201 4.21206 22.5721 4.21206C23.1481 4.21206 24.9841 5.40006 24.9841 6.08406C24.9841 6.40806 24.6961 6.66007 23.8681 6.87607C23.4721 6.94807 23.2201 7.12807 22.9681 7.52407C21.7081 9.25206 20.2321 10.9801 18.5761 12.6001C22.6081 16.3441 28.2241 18.6121 34.2361 18.6121ZM21.9601 21.6721H12.8881L12.7081 21.8521C12.4561 22.0321 12.3481 22.2481 12.3481 22.4641C12.3481 24.2641 12.3481 25.4161 12.3841 26.6401H22.5361C22.5361 25.0561 22.5361 23.5441 22.5001 22.1761C22.5001 21.9241 22.4281 21.6721 21.9601 21.6721ZM20.9881 6.30007H14.1481L14.0761 6.37207C14.9041 8.17207 15.9841 9.82807 17.2801 11.2681C17.7481 10.8001 21.2761 6.94807 21.2761 6.44407C21.2761 6.33607 21.2041 6.30007 20.9881 6.30007ZM69.1561 29.1601H56.3401C55.1161 29.1601 51.3001 29.3401 48.8521 29.6641C48.2041 29.7721 47.0881 28.1161 47.0881 27.5761C47.0881 27.4681 47.1241 27.3961 47.2681 27.3961H47.3041C50.7601 27.7201 54.4321 27.8281 56.5201 27.8281H57.6361V25.2001C56.4481 25.2001 54.5401 25.3081 52.2721 25.6321C51.6601 25.7041 50.6161 24.2281 50.6161 23.7601C50.6161 23.6521 50.6881 23.5801 50.7961 23.5801H50.8321C54.0001 23.8681 55.6921 23.9401 57.6361 23.9401L57.6001 21.0601H53.8921V21.8161C53.9281 22.3561 53.3161 22.6441 52.8481 22.6441C52.4161 22.6441 52.0561 22.4281 52.0561 21.9601V21.8521C52.2361 19.8721 52.3081 17.6761 52.3081 15.7321C52.3081 13.5721 52.2721 13.2481 51.9841 11.0161V10.8721C51.9841 10.8001 52.0201 10.7281 52.0921 10.7281C52.5241 10.7281 54.1081 11.7001 54.2881 11.8441H57.6001V9.43207H56.8801C54.1801 9.43207 52.7401 9.57606 51.3001 9.82807C50.5441 9.97207 49.4641 8.46007 49.4641 8.02807C49.4641 7.88406 49.5001 7.81207 49.6801 7.81207H49.7161C52.7401 8.02807 53.5321 8.13607 56.7001 8.13607H57.6001C57.6001 7.45207 57.6001 6.94807 57.5641 6.66007C57.5641 5.72406 57.4921 5.18407 57.4561 4.82407L57.4201 4.78807C55.8361 5.00407 51.6601 5.50807 50.4721 5.50807C50.0761 5.50807 49.9321 5.14807 49.9321 4.78807C49.9321 4.46407 50.0401 4.17607 50.2201 4.17607C56.6281 3.74406 61.7761 2.55606 63.0001 1.87207C63.1441 1.76406 63.2161 1.76406 63.2881 1.76406C63.5041 1.76406 64.9801 3.45607 64.9801 4.10406C64.9801 4.39206 64.8001 4.60806 64.4761 4.60806C64.2601 4.60806 63.9361 4.50007 63.5761 4.24806C63.3241 4.06806 63.1441 3.99607 62.9281 3.99607C62.7841 3.99607 62.6041 4.03207 62.3521 4.06806C61.6321 4.21206 60.5161 4.39206 59.1121 4.57206L59.4361 4.68007C59.8321 4.78807 59.9761 4.89606 59.9761 5.04007C59.9761 5.22006 59.7241 5.40006 59.5441 5.47207C59.2201 5.61607 59.2201 5.94007 59.1841 6.48007V8.13607H63.1801C63.5761 8.13607 63.8641 8.06406 64.1161 7.74006C64.4041 7.30807 65.4121 6.04806 65.8801 6.04806C66.9241 6.04806 68.4361 7.92006 68.4361 8.74806C68.4361 9.14407 68.1841 9.43207 67.4641 9.43207H59.1841V11.8441H62.2801C62.8201 11.8441 62.8201 11.6281 63.1441 11.3041C63.3241 11.1241 63.4681 10.9441 63.6481 10.9441C63.7201 10.9441 63.7921 10.9801 63.9001 11.0161C64.5841 11.1961 65.8441 12.0241 65.8441 12.6001C65.8441 12.8521 65.6281 13.1041 65.0521 13.3921C64.6561 13.5721 64.5841 13.6801 64.5841 15.0841C64.5841 16.6681 64.6921 19.1161 64.8361 21.0961C64.8721 21.6721 64.2241 21.9601 63.7201 21.9601C63.3241 21.9601 62.9641 21.7441 62.9641 21.2761V21.0601H59.1841V23.9401H61.7761C62.1001 23.9401 62.4241 23.7961 62.6761 23.4721C63.0001 22.9321 63.7921 22.1041 64.1161 22.1041C64.5841 22.1041 66.6001 23.7241 66.6001 24.6961C66.6001 24.9841 66.3841 25.2001 65.8081 25.2001H59.1841V27.8281H64.5841C64.9441 27.8281 65.3041 27.6841 65.5561 27.3601C65.8081 27.0361 66.7081 25.8841 67.1401 25.8841C67.4641 25.8841 70.0201 27.4681 70.0201 28.6561C70.0201 28.9441 69.7681 29.1601 69.1561 29.1601ZM43.8121 29.5201V29.4481C43.9561 26.7121 44.1361 21.3481 44.2081 16.2721C41.3281 21.2761 37.1521 23.9761 36.7201 23.9761C36.3961 23.9761 36.0001 23.5801 36.0001 23.2561C36.0001 23.1481 36.0721 23.0761 36.1441 23.0041C39.0601 20.8441 42.1921 16.8481 44.2441 13.0681V11.1241C43.0921 11.1241 41.3281 11.3041 40.1761 11.4481C39.7081 11.4841 38.7001 10.3321 38.7001 9.68407C38.7001 9.57606 38.7361 9.50407 38.8441 9.50407H38.8801C40.1041 9.68407 42.2281 9.90006 43.8841 9.90006H44.2441C44.1361 6.73206 44.1001 5.94007 43.9561 5.04007C43.7761 5.11207 40.2121 6.15607 39.4921 6.15607C39.1681 6.15607 38.9161 5.65207 38.9161 5.29207C38.9161 5.07606 38.9881 4.93206 39.1321 4.89606C40.7521 4.53607 45.5761 3.24006 47.0521 1.54806C47.2321 1.36807 47.3401 1.33207 47.4121 1.33207C47.4841 1.33207 47.5201 1.36807 47.5921 1.40406C48.3121 1.83607 49.4641 2.91606 49.4641 3.31207C49.4641 3.56406 49.2481 3.70807 48.8881 3.70807C48.7441 3.70807 48.5641 3.70807 48.3841 3.63607C48.2041 3.60006 48.0601 3.56406 47.9521 3.56406C47.6281 3.56406 45.9001 4.35607 45.8281 4.39206C45.9361 4.39206 46.0801 4.42806 46.1881 4.46407C46.6921 4.57206 46.8721 4.75206 46.8721 4.89606C46.8721 5.11207 46.5841 5.32807 46.2601 5.50807C45.9001 5.72406 45.8641 5.76006 45.7561 9.90006H45.9361C46.2601 9.90006 46.4761 9.72006 46.7281 9.43207C46.9801 9.14407 47.3401 8.56806 47.5561 8.38806C47.7001 8.24406 47.8441 8.17207 47.9881 8.17207C48.7081 8.17207 50.2201 9.79207 50.2201 10.5841C50.2201 10.9081 49.9681 11.1241 49.3561 11.1241H45.7201C45.7201 12.0241 45.7201 12.9601 45.6841 13.8601C48.3121 14.2561 49.8601 15.0841 49.8601 16.4521C49.8601 17.0281 49.5001 17.4601 49.0321 17.4601C48.7081 17.4601 48.3481 17.2801 48.0241 16.8481C47.4481 16.0561 46.4761 15.3361 45.7201 14.9401C45.7201 19.6921 45.8641 24.6961 45.8641 29.4121C45.8641 30.0601 45.2521 30.4201 44.7121 30.4201C44.2441 30.4201 43.8121 30.1321 43.8121 29.5201ZM63.0361 17.1001H59.1841V19.7641H63.0001C63.0361 18.8641 63.0361 17.9641 63.0361 17.1001ZM63.0361 15.7321V13.6081C63.0361 13.3921 62.9641 13.1401 62.5681 13.1401H59.1841V15.7681L63.0361 15.7321ZM57.6001 19.7641V17.1001H53.8201L53.8921 19.7641H57.6001ZM57.6001 15.7681V13.1401H54.2521L54.1441 13.2121C53.9281 13.3561 53.8201 13.5721 53.8201 13.7881V15.7681H57.6001ZM96.3721 24.7681V24.8041C96.3721 25.2361 95.7241 25.5241 95.1481 25.5241C94.7161 25.5241 94.3201 25.3441 94.3201 24.9121V24.8761C94.3201 24.7681 94.3561 24.6241 94.3561 24.4801H84.0241V24.9481C84.0601 25.5241 83.2321 25.7761 82.8361 25.7761C82.3681 25.7761 81.9721 25.5601 81.9721 25.1281V25.0201C82.2961 22.7881 82.4761 21.0241 82.4761 18.6841C82.4761 16.9201 82.3681 15.4801 82.3321 15.2281C80.8201 15.6241 79.0921 15.9481 77.1481 16.2001H77.0401C76.5721 16.2001 76.3201 15.8041 76.3201 15.4801C76.3201 15.1921 76.4641 14.9401 76.7521 14.9041C78.8761 14.6521 80.7121 14.2921 82.2241 13.8601C82.2241 13.6081 82.1881 13.4281 82.1881 13.2481V13.1041C82.1881 13.0321 82.1881 12.9961 82.3321 12.9961C82.5481 12.9961 82.8721 13.1401 83.5201 13.4281C87.5521 12.0961 90.3241 9.86407 90.3241 6.80407V6.33607C90.3241 6.26406 90.3601 6.19207 90.6481 6.19207C91.0441 6.19207 93.5641 6.44407 93.5641 7.05606C93.5641 7.30807 93.3121 7.52407 92.6641 7.66807C92.5561 7.70407 92.4121 7.70407 92.3401 7.77607C93.9241 11.2321 99.7201 12.8521 105.804 12.9601C106.02 12.9601 106.092 13.1401 106.092 13.3561C106.092 13.6441 105.948 13.9681 105.804 14.0041C104.652 14.1481 103.644 14.5801 103.068 15.0121C102.924 15.1201 102.852 15.2641 102.6 15.2641C101.88 15.2641 94.2481 13.6081 91.7281 9.32407C91.0441 10.8001 89.3161 12.6001 85.9321 14.0041H93.5641C94.1761 14.0041 94.1761 13.8241 94.5361 13.5361C94.7521 13.3561 94.8961 13.2121 95.1481 13.2121C95.6521 13.2121 97.4881 14.2201 97.4881 14.6881C97.4881 14.9401 97.2361 15.1921 96.5881 15.4441C96.0841 15.6601 96.0481 15.9481 96.0481 18.4321C96.0481 20.2321 96.1921 22.2841 96.3721 24.7681ZM97.7401 5.29207H88.6321C87.5161 6.48007 86.2201 7.66807 84.8161 8.74806C85.1041 8.89206 85.2841 9.28807 85.2841 9.57606C85.2841 9.72006 85.2481 9.86407 85.1041 9.93607C81.6841 11.4841 79.2721 12.0961 76.9321 12.8521C76.8241 12.8881 76.6441 13.4281 76.5361 13.6081C76.4281 13.7521 76.3201 13.8241 76.2121 13.8241C75.5641 13.8241 74.3761 11.8081 74.3761 11.3401C74.3761 11.1961 74.5201 11.1601 74.6641 11.1601C76.5001 11.1601 80.7481 10.0441 83.5921 9.03607C83.3761 8.89206 83.1601 8.67607 83.1601 8.46007C83.1601 8.38806 83.2321 8.28007 83.3041 8.20807C88.3801 3.99607 89.2081 1.58406 89.6401 0.252064C89.6761 0.0720646 89.7841 6.55651e-05 89.8921 6.55651e-05C89.9641 6.55651e-05 90.0361 0.0360651 90.1081 0.0360651C90.1441 0.0360651 92.7361 0.936064 92.7361 1.65607C92.7361 1.94406 92.4121 2.19607 91.4761 2.19607H91.3681C91.0801 2.19607 90.9361 2.30407 90.7561 2.55606C90.5041 2.98807 90.1441 3.49207 89.7481 3.96007H98.0641C98.3881 3.96007 98.6401 3.70807 98.9641 3.38406C99.2161 3.13207 99.3601 2.95207 99.6121 2.95207C100.368 2.95207 102.528 4.35607 102.528 5.04007C102.528 5.47207 102.096 5.86807 100.944 5.97607C99.8281 6.08406 98.7841 7.48807 97.6321 8.60407C97.4881 8.74806 97.2721 8.82007 97.0561 8.82007C96.6241 8.82007 96.1921 8.56806 96.1921 8.24406C96.1921 8.17207 96.2281 8.06406 96.3001 7.99207C96.6241 7.63207 97.9921 5.94007 97.9921 5.47207C97.9921 5.36407 97.9201 5.29207 97.7401 5.29207ZM88.2721 27.8641C88.2721 28.1521 88.0561 28.2961 87.6961 28.2961C87.4441 28.2961 87.1921 28.2241 86.8681 28.1161C86.7241 28.0441 86.6161 28.0441 86.5081 28.0441C86.3281 28.0441 86.1481 28.1161 85.9321 28.1881C81.5401 30.0241 75.0601 31.1761 73.8721 31.1761C73.4401 31.1761 73.1161 30.6721 73.1161 30.2761C73.1161 30.0961 73.1881 29.9521 73.4041 29.9161C79.5601 28.9441 84.9961 26.9641 86.0401 25.6321C86.1121 25.5601 86.1841 25.4881 86.2561 25.4881C86.3641 25.4881 88.2721 27.1441 88.2721 27.8641ZM94.4281 21.2761H84.0241V23.3281H94.3921C94.3921 22.7161 94.4281 21.9961 94.4281 21.2761ZM102.096 29.7001C102.096 30.2041 101.736 30.6001 101.088 30.6001C100.692 30.6001 100.152 30.4201 99.5401 30.0241C97.3441 28.6201 93.9241 27.6481 91.1521 27.1441C90.9361 27.1081 90.8281 26.9281 90.8281 26.7121C90.8281 26.3521 91.1161 25.9201 91.4041 25.9201C91.7281 25.9201 97.2361 26.5321 100.584 27.9361C101.628 28.3681 102.096 29.0881 102.096 29.7001ZM93.8521 15.1561H84.5641L84.4561 15.2641C84.1321 15.4801 84.0601 15.6601 84.0601 15.9121V17.1001H94.4641C94.4641 16.4881 94.4281 15.9481 94.4281 15.5521C94.4281 15.3721 94.3561 15.1561 93.8521 15.1561ZM94.4641 18.2521H84.0241V20.1241H94.4281C94.4641 19.4761 94.4641 18.8641 94.4641 18.2521ZM83.7361 6.19207C83.7361 6.69607 83.3761 7.09206 82.8001 7.09206C82.4401 7.09206 81.9361 6.91206 81.3961 6.48007C80.4241 5.68807 77.6161 4.50007 76.2841 4.17607C76.0681 4.10406 75.9961 3.96007 75.9961 3.78007C75.9961 3.38406 76.3201 2.95207 76.7161 2.95207C76.9681 2.95207 83.7361 3.70807 83.7361 6.19207ZM116.892 29.5201V29.4481C117.036 27.1081 117.18 22.0681 117.288 16.8841C113.976 22.3201 108.9 24.9841 108.648 24.9841C108.324 24.9841 107.928 24.5881 107.928 24.2641C107.928 24.1561 108 24.0841 108.072 24.0121C111.852 21.4921 115.128 17.6401 117.324 13.8961L117.36 13.2481H117C115.848 13.2481 113.4 13.5001 112.248 13.6441C111.564 13.7521 110.52 12.2761 110.52 11.7721C110.52 11.6641 110.556 11.5921 110.7 11.5921H110.736C111.996 11.7721 114.984 12.0241 116.64 12.0241H117.36V9.54007C117.36 6.04806 117.288 3.20407 117.036 1.54806C117 1.33207 116.928 1.18807 116.928 1.08006C116.928 0.972066 117 0.936064 117.252 0.936064H117.54C118.116 0.936064 120.096 1.22406 120.096 1.69207C120.096 1.94406 119.772 2.19607 119.34 2.41206C118.944 2.59206 118.908 2.62807 118.8 9.25206C119.16 8.78407 121.104 5.86807 121.572 4.75206C121.608 4.57206 121.608 4.50007 121.68 4.50007C121.716 4.50007 121.788 4.53607 121.896 4.57206C122.04 4.64407 124.056 5.72406 124.056 6.48007C124.056 6.80407 123.696 6.98407 123.12 6.98407H122.76C122.472 6.98407 122.328 7.16407 122.112 7.41606C121.86 7.74006 119.412 10.6201 118.908 10.6201H118.8V12.0241H119.7C120.312 12.0241 120.42 11.8441 120.744 11.4841C121.068 11.1241 121.392 10.6561 121.644 10.4041C121.86 10.2241 121.968 10.1521 122.148 10.1521C122.904 10.1521 123.912 11.4841 124.236 12.0601C124.344 11.9521 124.488 11.8801 124.596 11.8801C124.632 11.8801 129.96 12.8881 129.96 15.4081C129.96 16.0201 129.6 16.4881 129.096 16.4881C128.736 16.4881 128.304 16.2721 127.872 15.7681C127.08 14.7961 125.496 13.4641 124.272 13.0321C124.128 13.1761 123.912 13.2481 123.552 13.2481H118.8V15.7681C122.004 16.4521 124.056 17.4241 124.056 18.8641C124.056 19.4401 123.696 19.8721 123.228 19.8721C122.94 19.8721 122.616 19.7281 122.256 19.3681C121.032 18.0721 119.988 17.4241 118.8 16.8481C118.872 21.2761 118.944 25.7401 118.944 29.4121C118.944 30.0601 118.332 30.4201 117.792 30.4201C117.324 30.4201 116.892 30.1321 116.892 29.5201ZM134.64 29.8441V29.8801C134.64 30.4921 133.992 30.8521 133.416 30.8521C132.912 30.8521 132.444 30.6001 132.444 29.9881V29.9521C132.552 27.3241 132.624 23.9761 132.66 20.5561L128.844 21.6361C127.8 21.9241 124.992 22.8241 123.084 23.6521C123.048 23.6521 122.976 23.6881 122.94 23.6881C122.256 23.6881 120.708 22.5001 120.708 22.1041C120.708 22.0321 120.744 21.9961 120.816 21.9961C123.192 21.6721 126.576 20.9161 128.088 20.4841L132.696 19.1881C132.732 16.7041 132.732 14.2201 132.732 11.9521C132.732 4.03207 132.516 2.55606 132.372 1.65607C132.372 1.54806 132.336 1.47607 132.336 1.40406C132.336 1.22406 132.408 1.15207 132.66 1.15207C133.128 1.15207 136.08 1.54806 136.08 2.30407C136.08 2.55606 135.756 2.88006 135.036 3.16807C134.676 3.34807 134.676 3.38406 134.64 4.42806C134.532 6.69607 134.496 10.4401 134.496 14.6521V18.6841L136.836 18.0001C137.412 17.8201 137.484 17.6401 137.628 17.2081C137.772 16.8121 138.096 15.7681 138.24 15.4801C138.384 15.2281 138.528 15.1561 138.78 15.1561C139.824 15.1561 142.128 16.6681 142.128 17.4961C142.128 17.7481 141.948 17.9281 141.516 18.0721L134.496 20.0521C134.496 23.4001 134.568 26.8201 134.64 29.8441ZM130.068 10.1521C129.672 10.1521 129.204 9.86407 128.736 9.18007C127.944 7.95607 126.576 6.62407 125.352 6.04806C125.244 6.01207 125.172 5.90406 125.172 5.79607C125.172 5.47207 125.604 5.00407 125.892 5.00407C126.396 5.00407 130.968 6.94807 130.968 9.03607C130.968 9.68407 130.572 10.1521 130.068 10.1521ZM115.272 10.2241C114.876 10.2241 114.408 9.86407 114.048 8.96407C113.688 7.95607 112.788 6.69607 111.924 5.90406C111.852 5.83207 111.816 5.72406 111.816 5.65207C111.816 5.32807 112.212 4.96807 112.536 4.96807C112.716 4.96807 116.208 7.16407 116.208 9.00007C116.208 9.68407 115.776 10.2241 115.272 10.2241Z" fill="#0A0814"/>
</svg>
