<svg width="387" height="53" viewBox="0 0 387 53" fill="none" xmlns="http://www.w3.org/2000/svg">
<path d="M80.36 18.068V18.116C81.656 18.368 82.424 19.148 82.424 20.312C82.424 21.872 81.392 22.868 79.844 22.868C79.088 22.868 78.596 22.652 78.2 22.4C77.84 22.172 77.456 21.812 77.456 21.428C77.456 21.14 77.756 20.912 78.224 20.912C78.584 20.912 78.728 21.5 78.872 21.812C79.016 22.148 79.28 22.484 79.844 22.484C80.732 22.484 81.248 21.644 81.248 20.276C81.248 19.436 80.888 18.26 79.616 18.344C79.472 18.356 79.232 18.38 79.124 18.38C79.004 18.38 78.956 18.368 78.992 18.152C79.04 17.936 79.112 17.888 79.232 17.888C79.352 17.888 79.508 17.924 79.64 17.924C80.312 17.924 81.044 17.372 81.044 16.076C81.044 15.176 80.696 14.432 79.928 14.432C79.52 14.432 79.172 14.612 79.004 14.96C78.908 15.164 78.884 15.356 78.884 15.56C78.884 15.908 78.524 16.148 78.08 16.148C77.804 16.148 77.648 16.028 77.648 15.788C77.648 15.092 78.56 14.06 79.928 14.06C81.164 14.06 82.148 14.804 82.148 16.076C82.148 17.3 81.26 17.828 80.36 18.068ZM86.336 23.3V23.528C86.336 23.828 86.192 23.948 85.82 23.948C85.544 23.948 85.46 23.864 85.46 23.6C85.46 23.228 85.508 22.604 85.508 20.72C85.508 20.06 85.508 19.736 85.484 19.316C84.86 19.628 84.188 19.892 83.456 20.12C83.372 20.144 83.324 19.964 83.396 19.928C85.112 19.1 86.576 18.104 87.644 16.832H84.62C84.356 16.832 84.14 16.856 83.816 16.904L83.696 16.448C84.056 16.52 84.296 16.532 84.596 16.532H88.46V14.36C87.224 14.468 85.904 14.504 84.488 14.504C84.404 14.504 84.392 14.3 84.476 14.288C87.032 14.096 89.06 13.772 90.416 13.4C90.956 13.244 91.4 13.112 91.712 12.92C92.528 13.484 92.696 13.652 92.696 13.772C92.696 13.844 92.636 13.904 92.456 13.904C92.348 13.904 92.204 13.88 91.988 13.82C91.136 14.012 90.236 14.168 89.276 14.276V16.532H90.344C90.644 16.064 90.884 15.596 91.064 15.152C91.184 14.852 91.28 14.588 91.328 14.336C92.312 14.72 92.468 14.816 92.468 14.936C92.468 15.08 92.348 15.14 92 15.176C91.604 15.68 91.148 16.16 90.668 16.532H92.588C93.128 15.92 93.212 15.86 93.284 15.86C93.368 15.86 93.452 15.92 94.004 16.352C94.244 16.556 94.304 16.64 94.304 16.724C94.304 16.796 94.268 16.832 94.148 16.832H89.48C90.188 17.432 90.932 17.9 91.724 18.236C92.564 18.608 93.548 18.836 94.568 18.956C94.616 18.956 94.616 19.076 94.568 19.088C94.268 19.184 94.172 19.28 94.028 19.652C93.956 19.868 93.908 19.916 93.8 19.916C93.728 19.916 93.536 19.868 93.308 19.784C92.792 19.592 92.024 19.244 91.472 18.884C90.656 18.392 89.936 17.756 89.264 16.952C89.3 18.044 89.324 18.464 89.324 18.704C89.324 18.968 89.156 19.076 88.784 19.076C88.532 19.076 88.424 18.968 88.424 18.752C88.424 18.584 88.448 18.14 88.484 17.156C87.668 17.948 86.78 18.62 85.784 19.172C86 19.268 86.168 19.364 86.468 19.532H91.376C91.676 19.22 91.736 19.184 91.808 19.184C91.892 19.184 91.964 19.22 92.348 19.52C92.552 19.688 92.6 19.76 92.6 19.832C92.6 19.928 92.54 19.988 92.312 20.108V20.984C92.312 22.496 92.36 23.288 92.36 23.504C92.36 23.78 92.192 23.912 91.82 23.912C91.58 23.912 91.472 23.816 91.472 23.6V23.3H86.336ZM86.336 23H88.46V21.488H86.336V23ZM91.472 23V21.488H89.288V23H91.472ZM91.472 21.188V19.832H89.288V21.188H91.472ZM88.46 19.832H86.336V21.188H88.46V19.832ZM86.768 16.364C86.552 16.364 86.444 16.232 86.36 15.896C86.252 15.488 86.06 15.092 85.76 14.768C85.724 14.732 85.796 14.672 85.844 14.684C86.744 14.948 87.236 15.38 87.236 15.836C87.236 16.148 87.032 16.364 86.768 16.364ZM97.688 17.972V18.2C97.688 18.452 97.52 18.572 97.148 18.572C96.872 18.572 96.752 18.464 96.752 18.26C96.752 18.044 96.812 17.42 96.812 15.956C96.812 15.044 96.812 14.708 96.752 14.096C97.952 14.24 98.132 14.288 98.132 14.456C98.132 14.576 98.048 14.672 97.688 14.804V17.672H100.508V15.464C100.508 14.192 100.496 13.472 100.424 13.028C101.708 13.148 101.852 13.256 101.852 13.4C101.852 13.52 101.744 13.628 101.396 13.76V17.672H104.264V15.572C104.264 14.924 104.264 14.624 104.204 14.096C105.344 14.228 105.56 14.3 105.56 14.48C105.56 14.588 105.476 14.672 105.14 14.804V15.656C105.14 17.18 105.188 17.912 105.188 18.14C105.188 18.416 105.02 18.548 104.66 18.548C104.372 18.548 104.264 18.44 104.264 18.224V17.972H101.396V22.772H104.816V20.768C104.816 20.096 104.804 19.832 104.744 19.316C105.944 19.436 106.136 19.496 106.136 19.676C106.136 19.796 106.04 19.892 105.704 20.024V20.912C105.704 22.496 105.752 23.276 105.752 23.516C105.752 23.792 105.572 23.924 105.188 23.924C104.912 23.924 104.816 23.828 104.816 23.588V23.072H97.172V23.516C97.172 23.804 97.004 23.948 96.62 23.948C96.344 23.948 96.224 23.84 96.224 23.588C96.224 23.372 96.284 22.676 96.284 21.08C96.284 20.204 96.296 19.94 96.224 19.328C97.34 19.436 97.58 19.52 97.58 19.676C97.58 19.796 97.496 19.88 97.172 20.024V22.772H100.508V17.972H97.688ZM109.904 21.632V22.28C109.904 22.544 109.748 22.712 109.352 22.712C109.064 22.712 108.956 22.58 108.956 22.376C108.956 21.848 109.028 20.984 109.028 17.744C109.028 16.052 109.016 15.2 108.956 14.384C109.424 14.564 109.628 14.66 110.072 14.912H115.904C116.312 14.468 116.372 14.42 116.444 14.42C116.528 14.42 116.6 14.468 117.044 14.84C117.236 15.008 117.272 15.08 117.272 15.152C117.272 15.248 117.2 15.332 116.936 15.512V17.312C116.936 20.312 116.996 21.74 116.996 22.184C116.996 22.484 116.84 22.628 116.408 22.628C116.132 22.628 116.024 22.508 116.024 22.28V21.632H109.904ZM116.024 21.332V15.212H109.904V21.332H116.024ZM125.444 21.476V21.68C125.444 22.928 124.46 23.276 123.452 23.276C122.42 23.276 121.46 22.928 121.46 21.968C121.46 21.02 122.54 20.612 123.656 20.612C124.16 20.612 124.472 20.66 124.676 20.684C124.58 18.8 124.52 17.216 124.508 15.26C124.508 14.852 124.496 14.696 124.4 14.576C124.268 14.408 124.124 14.348 123.968 14.312C123.848 14.288 123.788 14.288 123.716 14.276C123.644 14.264 123.596 14.24 123.596 14.168C123.596 14.096 123.62 14.06 123.68 14.024C123.824 13.928 124.028 13.844 124.196 13.844C124.496 13.844 124.82 13.988 125.156 14.216C125.42 14.42 125.576 14.54 125.576 14.756C125.576 14.852 125.54 14.948 125.444 15.044C125.336 15.152 125.288 15.26 125.276 15.44C125.252 15.728 125.228 16.196 125.228 16.4C125.228 16.556 125.324 16.568 125.504 16.568C125.696 16.556 125.924 16.496 126.188 16.412C126.464 16.316 126.776 16.22 126.956 16.064C127.148 15.896 127.328 15.824 127.544 15.824C127.964 15.824 128.24 15.968 128.24 16.208C128.24 16.424 128.12 16.508 127.94 16.58C127.664 16.688 127.316 16.796 126.908 16.904C126.536 17 126.164 17.084 125.9 17.084C125.636 17.084 125.372 17.012 125.216 16.868C125.204 17.972 125.288 19.352 125.432 20.816C126.44 21.068 127.652 21.584 128.42 22.1C128.732 22.304 128.84 22.496 128.852 22.7C128.864 23.036 128.636 23.18 128.492 23.18C128.348 23.18 128.132 23.084 127.94 22.928C127.184 22.316 126.32 21.824 125.444 21.476ZM124.676 21.272C124.4 21.212 124.016 21.14 123.632 21.14C122.696 21.14 121.88 21.356 121.88 21.956C121.88 22.484 122.336 22.676 123.26 22.676C123.8 22.676 124.172 22.544 124.4 22.292C124.64 22.052 124.676 21.716 124.676 21.272ZM135.32 18.788H135.392C135.572 18.056 135.752 17.588 135.92 17.084C136.184 16.364 136.556 15.572 136.856 15.188C137.108 14.864 137.408 14.672 137.768 14.672C138.236 14.672 138.656 15.02 138.956 15.584C139.28 16.208 139.472 17.132 139.472 17.948C139.472 19.58 139.064 20.672 138.368 21.524C137.54 22.544 136.46 23.168 135.464 23.432C135.332 23.468 135.236 23.48 135.176 23.48C135.08 23.48 135.032 23.444 135.032 23.36C135.032 23.312 135.068 23.252 135.188 23.204C136.256 22.736 137.036 22.124 137.684 21.212C138.308 20.336 138.608 19.316 138.608 17.924C138.608 17.048 138.548 16.364 138.368 15.884C138.152 15.32 137.96 15.104 137.66 15.104C137.432 15.104 137.228 15.284 137.024 15.548C136.652 16.052 136.292 17.144 136.028 18.152C135.872 18.728 135.812 19.124 135.812 19.34C135.812 19.448 135.824 19.568 135.848 19.688C135.86 19.808 135.872 19.916 135.872 20C135.872 20.276 135.728 20.396 135.536 20.396C135.248 20.396 134.996 20.072 134.864 19.568C134.744 19.112 134.696 18.668 134.696 18.128C134.696 17.288 134.876 16.304 135.044 15.464C135.14 14.96 135.176 14.708 135.176 14.48C135.176 14.18 135.044 13.916 134.852 13.652C134.816 13.604 134.768 13.58 134.768 13.532C134.768 13.472 134.9 13.436 134.984 13.436C135.152 13.436 135.512 13.7 135.752 14.096C135.968 14.444 136.028 14.672 136.028 14.876C136.028 15.008 135.968 15.14 135.908 15.212C135.848 15.272 135.776 15.404 135.728 15.56C135.428 16.448 135.284 17.36 135.284 18.128C135.284 18.236 135.296 18.464 135.32 18.788ZM102.74 35.94V38.592C103.22 38.712 103.796 38.772 104.564 38.772C105.248 38.772 105.788 38.736 106.556 38.616C106.628 38.604 106.64 38.736 106.58 38.772C106.244 38.964 106.16 39.072 106.1 39.432C106.076 39.576 106.04 39.624 105.92 39.648C105.728 39.66 105.56 39.66 105.224 39.66C103.508 39.66 102.62 39.432 101.744 38.904C101 38.412 100.484 37.836 100.04 36.828C99.632 38.04 98.996 38.964 98 39.852C97.94 39.912 97.808 39.78 97.856 39.72C98.696 38.664 99.176 37.296 99.452 35.76C99.536 35.292 99.572 34.896 99.56 34.488C100.532 34.632 100.796 34.716 100.796 34.86C100.796 34.98 100.7 35.04 100.424 35.148C100.352 35.616 100.268 36.048 100.148 36.444C100.628 37.38 101.132 37.908 101.84 38.268L101.888 38.292V33.552H99.404C99.14 33.552 98.96 33.576 98.672 33.624L98.552 33.168C98.9 33.228 99.104 33.252 99.404 33.252H101.768V31.284H100.052C99.8 31.284 99.608 31.308 99.308 31.356L99.188 30.9C99.536 30.96 99.752 30.984 100.052 30.984H101.768V30.396C101.768 29.784 101.768 29.388 101.72 28.944C102.884 29.076 103.016 29.172 103.016 29.292C103.016 29.388 102.92 29.472 102.62 29.604V30.984H104.384C104.852 30.408 104.948 30.36 105.02 30.36C105.104 30.36 105.188 30.408 105.704 30.816C105.932 31.008 105.992 31.092 105.992 31.164C105.992 31.248 105.956 31.284 105.836 31.284H102.62V33.252H104.876C105.344 32.664 105.44 32.592 105.512 32.592C105.608 32.592 105.692 32.664 106.208 33.096C106.436 33.288 106.496 33.36 106.496 33.432C106.496 33.516 106.46 33.552 106.34 33.552H102.74V35.64H104.408C104.888 35.076 104.96 35.028 105.032 35.028C105.116 35.028 105.2 35.1 105.728 35.508C105.944 35.676 106.004 35.748 106.004 35.82C106.004 35.892 105.956 35.94 105.836 35.94H102.74ZM97.604 34.44V35.82C97.604 38.124 97.616 39.264 97.616 39.6C97.616 39.876 97.448 40.02 97.088 40.02C96.848 40.02 96.692 39.936 96.692 39.672C96.692 39.408 96.74 38.544 96.752 36.096C96.764 35.592 96.764 35.076 96.776 34.572C96.356 34.944 95.912 35.28 95.384 35.628C95.324 35.664 95.228 35.556 95.276 35.508C96.104 34.704 96.86 33.636 97.352 32.724C97.568 32.328 97.7 31.944 97.796 31.62C98.732 32.004 98.984 32.148 98.984 32.28C98.984 32.424 98.828 32.484 98.468 32.496C98.12 33.036 97.784 33.492 97.424 33.9C97.868 33.984 97.952 34.044 97.952 34.164C97.952 34.248 97.892 34.32 97.604 34.44ZM95.456 32.352C95.384 32.388 95.276 32.256 95.336 32.196C96.092 31.536 96.752 30.72 97.22 29.964C97.436 29.616 97.592 29.268 97.7 28.932C98.54 29.328 98.888 29.532 98.888 29.676C98.888 29.796 98.768 29.856 98.336 29.856C97.496 30.972 96.632 31.752 95.456 32.352ZM112.628 32.916V30.492C112.628 29.856 112.616 29.424 112.556 28.98C113.78 29.1 113.924 29.196 113.924 29.316C113.924 29.412 113.816 29.508 113.504 29.652V30.936H115.52C116.024 30.36 116.108 30.312 116.18 30.312C116.264 30.312 116.36 30.36 116.888 30.768C117.128 30.984 117.188 31.056 117.188 31.128C117.188 31.2 117.152 31.236 117.032 31.236H113.504V32.916H116.732C117.26 32.316 117.344 32.256 117.416 32.256C117.5 32.256 117.584 32.316 118.124 32.76C118.376 32.964 118.424 33.036 118.424 33.108C118.424 33.18 118.388 33.216 118.268 33.216H113.504V34.788C113.504 35.58 113.528 35.868 113.528 36.084C113.528 36.444 113.384 36.672 113.18 36.828C112.988 36.972 112.724 37.056 112.448 37.056C112.28 37.056 112.256 37.02 112.196 36.732C112.148 36.492 111.992 36.372 111.116 36.132C111.044 36.108 111.056 35.964 111.128 35.976C111.74 36.048 112.184 36.06 112.46 36.06C112.58 36.06 112.628 35.988 112.628 35.856V33.216H108.572C108.272 33.216 108.044 33.24 107.708 33.288L107.588 32.832C107.972 32.892 108.224 32.916 108.56 32.916H109.748V31.368C109.736 30.84 109.724 30.432 109.676 30C110.888 30.12 111.02 30.216 111.02 30.348C111.02 30.444 110.936 30.54 110.6 30.672V32.916H112.628ZM117.452 36.384C117.284 36.384 117.152 36.288 116.9 35.904C116.372 35.112 115.712 34.512 114.98 34.092C114.932 34.068 114.98 33.936 115.04 33.948C116.684 34.296 117.896 35.148 117.896 35.88C117.896 36.156 117.728 36.384 117.452 36.384ZM107.864 37.44C107.792 37.476 107.696 37.344 107.756 37.284C108.608 36.54 109.268 35.676 109.664 34.944C109.892 34.512 110.036 34.116 110.108 33.792C111.152 34.2 111.32 34.284 111.32 34.44C111.32 34.548 111.212 34.62 110.816 34.656C110.024 35.892 109.184 36.732 107.864 37.44ZM108.092 40.008C108.008 40.02 107.96 39.852 108.044 39.828C110.732 39.204 112.736 38.304 114.176 36.768C114.644 36.264 114.92 35.892 115.172 35.412C116.168 36.06 116.216 36.096 116.216 36.24C116.216 36.372 116.108 36.432 115.688 36.42C113.84 38.604 111.668 39.6 108.092 40.008ZM120.776 31.236L120.32 31.38C120.2 31.416 120.152 31.404 120.104 31.248C120.068 31.104 120.08 31.08 120.224 31.032C121.004 30.744 121.796 30.396 122.54 30C122.66 30 122.732 30.072 122.732 30.144C122.72 31.092 122.684 31.776 122.684 32.748V36.432C122.684 37.62 122.696 37.764 122.816 38.004C122.948 38.244 123.392 38.256 123.884 38.304C123.968 38.316 123.992 38.352 123.992 38.484C123.992 38.628 123.968 38.652 123.884 38.652C123.356 38.628 122.708 38.604 122.204 38.604C121.628 38.604 121.04 38.628 120.476 38.652C120.38 38.652 120.356 38.628 120.356 38.484C120.356 38.352 120.392 38.316 120.476 38.304C120.956 38.268 121.376 38.256 121.52 38.004C121.652 37.74 121.652 37.224 121.652 36.432V32.184C121.652 31.752 121.616 31.44 121.52 31.296C121.46 31.212 121.376 31.152 121.208 31.152C121.1 31.152 120.956 31.176 120.776 31.236ZM128.012 30.06C129.524 30.06 130.472 31.776 130.472 34.44C130.472 37.152 129.548 38.868 128.012 38.868C126.44 38.868 125.528 37.224 125.528 34.512C125.528 31.764 126.476 30.06 128.012 30.06ZM128.012 30.432C126.98 30.432 126.704 32.028 126.704 34.476C126.704 36.936 126.98 38.496 128.012 38.496C129.02 38.496 129.296 36.936 129.296 34.476C129.296 32.028 129.032 30.432 128.012 30.432ZM139.304 34.2H136.532C136.244 37.26 134.768 39.012 131.696 39.936C131.612 39.96 131.54 39.78 131.612 39.744C134.18 38.436 135.296 36.876 135.56 34.2H134.48C134.12 34.2 133.856 34.212 133.508 34.284L133.376 33.78C133.784 33.876 134.084 33.9 134.444 33.9H139.172C139.568 33.492 139.628 33.444 139.712 33.444C139.784 33.444 139.856 33.492 140.276 33.876C140.468 34.068 140.516 34.128 140.516 34.2C140.516 34.284 140.468 34.32 140.18 34.512C140.072 36.276 139.928 37.56 139.628 38.424C139.484 38.88 139.316 39.204 139.028 39.432C138.788 39.636 138.44 39.744 138.104 39.744C137.888 39.744 137.816 39.708 137.78 39.492C137.72 39.18 137.468 38.976 136.4 38.7C136.316 38.676 136.328 38.46 136.412 38.472C137.288 38.616 137.78 38.688 138.188 38.688C138.536 38.688 138.692 38.412 138.884 37.692C139.076 36.948 139.196 35.94 139.304 34.2ZM141.884 34.524C141.812 34.524 141.62 34.428 141.392 34.284C140.78 33.864 140.264 33.396 139.868 32.94C139.172 32.172 138.68 31.284 138.116 29.772C138.092 29.688 138.032 29.616 137.96 29.556C137.888 29.508 137.852 29.46 137.852 29.412C137.852 29.328 138.188 29.208 138.308 29.208C138.368 29.208 138.416 29.244 138.416 29.304C138.416 29.34 138.368 29.436 138.368 29.496C138.368 29.556 138.392 29.628 138.428 29.724C138.848 30.744 139.484 31.572 140.132 32.136C140.9 32.832 141.764 33.24 142.652 33.492C142.724 33.516 142.7 33.648 142.628 33.66C142.328 33.696 142.196 33.852 142.064 34.284C142.016 34.464 141.968 34.524 141.884 34.524ZM131.516 34.716C131.444 34.752 131.336 34.596 131.408 34.548C132.86 33.42 133.916 32.028 134.612 30.492C134.828 30.012 134.972 29.592 135.056 29.148C136.124 29.508 136.4 29.664 136.4 29.796C136.4 29.94 136.304 30.012 135.896 30.048C134.852 32.208 133.58 33.6 131.516 34.716Z" fill="black"/>
<path d="M148 0.5V51.5L158 40.896" stroke="#0A0814" stroke-linecap="round"/>
<path d="M220.568 16.124H219.188C218.972 17.744 218.456 19.328 217.508 20.672C218.54 21.812 219.632 22.364 220.7 22.736C220.748 22.748 220.724 22.832 220.676 22.856C220.352 22.988 220.268 23.084 220.148 23.468C220.088 23.672 220.04 23.708 219.944 23.708C219.872 23.708 219.716 23.648 219.404 23.456C218.48 22.928 217.736 22.184 217.052 21.248C216.008 22.448 214.58 23.324 212.84 23.828C212.768 23.852 212.708 23.708 212.768 23.672C214.412 22.868 215.696 21.836 216.608 20.564C215.996 19.484 215.636 18.284 215.408 17.06C215 17.708 214.544 18.272 213.968 18.812C213.92 18.848 213.812 18.764 213.848 18.716C214.652 17.612 215.336 16.016 215.672 14.504C215.792 14.012 215.864 13.544 215.9 13.1C217.064 13.4 217.196 13.46 217.196 13.616C217.196 13.748 217.064 13.808 216.788 13.856C216.56 14.6 216.32 15.248 216.068 15.824H219.032C219.56 15.2 219.656 15.14 219.728 15.14C219.8 15.14 219.884 15.2 220.436 15.656C220.676 15.86 220.736 15.944 220.736 16.016C220.736 16.088 220.688 16.124 220.568 16.124ZM218.264 16.124H215.924C215.828 16.328 215.72 16.532 215.6 16.736C215.852 17.9 216.296 19.04 216.98 20.012C217.676 18.824 218.108 17.492 218.264 16.124ZM212.864 17.708H210.812V20.864C210.812 21.356 210.944 21.524 211.952 21.524C212.78 21.524 213.068 21.464 213.26 21.2C213.452 20.936 213.584 20.444 213.776 19.736C213.788 19.676 213.908 19.688 213.908 19.748C213.896 20.108 213.872 20.648 213.872 20.84C213.872 21.056 213.908 21.092 214.064 21.152C214.196 21.2 214.244 21.32 214.244 21.488C214.244 21.728 214.052 21.944 213.716 22.088C213.38 22.22 212.852 22.304 211.832 22.304C210.368 22.304 209.972 21.956 209.972 21.02C209.972 20.732 209.996 20.12 209.996 19.1C209.996 17.984 209.984 17.576 209.936 16.916C210.368 17.084 210.548 17.18 210.956 17.408H212.864V14.48H210.8C210.392 14.48 210.188 14.492 209.864 14.552L209.756 14.096C210.116 14.168 210.344 14.18 210.776 14.18H212.732C213.08 13.796 213.164 13.736 213.236 13.736C213.332 13.736 213.392 13.772 213.788 14.096C213.98 14.264 214.028 14.336 214.028 14.408C214.028 14.492 213.968 14.564 213.68 14.756V15.8C213.68 16.976 213.728 17.576 213.728 17.828C213.728 18.104 213.548 18.236 213.212 18.236C212.972 18.236 212.864 18.152 212.864 17.924V17.708ZM224.756 16.016V17.156C226.064 17.636 226.676 18.26 226.676 18.848C226.676 19.148 226.472 19.376 226.244 19.376C226.052 19.376 225.944 19.28 225.848 18.968C225.608 18.308 225.308 17.78 224.756 17.372V18.344C224.756 21.08 224.792 22.892 224.792 23.528C224.792 23.792 224.6 23.912 224.24 23.912C223.964 23.912 223.844 23.816 223.844 23.588C223.844 23.18 223.928 21.488 223.964 17.948C223.28 19.364 222.548 20.372 221.612 21.2C221.552 21.26 221.432 21.14 221.48 21.068C222.572 19.592 223.424 17.804 223.796 16.016H222.632C222.392 16.016 222.224 16.028 221.924 16.088L221.804 15.632C222.14 15.692 222.332 15.716 222.62 15.716H223.904V14.528C223.904 13.784 223.892 13.436 223.844 13.004C225.056 13.124 225.188 13.208 225.188 13.352C225.188 13.46 225.104 13.556 224.756 13.688V15.716H225.596C226.04 15.152 226.124 15.092 226.196 15.092C226.28 15.092 226.352 15.152 226.796 15.572C227 15.74 227.06 15.824 227.06 15.896C227.06 15.968 227.012 16.016 226.892 16.016H224.756ZM228.56 13.808V22.148C228.56 22.76 228.692 22.82 229.832 22.82C230.792 22.82 230.996 22.784 231.224 22.508C231.404 22.292 231.62 21.668 231.872 20.708C231.884 20.648 232.016 20.684 232.016 20.744C231.992 21.224 231.956 22.004 231.956 22.196C231.956 22.436 231.992 22.496 232.148 22.568C232.316 22.628 232.4 22.748 232.4 22.892C232.4 23.12 232.256 23.3 231.932 23.42C231.548 23.564 230.864 23.636 229.748 23.636C228.02 23.636 227.66 23.384 227.66 22.364C227.66 21.8 227.672 20.972 227.672 17.816C227.672 15.404 227.672 14.168 227.6 13.112C228.788 13.256 228.992 13.316 228.992 13.472C228.992 13.568 228.92 13.64 228.56 13.808ZM239.444 21.476V21.68C239.444 22.928 238.46 23.276 237.452 23.276C236.42 23.276 235.46 22.928 235.46 21.968C235.46 21.02 236.54 20.612 237.656 20.612C238.16 20.612 238.472 20.66 238.676 20.684C238.58 18.8 238.52 17.216 238.508 15.26C238.508 14.852 238.496 14.696 238.4 14.576C238.268 14.408 238.124 14.348 237.968 14.312C237.848 14.288 237.788 14.288 237.716 14.276C237.644 14.264 237.596 14.24 237.596 14.168C237.596 14.096 237.62 14.06 237.68 14.024C237.824 13.928 238.028 13.844 238.196 13.844C238.496 13.844 238.82 13.988 239.156 14.216C239.42 14.42 239.576 14.54 239.576 14.756C239.576 14.852 239.54 14.948 239.444 15.044C239.336 15.152 239.288 15.26 239.276 15.44C239.252 15.728 239.228 16.196 239.228 16.4C239.228 16.556 239.324 16.568 239.504 16.568C239.696 16.556 239.924 16.496 240.188 16.412C240.464 16.316 240.776 16.22 240.956 16.064C241.148 15.896 241.328 15.824 241.544 15.824C241.964 15.824 242.24 15.968 242.24 16.208C242.24 16.424 242.12 16.508 241.94 16.58C241.664 16.688 241.316 16.796 240.908 16.904C240.536 17 240.164 17.084 239.9 17.084C239.636 17.084 239.372 17.012 239.216 16.868C239.204 17.972 239.288 19.352 239.432 20.816C240.44 21.068 241.652 21.584 242.42 22.1C242.732 22.304 242.84 22.496 242.852 22.7C242.864 23.036 242.636 23.18 242.492 23.18C242.348 23.18 242.132 23.084 241.94 22.928C241.184 22.316 240.32 21.824 239.444 21.476ZM238.676 21.272C238.4 21.212 238.016 21.14 237.632 21.14C236.696 21.14 235.88 21.356 235.88 21.956C235.88 22.484 236.336 22.676 237.26 22.676C237.8 22.676 238.172 22.544 238.4 22.292C238.64 22.052 238.676 21.716 238.676 21.272ZM249.32 18.788H249.392C249.572 18.056 249.752 17.588 249.92 17.084C250.184 16.364 250.556 15.572 250.856 15.188C251.108 14.864 251.408 14.672 251.768 14.672C252.236 14.672 252.656 15.02 252.956 15.584C253.28 16.208 253.472 17.132 253.472 17.948C253.472 19.58 253.064 20.672 252.368 21.524C251.54 22.544 250.46 23.168 249.464 23.432C249.332 23.468 249.236 23.48 249.176 23.48C249.08 23.48 249.032 23.444 249.032 23.36C249.032 23.312 249.068 23.252 249.188 23.204C250.256 22.736 251.036 22.124 251.684 21.212C252.308 20.336 252.608 19.316 252.608 17.924C252.608 17.048 252.548 16.364 252.368 15.884C252.152 15.32 251.96 15.104 251.66 15.104C251.432 15.104 251.228 15.284 251.024 15.548C250.652 16.052 250.292 17.144 250.028 18.152C249.872 18.728 249.812 19.124 249.812 19.34C249.812 19.448 249.824 19.568 249.848 19.688C249.86 19.808 249.872 19.916 249.872 20C249.872 20.276 249.728 20.396 249.536 20.396C249.248 20.396 248.996 20.072 248.864 19.568C248.744 19.112 248.696 18.668 248.696 18.128C248.696 17.288 248.876 16.304 249.044 15.464C249.14 14.96 249.176 14.708 249.176 14.48C249.176 14.18 249.044 13.916 248.852 13.652C248.816 13.604 248.768 13.58 248.768 13.532C248.768 13.472 248.9 13.436 248.984 13.436C249.152 13.436 249.512 13.7 249.752 14.096C249.968 14.444 250.028 14.672 250.028 14.876C250.028 15.008 249.968 15.14 249.908 15.212C249.848 15.272 249.776 15.404 249.728 15.56C249.428 16.448 249.284 17.36 249.284 18.128C249.284 18.236 249.296 18.464 249.32 18.788ZM222.74 35.94V38.592C223.22 38.712 223.796 38.772 224.564 38.772C225.248 38.772 225.788 38.736 226.556 38.616C226.628 38.604 226.64 38.736 226.58 38.772C226.244 38.964 226.16 39.072 226.1 39.432C226.076 39.576 226.04 39.624 225.92 39.648C225.728 39.66 225.56 39.66 225.224 39.66C223.508 39.66 222.62 39.432 221.744 38.904C221 38.412 220.484 37.836 220.04 36.828C219.632 38.04 218.996 38.964 218 39.852C217.94 39.912 217.808 39.78 217.856 39.72C218.696 38.664 219.176 37.296 219.452 35.76C219.536 35.292 219.572 34.896 219.56 34.488C220.532 34.632 220.796 34.716 220.796 34.86C220.796 34.98 220.7 35.04 220.424 35.148C220.352 35.616 220.268 36.048 220.148 36.444C220.628 37.38 221.132 37.908 221.84 38.268L221.888 38.292V33.552H219.404C219.14 33.552 218.96 33.576 218.672 33.624L218.552 33.168C218.9 33.228 219.104 33.252 219.404 33.252H221.768V31.284H220.052C219.8 31.284 219.608 31.308 219.308 31.356L219.188 30.9C219.536 30.96 219.752 30.984 220.052 30.984H221.768V30.396C221.768 29.784 221.768 29.388 221.72 28.944C222.884 29.076 223.016 29.172 223.016 29.292C223.016 29.388 222.92 29.472 222.62 29.604V30.984H224.384C224.852 30.408 224.948 30.36 225.02 30.36C225.104 30.36 225.188 30.408 225.704 30.816C225.932 31.008 225.992 31.092 225.992 31.164C225.992 31.248 225.956 31.284 225.836 31.284H222.62V33.252H224.876C225.344 32.664 225.44 32.592 225.512 32.592C225.608 32.592 225.692 32.664 226.208 33.096C226.436 33.288 226.496 33.36 226.496 33.432C226.496 33.516 226.46 33.552 226.34 33.552H222.74V35.64H224.408C224.888 35.076 224.96 35.028 225.032 35.028C225.116 35.028 225.2 35.1 225.728 35.508C225.944 35.676 226.004 35.748 226.004 35.82C226.004 35.892 225.956 35.94 225.836 35.94H222.74ZM217.604 34.44V35.82C217.604 38.124 217.616 39.264 217.616 39.6C217.616 39.876 217.448 40.02 217.088 40.02C216.848 40.02 216.692 39.936 216.692 39.672C216.692 39.408 216.74 38.544 216.752 36.096C216.764 35.592 216.764 35.076 216.776 34.572C216.356 34.944 215.912 35.28 215.384 35.628C215.324 35.664 215.228 35.556 215.276 35.508C216.104 34.704 216.86 33.636 217.352 32.724C217.568 32.328 217.7 31.944 217.796 31.62C218.732 32.004 218.984 32.148 218.984 32.28C218.984 32.424 218.828 32.484 218.468 32.496C218.12 33.036 217.784 33.492 217.424 33.9C217.868 33.984 217.952 34.044 217.952 34.164C217.952 34.248 217.892 34.32 217.604 34.44ZM215.456 32.352C215.384 32.388 215.276 32.256 215.336 32.196C216.092 31.536 216.752 30.72 217.22 29.964C217.436 29.616 217.592 29.268 217.7 28.932C218.54 29.328 218.888 29.532 218.888 29.676C218.888 29.796 218.768 29.856 218.336 29.856C217.496 30.972 216.632 31.752 215.456 32.352ZM232.628 32.916V30.492C232.628 29.856 232.616 29.424 232.556 28.98C233.78 29.1 233.924 29.196 233.924 29.316C233.924 29.412 233.816 29.508 233.504 29.652V30.936H235.52C236.024 30.36 236.108 30.312 236.18 30.312C236.264 30.312 236.36 30.36 236.888 30.768C237.128 30.984 237.188 31.056 237.188 31.128C237.188 31.2 237.152 31.236 237.032 31.236H233.504V32.916H236.732C237.26 32.316 237.344 32.256 237.416 32.256C237.5 32.256 237.584 32.316 238.124 32.76C238.376 32.964 238.424 33.036 238.424 33.108C238.424 33.18 238.388 33.216 238.268 33.216H233.504V34.788C233.504 35.58 233.528 35.868 233.528 36.084C233.528 36.444 233.384 36.672 233.18 36.828C232.988 36.972 232.724 37.056 232.448 37.056C232.28 37.056 232.256 37.02 232.196 36.732C232.148 36.492 231.992 36.372 231.116 36.132C231.044 36.108 231.056 35.964 231.128 35.976C231.74 36.048 232.184 36.06 232.46 36.06C232.58 36.06 232.628 35.988 232.628 35.856V33.216H228.572C228.272 33.216 228.044 33.24 227.708 33.288L227.588 32.832C227.972 32.892 228.224 32.916 228.56 32.916H229.748V31.368C229.736 30.84 229.724 30.432 229.676 30C230.888 30.12 231.02 30.216 231.02 30.348C231.02 30.444 230.936 30.54 230.6 30.672V32.916H232.628ZM237.452 36.384C237.284 36.384 237.152 36.288 236.9 35.904C236.372 35.112 235.712 34.512 234.98 34.092C234.932 34.068 234.98 33.936 235.04 33.948C236.684 34.296 237.896 35.148 237.896 35.88C237.896 36.156 237.728 36.384 237.452 36.384ZM227.864 37.44C227.792 37.476 227.696 37.344 227.756 37.284C228.608 36.54 229.268 35.676 229.664 34.944C229.892 34.512 230.036 34.116 230.108 33.792C231.152 34.2 231.32 34.284 231.32 34.44C231.32 34.548 231.212 34.62 230.816 34.656C230.024 35.892 229.184 36.732 227.864 37.44ZM228.092 40.008C228.008 40.02 227.96 39.852 228.044 39.828C230.732 39.204 232.736 38.304 234.176 36.768C234.644 36.264 234.92 35.892 235.172 35.412C236.168 36.06 236.216 36.096 236.216 36.24C236.216 36.372 236.108 36.432 235.688 36.42C233.84 38.604 231.668 39.6 228.092 40.008ZM240.62 31.284L240.416 33.576C240.404 33.756 240.38 33.96 240.356 34.2C240.776 33.708 241.316 33.468 242.048 33.468C243.452 33.468 244.376 34.488 244.376 36.036C244.376 37.608 243.428 38.868 241.784 38.868C241.184 38.868 240.62 38.7 240.236 38.46C239.852 38.244 239.444 37.872 239.444 37.476C239.444 37.224 239.732 36.984 240.188 36.984C240.572 36.984 240.716 37.56 240.86 37.848C241.016 38.196 241.316 38.496 241.784 38.496C242.78 38.496 243.2 37.428 243.2 36.048C243.2 34.692 242.528 33.912 241.772 33.912C241.076 33.912 240.656 34.248 240.332 34.776C240.26 34.896 240.188 34.908 239.996 34.836C239.84 34.764 239.84 34.704 239.864 34.596C239.888 34.5 239.9 34.368 239.912 34.26L240.236 30.516C240.236 30.456 240.248 30.42 240.308 30.36C240.368 30.312 240.392 30.288 240.452 30.288C240.908 30.3 241.58 30.3 242.192 30.3C242.648 30.3 243.344 30.288 244.112 30.24C244.184 30.24 244.208 30.276 244.208 30.348L243.908 31.224C243.896 31.272 243.836 31.308 243.788 31.308C243.296 31.296 242.96 31.284 242.492 31.284H240.62ZM253.304 34.2H250.532C250.244 37.26 248.768 39.012 245.696 39.936C245.612 39.96 245.54 39.78 245.612 39.744C248.18 38.436 249.296 36.876 249.56 34.2H248.48C248.12 34.2 247.856 34.212 247.508 34.284L247.376 33.78C247.784 33.876 248.084 33.9 248.444 33.9H253.172C253.568 33.492 253.628 33.444 253.712 33.444C253.784 33.444 253.856 33.492 254.276 33.876C254.468 34.068 254.516 34.128 254.516 34.2C254.516 34.284 254.468 34.32 254.18 34.512C254.072 36.276 253.928 37.56 253.628 38.424C253.484 38.88 253.316 39.204 253.028 39.432C252.788 39.636 252.44 39.744 252.104 39.744C251.888 39.744 251.816 39.708 251.78 39.492C251.72 39.18 251.468 38.976 250.4 38.7C250.316 38.676 250.328 38.46 250.412 38.472C251.288 38.616 251.78 38.688 252.188 38.688C252.536 38.688 252.692 38.412 252.884 37.692C253.076 36.948 253.196 35.94 253.304 34.2ZM255.884 34.524C255.812 34.524 255.62 34.428 255.392 34.284C254.78 33.864 254.264 33.396 253.868 32.94C253.172 32.172 252.68 31.284 252.116 29.772C252.092 29.688 252.032 29.616 251.96 29.556C251.888 29.508 251.852 29.46 251.852 29.412C251.852 29.328 252.188 29.208 252.308 29.208C252.368 29.208 252.416 29.244 252.416 29.304C252.416 29.34 252.368 29.436 252.368 29.496C252.368 29.556 252.392 29.628 252.428 29.724C252.848 30.744 253.484 31.572 254.132 32.136C254.9 32.832 255.764 33.24 256.652 33.492C256.724 33.516 256.7 33.648 256.628 33.66C256.328 33.696 256.196 33.852 256.064 34.284C256.016 34.464 255.968 34.524 255.884 34.524ZM245.516 34.716C245.444 34.752 245.336 34.596 245.408 34.548C246.86 33.42 247.916 32.028 248.612 30.492C248.828 30.012 248.972 29.592 249.056 29.148C250.124 29.508 250.4 29.664 250.4 29.796C250.4 29.94 250.304 30.012 249.896 30.048C248.852 32.208 247.58 33.6 245.516 34.716Z" fill="black"/>
<path d="M262 0.5V51.5L272 40.896" stroke="#0A0814" stroke-linecap="round"/>
<path d="M336.74 27.94V30.592C337.22 30.712 337.796 30.772 338.564 30.772C339.248 30.772 339.788 30.736 340.556 30.616C340.628 30.604 340.64 30.736 340.58 30.772C340.244 30.964 340.16 31.072 340.1 31.432C340.076 31.576 340.04 31.624 339.92 31.648C339.728 31.66 339.56 31.66 339.224 31.66C337.508 31.66 336.62 31.432 335.744 30.904C335 30.412 334.484 29.836 334.04 28.828C333.632 30.04 332.996 30.964 332 31.852C331.94 31.912 331.808 31.78 331.856 31.72C332.696 30.664 333.176 29.296 333.452 27.76C333.536 27.292 333.572 26.896 333.56 26.488C334.532 26.632 334.796 26.716 334.796 26.86C334.796 26.98 334.7 27.04 334.424 27.148C334.352 27.616 334.268 28.048 334.148 28.444C334.628 29.38 335.132 29.908 335.84 30.268L335.888 30.292V25.552H333.404C333.14 25.552 332.96 25.576 332.672 25.624L332.552 25.168C332.9 25.228 333.104 25.252 333.404 25.252H335.768V23.284H334.052C333.8 23.284 333.608 23.308 333.308 23.356L333.188 22.9C333.536 22.96 333.752 22.984 334.052 22.984H335.768V22.396C335.768 21.784 335.768 21.388 335.72 20.944C336.884 21.076 337.016 21.172 337.016 21.292C337.016 21.388 336.92 21.472 336.62 21.604V22.984H338.384C338.852 22.408 338.948 22.36 339.02 22.36C339.104 22.36 339.188 22.408 339.704 22.816C339.932 23.008 339.992 23.092 339.992 23.164C339.992 23.248 339.956 23.284 339.836 23.284H336.62V25.252H338.876C339.344 24.664 339.44 24.592 339.512 24.592C339.608 24.592 339.692 24.664 340.208 25.096C340.436 25.288 340.496 25.36 340.496 25.432C340.496 25.516 340.46 25.552 340.34 25.552H336.74V27.64H338.408C338.888 27.076 338.96 27.028 339.032 27.028C339.116 27.028 339.2 27.1 339.728 27.508C339.944 27.676 340.004 27.748 340.004 27.82C340.004 27.892 339.956 27.94 339.836 27.94H336.74ZM331.604 26.44V27.82C331.604 30.124 331.616 31.264 331.616 31.6C331.616 31.876 331.448 32.02 331.088 32.02C330.848 32.02 330.692 31.936 330.692 31.672C330.692 31.408 330.74 30.544 330.752 28.096C330.764 27.592 330.764 27.076 330.776 26.572C330.356 26.944 329.912 27.28 329.384 27.628C329.324 27.664 329.228 27.556 329.276 27.508C330.104 26.704 330.86 25.636 331.352 24.724C331.568 24.328 331.7 23.944 331.796 23.62C332.732 24.004 332.984 24.148 332.984 24.28C332.984 24.424 332.828 24.484 332.468 24.496C332.12 25.036 331.784 25.492 331.424 25.9C331.868 25.984 331.952 26.044 331.952 26.164C331.952 26.248 331.892 26.32 331.604 26.44ZM329.456 24.352C329.384 24.388 329.276 24.256 329.336 24.196C330.092 23.536 330.752 22.72 331.22 21.964C331.436 21.616 331.592 21.268 331.7 20.932C332.54 21.328 332.888 21.532 332.888 21.676C332.888 21.796 332.768 21.856 332.336 21.856C331.496 22.972 330.632 23.752 329.456 24.352ZM346.628 24.916V22.492C346.628 21.856 346.616 21.424 346.556 20.98C347.78 21.1 347.924 21.196 347.924 21.316C347.924 21.412 347.816 21.508 347.504 21.652V22.936H349.52C350.024 22.36 350.108 22.312 350.18 22.312C350.264 22.312 350.36 22.36 350.888 22.768C351.128 22.984 351.188 23.056 351.188 23.128C351.188 23.2 351.152 23.236 351.032 23.236H347.504V24.916H350.732C351.26 24.316 351.344 24.256 351.416 24.256C351.5 24.256 351.584 24.316 352.124 24.76C352.376 24.964 352.424 25.036 352.424 25.108C352.424 25.18 352.388 25.216 352.268 25.216H347.504V26.788C347.504 27.58 347.528 27.868 347.528 28.084C347.528 28.444 347.384 28.672 347.18 28.828C346.988 28.972 346.724 29.056 346.448 29.056C346.28 29.056 346.256 29.02 346.196 28.732C346.148 28.492 345.992 28.372 345.116 28.132C345.044 28.108 345.056 27.964 345.128 27.976C345.74 28.048 346.184 28.06 346.46 28.06C346.58 28.06 346.628 27.988 346.628 27.856V25.216H342.572C342.272 25.216 342.044 25.24 341.708 25.288L341.588 24.832C341.972 24.892 342.224 24.916 342.56 24.916H343.748V23.368C343.736 22.84 343.724 22.432 343.676 22C344.888 22.12 345.02 22.216 345.02 22.348C345.02 22.444 344.936 22.54 344.6 22.672V24.916H346.628ZM351.452 28.384C351.284 28.384 351.152 28.288 350.9 27.904C350.372 27.112 349.712 26.512 348.98 26.092C348.932 26.068 348.98 25.936 349.04 25.948C350.684 26.296 351.896 27.148 351.896 27.88C351.896 28.156 351.728 28.384 351.452 28.384ZM341.864 29.44C341.792 29.476 341.696 29.344 341.756 29.284C342.608 28.54 343.268 27.676 343.664 26.944C343.892 26.512 344.036 26.116 344.108 25.792C345.152 26.2 345.32 26.284 345.32 26.44C345.32 26.548 345.212 26.62 344.816 26.656C344.024 27.892 343.184 28.732 341.864 29.44ZM342.092 32.008C342.008 32.02 341.96 31.852 342.044 31.828C344.732 31.204 346.736 30.304 348.176 28.768C348.644 28.264 348.92 27.892 349.172 27.412C350.168 28.06 350.216 28.096 350.216 28.24C350.216 28.372 350.108 28.432 349.688 28.42C347.84 30.604 345.668 31.6 342.092 32.008ZM356.36 26.068V26.116C357.656 26.368 358.424 27.148 358.424 28.312C358.424 29.872 357.392 30.868 355.844 30.868C355.088 30.868 354.596 30.652 354.2 30.4C353.84 30.172 353.456 29.812 353.456 29.428C353.456 29.14 353.756 28.912 354.224 28.912C354.584 28.912 354.728 29.5 354.872 29.812C355.016 30.148 355.28 30.484 355.844 30.484C356.732 30.484 357.248 29.644 357.248 28.276C357.248 27.436 356.888 26.26 355.616 26.344C355.472 26.356 355.232 26.38 355.124 26.38C355.004 26.38 354.956 26.368 354.992 26.152C355.04 25.936 355.112 25.888 355.232 25.888C355.352 25.888 355.508 25.924 355.64 25.924C356.312 25.924 357.044 25.372 357.044 24.076C357.044 23.176 356.696 22.432 355.928 22.432C355.52 22.432 355.172 22.612 355.004 22.96C354.908 23.164 354.884 23.356 354.884 23.56C354.884 23.908 354.524 24.148 354.08 24.148C353.804 24.148 353.648 24.028 353.648 23.788C353.648 23.092 354.56 22.06 355.928 22.06C357.164 22.06 358.148 22.804 358.148 24.076C358.148 25.3 357.26 25.828 356.36 26.068ZM367.304 26.2H364.532C364.244 29.26 362.768 31.012 359.696 31.936C359.612 31.96 359.54 31.78 359.612 31.744C362.18 30.436 363.296 28.876 363.56 26.2H362.48C362.12 26.2 361.856 26.212 361.508 26.284L361.376 25.78C361.784 25.876 362.084 25.9 362.444 25.9H367.172C367.568 25.492 367.628 25.444 367.712 25.444C367.784 25.444 367.856 25.492 368.276 25.876C368.468 26.068 368.516 26.128 368.516 26.2C368.516 26.284 368.468 26.32 368.18 26.512C368.072 28.276 367.928 29.56 367.628 30.424C367.484 30.88 367.316 31.204 367.028 31.432C366.788 31.636 366.44 31.744 366.104 31.744C365.888 31.744 365.816 31.708 365.78 31.492C365.72 31.18 365.468 30.976 364.4 30.7C364.316 30.676 364.328 30.46 364.412 30.472C365.288 30.616 365.78 30.688 366.188 30.688C366.536 30.688 366.692 30.412 366.884 29.692C367.076 28.948 367.196 27.94 367.304 26.2ZM369.884 26.524C369.812 26.524 369.62 26.428 369.392 26.284C368.78 25.864 368.264 25.396 367.868 24.94C367.172 24.172 366.68 23.284 366.116 21.772C366.092 21.688 366.032 21.616 365.96 21.556C365.888 21.508 365.852 21.46 365.852 21.412C365.852 21.328 366.188 21.208 366.308 21.208C366.368 21.208 366.416 21.244 366.416 21.304C366.416 21.34 366.368 21.436 366.368 21.496C366.368 21.556 366.392 21.628 366.428 21.724C366.848 22.744 367.484 23.572 368.132 24.136C368.9 24.832 369.764 25.24 370.652 25.492C370.724 25.516 370.7 25.648 370.628 25.66C370.328 25.696 370.196 25.852 370.064 26.284C370.016 26.464 369.968 26.524 369.884 26.524ZM359.516 26.716C359.444 26.752 359.336 26.596 359.408 26.548C360.86 25.42 361.916 24.028 362.612 22.492C362.828 22.012 362.972 21.592 363.056 21.148C364.124 21.508 364.4 21.664 364.4 21.796C364.4 21.94 364.304 22.012 363.896 22.048C362.852 24.208 361.58 25.6 359.516 26.716Z" fill="black"/>
<path d="M376 0.5V51.5L386 40.896" stroke="#0A0814" stroke-linecap="round"/>
</svg>
