<svg width="386" height="53" viewBox="0 0 386 53" fill="none" xmlns="http://www.w3.org/2000/svg">
<path d="M91.0787 21.764V22.448C91.0787 22.988 91.2227 23.036 92.9987 23.036C94.6547 23.036 95.0267 23 95.2787 22.808C95.4947 22.616 95.6027 22.268 95.9027 21.308C95.9147 21.248 96.0587 21.284 96.0467 21.344C95.9987 21.752 95.9627 22.28 95.9627 22.4C95.9627 22.568 95.9987 22.604 96.1067 22.664C96.2747 22.76 96.3347 22.868 96.3347 23.036C96.3347 23.3 96.1427 23.492 95.7587 23.612C95.3387 23.732 94.5587 23.792 92.7467 23.792C90.6827 23.792 90.2387 23.588 90.2387 22.592C90.2387 22.388 90.2387 22.172 90.2507 21.764H87.7427V22.076C87.7427 22.352 87.5867 22.46 87.2147 22.46C86.9627 22.46 86.8547 22.364 86.8547 22.172C86.8547 21.908 86.9027 21.44 86.9027 19.892C86.9027 19.064 86.8907 18.608 86.8307 18.044C87.2747 18.212 87.4427 18.284 87.8507 18.5H93.6587C94.0187 18.104 94.0787 18.056 94.1507 18.056C94.2347 18.056 94.3067 18.104 94.7267 18.44C94.9187 18.584 94.9547 18.656 94.9547 18.728C94.9547 18.836 94.8947 18.908 94.6307 19.088V19.748C94.6307 21.008 94.6667 21.608 94.6667 21.788C94.6667 22.064 94.4747 22.184 94.1387 22.184C93.8747 22.184 93.7667 22.1 93.7667 21.872V21.764H91.0787ZM90.2507 21.464V20.252H87.7427V21.464H90.2507ZM91.0787 21.464H93.7667V20.252H91.0787V21.464ZM91.0787 18.8V19.952H93.7667V18.8H91.0787ZM90.2507 18.8H87.7427V19.952H90.2507V18.8ZM90.3107 14.996H86.8067C86.7947 15.872 86.5067 16.556 85.8947 16.556C85.6427 16.556 85.4507 16.352 85.4507 16.1C85.4507 15.884 85.5107 15.788 85.8347 15.608C86.3147 15.32 86.5187 14.96 86.6027 14.252C86.6147 14.18 86.7467 14.168 86.7587 14.24C86.7827 14.396 86.7947 14.552 86.8067 14.696H90.3107V13.772H87.7787C87.4907 13.772 87.2987 13.784 86.9627 13.844L86.8427 13.4C87.2147 13.448 87.4547 13.472 87.7667 13.472H93.5027C94.0187 12.896 94.1027 12.836 94.1747 12.836C94.2587 12.836 94.3427 12.896 94.8947 13.316C95.1347 13.508 95.1947 13.58 95.1947 13.652C95.1947 13.736 95.1467 13.772 95.0387 13.772H91.1267V14.696H94.8947C95.2427 14.312 95.3027 14.264 95.3867 14.264C95.4707 14.264 95.5307 14.312 96.0347 14.756C96.2507 14.948 96.2987 15.032 96.2987 15.104C96.2987 15.272 96.1787 15.332 95.7947 15.332C95.6747 15.332 95.6387 15.344 95.4947 15.512C95.2787 15.74 95.0507 15.932 94.7267 16.16C94.6907 16.184 94.6307 16.136 94.6427 16.088C94.7867 15.716 94.9067 15.356 94.9907 14.996H91.1267V15.536C91.1267 16.532 91.1627 17.444 91.1627 17.708C91.1627 17.96 90.9827 18.092 90.6347 18.092C90.3467 18.092 90.2507 17.996 90.2507 17.72C90.2507 17.576 90.3107 17.06 90.3107 16.076V14.996ZM91.7267 16.316L91.6187 15.896C91.8707 15.944 92.0267 15.956 92.2667 15.956H93.1667C93.5147 15.536 93.6107 15.476 93.6707 15.476C93.7427 15.476 93.8387 15.536 94.2347 15.86C94.3907 15.992 94.4387 16.076 94.4387 16.148C94.4387 16.22 94.4027 16.256 94.2947 16.256H92.2907C92.1347 16.256 91.9907 16.268 91.7267 16.316ZM91.7507 17.552L91.6427 17.12C91.9187 17.18 92.0867 17.192 92.3267 17.192H93.6587C94.0547 16.724 94.1387 16.664 94.2107 16.664C94.2947 16.664 94.3787 16.724 94.8347 17.084C95.0147 17.228 95.0627 17.3 95.0627 17.372C95.0627 17.456 95.0267 17.492 94.9187 17.492H92.3747C92.1827 17.492 92.0267 17.516 91.7507 17.552ZM87.1067 16.316L86.9987 15.896C87.2507 15.944 87.4307 15.956 87.6587 15.956H88.5227C88.8467 15.536 88.9427 15.476 89.0027 15.476C89.0747 15.476 89.1707 15.536 89.5787 15.884C89.7227 16.004 89.7827 16.076 89.7827 16.148C89.7827 16.22 89.7467 16.256 89.6267 16.256H87.6827C87.5267 16.256 87.3827 16.268 87.1067 16.316ZM86.6867 17.552L86.5787 17.12C86.8427 17.18 87.0107 17.192 87.2507 17.192H88.4627C88.8227 16.748 88.9067 16.688 88.9787 16.688C89.0627 16.688 89.1467 16.748 89.5547 17.096C89.7347 17.228 89.7827 17.3 89.7827 17.372C89.7827 17.456 89.7467 17.492 89.6267 17.492H87.2867C87.1067 17.492 86.9627 17.516 86.6867 17.552ZM102.251 16.088V14.828H98.6507C98.3267 14.828 98.0987 14.852 97.7507 14.9L97.6187 14.444C98.0267 14.516 98.2907 14.528 98.6507 14.528H102.251C102.239 13.568 102.227 13.268 102.179 12.92C103.355 13.052 103.475 13.1 103.475 13.268C103.475 13.376 103.403 13.448 103.079 13.58V14.528H106.367C106.883 13.928 106.967 13.868 107.039 13.868C107.123 13.868 107.231 13.904 107.771 14.348C108.035 14.552 108.071 14.648 108.071 14.72C108.071 14.792 108.035 14.828 107.915 14.828H103.079V16.088H105.587C105.935 15.68 106.007 15.632 106.079 15.632C106.151 15.632 106.223 15.68 106.631 16.016C106.823 16.172 106.859 16.244 106.859 16.316C106.859 16.424 106.811 16.484 106.511 16.7V17.54C106.511 19.148 106.571 19.904 106.571 20.132C106.571 20.396 106.415 20.516 106.031 20.516C105.791 20.516 105.683 20.432 105.683 20.192V19.988H103.091C103.091 20.444 103.103 20.912 103.103 21.368H106.559C107.039 20.768 107.159 20.696 107.231 20.696C107.315 20.696 107.411 20.744 107.999 21.188C108.263 21.392 108.311 21.488 108.311 21.56C108.311 21.632 108.275 21.668 108.155 21.668H103.115C103.127 22.76 103.139 23.372 103.139 23.66C103.139 23.936 102.947 24.056 102.563 24.056C102.287 24.056 102.179 23.96 102.179 23.708C102.179 23.444 102.203 22.856 102.215 21.668H98.4947C98.1827 21.668 97.9427 21.692 97.5827 21.74L97.4627 21.284C97.8707 21.356 98.1467 21.368 98.4947 21.368H102.215C102.227 21.02 102.239 20.468 102.239 19.988H99.8147V20.24C99.8147 20.528 99.6587 20.636 99.2987 20.636C99.0227 20.636 98.9267 20.54 98.9267 20.336C98.9267 19.94 98.9747 19.364 98.9747 17.3C98.9747 16.472 98.9627 16.076 98.9147 15.596C99.3467 15.764 99.5267 15.86 99.9347 16.088H102.251ZM99.8147 19.688H102.239C102.239 19.328 102.239 18.98 102.251 18.152H99.8147V19.688ZM103.091 19.688H105.683V18.152H103.079C103.079 18.38 103.079 18.896 103.091 19.688ZM103.079 16.388V17.852H105.683V16.388H103.079ZM102.251 16.388H99.8147V17.852H102.251V16.388ZM113.039 12.656C113.063 12.644 113.111 12.632 113.147 12.632C113.183 12.632 113.207 12.656 113.207 12.692C113.207 12.728 113.195 12.764 113.171 12.788C111.551 14.432 110.795 16.292 110.795 18.428C110.795 20.564 111.551 22.424 113.171 24.068C113.195 24.092 113.219 24.128 113.219 24.164C113.219 24.2 113.195 24.236 113.159 24.236C113.123 24.236 113.075 24.224 113.039 24.2C112.031 23.432 111.275 22.556 110.735 21.56C110.195 20.552 109.955 19.508 109.955 18.428C109.955 17.348 110.195 16.304 110.735 15.296C111.275 14.3 112.031 13.424 113.039 12.656ZM115.304 21.332V16.196C115.304 15.068 115.304 14.924 115.172 14.672C115.04 14.444 114.668 14.42 114.224 14.372C114.152 14.36 114.128 14.348 114.128 14.216C114.128 14.072 114.152 14.06 114.224 14.06C114.728 14.072 115.352 14.096 115.832 14.096C116.324 14.096 116.96 14.072 117.44 14.06C117.512 14.06 117.536 14.072 117.536 14.216C117.536 14.348 117.512 14.36 117.44 14.372C117.008 14.42 116.684 14.432 116.552 14.672C116.396 14.936 116.396 15.464 116.396 16.196V18.596C116.396 19.784 116.432 20.264 116.432 21.476C116.432 22.628 116.012 23.588 115.532 24.248C115.028 24.956 114.356 25.496 113.804 25.496C113.432 25.496 113.276 25.4 113.276 25.16C113.276 24.74 113.672 24.236 114.008 24.236C114.308 24.236 114.428 24.428 114.74 24.428C114.908 24.428 115.04 24.284 115.124 23.996C115.244 23.624 115.304 22.892 115.304 21.332ZM120.764 18.536V20.468C120.764 21.656 120.776 21.824 120.896 22.064C121.04 22.304 121.376 22.304 121.82 22.352C121.916 22.364 121.94 22.388 121.94 22.52C121.94 22.628 121.916 22.664 121.82 22.664C121.304 22.64 120.716 22.616 120.224 22.616C119.744 22.616 119.132 22.64 118.664 22.664C118.568 22.664 118.544 22.628 118.544 22.52C118.544 22.388 118.568 22.364 118.664 22.352C119.072 22.304 119.408 22.292 119.54 22.064C119.684 21.8 119.684 21.26 119.684 20.468V16.208C119.684 15.068 119.684 14.936 119.552 14.684C119.42 14.444 119 14.432 118.544 14.384C118.472 14.372 118.448 14.36 118.448 14.24C118.448 14.084 118.472 14.06 118.544 14.06C119.06 14.084 119.684 14.108 120.164 14.108C120.596 14.108 121.352 14.048 122.132 14.048C124.328 14.048 125.204 15.008 125.204 16.232C125.204 17.12 124.628 17.996 123.272 18.368C123.752 19.292 124.304 20.276 124.94 21.284C125.204 21.716 125.42 22.04 125.66 22.184C125.864 22.292 126.08 22.316 126.392 22.352C126.464 22.364 126.488 22.388 126.488 22.508C126.488 22.64 126.452 22.664 126.38 22.664C125.936 22.64 125.588 22.616 125.24 22.616C124.928 22.616 124.7 22.616 124.34 22.628C124.22 22.328 124.064 22.004 123.896 21.704C123.308 20.648 122.732 19.604 122.156 18.548C122.012 18.56 121.796 18.572 121.628 18.572C121.328 18.572 121.052 18.56 120.764 18.536ZM120.764 16.208V18.128C121.028 18.164 121.328 18.188 121.628 18.188C123.332 18.188 123.968 17.336 123.968 16.304C123.968 15.128 123.32 14.456 121.88 14.456C121.484 14.456 121.076 14.444 120.92 14.684C120.752 14.924 120.764 15.548 120.764 16.208ZM126.851 12.656C127.859 13.424 128.615 14.3 129.155 15.296C129.695 16.304 129.935 17.348 129.935 18.428C129.935 19.508 129.695 20.552 129.155 21.56C128.615 22.556 127.859 23.432 126.851 24.2C126.815 24.224 126.767 24.236 126.731 24.236C126.695 24.236 126.671 24.2 126.671 24.164C126.671 24.128 126.695 24.092 126.719 24.068C128.339 22.424 129.095 20.564 129.095 18.428C129.095 16.292 128.339 14.432 126.719 12.788C126.695 12.764 126.683 12.728 126.683 12.692C126.683 12.656 126.707 12.632 126.743 12.632C126.779 12.632 126.827 12.644 126.851 12.656ZM137.828 15.884L137.816 15.836C136.496 16.244 135.14 16.7 134.216 17.024C134.048 17.084 133.856 17.168 133.7 17.3C133.616 17.372 133.532 17.42 133.376 17.42C133.172 17.432 132.884 17.276 132.572 16.916C132.38 16.688 132.224 16.46 132.212 16.244C132.212 16.076 132.26 15.944 132.32 15.944C132.38 15.944 132.428 15.992 132.476 16.04C132.824 16.388 133.004 16.46 133.376 16.46C133.52 16.448 133.784 16.412 134.096 16.328C135.836 15.884 137.636 15.416 139.4 14.96C139.652 14.9 139.772 14.84 139.868 14.78C139.988 14.708 140.096 14.672 140.276 14.66C140.516 14.66 140.804 14.744 141.056 14.864C141.224 14.936 141.38 15.056 141.38 15.236C141.392 15.488 141.26 15.596 140.96 15.608C140.18 15.632 139.484 15.668 138.848 15.872C138.128 16.1 137.6 16.472 137.12 16.988C136.508 17.648 136.172 18.488 136.172 19.316C136.184 20.096 136.496 20.72 137 21.116C137.66 21.632 138.608 21.824 139.196 21.848C139.508 21.86 139.724 21.884 140.024 22.052C140.276 22.196 140.348 22.364 140.348 22.568C140.348 22.772 140.216 22.916 139.712 22.916C138.848 22.916 137.684 22.58 136.904 22.028C136.184 21.512 135.62 20.708 135.62 19.652C135.62 18.884 135.788 18.212 136.16 17.6C136.496 16.976 137.108 16.364 137.828 15.884ZM139.616 17.396C139.688 17.396 139.772 17.42 139.808 17.432C140.132 17.528 140.492 17.708 140.852 18.032C141.14 18.284 141.308 18.5 141.308 18.752C141.308 18.944 141.188 19.112 140.972 19.112C140.816 19.112 140.684 19.004 140.576 18.788C140.396 18.428 139.916 17.9 139.568 17.636C139.52 17.6 139.484 17.552 139.484 17.516C139.484 17.456 139.532 17.396 139.616 17.396ZM140.588 16.58C140.648 16.58 140.744 16.604 140.852 16.628C141.176 16.712 141.476 16.856 141.812 17.096C142.1 17.3 142.364 17.576 142.364 17.852C142.364 18.092 142.22 18.236 142.04 18.236C141.884 18.236 141.788 18.176 141.656 17.948C141.44 17.576 140.96 17.06 140.552 16.82C140.504 16.796 140.468 16.748 140.468 16.7C140.468 16.64 140.516 16.58 140.588 16.58ZM114.673 34.068V34.116C115.969 34.368 116.737 35.148 116.737 36.312C116.737 37.872 115.705 38.868 114.157 38.868C113.401 38.868 112.909 38.652 112.513 38.4C112.153 38.172 111.769 37.812 111.769 37.428C111.769 37.14 112.069 36.912 112.537 36.912C112.896 36.912 113.041 37.5 113.185 37.812C113.329 38.148 113.593 38.484 114.157 38.484C115.045 38.484 115.561 37.644 115.561 36.276C115.561 35.436 115.201 34.26 113.929 34.344C113.785 34.356 113.545 34.38 113.437 34.38C113.317 34.38 113.269 34.368 113.305 34.152C113.353 33.936 113.425 33.888 113.545 33.888C113.665 33.888 113.821 33.924 113.953 33.924C114.625 33.924 115.357 33.372 115.357 32.076C115.357 31.176 115.009 30.432 114.241 30.432C113.833 30.432 113.485 30.612 113.317 30.96C113.221 31.164 113.197 31.356 113.197 31.56C113.197 31.908 112.837 32.148 112.393 32.148C112.117 32.148 111.961 32.028 111.961 31.788C111.961 31.092 112.873 30.06 114.241 30.06C115.477 30.06 116.461 30.804 116.461 32.076C116.461 33.3 115.573 33.828 114.673 34.068ZM122.773 35.532C123.277 35.532 123.685 35.412 124.201 34.992C124.273 34.92 124.321 34.944 124.381 35.004C124.453 35.064 124.453 35.112 124.393 35.196C123.877 35.796 123.277 36.324 122.629 36.324C122.125 36.324 121.741 36.264 121.141 35.916C120.433 35.544 119.989 35.292 119.533 35.292C119.029 35.292 118.693 35.352 118.081 35.784C118.033 35.82 117.973 35.808 117.913 35.736C117.865 35.676 117.865 35.64 117.913 35.58C118.441 34.992 119.029 34.512 119.689 34.512C120.181 34.512 120.529 34.596 121.141 34.896C121.825 35.22 122.293 35.532 122.773 35.532ZM126.62 31.284L126.416 33.576C126.404 33.756 126.38 33.96 126.356 34.2C126.776 33.708 127.316 33.468 128.048 33.468C129.452 33.468 130.376 34.488 130.376 36.036C130.376 37.608 129.428 38.868 127.784 38.868C127.184 38.868 126.62 38.7 126.236 38.46C125.852 38.244 125.444 37.872 125.444 37.476C125.444 37.224 125.732 36.984 126.188 36.984C126.572 36.984 126.716 37.56 126.86 37.848C127.016 38.196 127.316 38.496 127.784 38.496C128.78 38.496 129.2 37.428 129.2 36.048C129.2 34.692 128.528 33.912 127.772 33.912C127.076 33.912 126.656 34.248 126.332 34.776C126.26 34.896 126.188 34.908 125.996 34.836C125.84 34.764 125.84 34.704 125.864 34.596C125.888 34.5 125.9 34.368 125.912 34.26L126.236 30.516C126.236 30.456 126.248 30.42 126.308 30.36C126.368 30.312 126.392 30.288 126.452 30.288C126.908 30.3 127.58 30.3 128.192 30.3C128.648 30.3 129.344 30.288 130.112 30.24C130.184 30.24 130.208 30.276 130.208 30.348L129.908 31.224C129.896 31.272 129.836 31.308 129.788 31.308C129.296 31.296 128.96 31.284 128.492 31.284H126.62ZM139.304 34.2H136.532C136.244 37.26 134.768 39.012 131.696 39.936C131.612 39.96 131.54 39.78 131.612 39.744C134.18 38.436 135.296 36.876 135.56 34.2H134.48C134.12 34.2 133.856 34.212 133.508 34.284L133.376 33.78C133.784 33.876 134.084 33.9 134.444 33.9H139.172C139.568 33.492 139.628 33.444 139.712 33.444C139.784 33.444 139.856 33.492 140.276 33.876C140.468 34.068 140.516 34.128 140.516 34.2C140.516 34.284 140.468 34.32 140.18 34.512C140.072 36.276 139.928 37.56 139.628 38.424C139.484 38.88 139.316 39.204 139.028 39.432C138.788 39.636 138.44 39.744 138.104 39.744C137.888 39.744 137.816 39.708 137.78 39.492C137.72 39.18 137.468 38.976 136.4 38.7C136.316 38.676 136.328 38.46 136.412 38.472C137.288 38.616 137.78 38.688 138.188 38.688C138.536 38.688 138.692 38.412 138.884 37.692C139.076 36.948 139.196 35.94 139.304 34.2ZM141.884 34.524C141.812 34.524 141.62 34.428 141.392 34.284C140.78 33.864 140.264 33.396 139.868 32.94C139.172 32.172 138.68 31.284 138.116 29.772C138.092 29.688 138.032 29.616 137.96 29.556C137.888 29.508 137.852 29.46 137.852 29.412C137.852 29.328 138.188 29.208 138.308 29.208C138.368 29.208 138.416 29.244 138.416 29.304C138.416 29.34 138.368 29.436 138.368 29.496C138.368 29.556 138.392 29.628 138.428 29.724C138.848 30.744 139.484 31.572 140.132 32.136C140.9 32.832 141.764 33.24 142.652 33.492C142.724 33.516 142.7 33.648 142.628 33.66C142.328 33.696 142.196 33.852 142.064 34.284C142.016 34.464 141.968 34.524 141.884 34.524ZM131.516 34.716C131.444 34.752 131.336 34.596 131.408 34.548C132.86 33.42 133.916 32.028 134.612 30.492C134.828 30.012 134.972 29.592 135.056 29.148C136.124 29.508 136.4 29.664 136.4 29.796C136.4 29.94 136.304 30.012 135.896 30.048C134.852 32.208 133.58 33.6 131.516 34.716Z" fill="black"/>
<path d="M148 0.5V51.5L158 40.896" stroke="#0A0814" stroke-linecap="round"/>
<path d="M193.934 21.764V22.448C193.934 22.988 194.078 23.036 195.854 23.036C197.51 23.036 197.882 23 198.134 22.808C198.35 22.616 198.458 22.268 198.758 21.308C198.77 21.248 198.914 21.284 198.902 21.344C198.854 21.752 198.818 22.28 198.818 22.4C198.818 22.568 198.854 22.604 198.962 22.664C199.13 22.76 199.19 22.868 199.19 23.036C199.19 23.3 198.998 23.492 198.614 23.612C198.194 23.732 197.414 23.792 195.602 23.792C193.538 23.792 193.094 23.588 193.094 22.592C193.094 22.388 193.094 22.172 193.106 21.764H190.598V22.076C190.598 22.352 190.442 22.46 190.07 22.46C189.818 22.46 189.71 22.364 189.71 22.172C189.71 21.908 189.758 21.44 189.758 19.892C189.758 19.064 189.746 18.608 189.686 18.044C190.13 18.212 190.298 18.284 190.706 18.5H196.514C196.874 18.104 196.934 18.056 197.006 18.056C197.09 18.056 197.162 18.104 197.582 18.44C197.774 18.584 197.81 18.656 197.81 18.728C197.81 18.836 197.75 18.908 197.486 19.088V19.748C197.486 21.008 197.522 21.608 197.522 21.788C197.522 22.064 197.33 22.184 196.994 22.184C196.73 22.184 196.622 22.1 196.622 21.872V21.764H193.934ZM193.106 21.464V20.252H190.598V21.464H193.106ZM193.934 21.464H196.622V20.252H193.934V21.464ZM193.934 18.8V19.952H196.622V18.8H193.934ZM193.106 18.8H190.598V19.952H193.106V18.8ZM193.166 14.996H189.662C189.65 15.872 189.362 16.556 188.75 16.556C188.498 16.556 188.306 16.352 188.306 16.1C188.306 15.884 188.366 15.788 188.69 15.608C189.17 15.32 189.374 14.96 189.458 14.252C189.47 14.18 189.602 14.168 189.614 14.24C189.638 14.396 189.65 14.552 189.662 14.696H193.166V13.772H190.634C190.346 13.772 190.154 13.784 189.818 13.844L189.698 13.4C190.07 13.448 190.31 13.472 190.622 13.472H196.358C196.874 12.896 196.958 12.836 197.03 12.836C197.114 12.836 197.198 12.896 197.75 13.316C197.99 13.508 198.05 13.58 198.05 13.652C198.05 13.736 198.002 13.772 197.894 13.772H193.982V14.696H197.75C198.098 14.312 198.158 14.264 198.242 14.264C198.326 14.264 198.386 14.312 198.89 14.756C199.106 14.948 199.154 15.032 199.154 15.104C199.154 15.272 199.034 15.332 198.65 15.332C198.53 15.332 198.494 15.344 198.35 15.512C198.134 15.74 197.906 15.932 197.582 16.16C197.546 16.184 197.486 16.136 197.498 16.088C197.642 15.716 197.762 15.356 197.846 14.996H193.982V15.536C193.982 16.532 194.018 17.444 194.018 17.708C194.018 17.96 193.838 18.092 193.49 18.092C193.202 18.092 193.106 17.996 193.106 17.72C193.106 17.576 193.166 17.06 193.166 16.076V14.996ZM194.582 16.316L194.474 15.896C194.726 15.944 194.882 15.956 195.122 15.956H196.022C196.37 15.536 196.466 15.476 196.526 15.476C196.598 15.476 196.694 15.536 197.09 15.86C197.246 15.992 197.294 16.076 197.294 16.148C197.294 16.22 197.258 16.256 197.15 16.256H195.146C194.99 16.256 194.846 16.268 194.582 16.316ZM194.606 17.552L194.498 17.12C194.774 17.18 194.942 17.192 195.182 17.192H196.514C196.91 16.724 196.994 16.664 197.066 16.664C197.15 16.664 197.234 16.724 197.69 17.084C197.87 17.228 197.918 17.3 197.918 17.372C197.918 17.456 197.882 17.492 197.774 17.492H195.23C195.038 17.492 194.882 17.516 194.606 17.552ZM189.962 16.316L189.854 15.896C190.106 15.944 190.286 15.956 190.514 15.956H191.378C191.702 15.536 191.798 15.476 191.858 15.476C191.93 15.476 192.026 15.536 192.434 15.884C192.578 16.004 192.638 16.076 192.638 16.148C192.638 16.22 192.602 16.256 192.482 16.256H190.538C190.382 16.256 190.238 16.268 189.962 16.316ZM189.542 17.552L189.434 17.12C189.698 17.18 189.866 17.192 190.106 17.192H191.318C191.678 16.748 191.762 16.688 191.834 16.688C191.918 16.688 192.002 16.748 192.41 17.096C192.59 17.228 192.638 17.3 192.638 17.372C192.638 17.456 192.602 17.492 192.482 17.492H190.142C189.962 17.492 189.818 17.516 189.542 17.552ZM205.106 16.088V14.828H201.506C201.182 14.828 200.954 14.852 200.606 14.9L200.474 14.444C200.882 14.516 201.146 14.528 201.506 14.528H205.106C205.094 13.568 205.082 13.268 205.034 12.92C206.21 13.052 206.33 13.1 206.33 13.268C206.33 13.376 206.258 13.448 205.934 13.58V14.528H209.222C209.738 13.928 209.822 13.868 209.894 13.868C209.978 13.868 210.086 13.904 210.626 14.348C210.89 14.552 210.926 14.648 210.926 14.72C210.926 14.792 210.89 14.828 210.77 14.828H205.934V16.088H208.442C208.79 15.68 208.862 15.632 208.934 15.632C209.006 15.632 209.078 15.68 209.486 16.016C209.678 16.172 209.714 16.244 209.714 16.316C209.714 16.424 209.666 16.484 209.366 16.7V17.54C209.366 19.148 209.426 19.904 209.426 20.132C209.426 20.396 209.27 20.516 208.886 20.516C208.646 20.516 208.538 20.432 208.538 20.192V19.988H205.946C205.946 20.444 205.958 20.912 205.958 21.368H209.414C209.894 20.768 210.014 20.696 210.086 20.696C210.17 20.696 210.266 20.744 210.854 21.188C211.118 21.392 211.166 21.488 211.166 21.56C211.166 21.632 211.13 21.668 211.01 21.668H205.97C205.982 22.76 205.994 23.372 205.994 23.66C205.994 23.936 205.802 24.056 205.418 24.056C205.142 24.056 205.034 23.96 205.034 23.708C205.034 23.444 205.058 22.856 205.07 21.668H201.35C201.038 21.668 200.798 21.692 200.438 21.74L200.318 21.284C200.726 21.356 201.002 21.368 201.35 21.368H205.07C205.082 21.02 205.094 20.468 205.094 19.988H202.67V20.24C202.67 20.528 202.514 20.636 202.154 20.636C201.878 20.636 201.782 20.54 201.782 20.336C201.782 19.94 201.83 19.364 201.83 17.3C201.83 16.472 201.818 16.076 201.77 15.596C202.202 15.764 202.382 15.86 202.79 16.088H205.106ZM202.67 19.688H205.094C205.094 19.328 205.094 18.98 205.106 18.152H202.67V19.688ZM205.946 19.688H208.538V18.152H205.934C205.934 18.38 205.934 18.896 205.946 19.688ZM205.934 16.388V17.852H208.538V16.388H205.934ZM205.106 16.388H202.67V17.852H205.106V16.388ZM215.894 12.656C215.918 12.644 215.966 12.632 216.002 12.632C216.038 12.632 216.062 12.656 216.062 12.692C216.062 12.728 216.05 12.764 216.026 12.788C214.406 14.432 213.65 16.292 213.65 18.428C213.65 20.564 214.406 22.424 216.026 24.068C216.05 24.092 216.074 24.128 216.074 24.164C216.074 24.2 216.05 24.236 216.014 24.236C215.978 24.236 215.93 24.224 215.894 24.2C214.886 23.432 214.13 22.556 213.59 21.56C213.05 20.552 212.81 19.508 212.81 18.428C212.81 17.348 213.05 16.304 213.59 15.296C214.13 14.3 214.886 13.424 215.894 12.656ZM220.091 20.924V20.048C219.203 20.504 218.207 20.9 217.091 21.248C217.007 21.272 216.947 21.104 217.019 21.068C220.295 19.664 222.815 17.504 224.303 14.828H221.255C220.919 15.284 220.559 15.704 220.139 16.088C221.123 16.412 221.723 16.988 221.723 17.564C221.723 17.864 221.507 18.128 221.267 18.128C221.075 18.128 220.919 18.032 220.823 17.696C220.631 17.072 220.403 16.628 219.971 16.256C219.263 16.88 218.435 17.42 217.415 17.912C217.343 17.948 217.247 17.792 217.319 17.744C218.675 16.844 219.827 15.572 220.595 14.3C220.883 13.82 221.111 13.34 221.267 12.872C222.179 13.1 222.467 13.232 222.467 13.388C222.467 13.52 222.359 13.58 221.999 13.676C221.831 13.976 221.651 14.264 221.471 14.528H224.255C224.663 14.072 224.723 14.024 224.807 14.024C224.879 14.024 224.963 14.072 225.419 14.492C225.623 14.684 225.671 14.768 225.671 14.84C225.671 14.972 225.599 15.02 225.191 15.14C224.075 17.024 222.767 18.416 221.063 19.484H225.371C225.755 19.064 225.815 19.004 225.887 19.004C225.971 19.004 226.031 19.064 226.451 19.4C226.631 19.568 226.667 19.64 226.667 19.712C226.667 19.796 226.619 19.868 226.343 20.036V20.924C226.343 22.532 226.391 23.312 226.391 23.552C226.391 23.816 226.211 23.948 225.827 23.948C225.539 23.948 225.455 23.852 225.455 23.6V23.216H220.955V23.576C220.955 23.84 220.787 23.972 220.415 23.972C220.127 23.972 220.019 23.864 220.019 23.612C220.019 23.288 220.091 22.76 220.091 20.924ZM225.455 22.916V19.784H220.955V22.916H225.455ZM231.815 13.748L231.767 13.844C232.955 14.264 233.615 14.78 233.615 15.32C233.615 15.572 233.459 15.764 233.255 15.764C233.051 15.764 232.943 15.656 232.763 15.272C232.487 14.708 232.175 14.36 231.671 14.012C231.167 14.876 230.579 15.68 229.835 16.34C230.099 16.388 230.267 16.412 230.495 16.412H231.995C232.343 15.98 232.427 15.92 232.499 15.92C232.583 15.92 232.667 15.98 233.087 16.292C233.255 16.436 233.303 16.508 233.303 16.58C233.303 16.664 233.267 16.712 233.147 16.712H231.695V18.248H232.343C232.703 17.792 232.787 17.732 232.859 17.732C232.943 17.732 233.027 17.792 233.435 18.128C233.603 18.26 233.663 18.356 233.663 18.428C233.663 18.476 233.651 18.512 233.627 18.524C233.879 18.572 234.059 18.584 234.323 18.584H235.871C235.979 17.828 236.027 17.06 236.051 16.292H234.683C234.371 16.892 233.999 17.42 233.531 17.876C233.483 17.924 233.363 17.852 233.399 17.792C233.807 17.132 234.179 16.052 234.371 15.152C234.443 14.756 234.491 14.372 234.503 14.024C235.475 14.276 235.631 14.372 235.631 14.492C235.631 14.6 235.559 14.648 235.259 14.72C235.139 15.176 234.995 15.596 234.815 15.992H236.051C236.063 15.68 236.063 15.356 236.063 15.008C236.063 13.916 236.063 13.676 236.003 13.1C237.167 13.232 237.287 13.292 237.287 13.448C237.287 13.556 237.239 13.628 236.927 13.76C236.927 14.132 236.927 14.564 236.915 15.152C236.915 15.44 236.903 15.728 236.903 15.992H237.887C238.355 15.392 238.439 15.344 238.511 15.344C238.595 15.344 238.667 15.392 239.183 15.836C239.399 16.028 239.459 16.112 239.459 16.184C239.459 16.256 239.411 16.292 239.303 16.292H236.891C236.867 17.06 236.831 17.828 236.723 18.584H238.259C238.739 17.984 238.835 17.936 238.907 17.936C238.991 17.936 239.087 17.984 239.591 18.428C239.819 18.62 239.879 18.704 239.879 18.776C239.879 18.848 239.831 18.884 239.711 18.884H236.843C237.095 19.868 237.515 20.732 238.091 21.392C238.631 22.028 239.327 22.508 240.107 22.856C240.155 22.88 240.131 22.952 240.083 22.976C239.783 23.132 239.651 23.288 239.579 23.636C239.543 23.804 239.519 23.852 239.435 23.852C239.375 23.852 239.267 23.768 239.135 23.672C238.319 23.06 237.731 22.232 237.347 21.404C237.047 20.768 236.807 20.024 236.627 19.148C236.471 19.952 236.219 20.636 235.823 21.272C235.067 22.508 233.951 23.396 232.283 23.948C232.211 23.972 232.151 23.828 232.211 23.792C233.651 22.988 234.491 22.208 235.127 20.984C235.451 20.372 235.667 19.724 235.823 18.884H234.335C234.071 18.884 233.903 18.908 233.615 18.956L233.507 18.548H231.695V22.232C232.343 22.088 232.979 21.92 233.567 21.716C233.627 21.692 233.663 21.836 233.615 21.86C232.583 22.448 231.095 23.048 229.763 23.42C229.715 23.732 229.643 23.84 229.535 23.84C229.415 23.84 229.331 23.756 228.959 22.64C229.271 22.628 229.595 22.592 229.907 22.556C230.243 22.508 230.579 22.46 230.915 22.4V18.548H229.859C229.631 18.548 229.463 18.56 229.151 18.62L229.031 18.164C229.367 18.224 229.559 18.248 229.835 18.248H230.915V16.712H230.531C230.315 16.712 230.159 16.724 229.883 16.784L229.775 16.4C229.487 16.64 229.187 16.856 228.875 17.036C228.803 17.084 228.695 16.952 228.755 16.892C229.583 16.148 230.255 15.104 230.699 14.18C230.879 13.772 231.023 13.376 231.095 13.04C231.971 13.268 232.259 13.4 232.259 13.532C232.259 13.64 232.163 13.7 231.815 13.748ZM229.967 21.692C229.739 21.692 229.655 21.548 229.631 21.164C229.571 20.384 229.511 20.036 229.247 19.484C229.223 19.424 229.331 19.376 229.379 19.412C230.051 20.012 230.387 20.612 230.387 21.128C230.387 21.44 230.207 21.692 229.967 21.692ZM232.175 21.644C232.139 21.692 232.007 21.644 232.031 21.584C232.235 21.08 232.427 20.468 232.523 19.976C232.583 19.7 232.607 19.46 232.619 19.208C233.435 19.508 233.663 19.628 233.663 19.748C233.663 19.868 233.567 19.916 233.291 19.964C232.943 20.624 232.619 21.14 232.175 21.644ZM240.851 12.656C241.859 13.424 242.615 14.3 243.155 15.296C243.695 16.304 243.935 17.348 243.935 18.428C243.935 19.508 243.695 20.552 243.155 21.56C242.615 22.556 241.859 23.432 240.851 24.2C240.815 24.224 240.767 24.236 240.731 24.236C240.695 24.236 240.671 24.2 240.671 24.164C240.671 24.128 240.695 24.092 240.719 24.068C242.339 22.424 243.095 20.564 243.095 18.428C243.095 16.292 242.339 14.432 240.719 12.788C240.695 12.764 240.683 12.728 240.683 12.692C240.683 12.656 240.707 12.632 240.743 12.632C240.779 12.632 240.827 12.644 240.851 12.656ZM251.828 15.884L251.816 15.836C250.496 16.244 249.14 16.7 248.216 17.024C248.048 17.084 247.856 17.168 247.7 17.3C247.616 17.372 247.532 17.42 247.376 17.42C247.172 17.432 246.884 17.276 246.572 16.916C246.38 16.688 246.224 16.46 246.212 16.244C246.212 16.076 246.26 15.944 246.32 15.944C246.38 15.944 246.428 15.992 246.476 16.04C246.824 16.388 247.004 16.46 247.376 16.46C247.52 16.448 247.784 16.412 248.096 16.328C249.836 15.884 251.636 15.416 253.4 14.96C253.652 14.9 253.772 14.84 253.868 14.78C253.988 14.708 254.096 14.672 254.276 14.66C254.516 14.66 254.804 14.744 255.056 14.864C255.224 14.936 255.38 15.056 255.38 15.236C255.392 15.488 255.26 15.596 254.96 15.608C254.18 15.632 253.484 15.668 252.848 15.872C252.128 16.1 251.6 16.472 251.12 16.988C250.508 17.648 250.172 18.488 250.172 19.316C250.184 20.096 250.496 20.72 251 21.116C251.66 21.632 252.608 21.824 253.196 21.848C253.508 21.86 253.724 21.884 254.024 22.052C254.276 22.196 254.348 22.364 254.348 22.568C254.348 22.772 254.216 22.916 253.712 22.916C252.848 22.916 251.684 22.58 250.904 22.028C250.184 21.512 249.62 20.708 249.62 19.652C249.62 18.884 249.788 18.212 250.16 17.6C250.496 16.976 251.108 16.364 251.828 15.884ZM253.616 17.396C253.688 17.396 253.772 17.42 253.808 17.432C254.132 17.528 254.492 17.708 254.852 18.032C255.14 18.284 255.308 18.5 255.308 18.752C255.308 18.944 255.188 19.112 254.972 19.112C254.816 19.112 254.684 19.004 254.576 18.788C254.396 18.428 253.916 17.9 253.568 17.636C253.52 17.6 253.484 17.552 253.484 17.516C253.484 17.456 253.532 17.396 253.616 17.396ZM254.588 16.58C254.648 16.58 254.744 16.604 254.852 16.628C255.176 16.712 255.476 16.856 255.812 17.096C256.1 17.3 256.364 17.576 256.364 17.852C256.364 18.092 256.22 18.236 256.04 18.236C255.884 18.236 255.788 18.176 255.656 17.948C255.44 17.576 254.96 17.06 254.552 16.82C254.504 16.796 254.468 16.748 254.468 16.7C254.468 16.64 254.516 16.58 254.588 16.58ZM240.68 34.452L240.752 34.464C241.112 33.804 241.784 33.504 242.312 33.504C243.728 33.504 244.532 34.584 244.532 36.096C244.532 37.668 243.536 38.868 242.096 38.868C240.668 38.868 239.528 37.596 239.528 35.556C239.528 33.528 240.452 32.136 241.82 31.092C242.36 30.66 243.248 30.168 243.716 30.012C243.812 30.012 243.872 30.012 244.04 30.228C244.1 30.312 244.124 30.396 244.124 30.456C244.124 30.528 244.088 30.576 244.016 30.576C243.344 30.612 242.768 30.852 242.324 31.164C241.496 31.788 240.896 32.904 240.68 34.452ZM242.06 33.96C241.544 33.96 241.112 34.332 240.812 34.932C240.704 35.16 240.656 35.316 240.656 35.676C240.656 37.572 241.268 38.496 242.096 38.496C242.9 38.496 243.368 37.452 243.368 36.132C243.368 34.92 242.96 33.96 242.06 33.96ZM253.304 34.2H250.532C250.244 37.26 248.768 39.012 245.696 39.936C245.612 39.96 245.54 39.78 245.612 39.744C248.18 38.436 249.296 36.876 249.56 34.2H248.48C248.12 34.2 247.856 34.212 247.508 34.284L247.376 33.78C247.784 33.876 248.084 33.9 248.444 33.9H253.172C253.568 33.492 253.628 33.444 253.712 33.444C253.784 33.444 253.856 33.492 254.276 33.876C254.468 34.068 254.516 34.128 254.516 34.2C254.516 34.284 254.468 34.32 254.18 34.512C254.072 36.276 253.928 37.56 253.628 38.424C253.484 38.88 253.316 39.204 253.028 39.432C252.788 39.636 252.44 39.744 252.104 39.744C251.888 39.744 251.816 39.708 251.78 39.492C251.72 39.18 251.468 38.976 250.4 38.7C250.316 38.676 250.328 38.46 250.412 38.472C251.288 38.616 251.78 38.688 252.188 38.688C252.536 38.688 252.692 38.412 252.884 37.692C253.076 36.948 253.196 35.94 253.304 34.2ZM255.884 34.524C255.812 34.524 255.62 34.428 255.392 34.284C254.78 33.864 254.264 33.396 253.868 32.94C253.172 32.172 252.68 31.284 252.116 29.772C252.092 29.688 252.032 29.616 251.96 29.556C251.888 29.508 251.852 29.46 251.852 29.412C251.852 29.328 252.188 29.208 252.308 29.208C252.368 29.208 252.416 29.244 252.416 29.304C252.416 29.34 252.368 29.436 252.368 29.496C252.368 29.556 252.392 29.628 252.428 29.724C252.848 30.744 253.484 31.572 254.132 32.136C254.9 32.832 255.764 33.24 256.652 33.492C256.724 33.516 256.7 33.648 256.628 33.66C256.328 33.696 256.196 33.852 256.064 34.284C256.016 34.464 255.968 34.524 255.884 34.524ZM245.516 34.716C245.444 34.752 245.336 34.596 245.408 34.548C246.86 33.42 247.916 32.028 248.612 30.492C248.828 30.012 248.972 29.592 249.056 29.148C250.124 29.508 250.4 29.664 250.4 29.796C250.4 29.94 250.304 30.012 249.896 30.048C248.852 32.208 247.58 33.6 245.516 34.716Z" fill="black"/>
<path d="M262 0.5V51.5L272 40.896" stroke="#0A0814" stroke-linecap="round"/>
</svg>
