<svg width="386" height="31" viewBox="0 0 386 31" fill="none" xmlns="http://www.w3.org/2000/svg">
<rect x="0.5" y="0.5" width="157" height="30" rx="15" stroke="#0A0814"/>
<path d="M33.836 12.53H32.772C32.702 13.412 32.59 14.294 32.338 15.148C33.094 15.806 33.5 16.45 33.5 16.996C33.5 17.346 33.332 17.57 33.066 17.57C32.828 17.57 32.744 17.444 32.548 16.912C32.408 16.562 32.254 16.24 32.072 15.918C31.512 17.304 30.616 18.214 29.062 19.11C28.978 19.152 28.852 18.984 28.922 18.928C30.21 17.892 30.924 16.87 31.344 15.442L31.47 15.064C31.19 14.728 30.868 14.406 30.49 14.098C30.434 14.056 30.518 13.93 30.574 13.958C30.938 14.168 31.288 14.364 31.582 14.574C31.722 13.902 31.806 13.216 31.834 12.53H31.386C30.98 12.544 30.77 12.572 30.49 12.628L30.378 12.082C30.756 12.152 31.036 12.18 31.386 12.18H31.848C31.862 11.858 31.862 11.508 31.862 11.13C31.862 10.262 31.848 9.884 31.792 9.338C33.066 9.464 33.276 9.534 33.276 9.702C33.276 9.828 33.192 9.926 32.828 10.066V10.906C32.828 11.368 32.814 11.788 32.786 12.18H33.724C34.116 11.732 34.186 11.676 34.284 11.676C34.382 11.676 34.466 11.718 34.872 12.082C35.082 12.264 35.124 12.362 35.124 12.446C35.124 12.53 35.082 12.6 34.774 12.81C34.774 14.224 34.844 15.008 34.97 15.736C35.068 16.338 35.264 16.94 35.516 17.374C35.614 17.57 35.684 17.64 35.74 17.64C35.81 17.64 36.118 17.024 36.412 16.366C36.44 16.31 36.566 16.366 36.552 16.422C36.398 17.22 36.328 17.682 36.286 17.85C36.244 18.088 36.258 18.186 36.44 18.396C36.496 18.48 36.538 18.592 36.538 18.718C36.538 18.984 36.356 19.208 36.076 19.208C35.824 19.208 35.502 18.998 35.208 18.634C34.718 18.102 34.326 17.178 34.13 16.254C33.92 15.274 33.85 14.266 33.836 12.53ZM27.368 16.24V17.472C28.166 17.346 29.006 17.206 29.818 17.038C29.888 17.024 29.916 17.164 29.846 17.192C28.222 17.836 26.542 18.284 24.61 18.62C24.526 18.942 24.442 19.026 24.316 19.026C24.204 19.026 24.176 18.97 23.868 17.752C24.092 17.766 24.246 17.766 24.442 17.752C25.002 17.738 25.716 17.682 26.486 17.584V16.24H25.226C24.974 16.24 24.75 16.268 24.4 16.31L24.246 15.792C24.638 15.862 24.904 15.89 25.226 15.89H26.486V15.652C26.486 15.176 26.472 14.924 26.444 14.462C27.634 14.588 27.774 14.7 27.774 14.826C27.774 14.924 27.69 15.022 27.368 15.134V15.89H28.264C28.698 15.386 28.81 15.316 28.894 15.316C28.978 15.316 29.09 15.386 29.552 15.764C29.734 15.904 29.804 16.016 29.804 16.1C29.804 16.198 29.748 16.24 29.622 16.24H27.368ZM27.48 12.67H26.444C26.178 14.098 25.394 14.812 23.742 15.316C23.672 15.33 23.602 15.176 23.672 15.148C24.806 14.644 25.38 13.79 25.492 12.67H24.624C24.372 12.67 24.176 12.698 23.826 12.754L23.686 12.208C24.064 12.292 24.302 12.32 24.638 12.32H26.472V11.06H25.296C25.03 11.06 24.792 11.088 24.4 11.144L24.246 10.598C24.666 10.682 24.946 10.71 25.296 10.71H26.472V10.444C26.472 10.024 26.458 9.716 26.416 9.254C27.648 9.394 27.802 9.52 27.802 9.66C27.802 9.758 27.704 9.856 27.368 9.982V10.71H28.362C28.796 10.206 28.894 10.136 28.978 10.136C29.062 10.136 29.16 10.206 29.636 10.612C29.804 10.766 29.874 10.85 29.874 10.934C29.874 11.018 29.832 11.06 29.692 11.06H27.368V12.32H28.67C29.09 11.802 29.188 11.732 29.272 11.732C29.356 11.732 29.454 11.802 29.93 12.222C30.098 12.362 30.168 12.46 30.168 12.544C30.168 12.628 30.126 12.67 29.972 12.67H28.278V13.538C28.278 13.818 28.376 13.874 28.768 13.874C29.118 13.874 29.3 13.846 29.412 13.748C29.524 13.65 29.594 13.482 29.748 13.02C29.762 12.964 29.874 12.992 29.874 13.048C29.86 13.216 29.832 13.468 29.832 13.594C29.832 13.664 29.86 13.706 29.944 13.748C30.14 13.832 30.196 13.902 30.196 14.07C30.196 14.266 30.084 14.406 29.86 14.49C29.636 14.56 29.286 14.602 28.698 14.602C27.732 14.602 27.48 14.406 27.48 13.748V12.67ZM24.68 21.994C24.33 21.994 24.064 21.742 24.064 21.406C24.064 21.084 24.246 20.902 24.624 20.762C25.282 20.496 25.716 20.006 25.856 19.236C25.87 19.166 26.01 19.18 26.024 19.25C26.052 19.46 26.066 19.684 26.066 19.852C26.066 21.056 25.492 21.994 24.68 21.994ZM31.932 21.966C31.596 21.966 31.498 21.812 31.414 21.21C31.33 20.468 31.106 19.768 30.798 19.306C30.756 19.25 30.854 19.166 30.91 19.194C31.89 19.726 32.492 20.538 32.492 21.28C32.492 21.658 32.24 21.966 31.932 21.966ZM35.32 21.952C35.026 21.952 34.956 21.854 34.816 21.238C34.62 20.524 34.214 19.852 33.668 19.292C33.626 19.236 33.724 19.138 33.794 19.166C35.082 19.712 35.88 20.524 35.88 21.28C35.88 21.644 35.628 21.952 35.32 21.952ZM28.572 21.966C28.306 21.966 28.152 21.77 28.152 21.448C28.152 21.266 28.194 20.972 28.194 20.692C28.194 20.146 28.138 19.698 28.026 19.306C28.012 19.25 28.096 19.236 28.138 19.264C28.852 19.754 29.23 20.538 29.23 21.126C29.23 21.56 29.02 21.966 28.572 21.966ZM39.772 20.678V21.266C39.772 21.588 39.548 21.728 39.1 21.728C38.792 21.728 38.666 21.616 38.666 21.35C38.666 20.65 38.75 19.628 38.75 14.966C38.75 12.418 38.736 11.172 38.666 10.038C39.198 10.262 39.436 10.374 39.94 10.668H48.102C48.578 10.15 48.648 10.108 48.732 10.108C48.83 10.108 48.914 10.15 49.404 10.57C49.628 10.766 49.684 10.85 49.684 10.934C49.684 11.046 49.6 11.13 49.292 11.34V14.154C49.292 18.648 49.376 20.58 49.376 21.196C49.376 21.532 49.138 21.686 48.69 21.686C48.368 21.686 48.242 21.546 48.242 21.294V20.678H39.772ZM39.772 20.328H43.412V15.652H39.772V20.328ZM48.242 20.328V15.652H44.434V20.328H48.242ZM48.242 15.302V11.018H44.434V15.302H48.242ZM43.412 11.018H39.772V15.302H43.412V11.018ZM58.028 11.928H59.82C59.82 10.374 59.806 9.968 59.75 9.212C61.094 9.366 61.276 9.422 61.276 9.632C61.276 9.772 61.192 9.87 60.8 10.024V11.928H62.746C63.18 11.438 63.25 11.396 63.348 11.396C63.446 11.396 63.516 11.438 63.964 11.816C64.16 11.998 64.202 12.082 64.202 12.18C64.202 12.292 64.132 12.39 63.824 12.572V13.986C63.824 16.45 63.894 17.752 63.894 18.144C63.894 18.452 63.698 18.592 63.292 18.592C62.97 18.592 62.858 18.48 62.858 18.2V17.836H60.814C60.828 20.062 60.856 21.182 60.856 21.644C60.856 21.994 60.674 22.162 60.24 22.162C59.876 22.162 59.75 22.064 59.75 21.714C59.75 21.294 59.778 20.258 59.806 17.836H57.902V18.102C57.902 18.424 57.72 18.55 57.342 18.55C57.02 18.55 56.88 18.438 56.88 18.2C56.88 17.724 56.95 16.898 56.95 14.266C56.95 12.852 56.936 12.124 56.88 11.326C57.356 11.564 57.566 11.662 58.028 11.928ZM57.902 17.486H59.806C59.82 16.506 59.82 15.26 59.82 14.952H57.902V17.486ZM60.814 17.486H62.858V14.952H60.8C60.8 15.792 60.8 16.646 60.814 17.486ZM60.8 12.278V14.602H62.858V12.278H60.8ZM59.82 12.278H57.902V14.602H59.82V12.278ZM54.458 15.162V15.288C55.732 15.708 56.488 16.394 56.488 16.982C56.488 17.304 56.278 17.542 56.026 17.542C55.816 17.542 55.718 17.43 55.536 17.038C55.228 16.394 54.962 15.96 54.458 15.568V18.158C54.458 20.314 54.5 21.238 54.5 21.686C54.5 22.008 54.276 22.162 53.898 22.162C53.562 22.162 53.422 22.036 53.422 21.742C53.422 21.49 53.478 20.58 53.506 17.99C53.506 17.36 53.52 16.744 53.534 16.1C52.89 16.66 52.19 17.15 51.406 17.556C51.322 17.598 51.196 17.43 51.28 17.374C52.918 16.1 54.36 14.238 55.13 12.348H52.722C52.33 12.348 52.05 12.362 51.728 12.446L51.588 11.9C51.98 11.97 52.288 11.998 52.722 11.998H53.506V10.472C53.506 10.066 53.478 9.716 53.408 9.212C54.752 9.366 54.962 9.478 54.962 9.632C54.962 9.758 54.836 9.87 54.472 10.024V11.998H55.102C55.466 11.606 55.536 11.55 55.62 11.55C55.718 11.55 55.788 11.606 56.25 12.054C56.46 12.278 56.516 12.362 56.516 12.46C56.516 12.586 56.39 12.656 56.026 12.754C55.606 13.636 55.088 14.448 54.458 15.162ZM68.458 17.822H70.726C70.922 17.178 71.062 16.52 71.132 15.848H69.396V15.946C69.396 16.31 69.228 16.45 68.808 16.45C68.472 16.45 68.36 16.338 68.36 16.016C68.36 15.778 68.402 15.414 68.402 14C68.402 13.3 68.402 12.964 68.346 12.418C68.85 12.628 69.06 12.74 69.564 13.02H74.394C74.828 12.558 74.898 12.516 74.982 12.516C75.094 12.516 75.192 12.544 75.64 12.936C75.85 13.118 75.892 13.202 75.892 13.286C75.892 13.398 75.822 13.468 75.514 13.678V14.182C75.514 15.274 75.556 15.722 75.556 15.862C75.556 16.142 75.346 16.296 74.954 16.296C74.618 16.296 74.506 16.184 74.506 15.848H72.364C72.028 16.534 71.636 17.206 71.188 17.822H75.444C75.878 17.332 75.948 17.29 76.032 17.29C76.13 17.29 76.228 17.304 76.704 17.738C76.928 17.934 76.97 18.018 76.97 18.102C76.97 18.228 76.9 18.298 76.578 18.494V19.25C76.578 20.678 76.634 21.322 76.634 21.532C76.634 21.868 76.41 22.022 76.004 22.022C75.654 22.022 75.542 21.91 75.542 21.588V21.294H68.332V21.602C68.332 21.98 68.178 22.134 67.744 22.134C67.408 22.134 67.268 21.994 67.268 21.7C67.268 21.434 67.324 20.986 67.324 19.39C67.324 18.424 67.324 17.906 67.254 17.22C67.772 17.43 67.996 17.542 68.458 17.822ZM74.506 15.498V13.37H69.396V15.498H74.506ZM75.542 20.944V18.172H68.332V20.944H75.542ZM76.648 11.494H67.576C67.576 12.614 67.058 13.384 66.414 13.384C66.078 13.384 65.84 13.146 65.84 12.81C65.84 12.544 65.952 12.376 66.232 12.222C66.918 11.83 67.212 11.382 67.268 10.514C67.268 10.43 67.45 10.43 67.464 10.514C67.52 10.738 67.548 10.948 67.562 11.144H71.398V10.262C71.398 9.982 71.398 9.744 71.328 9.226C72.784 9.38 72.952 9.492 72.952 9.646C72.952 9.772 72.84 9.884 72.462 10.052V11.144H76.494C76.9 10.64 76.998 10.584 77.096 10.584C77.208 10.584 77.32 10.668 77.908 11.214C78.216 11.494 78.244 11.592 78.244 11.69C78.244 11.886 78.146 11.956 77.698 11.956C77.544 11.956 77.46 11.998 77.362 12.096C77.054 12.432 76.76 12.684 76.312 12.992C76.256 13.034 76.158 12.964 76.186 12.894C76.368 12.516 76.522 12.012 76.648 11.494ZM82.08 14.252V16.268C82.08 19.586 82.094 21.126 82.094 21.602C82.094 21.924 81.898 22.092 81.492 22.092C81.212 22.092 81.016 21.966 81.016 21.658C81.016 21.378 81.058 20.37 81.1 17.108C81.1 16.268 81.114 15.358 81.114 14.504C80.652 15.134 80.12 15.736 79.518 16.282C79.448 16.352 79.294 16.212 79.35 16.128C80.316 14.896 81.24 12.936 81.772 11.214C81.982 10.486 82.122 9.828 82.178 9.24C83.228 9.52 83.746 9.744 83.746 9.912C83.746 10.066 83.592 10.15 83.214 10.206C82.78 11.494 82.304 12.614 81.716 13.594C82.388 13.706 82.5 13.776 82.5 13.916C82.5 14.014 82.43 14.098 82.08 14.252ZM92.244 14.896H87.078C86.784 15.904 86.42 16.898 85.986 17.864C85.636 18.606 85.272 19.334 84.81 20.006C86.126 19.95 88.604 19.74 90.214 19.488C89.85 18.564 89.332 17.598 88.66 16.772C88.604 16.702 88.744 16.59 88.814 16.646C90.76 18.074 91.852 19.726 91.852 20.734C91.852 21.154 91.6 21.476 91.264 21.476C90.956 21.476 90.788 21.28 90.62 20.664C90.536 20.384 90.452 20.09 90.34 19.782C88.24 20.342 86.154 20.79 83.718 21.126C83.62 21.49 83.55 21.602 83.396 21.602C83.256 21.602 83.2 21.518 82.864 20.02C83.186 20.048 83.326 20.062 83.55 20.048C83.816 20.048 84.096 20.034 84.362 20.02C85.076 18.396 85.524 16.646 85.832 14.896H84.082C83.69 14.896 83.41 14.924 82.976 14.994L82.822 14.448C83.326 14.532 83.648 14.546 84.082 14.546H90.396C91.026 13.79 91.124 13.72 91.222 13.72C91.306 13.72 91.418 13.79 92.062 14.336C92.37 14.588 92.44 14.686 92.44 14.77C92.44 14.854 92.384 14.896 92.244 14.896ZM83.956 11.396L83.816 10.864C84.278 10.934 84.6 10.962 84.992 10.962H89.612C90.228 10.234 90.326 10.164 90.41 10.164C90.508 10.164 90.606 10.234 91.208 10.766C91.488 11.004 91.558 11.088 91.558 11.172C91.558 11.256 91.516 11.312 91.376 11.312H85.02C84.642 11.312 84.376 11.326 83.956 11.396ZM96.584 17.122V17.346C96.584 17.64 96.402 17.794 95.926 17.794C95.618 17.794 95.506 17.668 95.506 17.43C95.506 16.982 95.562 16.086 95.562 13.174C95.562 11.438 95.562 10.808 95.506 9.828C96.01 10.038 96.22 10.136 96.696 10.374H103.318C103.864 9.744 103.934 9.688 104.032 9.688C104.13 9.688 104.228 9.744 104.83 10.206C105.124 10.43 105.166 10.5 105.166 10.584C105.166 10.668 105.11 10.724 104.97 10.724H100.518V12.474H102.702C103.22 11.886 103.318 11.816 103.402 11.816C103.5 11.816 103.612 11.886 104.186 12.334C104.438 12.53 104.522 12.614 104.522 12.698C104.522 12.782 104.466 12.824 104.326 12.824H100.518V14.574H102.702C103.234 13.986 103.332 13.916 103.416 13.916C103.514 13.916 103.626 13.986 104.2 14.42C104.438 14.616 104.522 14.7 104.522 14.784C104.522 14.868 104.466 14.924 104.326 14.924H100.518V16.772H104.256C104.718 16.31 104.788 16.254 104.886 16.254C104.97 16.254 105.054 16.31 105.53 16.744C105.754 16.94 105.81 17.01 105.81 17.094C105.81 17.178 105.74 17.234 105.404 17.458C105.292 18.83 105.138 19.88 104.886 20.622C104.718 21.182 104.494 21.518 104.144 21.742C103.822 21.938 103.514 22.008 103.206 22.008C102.94 22.008 102.912 21.994 102.884 21.798C102.842 21.392 102.646 21.196 101.442 20.888C101.358 20.874 101.372 20.692 101.456 20.706C102.408 20.818 102.786 20.846 103.052 20.846C103.57 20.846 103.738 20.762 103.892 20.286C104.144 19.488 104.27 18.48 104.368 17.122H96.584ZM96.584 16.772H99.524V14.924H96.584V16.772ZM96.584 14.574H99.524V12.824H96.584V14.574ZM96.584 12.474H99.524V10.724H96.584V12.474ZM102.338 19.712C102.086 19.712 101.988 19.614 101.876 19.194C101.708 18.592 101.442 18.158 101.036 17.78C100.994 17.738 101.078 17.668 101.134 17.682C102.24 18.046 102.814 18.536 102.814 19.096C102.814 19.474 102.604 19.712 102.338 19.712ZM100.042 20.314C99.748 20.314 99.636 20.16 99.58 19.656C99.51 19.082 99.272 18.368 98.922 18.004C98.88 17.962 98.964 17.878 99.02 17.906C100.028 18.396 100.588 19.068 100.588 19.67C100.588 19.992 100.378 20.314 100.042 20.314ZM97.69 20.734C97.41 20.734 97.186 20.566 97.228 19.95C97.27 19.292 97.144 18.69 96.962 18.2C96.948 18.144 97.032 18.102 97.074 18.13C97.9 18.718 98.292 19.46 98.292 20.006C98.292 20.426 98.04 20.734 97.69 20.734ZM94.456 21.084C94.12 21.084 93.882 20.832 93.882 20.468C93.882 20.146 94.036 19.964 94.4 19.81C95.016 19.544 95.394 19.012 95.506 18.27C95.52 18.2 95.646 18.214 95.66 18.284C95.926 19.908 95.24 21.084 94.456 21.084ZM109.31 10.304H112.88C113.328 9.856 113.398 9.8 113.482 9.8C113.58 9.8 113.664 9.842 114.084 10.206C114.28 10.374 114.336 10.458 114.336 10.542C114.336 10.64 114.28 10.752 113.972 10.934V13.006C113.972 16.464 114.042 18.172 114.042 18.676C114.042 18.97 113.832 19.124 113.44 19.124C113.146 19.124 113.006 19.012 113.006 18.76V18.298H109.17V18.998C109.17 19.32 108.988 19.46 108.596 19.46C108.26 19.46 108.134 19.348 108.134 19.082C108.134 18.508 108.218 17.43 108.218 13.874C108.218 11.816 108.204 10.794 108.148 9.786C108.61 9.968 108.82 10.052 109.31 10.304ZM111.522 17.948H113.006V14.322H111.522V17.948ZM109.17 17.948H110.612V14.322H109.17V17.948ZM113.006 10.654H111.522V13.972H113.006V10.654ZM109.17 13.972H110.612V10.654H109.17V13.972ZM115.358 11.522H118.662C119.292 10.78 119.39 10.71 119.474 10.71C119.572 10.71 119.67 10.78 120.328 11.312C120.622 11.564 120.692 11.662 120.692 11.746C120.692 11.83 120.636 11.872 120.496 11.872H118.004V17.15C118.004 19.474 118.046 20.23 118.046 20.762C118.046 21.182 117.892 21.448 117.668 21.644C117.472 21.84 117.108 21.966 116.702 21.966C116.534 21.966 116.478 21.924 116.45 21.7C116.38 21.266 116.114 21.084 114.742 20.846C114.644 20.818 114.658 20.622 114.756 20.622C115.624 20.692 116.212 20.734 116.674 20.734C116.898 20.734 116.954 20.664 116.954 20.454V11.872H115.358C114.952 11.872 114.756 11.886 114.364 11.956L114.224 11.424C114.686 11.508 114.938 11.522 115.358 11.522ZM132.592 14.812H130.94C131.192 16.562 131.612 17.696 132.27 18.648C132.928 19.614 133.684 20.23 134.636 20.776C134.678 20.804 134.65 20.902 134.594 20.916C134.23 21 134.062 21.182 133.88 21.672C133.824 21.812 133.768 21.84 133.67 21.84C133.614 21.84 133.516 21.77 133.362 21.63C132.62 20.958 132.102 20.16 131.626 19.236C131.178 18.27 130.8 16.912 130.618 14.812H129.288C129.232 16.618 129.092 17.57 128.84 18.494C128.434 19.992 127.748 21.182 126.698 22.12C126.642 22.162 126.516 22.064 126.558 22.008C127.272 20.986 127.664 19.936 127.944 18.718C128.224 17.458 128.322 15.89 128.322 13.272C128.322 11.158 128.308 10.5 128.238 9.66C128.742 9.884 128.966 9.996 129.442 10.276H132.494C132.914 9.828 132.984 9.786 133.068 9.786C133.166 9.786 133.236 9.828 133.698 10.22C133.894 10.402 133.95 10.472 133.95 10.556C133.95 10.668 133.88 10.766 133.586 10.962V12.362C133.586 14.182 133.642 14.91 133.642 15.176C133.642 15.512 133.446 15.638 133.012 15.638C132.718 15.638 132.592 15.54 132.592 15.274V14.812ZM132.592 14.462V10.626H129.33V12.082C129.33 13.006 129.316 13.79 129.302 14.462H132.592ZM123.212 16.73V16.856C123.212 17.108 123.03 17.248 122.666 17.248C122.372 17.248 122.26 17.15 122.26 16.912C122.26 16.576 122.33 15.68 122.33 12.516C122.33 11.004 122.316 10.612 122.246 9.674C122.708 9.856 122.89 9.954 123.31 10.206H126.11C126.586 9.618 126.656 9.576 126.74 9.576C126.852 9.576 126.922 9.618 127.454 10.094C127.636 10.262 127.706 10.346 127.706 10.43C127.706 10.514 127.636 10.556 127.496 10.556H125.396V12.25H126.026C126.376 11.732 126.488 11.676 126.558 11.676C126.656 11.676 126.74 11.732 127.174 12.138C127.314 12.278 127.384 12.39 127.384 12.46C127.384 12.544 127.342 12.6 127.202 12.6H125.396V14.266H125.984C126.376 13.776 126.474 13.706 126.558 13.706C126.642 13.706 126.726 13.776 127.16 14.168C127.3 14.294 127.37 14.406 127.37 14.476C127.37 14.574 127.328 14.616 127.188 14.616H125.396V16.38H126.194C126.544 15.946 126.628 15.89 126.712 15.89C126.796 15.89 126.88 15.946 127.3 16.324C127.496 16.506 127.552 16.59 127.552 16.674C127.552 16.758 127.496 16.828 127.174 17.024C127.062 18.844 126.894 19.978 126.6 20.762C126.46 21.126 126.278 21.42 126.04 21.616C125.76 21.84 125.438 21.952 125.13 21.952C124.962 21.952 124.892 21.896 124.85 21.686C124.78 21.294 124.682 21.21 123.716 20.888C123.646 20.86 123.66 20.706 123.73 20.72C124.514 20.818 124.878 20.846 125.2 20.846C125.536 20.846 125.676 20.692 125.858 20.034C126.096 19.166 126.194 18.27 126.292 16.73H123.212ZM123.212 16.38H124.514V14.616H123.212V16.38ZM123.212 14.266H124.514V12.6H123.212V14.266ZM123.212 12.25H124.514V10.556H123.212V12.25ZM125.536 18.844C125.382 18.844 125.326 18.76 125.242 18.522C125.116 18.116 124.892 17.766 124.57 17.472C124.528 17.43 124.584 17.36 124.64 17.374C125.354 17.556 125.83 17.962 125.83 18.382C125.83 18.648 125.704 18.844 125.536 18.844ZM121.728 20.65C121.49 20.65 121.322 20.426 121.322 20.146C121.322 19.964 121.378 19.824 121.56 19.656C121.98 19.264 122.232 18.746 122.274 17.962C122.274 17.906 122.414 17.906 122.428 17.962C122.484 18.298 122.512 18.606 122.512 18.9C122.512 19.922 122.204 20.65 121.728 20.65ZM123.366 20.062C123.198 20.062 123.058 20.006 123.086 19.628C123.1 19.418 123.114 19.166 123.114 18.914C123.1 18.634 123.058 18.298 122.96 17.962C122.946 17.906 123.03 17.864 123.072 17.906C123.562 18.438 123.8 18.97 123.8 19.446C123.8 19.768 123.604 20.062 123.366 20.062ZM124.514 19.572C124.346 19.572 124.304 19.488 124.262 19.138C124.192 18.606 124.066 18.256 123.786 17.738C123.758 17.682 123.842 17.626 123.884 17.654C124.542 18.13 124.92 18.606 124.92 18.998C124.92 19.32 124.724 19.572 124.514 19.572Z" fill="#0A0814"/>
<rect x="168.5" y="0.5" width="103" height="30" rx="15" stroke="#0A0814"/>
<path d="M188.234 10.682H189.998C189.998 10.038 189.998 9.646 189.942 9.198C191.16 9.338 191.286 9.464 191.286 9.59C191.286 9.688 191.202 9.786 190.908 9.926V10.682H192.826C192.826 9.982 192.812 9.674 192.77 9.198C193.988 9.338 194.114 9.464 194.114 9.59C194.114 9.688 194.03 9.786 193.736 9.926V10.682H195.584C195.99 10.234 196.074 10.178 196.158 10.178C196.256 10.178 196.354 10.234 196.774 10.584C196.984 10.78 197.04 10.85 197.04 10.934C197.04 11.046 196.984 11.116 196.676 11.312V12.11C196.676 13.636 196.732 14.336 196.732 14.56C196.732 14.854 196.522 14.994 196.116 14.994C195.836 14.994 195.724 14.868 195.724 14.644H188.122V14.672C188.122 14.966 187.954 15.092 187.548 15.092C187.24 15.092 187.128 14.994 187.128 14.728C187.128 14.434 187.17 13.972 187.17 12.306C187.17 11.326 187.156 10.794 187.1 10.122C187.576 10.318 187.786 10.416 188.234 10.682ZM189.998 14.294V12.782H188.122V14.294H189.998ZM190.908 14.294H192.826V12.782H190.908V14.294ZM193.736 14.294H195.724V12.782H193.736V14.294ZM193.736 11.032V12.432H195.724V11.032H193.736ZM192.826 11.032H190.908V12.432H192.826V11.032ZM189.998 11.032H188.122V12.432H189.998V11.032ZM188.794 19.152V19.25C188.794 19.558 188.612 19.684 188.192 19.684C187.87 19.684 187.786 19.6 187.786 19.292C187.786 19.11 187.814 18.83 187.814 17.808C187.814 17.234 187.8 16.94 187.758 16.422C188.248 16.604 188.472 16.716 188.934 16.982H194.954C195.36 16.562 195.444 16.52 195.528 16.52C195.612 16.52 195.696 16.562 196.13 16.912C196.34 17.108 196.382 17.192 196.382 17.276C196.382 17.374 196.34 17.43 196.032 17.64V17.948C196.032 18.732 196.06 19.026 196.06 19.11C196.06 19.474 195.878 19.586 195.458 19.586C195.164 19.586 195.066 19.488 195.066 19.236V19.152H188.794ZM195.066 18.802V17.332H188.794V18.802H195.066ZM193.162 21.252H196.256C196.914 20.482 197.026 20.412 197.11 20.412C197.194 20.412 197.306 20.482 197.978 21.042C198.3 21.294 198.37 21.378 198.37 21.476C198.37 21.56 198.314 21.602 198.174 21.602H186.932C186.526 21.602 186.218 21.63 185.77 21.686L185.63 21.154C186.148 21.238 186.498 21.252 186.946 21.252H192.77C192.994 20.804 193.148 20.44 193.316 19.95C193.4 19.712 193.456 19.502 193.498 19.264C194.506 19.6 194.744 19.726 194.744 19.894C194.744 20.048 194.604 20.118 194.24 20.146C193.806 20.65 193.554 20.916 193.162 21.252ZM190.39 21.182C190.138 21.182 190.04 21.056 189.984 20.678C189.9 20.16 189.774 19.768 189.508 19.404C189.48 19.362 189.536 19.306 189.592 19.32C190.446 19.6 190.95 20.09 190.95 20.552C190.95 20.916 190.712 21.182 190.39 21.182ZM185.952 16.1L185.812 15.568C186.26 15.638 186.54 15.666 186.932 15.666H196.312C196.858 14.994 196.97 14.924 197.054 14.924C197.152 14.924 197.25 14.994 197.852 15.484C198.132 15.708 198.202 15.792 198.202 15.876C198.202 15.974 198.16 16.016 198.02 16.016H186.946C186.61 16.016 186.358 16.03 185.952 16.1ZM201.772 20.678V21.266C201.772 21.588 201.548 21.728 201.1 21.728C200.792 21.728 200.666 21.616 200.666 21.35C200.666 20.65 200.75 19.628 200.75 14.966C200.75 12.418 200.736 11.172 200.666 10.038C201.198 10.262 201.436 10.374 201.94 10.668H210.102C210.578 10.15 210.648 10.108 210.732 10.108C210.83 10.108 210.914 10.15 211.404 10.57C211.628 10.766 211.684 10.85 211.684 10.934C211.684 11.046 211.6 11.13 211.292 11.34V14.154C211.292 18.648 211.376 20.58 211.376 21.196C211.376 21.532 211.138 21.686 210.69 21.686C210.368 21.686 210.242 21.546 210.242 21.294V20.678H201.772ZM201.772 20.328H205.412V15.652H201.772V20.328ZM210.242 20.328V15.652H206.434V20.328H210.242ZM210.242 15.302V11.018H206.434V15.302H210.242ZM205.412 11.018H201.772V15.302H205.412V11.018ZM217.438 18.592H219.3C219.328 17.024 219.356 15.442 219.37 13.874C217.97 16.38 215.926 18.494 213.546 19.67C213.462 19.712 213.322 19.544 213.406 19.488C215.688 17.906 217.718 15.288 218.74 12.726H215.156C214.778 12.726 214.498 12.754 214.05 12.81L213.91 12.278C214.414 12.362 214.722 12.376 215.142 12.376H219.3V11.858C219.3 10.234 219.272 9.786 219.216 9.268C220.518 9.394 220.784 9.492 220.784 9.674C220.784 9.786 220.7 9.884 220.322 10.066V12.376H224.088C224.676 11.62 224.788 11.55 224.872 11.55C224.956 11.55 225.068 11.62 225.74 12.166C226.048 12.418 226.118 12.502 226.118 12.586C226.118 12.684 226.062 12.726 225.922 12.726H220.476C221.148 14.224 221.974 15.288 222.828 16.114C223.892 17.178 225.306 17.948 226.636 18.41C226.692 18.424 226.678 18.536 226.622 18.55C226.244 18.648 226.062 18.802 225.852 19.334C225.796 19.474 225.74 19.544 225.642 19.544C225.558 19.544 225.334 19.46 225.054 19.278C224.046 18.606 222.996 17.682 222.226 16.674C221.526 15.736 220.882 14.644 220.252 12.992C220.28 14.854 220.322 16.73 220.35 18.592H221.512C222.03 17.934 222.142 17.864 222.226 17.864C222.31 17.864 222.408 17.934 222.996 18.424C223.248 18.634 223.318 18.732 223.318 18.816C223.318 18.9 223.276 18.942 223.136 18.942H220.364C220.392 20.552 220.406 21.364 220.406 21.686C220.406 22.008 220.154 22.162 219.706 22.162C219.356 22.162 219.23 22.036 219.23 21.756C219.23 21.518 219.258 20.608 219.286 18.942H217.494C217.172 18.942 216.906 18.97 216.5 19.026L216.36 18.494C216.794 18.578 217.074 18.592 217.438 18.592ZM229.31 10.304H232.88C233.328 9.856 233.398 9.8 233.482 9.8C233.58 9.8 233.664 9.842 234.084 10.206C234.28 10.374 234.336 10.458 234.336 10.542C234.336 10.64 234.28 10.752 233.972 10.934V13.006C233.972 16.464 234.042 18.172 234.042 18.676C234.042 18.97 233.832 19.124 233.44 19.124C233.146 19.124 233.006 19.012 233.006 18.76V18.298H229.17V18.998C229.17 19.32 228.988 19.46 228.596 19.46C228.26 19.46 228.134 19.348 228.134 19.082C228.134 18.508 228.218 17.43 228.218 13.874C228.218 11.816 228.204 10.794 228.148 9.786C228.61 9.968 228.82 10.052 229.31 10.304ZM231.522 17.948H233.006V14.322H231.522V17.948ZM229.17 17.948H230.612V14.322H229.17V17.948ZM233.006 10.654H231.522V13.972H233.006V10.654ZM229.17 13.972H230.612V10.654H229.17V13.972ZM235.358 11.522H238.662C239.292 10.78 239.39 10.71 239.474 10.71C239.572 10.71 239.67 10.78 240.328 11.312C240.622 11.564 240.692 11.662 240.692 11.746C240.692 11.83 240.636 11.872 240.496 11.872H238.004V17.15C238.004 19.474 238.046 20.23 238.046 20.762C238.046 21.182 237.892 21.448 237.668 21.644C237.472 21.84 237.108 21.966 236.702 21.966C236.534 21.966 236.478 21.924 236.45 21.7C236.38 21.266 236.114 21.084 234.742 20.846C234.644 20.818 234.658 20.622 234.756 20.622C235.624 20.692 236.212 20.734 236.674 20.734C236.898 20.734 236.954 20.664 236.954 20.454V11.872H235.358C234.952 11.872 234.756 11.886 234.364 11.956L234.224 11.424C234.686 11.508 234.938 11.522 235.358 11.522ZM252.592 14.812H250.94C251.192 16.562 251.612 17.696 252.27 18.648C252.928 19.614 253.684 20.23 254.636 20.776C254.678 20.804 254.65 20.902 254.594 20.916C254.23 21 254.062 21.182 253.88 21.672C253.824 21.812 253.768 21.84 253.67 21.84C253.614 21.84 253.516 21.77 253.362 21.63C252.62 20.958 252.102 20.16 251.626 19.236C251.178 18.27 250.8 16.912 250.618 14.812H249.288C249.232 16.618 249.092 17.57 248.84 18.494C248.434 19.992 247.748 21.182 246.698 22.12C246.642 22.162 246.516 22.064 246.558 22.008C247.272 20.986 247.664 19.936 247.944 18.718C248.224 17.458 248.322 15.89 248.322 13.272C248.322 11.158 248.308 10.5 248.238 9.66C248.742 9.884 248.966 9.996 249.442 10.276H252.494C252.914 9.828 252.984 9.786 253.068 9.786C253.166 9.786 253.236 9.828 253.698 10.22C253.894 10.402 253.95 10.472 253.95 10.556C253.95 10.668 253.88 10.766 253.586 10.962V12.362C253.586 14.182 253.642 14.91 253.642 15.176C253.642 15.512 253.446 15.638 253.012 15.638C252.718 15.638 252.592 15.54 252.592 15.274V14.812ZM252.592 14.462V10.626H249.33V12.082C249.33 13.006 249.316 13.79 249.302 14.462H252.592ZM243.212 16.73V16.856C243.212 17.108 243.03 17.248 242.666 17.248C242.372 17.248 242.26 17.15 242.26 16.912C242.26 16.576 242.33 15.68 242.33 12.516C242.33 11.004 242.316 10.612 242.246 9.674C242.708 9.856 242.89 9.954 243.31 10.206H246.11C246.586 9.618 246.656 9.576 246.74 9.576C246.852 9.576 246.922 9.618 247.454 10.094C247.636 10.262 247.706 10.346 247.706 10.43C247.706 10.514 247.636 10.556 247.496 10.556H245.396V12.25H246.026C246.376 11.732 246.488 11.676 246.558 11.676C246.656 11.676 246.74 11.732 247.174 12.138C247.314 12.278 247.384 12.39 247.384 12.46C247.384 12.544 247.342 12.6 247.202 12.6H245.396V14.266H245.984C246.376 13.776 246.474 13.706 246.558 13.706C246.642 13.706 246.726 13.776 247.16 14.168C247.3 14.294 247.37 14.406 247.37 14.476C247.37 14.574 247.328 14.616 247.188 14.616H245.396V16.38H246.194C246.544 15.946 246.628 15.89 246.712 15.89C246.796 15.89 246.88 15.946 247.3 16.324C247.496 16.506 247.552 16.59 247.552 16.674C247.552 16.758 247.496 16.828 247.174 17.024C247.062 18.844 246.894 19.978 246.6 20.762C246.46 21.126 246.278 21.42 246.04 21.616C245.76 21.84 245.438 21.952 245.13 21.952C244.962 21.952 244.892 21.896 244.85 21.686C244.78 21.294 244.682 21.21 243.716 20.888C243.646 20.86 243.66 20.706 243.73 20.72C244.514 20.818 244.878 20.846 245.2 20.846C245.536 20.846 245.676 20.692 245.858 20.034C246.096 19.166 246.194 18.27 246.292 16.73H243.212ZM243.212 16.38H244.514V14.616H243.212V16.38ZM243.212 14.266H244.514V12.6H243.212V14.266ZM243.212 12.25H244.514V10.556H243.212V12.25ZM245.536 18.844C245.382 18.844 245.326 18.76 245.242 18.522C245.116 18.116 244.892 17.766 244.57 17.472C244.528 17.43 244.584 17.36 244.64 17.374C245.354 17.556 245.83 17.962 245.83 18.382C245.83 18.648 245.704 18.844 245.536 18.844ZM241.728 20.65C241.49 20.65 241.322 20.426 241.322 20.146C241.322 19.964 241.378 19.824 241.56 19.656C241.98 19.264 242.232 18.746 242.274 17.962C242.274 17.906 242.414 17.906 242.428 17.962C242.484 18.298 242.512 18.606 242.512 18.9C242.512 19.922 242.204 20.65 241.728 20.65ZM243.366 20.062C243.198 20.062 243.058 20.006 243.086 19.628C243.1 19.418 243.114 19.166 243.114 18.914C243.1 18.634 243.058 18.298 242.96 17.962C242.946 17.906 243.03 17.864 243.072 17.906C243.562 18.438 243.8 18.97 243.8 19.446C243.8 19.768 243.604 20.062 243.366 20.062ZM244.514 19.572C244.346 19.572 244.304 19.488 244.262 19.138C244.192 18.606 244.066 18.256 243.786 17.738C243.758 17.682 243.842 17.626 243.884 17.654C244.542 18.13 244.92 18.606 244.92 18.998C244.92 19.32 244.724 19.572 244.514 19.572Z" fill="#0A0814"/>
<rect x="282.5" y="0.5" width="103" height="30" rx="15" stroke="#0A0814"/>
<path d="M303.256 12.264H299.322C299.266 12.964 299.182 13.678 298.972 14.35C301.184 15.204 302.57 16.38 302.57 17.304C302.57 17.682 302.36 17.962 302.08 17.962C301.814 17.962 301.716 17.85 301.31 17.164C300.722 16.156 299.994 15.33 298.888 14.588C298.72 15.092 298.482 15.512 298.188 15.904C297.6 16.744 296.382 17.556 295.164 18.046C295.08 18.088 294.996 17.892 295.08 17.836C297.292 16.38 298.104 14.98 298.3 12.264H294.758V15.764C294.758 19.46 294.772 20.664 294.772 21.56C294.772 21.854 294.534 21.994 294.086 21.994C293.764 21.994 293.624 21.882 293.624 21.616C293.624 20.748 293.694 19.418 293.694 15.47C293.694 13.062 293.694 12.166 293.624 11.284C294.156 11.508 294.394 11.62 294.884 11.914H298.328C298.342 11.508 298.356 11.074 298.356 10.612C298.356 9.926 298.342 9.73 298.286 9.38C299.504 9.464 299.882 9.562 299.882 9.772C299.882 9.898 299.798 9.968 299.42 10.136C299.406 10.794 299.392 11.382 299.35 11.914H303.13C303.578 11.41 303.662 11.354 303.76 11.354C303.844 11.354 303.928 11.41 304.432 11.83C304.642 11.998 304.698 12.082 304.698 12.18C304.698 12.292 304.614 12.376 304.32 12.586V14.84C304.32 19.614 304.376 20.146 304.376 20.65C304.376 21.238 304.152 21.504 303.76 21.7C303.578 21.784 303.228 21.868 303.032 21.868C302.85 21.868 302.78 21.798 302.752 21.56C302.696 21.168 302.402 21.014 301.114 20.748C301.03 20.734 301.044 20.552 301.128 20.552C302.024 20.622 302.542 20.65 303.004 20.65C303.186 20.65 303.256 20.566 303.256 20.384V12.264ZM308.772 20.678V21.266C308.772 21.588 308.548 21.728 308.1 21.728C307.792 21.728 307.666 21.616 307.666 21.35C307.666 20.65 307.75 19.628 307.75 14.966C307.75 12.418 307.736 11.172 307.666 10.038C308.198 10.262 308.436 10.374 308.94 10.668H317.102C317.578 10.15 317.648 10.108 317.732 10.108C317.83 10.108 317.914 10.15 318.404 10.57C318.628 10.766 318.684 10.85 318.684 10.934C318.684 11.046 318.6 11.13 318.292 11.34V14.154C318.292 18.648 318.376 20.58 318.376 21.196C318.376 21.532 318.138 21.686 317.69 21.686C317.368 21.686 317.242 21.546 317.242 21.294V20.678H308.772ZM308.772 20.328H312.412V15.652H308.772V20.328ZM317.242 20.328V15.652H313.434V20.328H317.242ZM317.242 15.302V11.018H313.434V15.302H317.242ZM312.412 11.018H308.772V15.302H312.412V11.018ZM327.252 12.278H325.866C325.614 12.278 325.404 12.306 325.068 12.362L324.928 11.83C325.32 11.914 325.572 11.928 325.88 11.928H327.476C327.784 11.34 327.91 11.046 328.008 10.752C327.196 10.836 326.328 10.878 325.306 10.878C325.208 10.878 325.18 10.668 325.278 10.654C326.986 10.5 328.666 10.15 329.814 9.758C330.36 9.576 330.808 9.366 331.102 9.17C331.83 9.716 332.11 9.94 332.11 10.08C332.11 10.164 332.026 10.22 331.858 10.22C331.76 10.22 331.606 10.192 331.424 10.136C330.514 10.374 329.632 10.556 328.666 10.682C329.226 10.836 329.38 10.906 329.38 11.032C329.38 11.158 329.296 11.2 328.862 11.27C328.736 11.494 328.61 11.718 328.456 11.928H331.256C331.746 11.34 331.858 11.27 331.942 11.27C332.026 11.27 332.138 11.34 332.67 11.774C332.894 11.956 332.964 12.04 332.964 12.124C332.964 12.236 332.922 12.278 332.782 12.278H329.87C330.29 12.768 330.766 13.118 331.312 13.426C331.956 13.776 332.754 14.014 333.594 14.112C333.65 14.112 333.65 14.238 333.594 14.252C333.272 14.35 333.146 14.476 333.048 14.826C333.006 15.036 332.95 15.078 332.852 15.078C332.782 15.078 332.614 15.022 332.404 14.924C331.858 14.672 331.452 14.42 330.976 14L330.878 14.07V14.476C330.878 15.274 330.892 15.498 330.892 15.568C330.892 15.848 330.724 15.96 330.36 15.96C330.136 15.96 329.996 15.89 329.996 15.652V15.512H327.42V15.624C327.42 15.904 327.154 15.988 326.902 15.988C326.636 15.988 326.524 15.89 326.524 15.68C326.524 15.596 326.552 15.386 326.552 14.742V13.944C326.048 14.322 325.488 14.658 324.872 14.938C324.788 14.98 324.676 14.798 324.76 14.742C325.768 14.056 326.65 13.188 327.252 12.278ZM329.534 12.278H328.218C327.924 12.67 327.588 13.034 327.224 13.384C327.308 13.426 327.392 13.468 327.504 13.538H329.94C330.08 13.384 330.136 13.328 330.234 13.258C329.968 12.95 329.73 12.628 329.534 12.278ZM329.996 15.162V13.888H327.42V15.162H329.996ZM323.29 12.824V14.042C324.242 14.406 324.802 15.05 324.802 15.596C324.802 15.918 324.606 16.156 324.326 16.156C324.158 16.156 324.06 16.03 323.99 15.708C323.864 15.078 323.668 14.658 323.29 14.294V14.462C323.29 18.508 323.346 21.098 323.346 21.798C323.346 22.078 323.136 22.204 322.744 22.204C322.45 22.204 322.31 22.106 322.31 21.854C322.31 21.35 322.38 19.32 322.436 15.134C321.918 16.618 321.344 17.668 320.378 18.76C320.322 18.83 320.182 18.704 320.224 18.634C321.162 17.038 321.89 14.812 322.212 12.824H321.47C321.204 12.824 320.994 12.838 320.616 12.908L320.476 12.376C320.868 12.446 321.134 12.474 321.47 12.474H322.366V11.284C322.366 10.206 322.352 9.772 322.282 9.254C323.57 9.408 323.78 9.464 323.78 9.674C323.78 9.8 323.668 9.884 323.29 10.052V12.474H323.668C324.004 11.9 324.102 11.83 324.186 11.83C324.27 11.83 324.354 11.9 324.774 12.348C324.914 12.488 324.984 12.6 324.984 12.684C324.984 12.782 324.942 12.824 324.802 12.824H323.29ZM327.7 20.034V20.3C327.7 20.552 327.518 20.678 327.21 20.678C326.972 20.678 326.86 20.552 326.86 20.37C326.86 20.23 326.888 19.838 326.888 18.802C326.888 18.256 326.888 18.06 326.832 17.5C327.224 17.654 327.392 17.752 327.756 17.962H329.632C329.968 17.612 330.038 17.556 330.122 17.556C330.22 17.556 330.304 17.612 330.626 17.906C330.794 18.046 330.864 18.144 330.864 18.228C330.864 18.326 330.808 18.382 330.514 18.564V18.886C330.514 19.67 330.528 20.02 330.528 20.104C330.528 20.384 330.388 20.496 330.052 20.496C329.786 20.496 329.716 20.412 329.716 20.174V20.034H327.7ZM329.716 19.684V18.312H327.7V19.684H329.716ZM325.754 16.954V18.69C325.754 20.524 325.768 21.28 325.768 21.756C325.768 22.078 325.572 22.204 325.208 22.204C324.9 22.204 324.788 22.106 324.788 21.854C324.788 21.504 324.83 20.566 324.83 18.48C324.83 17.094 324.83 16.702 324.774 16.002C325.264 16.212 325.53 16.366 325.88 16.604H331.634C332.026 16.142 332.11 16.1 332.194 16.1C332.306 16.1 332.376 16.142 332.796 16.52C332.992 16.688 333.048 16.786 333.048 16.87C333.048 16.982 332.978 17.066 332.684 17.262V18.228C332.684 20.258 332.712 20.622 332.712 21.112C332.712 21.462 332.6 21.728 332.348 21.91C332.166 22.064 331.9 22.162 331.634 22.162C331.466 22.162 331.41 22.092 331.382 21.91C331.34 21.588 331.2 21.406 330.15 21.182C330.08 21.168 330.08 21.014 330.15 21.014C330.836 21.07 331.186 21.07 331.508 21.07C331.676 21.07 331.746 21 331.746 20.846V16.954H325.754ZM346.152 16.926C346.152 17.402 345.984 17.654 345.564 17.654C345.27 17.654 345.088 17.458 344.934 17.122C344.556 16.282 344.206 15.708 343.744 15.148C343.324 14.644 342.834 14.21 342.302 13.832C342.134 13.72 342.05 13.636 342.05 13.566C342.05 13.454 342.134 13.398 342.218 13.398C342.316 13.398 342.428 13.44 342.61 13.51C343.422 13.846 344.192 14.336 344.878 14.952C345.494 15.498 346.152 16.366 346.152 16.926ZM338.928 14.588C338.928 14.448 338.802 14.28 338.466 14.042C338.326 13.944 338.298 13.916 338.298 13.86C338.298 13.762 338.494 13.692 338.648 13.692C338.844 13.692 339.11 13.79 339.46 14.028C339.88 14.322 340.286 14.714 340.286 15.078C340.286 15.302 340.174 15.414 339.936 15.498C339.824 15.54 339.712 15.638 339.558 15.792C338.956 16.394 338.368 16.926 337.654 17.458C336.884 18.032 336.03 18.55 335.148 18.914C334.966 18.998 334.868 19.026 334.798 19.026C334.7 19.026 334.616 18.956 334.616 18.844C334.616 18.76 334.686 18.704 334.826 18.62C335.694 18.06 336.464 17.444 337.136 16.842C337.682 16.324 338.158 15.806 338.536 15.33C338.802 14.98 338.928 14.77 338.928 14.588ZM343.828 11.452C343.912 11.452 344.01 11.48 344.052 11.494C344.43 11.606 344.85 11.816 345.27 12.194C345.606 12.488 345.802 12.74 345.802 13.034C345.802 13.258 345.662 13.454 345.41 13.454C345.228 13.454 345.074 13.328 344.948 13.076C344.738 12.656 344.178 12.04 343.772 11.732C343.716 11.69 343.674 11.634 343.674 11.592C343.674 11.522 343.73 11.452 343.828 11.452ZM344.962 10.5C345.032 10.5 345.144 10.528 345.27 10.556C345.648 10.654 345.998 10.822 346.39 11.102C346.726 11.34 347.034 11.662 347.034 11.984C347.034 12.264 346.866 12.432 346.656 12.432C346.474 12.432 346.362 12.362 346.208 12.096C345.956 11.662 345.396 11.06 344.92 10.78C344.864 10.752 344.822 10.696 344.822 10.64C344.822 10.57 344.878 10.5 344.962 10.5ZM355.686 16.058C356.974 16.59 358.178 17.234 359.004 18.032C359.494 18.508 359.872 18.97 359.872 19.348C359.872 19.726 359.634 19.936 359.298 19.936C359.102 19.936 358.92 19.81 358.696 19.502C357.772 18.172 356.75 17.206 355.378 16.394C354.538 17.318 353.628 18.116 352.648 18.76C351.71 19.39 350.73 19.894 349.918 20.188C349.778 20.244 349.638 20.286 349.54 20.286C349.456 20.286 349.386 20.188 349.386 20.118C349.386 20.048 349.442 19.964 349.526 19.922C351.206 18.998 352.662 17.976 354.062 16.492C355.098 15.414 355.868 14.378 356.708 12.936C356.75 12.866 356.764 12.838 356.764 12.81C356.764 12.782 356.736 12.782 356.652 12.782C356.008 12.824 354.412 13.034 352.998 13.314C352.718 13.37 352.536 13.426 352.424 13.496C352.298 13.566 352.214 13.636 352.018 13.636C351.78 13.636 351.444 13.398 351.15 12.992C350.884 12.628 350.772 12.432 350.772 12.194C350.772 12.054 350.842 11.9 350.912 11.9C350.968 11.9 351.066 11.984 351.15 12.068C351.514 12.418 351.766 12.6 352.074 12.6C352.298 12.6 352.774 12.558 353.18 12.516C354.272 12.404 355.434 12.292 356.456 12.152C356.694 12.124 356.806 12.054 356.932 11.942C357.03 11.844 357.128 11.788 357.268 11.788C357.478 11.788 357.632 11.858 357.926 12.124C358.304 12.474 358.416 12.628 358.416 12.796C358.416 12.936 358.346 12.992 358.066 13.104C357.87 13.174 357.646 13.356 357.478 13.622C357.1 14.224 356.414 15.204 355.686 16.058ZM364.968 14.35V16.366C364.968 19.67 364.982 21.224 364.982 21.686C364.982 22.022 364.786 22.176 364.366 22.176C364.016 22.176 363.89 22.064 363.89 21.756C363.89 21.448 363.946 20.454 363.988 17.206C363.988 16.31 363.988 15.428 364.002 14.518C363.554 15.19 363.05 15.806 362.49 16.366C362.434 16.422 362.294 16.296 362.336 16.226C363.456 14.616 364.352 12.418 364.758 10.556C364.856 10.122 364.926 9.702 364.954 9.296C366.284 9.66 366.48 9.73 366.48 9.912C366.48 10.052 366.368 10.108 365.934 10.206C365.57 11.48 365.094 12.642 364.506 13.678C365.262 13.804 365.374 13.846 365.374 14C365.374 14.112 365.318 14.196 364.968 14.35ZM366.746 15.806H373.83C374.25 15.316 374.32 15.26 374.432 15.26C374.53 15.26 374.642 15.33 375.174 15.792C375.426 16.03 375.482 16.114 375.482 16.212C375.482 16.38 375.37 16.45 374.978 16.45C374.81 16.45 374.74 16.492 374.572 16.618C374.32 16.814 374.054 16.982 373.732 17.15C373.802 17.192 373.872 17.248 373.956 17.318C374.194 17.514 374.264 17.598 374.264 17.696C374.264 17.78 374.208 17.836 374.082 17.836H371.1V19.306C371.1 20.188 371.128 20.706 371.128 20.986C371.128 21.364 370.96 21.588 370.75 21.77C370.54 21.952 370.19 22.078 369.742 22.078C369.602 22.078 369.56 22.036 369.518 21.826C369.448 21.49 369.28 21.294 368.02 21.028C367.936 21.014 367.936 20.804 368.02 20.818C368.902 20.902 369.42 20.916 369.854 20.916C370.022 20.916 370.078 20.86 370.078 20.678V17.836H367.838C367.572 17.836 367.376 17.864 367.04 17.92L366.9 17.388C367.292 17.472 367.53 17.486 367.852 17.486H372.514C373.032 16.898 373.144 16.828 373.228 16.828C373.284 16.828 373.368 16.87 373.592 17.038C373.76 16.688 373.83 16.492 373.914 16.156H366.76C366.774 17.024 366.382 17.626 365.85 17.626C365.57 17.626 365.374 17.416 365.374 17.122C365.374 16.87 365.444 16.786 365.836 16.548C366.214 16.296 366.438 15.876 366.48 15.302C366.48 15.232 366.62 15.204 366.634 15.274C366.69 15.456 366.718 15.638 366.746 15.806ZM368.16 14.7V14.742C368.16 15.036 367.964 15.162 367.614 15.162C367.32 15.162 367.18 15.064 367.18 14.798C367.18 14.658 367.208 14.42 367.208 13.51C367.208 12.908 367.194 12.474 367.138 11.984C367.628 12.18 367.824 12.264 368.258 12.488H372.57C372.976 12.054 373.06 11.998 373.144 11.998C373.228 11.998 373.326 12.054 373.718 12.39C373.942 12.558 373.984 12.656 373.984 12.74C373.984 12.838 373.928 12.908 373.648 13.104V13.454C373.648 14.266 373.676 14.602 373.676 14.714C373.676 14.994 373.494 15.134 373.102 15.134C372.794 15.134 372.682 15.036 372.682 14.798V14.7H368.16ZM372.682 14.35V12.838H368.16V14.35H372.682ZM370.904 11.074H373.452C373.998 10.36 374.096 10.29 374.194 10.29C374.278 10.29 374.39 10.36 374.992 10.878C375.272 11.116 375.342 11.2 375.342 11.284C375.342 11.368 375.286 11.424 375.16 11.424H367.334C366.984 11.424 366.732 11.438 366.34 11.508L366.2 10.976C366.648 11.046 366.942 11.074 367.334 11.074H369.896V10.248C369.896 9.954 369.882 9.716 369.84 9.282C371.212 9.422 371.366 9.534 371.366 9.688C371.366 9.786 371.268 9.884 370.904 10.038V11.074Z" fill="#0A0814"/>
</svg>
