<svg width="386" height="53" viewBox="0 0 386 53" fill="none" xmlns="http://www.w3.org/2000/svg">
<path d="M16.636 19.388V19.916C17.764 20.216 18.376 20.744 18.376 21.248C18.376 21.536 18.22 21.716 17.992 21.716C17.788 21.716 17.692 21.608 17.536 21.248C17.332 20.804 17.008 20.42 16.636 20.144V20.552C16.636 22.808 16.672 23.42 16.672 23.624C16.672 23.912 16.516 24.02 16.144 24.02C15.88 24.02 15.784 23.924 15.784 23.672C15.784 23.312 15.856 21.884 15.88 20.66C15.136 21.74 14.512 22.364 13.432 23.012C13.36 23.06 13.264 22.916 13.324 22.856C14.44 21.848 15.208 20.732 15.712 19.388H14.44C14.2 19.388 14.008 19.412 13.684 19.46L13.564 18.992C13.9 19.076 14.128 19.088 14.416 19.088H15.856V18.944C15.856 18.428 15.832 18.188 15.796 17.828C16.72 17.924 16.972 18.008 16.972 18.152C16.972 18.236 16.9 18.308 16.636 18.428V19.088H17.728C18.124 18.596 18.208 18.548 18.28 18.548C18.364 18.548 18.448 18.596 18.892 18.944C19.072 19.124 19.132 19.208 19.132 19.28C19.132 19.352 19.096 19.388 18.976 19.388H16.636ZM22.864 17.24V20.192C22.864 21.824 22.888 23.18 22.888 23.6C22.888 23.852 22.696 23.984 22.324 23.984C22.072 23.984 21.952 23.888 21.952 23.66C21.952 23.42 22 22.568 22 20.792V17.24H20.452C20.416 18.56 20.296 19.436 20.092 20.276C19.732 21.812 19.096 22.784 17.86 23.756C17.788 23.804 17.656 23.684 17.704 23.624C18.676 22.46 19.156 21.428 19.396 19.844C19.552 18.896 19.612 17.828 19.612 16.28C19.612 15.128 19.6 14.84 19.54 14.264C19.96 14.432 20.164 14.516 20.572 14.732C21.316 14.456 21.928 14.06 22.528 13.592C22.708 13.448 22.876 13.292 23.044 13.088C23.788 13.556 24.04 13.784 24.04 13.904C24.04 14.012 23.908 14.084 23.464 14C22.528 14.504 21.496 14.852 20.476 15.02V16.052C20.476 16.364 20.464 16.664 20.464 16.94H23.14C23.608 16.364 23.704 16.304 23.776 16.304C23.86 16.304 23.932 16.364 24.436 16.796C24.652 16.976 24.712 17.048 24.712 17.12C24.712 17.204 24.664 17.24 24.544 17.24H22.864ZM16.684 14.612H17.74C18.1 14.132 18.184 14.072 18.256 14.072C18.34 14.072 18.424 14.132 18.844 14.48C19.024 14.624 19.084 14.72 19.084 14.792C19.084 14.864 19.048 14.912 18.928 14.912H14.68C14.44 14.912 14.26 14.924 13.96 14.984L13.828 14.528C14.164 14.588 14.38 14.612 14.656 14.612H15.856V13.832C15.856 13.556 15.844 13.34 15.808 12.956C16.912 13.076 17.068 13.16 17.068 13.28C17.068 13.364 16.984 13.46 16.684 13.58V14.612ZM16.852 17.264H17.836C18.268 16.736 18.352 16.688 18.424 16.688C18.508 16.688 18.58 16.736 19.048 17.108C19.252 17.288 19.312 17.372 19.312 17.444C19.312 17.528 19.276 17.564 19.156 17.564H14.392C14.152 17.564 13.972 17.588 13.66 17.636L13.54 17.18C13.876 17.24 14.092 17.264 14.392 17.264H16.576C16.816 16.712 16.984 16.244 17.104 15.836C17.176 15.56 17.224 15.296 17.248 15.056C18.016 15.296 18.352 15.476 18.352 15.608C18.352 15.74 18.256 15.788 17.932 15.812C17.524 16.436 17.272 16.796 16.852 17.264ZM15.364 17.024C15.112 17.024 15.04 16.94 14.98 16.436C14.932 16.004 14.812 15.656 14.608 15.272C14.584 15.224 14.656 15.176 14.704 15.2C15.364 15.524 15.796 16.04 15.796 16.472C15.796 16.796 15.604 17.024 15.364 17.024ZM33.496 13.676C33.904 14.396 34.372 14.888 34.924 15.308C35.452 15.728 36.1 16.052 36.76 16.292C36.82 16.316 36.796 16.412 36.736 16.424C36.484 16.496 36.376 16.616 36.256 16.976C36.208 17.144 36.172 17.18 36.112 17.18C36.052 17.18 35.968 17.132 35.812 17.024C35.308 16.676 34.888 16.28 34.528 15.884C34.108 15.38 33.712 14.756 33.328 13.88C32.632 15.284 31.636 16.448 30.364 17.228C30.304 17.264 30.208 17.156 30.256 17.108C31.06 16.328 31.756 15.26 32.248 14.228C32.464 13.736 32.62 13.304 32.68 12.932C33.7 13.232 33.904 13.328 33.904 13.484C33.904 13.58 33.796 13.64 33.496 13.676ZM28.456 19.724V21.26H29.332C29.716 20.78 29.812 20.72 29.884 20.72C29.956 20.72 30.052 20.78 30.496 21.128C30.676 21.284 30.736 21.368 30.736 21.44C30.736 21.524 30.7 21.56 30.58 21.56H28.456C28.456 22.544 28.504 23.42 28.504 23.684C28.504 23.936 28.312 24.044 27.976 24.044C27.712 24.044 27.604 23.96 27.604 23.744C27.604 23.576 27.652 23 27.652 21.908V21.56H26.344C26.092 21.56 25.888 21.584 25.588 21.644L25.468 21.176C25.804 21.248 26.02 21.26 26.344 21.26H27.652V19.724H26.872V19.856C26.872 20.084 26.716 20.18 26.404 20.18C26.152 20.18 26.044 20.108 26.044 19.892C26.044 19.64 26.104 19.208 26.104 17.696C26.104 16.868 26.092 16.4 26.044 15.836C26.428 15.992 26.584 16.076 26.944 16.292H27.64V14.888H26.368C26.14 14.888 25.96 14.9 25.66 14.96L25.528 14.504C25.864 14.564 26.08 14.588 26.368 14.588H27.64V14.108C27.64 13.64 27.64 13.304 27.592 12.908C28.696 13.028 28.828 13.124 28.828 13.244C28.828 13.34 28.744 13.424 28.444 13.544V14.588H29.356C29.752 14.084 29.848 14.024 29.92 14.024C29.992 14.024 30.088 14.084 30.544 14.48C30.724 14.624 30.784 14.696 30.784 14.768C30.784 14.852 30.748 14.888 30.628 14.888H28.444V16.292H29.116C29.44 15.944 29.5 15.896 29.584 15.896C29.656 15.896 29.74 15.944 30.076 16.232C30.244 16.364 30.28 16.436 30.28 16.508C30.28 16.592 30.232 16.676 30.004 16.82V17.528C30.004 18.908 30.028 19.58 30.028 19.784C30.028 20.012 29.872 20.12 29.536 20.12C29.308 20.12 29.2 20.048 29.2 19.844V19.724H28.456ZM26.872 18.128V19.424H29.2V18.128H26.872ZM29.2 17.828V16.592H26.872V17.828H29.2ZM33.52 19.88V20.228C33.52 21.872 33.568 23.228 33.568 23.648C33.568 23.936 33.388 24.044 33.004 24.044C32.74 24.044 32.62 23.96 32.62 23.72C32.62 23.492 32.668 22.676 32.668 20.972V19.88H31.24C30.988 19.88 30.784 19.892 30.484 19.952L30.364 19.484C30.688 19.556 30.904 19.58 31.204 19.58H32.668V17.3H31.852C31.612 17.3 31.444 17.312 31.156 17.372L31.036 16.904C31.348 16.976 31.54 17 31.816 17H33.988C34.36 16.496 34.456 16.436 34.528 16.436C34.612 16.436 34.696 16.496 35.104 16.88C35.272 17.024 35.332 17.108 35.332 17.18C35.332 17.264 35.296 17.3 35.176 17.3H33.52V19.58H34.912C35.356 19.004 35.452 18.944 35.524 18.944C35.596 18.944 35.692 19.004 36.196 19.436C36.412 19.604 36.472 19.688 36.472 19.76C36.472 19.844 36.436 19.88 36.316 19.88H33.52ZM45.196 18.44L45.22 20.108C45.244 21.62 45.28 22.604 45.28 23C45.28 23.36 45.136 23.576 44.932 23.732C44.776 23.852 44.524 23.948 44.296 23.948C44.14 23.948 44.092 23.888 44.044 23.684C43.996 23.348 43.804 23.252 42.904 23.06C42.832 23.048 42.844 22.892 42.916 22.904C43.588 22.964 43.984 22.976 44.248 22.976C44.392 22.976 44.452 22.928 44.452 22.772V17.972H43.3V18.128C43.3 18.38 43.132 18.476 42.808 18.476C42.592 18.476 42.472 18.404 42.472 18.188C42.472 17.888 42.52 17.444 42.52 15.716C42.52 14.828 42.52 14.384 42.46 13.808C42.844 13.964 43.036 14.06 43.42 14.3H44.2C44.272 14.06 44.332 13.82 44.38 13.604C44.428 13.352 44.452 13.1 44.452 12.872C45.412 13.124 45.652 13.232 45.652 13.364C45.652 13.472 45.544 13.544 45.196 13.58C44.98 13.856 44.776 14.072 44.536 14.3H46.372C46.756 13.904 46.816 13.856 46.888 13.856C46.972 13.856 47.032 13.904 47.404 14.216C47.584 14.384 47.62 14.456 47.62 14.528C47.62 14.624 47.596 14.66 47.308 14.864V15.668C47.308 17.12 47.344 17.864 47.344 18.08C47.344 18.332 47.188 18.44 46.864 18.44C46.588 18.44 46.492 18.356 46.492 18.128V17.972H45.268C45.448 18.776 45.676 19.568 46.132 20.264C46.408 19.988 46.66 19.688 46.9 19.352C47.116 19.04 47.26 18.728 47.356 18.452C48.184 18.944 48.34 19.088 48.34 19.208C48.34 19.34 48.232 19.388 47.872 19.376C47.176 19.892 46.828 20.156 46.252 20.444C46.348 20.576 46.444 20.696 46.552 20.816C47.176 21.524 47.908 21.992 48.724 22.292C48.772 22.304 48.748 22.388 48.7 22.412C48.412 22.532 48.292 22.676 48.16 23.06C48.1 23.252 48.052 23.276 47.968 23.276C47.908 23.276 47.812 23.228 47.62 23.084C47.08 22.604 46.528 21.956 46.18 21.368C45.736 20.588 45.472 19.868 45.196 18.44ZM43.3 16.232V17.672H46.492V16.232H43.3ZM46.492 15.932V14.6H43.3V15.932H46.492ZM39.448 21.224V18.608C39.112 18.68 38.704 18.74 38.188 18.836C38.104 19.1 38.032 19.172 37.936 19.172C37.804 19.172 37.744 18.992 37.576 18.056C37.828 18.08 37.948 18.092 38.128 18.092C38.368 18.092 38.596 18.092 38.788 18.08C39.256 17.396 39.784 16.496 40.156 15.692C40.36 15.26 40.516 14.852 40.588 14.564C41.428 14.972 41.68 15.128 41.68 15.26C41.68 15.368 41.56 15.452 41.224 15.44C40.492 16.52 40.012 17.192 39.124 18.08C39.784 18.068 40.456 18.032 41.128 17.96C41.032 17.636 40.888 17.324 40.672 16.988C40.648 16.952 40.732 16.904 40.768 16.928C41.56 17.396 42.016 18.02 42.016 18.536C42.016 18.836 41.836 19.088 41.596 19.088C41.392 19.088 41.284 18.944 41.236 18.476C41.224 18.38 41.212 18.284 41.188 18.2C40.864 18.296 40.54 18.38 40.216 18.452V20.756C40.216 22.064 40.252 23.252 40.252 23.612C40.252 23.876 40.084 24.008 39.76 24.008C39.484 24.008 39.388 23.912 39.388 23.684C39.388 23.468 39.448 22.7 39.448 21.224ZM38.92 15.368C39.268 15.632 39.436 15.932 39.436 16.244C39.436 16.544 39.256 16.772 39.028 16.772C38.812 16.772 38.764 16.724 38.62 16.256C38.428 15.728 38.224 15.344 37.756 14.912C37.72 14.876 37.78 14.804 37.828 14.816C38.176 14.936 38.464 15.068 38.704 15.212C38.896 14.768 39.076 14.336 39.22 13.88C39.34 13.508 39.424 13.16 39.46 12.896C40.384 13.244 40.624 13.352 40.624 13.484C40.624 13.604 40.528 13.676 40.168 13.688C39.64 14.492 39.376 14.852 38.92 15.368ZM41.308 21.8C41.068 21.8 40.996 21.62 40.972 21.188C40.936 20.6 40.804 20.06 40.564 19.628C40.54 19.592 40.624 19.556 40.66 19.58C41.356 20.108 41.74 20.696 41.74 21.188C41.74 21.584 41.572 21.8 41.308 21.8ZM37.576 23.048C37.528 23.108 37.396 23.048 37.42 22.976C37.66 22.412 37.888 21.596 38.032 20.9C38.128 20.408 38.188 19.928 38.188 19.604C39.136 19.892 39.292 19.952 39.292 20.096C39.292 20.18 39.196 20.252 38.92 20.312C38.572 21.44 38.224 22.232 37.576 23.048ZM42.316 19.46H43.108C43.396 19.124 43.456 19.076 43.528 19.076C43.612 19.076 43.672 19.124 44.032 19.46C44.236 19.652 44.284 19.724 44.284 19.796C44.284 19.88 44.2 19.94 43.924 20.024C43.348 21.584 42.508 22.496 40.936 23.336C40.864 23.372 40.768 23.204 40.828 23.156C41.98 22.232 42.76 21.092 43.108 19.76H42.34C42.1 19.76 41.908 19.784 41.62 19.844L41.488 19.376C41.836 19.448 42.052 19.46 42.316 19.46ZM55.828 15.884L55.816 15.836C54.496 16.244 53.14 16.7 52.216 17.024C52.048 17.084 51.856 17.168 51.7 17.3C51.616 17.372 51.532 17.42 51.376 17.42C51.172 17.432 50.884 17.276 50.572 16.916C50.38 16.688 50.224 16.46 50.212 16.244C50.212 16.076 50.26 15.944 50.32 15.944C50.38 15.944 50.428 15.992 50.476 16.04C50.824 16.388 51.004 16.46 51.376 16.46C51.52 16.448 51.784 16.412 52.096 16.328C53.836 15.884 55.636 15.416 57.4 14.96C57.652 14.9 57.772 14.84 57.868 14.78C57.988 14.708 58.096 14.672 58.276 14.66C58.516 14.66 58.804 14.744 59.056 14.864C59.224 14.936 59.38 15.056 59.38 15.236C59.392 15.488 59.26 15.596 58.96 15.608C58.18 15.632 57.484 15.668 56.848 15.872C56.128 16.1 55.6 16.472 55.12 16.988C54.508 17.648 54.172 18.488 54.172 19.316C54.184 20.096 54.496 20.72 55 21.116C55.66 21.632 56.608 21.824 57.196 21.848C57.508 21.86 57.724 21.884 58.024 22.052C58.276 22.196 58.348 22.364 58.348 22.568C58.348 22.772 58.216 22.916 57.712 22.916C56.848 22.916 55.684 22.58 54.904 22.028C54.184 21.512 53.62 20.708 53.62 19.652C53.62 18.884 53.788 18.212 54.16 17.6C54.496 16.976 55.108 16.364 55.828 15.884ZM57.616 17.396C57.688 17.396 57.772 17.42 57.808 17.432C58.132 17.528 58.492 17.708 58.852 18.032C59.14 18.284 59.308 18.5 59.308 18.752C59.308 18.944 59.188 19.112 58.972 19.112C58.816 19.112 58.684 19.004 58.576 18.788C58.396 18.428 57.916 17.9 57.568 17.636C57.52 17.6 57.484 17.552 57.484 17.516C57.484 17.456 57.532 17.396 57.616 17.396ZM58.588 16.58C58.648 16.58 58.744 16.604 58.852 16.628C59.176 16.712 59.476 16.856 59.812 17.096C60.1 17.3 60.364 17.576 60.364 17.852C60.364 18.092 60.22 18.236 60.04 18.236C59.884 18.236 59.788 18.176 59.656 17.948C59.44 17.576 58.96 17.06 58.552 16.82C58.504 16.796 58.468 16.748 58.468 16.7C58.468 16.64 58.516 16.58 58.588 16.58ZM38.62 31.284L38.416 33.576C38.404 33.756 38.38 33.96 38.356 34.2C38.776 33.708 39.316 33.468 40.048 33.468C41.452 33.468 42.376 34.488 42.376 36.036C42.376 37.608 41.428 38.868 39.784 38.868C39.184 38.868 38.62 38.7 38.236 38.46C37.852 38.244 37.444 37.872 37.444 37.476C37.444 37.224 37.732 36.984 38.188 36.984C38.572 36.984 38.716 37.56 38.86 37.848C39.016 38.196 39.316 38.496 39.784 38.496C40.78 38.496 41.2 37.428 41.2 36.048C41.2 34.692 40.528 33.912 39.772 33.912C39.076 33.912 38.656 34.248 38.332 34.776C38.26 34.896 38.188 34.908 37.996 34.836C37.84 34.764 37.84 34.704 37.864 34.596C37.888 34.5 37.9 34.368 37.912 34.26L38.236 30.516C38.236 30.456 38.248 30.42 38.308 30.36C38.368 30.312 38.392 30.288 38.452 30.288C38.908 30.3 39.58 30.3 40.192 30.3C40.648 30.3 41.344 30.288 42.112 30.24C42.184 30.24 42.208 30.276 42.208 30.348L41.908 31.224C41.896 31.272 41.836 31.308 41.788 31.308C41.296 31.296 40.96 31.284 40.492 31.284H38.62ZM46.012 30.06C47.524 30.06 48.472 31.776 48.472 34.44C48.472 37.152 47.548 38.868 46.012 38.868C44.44 38.868 43.528 37.224 43.528 34.512C43.528 31.764 44.476 30.06 46.012 30.06ZM46.012 30.432C44.98 30.432 44.704 32.028 44.704 34.476C44.704 36.936 44.98 38.496 46.012 38.496C47.02 38.496 47.296 36.936 47.296 34.476C47.296 32.028 47.032 30.432 46.012 30.432ZM57.304 34.2H54.532C54.244 37.26 52.768 39.012 49.696 39.936C49.612 39.96 49.54 39.78 49.612 39.744C52.18 38.436 53.296 36.876 53.56 34.2H52.48C52.12 34.2 51.856 34.212 51.508 34.284L51.376 33.78C51.784 33.876 52.084 33.9 52.444 33.9H57.172C57.568 33.492 57.628 33.444 57.712 33.444C57.784 33.444 57.856 33.492 58.276 33.876C58.468 34.068 58.516 34.128 58.516 34.2C58.516 34.284 58.468 34.32 58.18 34.512C58.072 36.276 57.928 37.56 57.628 38.424C57.484 38.88 57.316 39.204 57.028 39.432C56.788 39.636 56.44 39.744 56.104 39.744C55.888 39.744 55.816 39.708 55.78 39.492C55.72 39.18 55.468 38.976 54.4 38.7C54.316 38.676 54.328 38.46 54.412 38.472C55.288 38.616 55.78 38.688 56.188 38.688C56.536 38.688 56.692 38.412 56.884 37.692C57.076 36.948 57.196 35.94 57.304 34.2ZM59.884 34.524C59.812 34.524 59.62 34.428 59.392 34.284C58.78 33.864 58.264 33.396 57.868 32.94C57.172 32.172 56.68 31.284 56.116 29.772C56.092 29.688 56.032 29.616 55.96 29.556C55.888 29.508 55.852 29.46 55.852 29.412C55.852 29.328 56.188 29.208 56.308 29.208C56.368 29.208 56.416 29.244 56.416 29.304C56.416 29.34 56.368 29.436 56.368 29.496C56.368 29.556 56.392 29.628 56.428 29.724C56.848 30.744 57.484 31.572 58.132 32.136C58.9 32.832 59.764 33.24 60.652 33.492C60.724 33.516 60.7 33.648 60.628 33.66C60.328 33.696 60.196 33.852 60.064 34.284C60.016 34.464 59.968 34.524 59.884 34.524ZM49.516 34.716C49.444 34.752 49.336 34.596 49.408 34.548C50.86 33.42 51.916 32.028 52.612 30.492C52.828 30.012 52.972 29.592 53.056 29.148C54.124 29.508 54.4 29.664 54.4 29.796C54.4 29.94 54.304 30.012 53.896 30.048C52.852 32.208 51.58 33.6 49.516 34.716Z" fill="black"/>
<path d="M66 0.5V51.5L76 40.896" stroke="#0A0814" stroke-linecap="round"/>
<path d="M98.636 19.388V19.916C99.764 20.216 100.376 20.744 100.376 21.248C100.376 21.536 100.22 21.716 99.992 21.716C99.788 21.716 99.692 21.608 99.536 21.248C99.332 20.804 99.008 20.42 98.636 20.144V20.552C98.636 22.808 98.672 23.42 98.672 23.624C98.672 23.912 98.516 24.02 98.144 24.02C97.88 24.02 97.784 23.924 97.784 23.672C97.784 23.312 97.856 21.884 97.88 20.66C97.136 21.74 96.512 22.364 95.432 23.012C95.36 23.06 95.264 22.916 95.324 22.856C96.44 21.848 97.208 20.732 97.712 19.388H96.44C96.2 19.388 96.008 19.412 95.684 19.46L95.564 18.992C95.9 19.076 96.128 19.088 96.416 19.088H97.856V18.944C97.856 18.428 97.832 18.188 97.796 17.828C98.72 17.924 98.972 18.008 98.972 18.152C98.972 18.236 98.9 18.308 98.636 18.428V19.088H99.728C100.124 18.596 100.208 18.548 100.28 18.548C100.364 18.548 100.448 18.596 100.892 18.944C101.072 19.124 101.132 19.208 101.132 19.28C101.132 19.352 101.096 19.388 100.976 19.388H98.636ZM104.864 17.24V20.192C104.864 21.824 104.888 23.18 104.888 23.6C104.888 23.852 104.696 23.984 104.324 23.984C104.072 23.984 103.952 23.888 103.952 23.66C103.952 23.42 104 22.568 104 20.792V17.24H102.452C102.416 18.56 102.296 19.436 102.092 20.276C101.732 21.812 101.096 22.784 99.86 23.756C99.788 23.804 99.656 23.684 99.704 23.624C100.676 22.46 101.156 21.428 101.396 19.844C101.552 18.896 101.612 17.828 101.612 16.28C101.612 15.128 101.6 14.84 101.54 14.264C101.96 14.432 102.164 14.516 102.572 14.732C103.316 14.456 103.928 14.06 104.528 13.592C104.708 13.448 104.876 13.292 105.044 13.088C105.788 13.556 106.04 13.784 106.04 13.904C106.04 14.012 105.908 14.084 105.464 14C104.528 14.504 103.496 14.852 102.476 15.02V16.052C102.476 16.364 102.464 16.664 102.464 16.94H105.14C105.608 16.364 105.704 16.304 105.776 16.304C105.86 16.304 105.932 16.364 106.436 16.796C106.652 16.976 106.712 17.048 106.712 17.12C106.712 17.204 106.664 17.24 106.544 17.24H104.864ZM98.684 14.612H99.74C100.1 14.132 100.184 14.072 100.256 14.072C100.34 14.072 100.424 14.132 100.844 14.48C101.024 14.624 101.084 14.72 101.084 14.792C101.084 14.864 101.048 14.912 100.928 14.912H96.68C96.44 14.912 96.26 14.924 95.96 14.984L95.828 14.528C96.164 14.588 96.38 14.612 96.656 14.612H97.856V13.832C97.856 13.556 97.844 13.34 97.808 12.956C98.912 13.076 99.068 13.16 99.068 13.28C99.068 13.364 98.984 13.46 98.684 13.58V14.612ZM98.852 17.264H99.836C100.268 16.736 100.352 16.688 100.424 16.688C100.508 16.688 100.58 16.736 101.048 17.108C101.252 17.288 101.312 17.372 101.312 17.444C101.312 17.528 101.276 17.564 101.156 17.564H96.392C96.152 17.564 95.972 17.588 95.66 17.636L95.54 17.18C95.876 17.24 96.092 17.264 96.392 17.264H98.576C98.816 16.712 98.984 16.244 99.104 15.836C99.176 15.56 99.224 15.296 99.248 15.056C100.016 15.296 100.352 15.476 100.352 15.608C100.352 15.74 100.256 15.788 99.932 15.812C99.524 16.436 99.272 16.796 98.852 17.264ZM97.364 17.024C97.112 17.024 97.04 16.94 96.98 16.436C96.932 16.004 96.812 15.656 96.608 15.272C96.584 15.224 96.656 15.176 96.704 15.2C97.364 15.524 97.796 16.04 97.796 16.472C97.796 16.796 97.604 17.024 97.364 17.024ZM115.496 13.676C115.904 14.396 116.372 14.888 116.924 15.308C117.452 15.728 118.1 16.052 118.76 16.292C118.82 16.316 118.796 16.412 118.736 16.424C118.484 16.496 118.376 16.616 118.256 16.976C118.208 17.144 118.172 17.18 118.112 17.18C118.052 17.18 117.968 17.132 117.812 17.024C117.308 16.676 116.888 16.28 116.528 15.884C116.108 15.38 115.712 14.756 115.328 13.88C114.632 15.284 113.636 16.448 112.364 17.228C112.304 17.264 112.208 17.156 112.256 17.108C113.06 16.328 113.756 15.26 114.248 14.228C114.464 13.736 114.62 13.304 114.68 12.932C115.7 13.232 115.904 13.328 115.904 13.484C115.904 13.58 115.796 13.64 115.496 13.676ZM110.456 19.724V21.26H111.332C111.716 20.78 111.812 20.72 111.884 20.72C111.956 20.72 112.052 20.78 112.496 21.128C112.676 21.284 112.736 21.368 112.736 21.44C112.736 21.524 112.7 21.56 112.58 21.56H110.456C110.456 22.544 110.504 23.42 110.504 23.684C110.504 23.936 110.312 24.044 109.976 24.044C109.712 24.044 109.604 23.96 109.604 23.744C109.604 23.576 109.652 23 109.652 21.908V21.56H108.344C108.092 21.56 107.888 21.584 107.588 21.644L107.468 21.176C107.804 21.248 108.02 21.26 108.344 21.26H109.652V19.724H108.872V19.856C108.872 20.084 108.716 20.18 108.404 20.18C108.152 20.18 108.044 20.108 108.044 19.892C108.044 19.64 108.104 19.208 108.104 17.696C108.104 16.868 108.092 16.4 108.044 15.836C108.428 15.992 108.584 16.076 108.944 16.292H109.64V14.888H108.368C108.14 14.888 107.96 14.9 107.66 14.96L107.528 14.504C107.864 14.564 108.08 14.588 108.368 14.588H109.64V14.108C109.64 13.64 109.64 13.304 109.592 12.908C110.696 13.028 110.828 13.124 110.828 13.244C110.828 13.34 110.744 13.424 110.444 13.544V14.588H111.356C111.752 14.084 111.848 14.024 111.92 14.024C111.992 14.024 112.088 14.084 112.544 14.48C112.724 14.624 112.784 14.696 112.784 14.768C112.784 14.852 112.748 14.888 112.628 14.888H110.444V16.292H111.116C111.44 15.944 111.5 15.896 111.584 15.896C111.656 15.896 111.74 15.944 112.076 16.232C112.244 16.364 112.28 16.436 112.28 16.508C112.28 16.592 112.232 16.676 112.004 16.82V17.528C112.004 18.908 112.028 19.58 112.028 19.784C112.028 20.012 111.872 20.12 111.536 20.12C111.308 20.12 111.2 20.048 111.2 19.844V19.724H110.456ZM108.872 18.128V19.424H111.2V18.128H108.872ZM111.2 17.828V16.592H108.872V17.828H111.2ZM115.52 19.88V20.228C115.52 21.872 115.568 23.228 115.568 23.648C115.568 23.936 115.388 24.044 115.004 24.044C114.74 24.044 114.62 23.96 114.62 23.72C114.62 23.492 114.668 22.676 114.668 20.972V19.88H113.24C112.988 19.88 112.784 19.892 112.484 19.952L112.364 19.484C112.688 19.556 112.904 19.58 113.204 19.58H114.668V17.3H113.852C113.612 17.3 113.444 17.312 113.156 17.372L113.036 16.904C113.348 16.976 113.54 17 113.816 17H115.988C116.36 16.496 116.456 16.436 116.528 16.436C116.612 16.436 116.696 16.496 117.104 16.88C117.272 17.024 117.332 17.108 117.332 17.18C117.332 17.264 117.296 17.3 117.176 17.3H115.52V19.58H116.912C117.356 19.004 117.452 18.944 117.524 18.944C117.596 18.944 117.692 19.004 118.196 19.436C118.412 19.604 118.472 19.688 118.472 19.76C118.472 19.844 118.436 19.88 118.316 19.88H115.52ZM127.196 18.44L127.22 20.108C127.244 21.62 127.28 22.604 127.28 23C127.28 23.36 127.136 23.576 126.932 23.732C126.776 23.852 126.524 23.948 126.296 23.948C126.14 23.948 126.092 23.888 126.044 23.684C125.996 23.348 125.804 23.252 124.904 23.06C124.832 23.048 124.844 22.892 124.916 22.904C125.588 22.964 125.984 22.976 126.248 22.976C126.392 22.976 126.452 22.928 126.452 22.772V17.972H125.3V18.128C125.3 18.38 125.132 18.476 124.808 18.476C124.592 18.476 124.472 18.404 124.472 18.188C124.472 17.888 124.52 17.444 124.52 15.716C124.52 14.828 124.52 14.384 124.46 13.808C124.844 13.964 125.036 14.06 125.42 14.3H126.2C126.272 14.06 126.332 13.82 126.38 13.604C126.428 13.352 126.452 13.1 126.452 12.872C127.412 13.124 127.652 13.232 127.652 13.364C127.652 13.472 127.544 13.544 127.196 13.58C126.98 13.856 126.776 14.072 126.536 14.3H128.372C128.756 13.904 128.816 13.856 128.888 13.856C128.972 13.856 129.032 13.904 129.404 14.216C129.584 14.384 129.62 14.456 129.62 14.528C129.62 14.624 129.596 14.66 129.308 14.864V15.668C129.308 17.12 129.344 17.864 129.344 18.08C129.344 18.332 129.188 18.44 128.864 18.44C128.588 18.44 128.492 18.356 128.492 18.128V17.972H127.268C127.448 18.776 127.676 19.568 128.132 20.264C128.408 19.988 128.66 19.688 128.9 19.352C129.116 19.04 129.26 18.728 129.356 18.452C130.184 18.944 130.34 19.088 130.34 19.208C130.34 19.34 130.232 19.388 129.872 19.376C129.176 19.892 128.828 20.156 128.252 20.444C128.348 20.576 128.444 20.696 128.552 20.816C129.176 21.524 129.908 21.992 130.724 22.292C130.772 22.304 130.748 22.388 130.7 22.412C130.412 22.532 130.292 22.676 130.16 23.06C130.1 23.252 130.052 23.276 129.968 23.276C129.908 23.276 129.812 23.228 129.62 23.084C129.08 22.604 128.528 21.956 128.18 21.368C127.736 20.588 127.472 19.868 127.196 18.44ZM125.3 16.232V17.672H128.492V16.232H125.3ZM128.492 15.932V14.6H125.3V15.932H128.492ZM121.448 21.224V18.608C121.112 18.68 120.704 18.74 120.188 18.836C120.104 19.1 120.032 19.172 119.936 19.172C119.804 19.172 119.744 18.992 119.576 18.056C119.828 18.08 119.948 18.092 120.128 18.092C120.368 18.092 120.596 18.092 120.788 18.08C121.256 17.396 121.784 16.496 122.156 15.692C122.36 15.26 122.516 14.852 122.588 14.564C123.428 14.972 123.68 15.128 123.68 15.26C123.68 15.368 123.56 15.452 123.224 15.44C122.492 16.52 122.012 17.192 121.124 18.08C121.784 18.068 122.456 18.032 123.128 17.96C123.032 17.636 122.888 17.324 122.672 16.988C122.648 16.952 122.732 16.904 122.768 16.928C123.56 17.396 124.016 18.02 124.016 18.536C124.016 18.836 123.836 19.088 123.596 19.088C123.392 19.088 123.284 18.944 123.236 18.476C123.224 18.38 123.212 18.284 123.188 18.2C122.864 18.296 122.54 18.38 122.216 18.452V20.756C122.216 22.064 122.252 23.252 122.252 23.612C122.252 23.876 122.084 24.008 121.76 24.008C121.484 24.008 121.388 23.912 121.388 23.684C121.388 23.468 121.448 22.7 121.448 21.224ZM120.92 15.368C121.268 15.632 121.436 15.932 121.436 16.244C121.436 16.544 121.256 16.772 121.028 16.772C120.812 16.772 120.764 16.724 120.62 16.256C120.428 15.728 120.224 15.344 119.756 14.912C119.72 14.876 119.78 14.804 119.828 14.816C120.176 14.936 120.464 15.068 120.704 15.212C120.896 14.768 121.076 14.336 121.22 13.88C121.34 13.508 121.424 13.16 121.46 12.896C122.384 13.244 122.624 13.352 122.624 13.484C122.624 13.604 122.528 13.676 122.168 13.688C121.64 14.492 121.376 14.852 120.92 15.368ZM123.308 21.8C123.068 21.8 122.996 21.62 122.972 21.188C122.936 20.6 122.804 20.06 122.564 19.628C122.54 19.592 122.624 19.556 122.66 19.58C123.356 20.108 123.74 20.696 123.74 21.188C123.74 21.584 123.572 21.8 123.308 21.8ZM119.576 23.048C119.528 23.108 119.396 23.048 119.42 22.976C119.66 22.412 119.888 21.596 120.032 20.9C120.128 20.408 120.188 19.928 120.188 19.604C121.136 19.892 121.292 19.952 121.292 20.096C121.292 20.18 121.196 20.252 120.92 20.312C120.572 21.44 120.224 22.232 119.576 23.048ZM124.316 19.46H125.108C125.396 19.124 125.456 19.076 125.528 19.076C125.612 19.076 125.672 19.124 126.032 19.46C126.236 19.652 126.284 19.724 126.284 19.796C126.284 19.88 126.2 19.94 125.924 20.024C125.348 21.584 124.508 22.496 122.936 23.336C122.864 23.372 122.768 23.204 122.828 23.156C123.98 22.232 124.76 21.092 125.108 19.76H124.34C124.1 19.76 123.908 19.784 123.62 19.844L123.488 19.376C123.836 19.448 124.052 19.46 124.316 19.46ZM137.828 15.884L137.816 15.836C136.496 16.244 135.14 16.7 134.216 17.024C134.048 17.084 133.856 17.168 133.7 17.3C133.616 17.372 133.532 17.42 133.376 17.42C133.172 17.432 132.884 17.276 132.572 16.916C132.38 16.688 132.224 16.46 132.212 16.244C132.212 16.076 132.26 15.944 132.32 15.944C132.38 15.944 132.428 15.992 132.476 16.04C132.824 16.388 133.004 16.46 133.376 16.46C133.52 16.448 133.784 16.412 134.096 16.328C135.836 15.884 137.636 15.416 139.4 14.96C139.652 14.9 139.772 14.84 139.868 14.78C139.988 14.708 140.096 14.672 140.276 14.66C140.516 14.66 140.804 14.744 141.056 14.864C141.224 14.936 141.38 15.056 141.38 15.236C141.392 15.488 141.26 15.596 140.96 15.608C140.18 15.632 139.484 15.668 138.848 15.872C138.128 16.1 137.6 16.472 137.12 16.988C136.508 17.648 136.172 18.488 136.172 19.316C136.184 20.096 136.496 20.72 137 21.116C137.66 21.632 138.608 21.824 139.196 21.848C139.508 21.86 139.724 21.884 140.024 22.052C140.276 22.196 140.348 22.364 140.348 22.568C140.348 22.772 140.216 22.916 139.712 22.916C138.848 22.916 137.684 22.58 136.904 22.028C136.184 21.512 135.62 20.708 135.62 19.652C135.62 18.884 135.788 18.212 136.16 17.6C136.496 16.976 137.108 16.364 137.828 15.884ZM139.616 17.396C139.688 17.396 139.772 17.42 139.808 17.432C140.132 17.528 140.492 17.708 140.852 18.032C141.14 18.284 141.308 18.5 141.308 18.752C141.308 18.944 141.188 19.112 140.972 19.112C140.816 19.112 140.684 19.004 140.576 18.788C140.396 18.428 139.916 17.9 139.568 17.636C139.52 17.6 139.484 17.552 139.484 17.516C139.484 17.456 139.532 17.396 139.616 17.396ZM140.588 16.58C140.648 16.58 140.744 16.604 140.852 16.628C141.176 16.712 141.476 16.856 141.812 17.096C142.1 17.3 142.364 17.576 142.364 17.852C142.364 18.092 142.22 18.236 142.04 18.236C141.884 18.236 141.788 18.176 141.656 17.948C141.44 17.576 140.96 17.06 140.552 16.82C140.504 16.796 140.468 16.748 140.468 16.7C140.468 16.64 140.516 16.58 140.588 16.58ZM90.776 31.236L90.32 31.38C90.2 31.416 90.152 31.404 90.104 31.248C90.068 31.104 90.08 31.08 90.224 31.032C91.004 30.744 91.796 30.396 92.54 30C92.66 30 92.732 30.072 92.732 30.144C92.72 31.092 92.684 31.776 92.684 32.748V36.432C92.684 37.62 92.696 37.764 92.816 38.004C92.948 38.244 93.392 38.256 93.884 38.304C93.968 38.316 93.992 38.352 93.992 38.484C93.992 38.628 93.968 38.652 93.884 38.652C93.356 38.628 92.708 38.604 92.204 38.604C91.628 38.604 91.04 38.628 90.476 38.652C90.38 38.652 90.356 38.628 90.356 38.484C90.356 38.352 90.392 38.316 90.476 38.304C90.956 38.268 91.376 38.256 91.52 38.004C91.652 37.74 91.652 37.224 91.652 36.432V32.184C91.652 31.752 91.616 31.44 91.52 31.296C91.46 31.212 91.376 31.152 91.208 31.152C91.1 31.152 90.956 31.176 90.776 31.236ZM102.152 33.024V31.212H100.712C100.484 31.212 100.304 31.224 100.004 31.284L99.884 30.828C100.208 30.888 100.412 30.912 100.7 30.912H102.152V30.252C102.152 29.736 102.14 29.412 102.104 29.016C103.292 29.136 103.424 29.232 103.424 29.352C103.424 29.46 103.34 29.556 103.028 29.676V30.912H104.516C104.972 30.36 105.08 30.3 105.152 30.3C105.236 30.3 105.32 30.36 105.824 30.768C106.052 30.948 106.112 31.02 106.112 31.092C106.112 31.164 106.064 31.212 105.956 31.212H103.028V33.024H105.044C105.512 32.448 105.596 32.388 105.668 32.388C105.752 32.388 105.836 32.448 106.352 32.88C106.568 33.06 106.628 33.132 106.628 33.216C106.628 33.288 106.592 33.324 106.472 33.324H100.304C100.052 33.324 99.872 33.348 99.572 33.396L99.452 32.94C99.776 33.012 99.992 33.024 100.28 33.024H102.152ZM96.812 37.2V37.992C96.812 38.244 96.644 38.364 96.308 38.364C96.02 38.364 95.936 38.268 95.936 38.052C95.936 37.512 95.984 36.684 95.984 33.24C95.984 31.392 95.972 30.492 95.912 29.64C96.332 29.82 96.524 29.904 96.908 30.132H98.228C98.576 29.736 98.636 29.688 98.708 29.688C98.792 29.688 98.864 29.736 99.26 30.036C99.44 30.168 99.476 30.252 99.476 30.324C99.476 30.408 99.428 30.48 99.164 30.66V32.544C99.164 35.7 99.224 37.152 99.224 37.596C99.224 37.86 99.056 37.98 98.696 37.98C98.444 37.98 98.336 37.896 98.336 37.68V37.2H96.812ZM96.812 33.72V36.9H98.336V33.72H96.812ZM98.336 33.42V30.432H96.812V33.42H98.336ZM103.82 35.34H100.316C100.052 35.34 99.872 35.364 99.56 35.412L99.44 34.956C99.776 35.016 99.992 35.04 100.292 35.04H103.82V34.968C103.82 34.152 103.82 34.02 103.748 33.6C104.792 33.696 105.056 33.768 105.056 33.924C105.056 34.02 104.972 34.104 104.672 34.236V35.04H105.212C105.632 34.536 105.728 34.476 105.8 34.476C105.872 34.476 105.98 34.536 106.4 34.896C106.592 35.064 106.64 35.148 106.64 35.22C106.64 35.304 106.604 35.34 106.484 35.34H104.672V36.384C104.672 37.656 104.708 38.412 104.708 38.832C104.708 39.252 104.624 39.432 104.384 39.636C104.18 39.804 103.844 39.936 103.532 39.936C103.436 39.936 103.376 39.876 103.352 39.756C103.292 39.312 103.004 39.156 101.984 38.952C101.924 38.94 101.924 38.808 101.984 38.808C102.74 38.856 103.232 38.88 103.592 38.88C103.748 38.88 103.82 38.82 103.82 38.652V35.34ZM101.864 37.98C101.636 37.98 101.528 37.836 101.42 37.416C101.24 36.84 101.012 36.432 100.592 36.048C100.556 36.012 100.628 35.94 100.676 35.952C101.768 36.276 102.344 36.828 102.344 37.368C102.344 37.728 102.164 37.98 101.864 37.98ZM111.524 38.028V38.46C111.524 38.736 111.38 38.844 111.032 38.844C110.768 38.844 110.66 38.748 110.66 38.532C110.66 38.268 110.696 37.74 110.696 36.144C110.696 35.16 110.696 34.596 110.636 33.948C111.056 34.104 111.224 34.188 111.62 34.404H114.224C114.56 34.032 114.644 33.984 114.716 33.984C114.788 33.984 114.872 34.032 115.22 34.332C115.412 34.488 115.46 34.56 115.46 34.632C115.46 34.704 115.4 34.776 115.148 34.932V35.76C115.148 37.272 115.172 38.064 115.172 38.292C115.172 38.556 115.016 38.664 114.68 38.664C114.416 38.664 114.332 38.568 114.332 38.376V38.028H111.524ZM111.524 36.288V37.728H114.332V36.288H111.524ZM114.332 35.988V34.704H111.524V35.988H114.332ZM114.464 32.928V33.024C114.464 33.264 114.308 33.372 113.984 33.372C113.72 33.372 113.612 33.288 113.612 33.072C113.612 32.736 113.648 32.208 113.648 30.648C113.648 29.88 113.636 29.508 113.588 29.016C114.008 29.184 114.176 29.268 114.572 29.496H117.032C117.404 29.1 117.464 29.052 117.536 29.052C117.62 29.052 117.692 29.1 118.088 29.424C118.28 29.592 118.316 29.652 118.316 29.736C118.316 29.832 118.28 29.892 117.992 30.06V32.652C117.992 38.304 118.016 38.652 118.016 39.012C118.016 39.324 117.896 39.528 117.692 39.708C117.524 39.852 117.26 39.96 116.936 39.96C116.804 39.96 116.756 39.924 116.744 39.768C116.696 39.372 116.48 39.228 115.58 39.036C115.52 39.024 115.52 38.88 115.58 38.88C116.288 38.928 116.552 38.94 116.936 38.94C117.068 38.94 117.116 38.892 117.116 38.76V32.928H114.464ZM114.464 31.32V32.628H117.116V31.32H114.464ZM117.116 31.02V29.796H114.464V31.02H117.116ZM108.86 32.928V39.612C108.86 39.864 108.68 39.996 108.308 39.996C108.044 39.996 107.936 39.9 107.936 39.66C107.936 38.904 107.996 37.452 107.996 33.912C107.996 31.368 107.984 30.144 107.924 29.016C108.368 29.184 108.548 29.256 108.944 29.496H111.332C111.692 29.088 111.752 29.052 111.824 29.052C111.908 29.052 111.98 29.088 112.364 29.412C112.544 29.568 112.592 29.628 112.592 29.7C112.592 29.796 112.532 29.868 112.268 30.036V30.768C112.268 32.16 112.292 32.832 112.292 33.036C112.292 33.264 112.112 33.372 111.776 33.372C111.524 33.372 111.44 33.288 111.44 33.096V32.928H108.86ZM108.86 31.32V32.628H111.44V31.32H108.86ZM111.44 31.02V29.796H108.86V31.02H111.44ZM123.452 36.348V36.876C123.44 37.632 123.428 37.776 123.548 38.052C123.644 38.292 124.028 38.304 124.424 38.34C124.484 38.34 124.52 38.364 124.52 38.508C124.52 38.652 124.496 38.664 124.424 38.664C123.98 38.64 123.416 38.604 122.972 38.604C122.516 38.604 121.928 38.64 121.484 38.664C121.388 38.664 121.364 38.652 121.364 38.508C121.364 38.364 121.4 38.352 121.484 38.34C121.796 38.304 122.204 38.28 122.288 38.1C122.42 37.848 122.432 37.536 122.444 36.9V36.36H120.488C120.08 36.36 119.756 36.372 119.432 36.372C119.324 36.372 119.288 36.336 119.288 36.06C119.288 35.796 119.288 35.784 119.408 35.58C120.548 33.624 121.448 32.136 122.648 30.216L123.44 30C123.488 30 123.524 30.024 123.524 30.12C123.5 31.08 123.5 32.04 123.476 33.144L123.452 35.904C123.86 35.904 124.268 35.88 124.688 35.844C124.748 35.844 124.772 35.868 124.76 35.928L124.664 36.3C124.652 36.36 124.628 36.372 124.556 36.372C124.208 36.348 123.8 36.348 123.452 36.348ZM122.444 35.916L122.468 33.36C122.48 32.472 122.492 31.992 122.528 31.188C121.616 32.664 120.68 34.2 119.828 35.736C119.756 35.856 119.78 35.916 119.924 35.916H122.444ZM128.012 30.06C129.524 30.06 130.472 31.776 130.472 34.44C130.472 37.152 129.548 38.868 128.012 38.868C126.44 38.868 125.528 37.224 125.528 34.512C125.528 31.764 126.476 30.06 128.012 30.06ZM128.012 30.432C126.98 30.432 126.704 32.028 126.704 34.476C126.704 36.936 126.98 38.496 128.012 38.496C129.02 38.496 129.296 36.936 129.296 34.476C129.296 32.028 129.032 30.432 128.012 30.432ZM139.304 34.2H136.532C136.244 37.26 134.768 39.012 131.696 39.936C131.612 39.96 131.54 39.78 131.612 39.744C134.18 38.436 135.296 36.876 135.56 34.2H134.48C134.12 34.2 133.856 34.212 133.508 34.284L133.376 33.78C133.784 33.876 134.084 33.9 134.444 33.9H139.172C139.568 33.492 139.628 33.444 139.712 33.444C139.784 33.444 139.856 33.492 140.276 33.876C140.468 34.068 140.516 34.128 140.516 34.2C140.516 34.284 140.468 34.32 140.18 34.512C140.072 36.276 139.928 37.56 139.628 38.424C139.484 38.88 139.316 39.204 139.028 39.432C138.788 39.636 138.44 39.744 138.104 39.744C137.888 39.744 137.816 39.708 137.78 39.492C137.72 39.18 137.468 38.976 136.4 38.7C136.316 38.676 136.328 38.46 136.412 38.472C137.288 38.616 137.78 38.688 138.188 38.688C138.536 38.688 138.692 38.412 138.884 37.692C139.076 36.948 139.196 35.94 139.304 34.2ZM141.884 34.524C141.812 34.524 141.62 34.428 141.392 34.284C140.78 33.864 140.264 33.396 139.868 32.94C139.172 32.172 138.68 31.284 138.116 29.772C138.092 29.688 138.032 29.616 137.96 29.556C137.888 29.508 137.852 29.46 137.852 29.412C137.852 29.328 138.188 29.208 138.308 29.208C138.368 29.208 138.416 29.244 138.416 29.304C138.416 29.34 138.368 29.436 138.368 29.496C138.368 29.556 138.392 29.628 138.428 29.724C138.848 30.744 139.484 31.572 140.132 32.136C140.9 32.832 141.764 33.24 142.652 33.492C142.724 33.516 142.7 33.648 142.628 33.66C142.328 33.696 142.196 33.852 142.064 34.284C142.016 34.464 141.968 34.524 141.884 34.524ZM131.516 34.716C131.444 34.752 131.336 34.596 131.408 34.548C132.86 33.42 133.916 32.028 134.612 30.492C134.828 30.012 134.972 29.592 135.056 29.148C136.124 29.508 136.4 29.664 136.4 29.796C136.4 29.94 136.304 30.012 135.896 30.048C134.852 32.208 133.58 33.6 131.516 34.716Z" fill="black"/>
<path d="M148 0.5V51.5L158 40.896" stroke="#0A0814" stroke-linecap="round"/>
</svg>
