<svg width="386" height="31" viewBox="0 0 386 31" fill="none" xmlns="http://www.w3.org/2000/svg">
<rect x="0.5" y="0.5" width="157" height="30" rx="15" stroke="#0A0814"/>
<path d="M55.34 18.578V17.556C54.304 18.088 53.142 18.55 51.84 18.956C51.742 18.984 51.672 18.788 51.756 18.746C55.578 17.108 58.518 14.588 60.254 11.466H56.698C56.306 11.998 55.886 12.488 55.396 12.936C56.544 13.314 57.244 13.986 57.244 14.658C57.244 15.008 56.992 15.316 56.712 15.316C56.488 15.316 56.306 15.204 56.194 14.812C55.97 14.084 55.704 13.566 55.2 13.132C54.374 13.86 53.408 14.49 52.218 15.064C52.134 15.106 52.022 14.924 52.106 14.868C53.688 13.818 55.032 12.334 55.928 10.85C56.264 10.29 56.53 9.73 56.712 9.184C57.776 9.45 58.112 9.604 58.112 9.786C58.112 9.94 57.986 10.01 57.566 10.122C57.37 10.472 57.16 10.808 56.95 11.116H60.198C60.674 10.584 60.744 10.528 60.842 10.528C60.926 10.528 61.024 10.584 61.556 11.074C61.794 11.298 61.85 11.396 61.85 11.48C61.85 11.634 61.766 11.69 61.29 11.83C59.988 14.028 58.462 15.652 56.474 16.898H61.5C61.948 16.408 62.018 16.338 62.102 16.338C62.2 16.338 62.27 16.408 62.76 16.8C62.97 16.996 63.012 17.08 63.012 17.164C63.012 17.262 62.956 17.346 62.634 17.542V18.578C62.634 20.454 62.69 21.364 62.69 21.644C62.69 21.952 62.48 22.106 62.032 22.106C61.696 22.106 61.598 21.994 61.598 21.7V21.252H56.348V21.672C56.348 21.98 56.152 22.134 55.718 22.134C55.382 22.134 55.256 22.008 55.256 21.714C55.256 21.336 55.34 20.72 55.34 18.578ZM61.598 20.902V17.248H56.348V20.902H61.598ZM68.808 21.098V21.686C68.808 21.994 68.584 22.148 68.15 22.148C67.842 22.148 67.688 22.022 67.688 21.756C67.688 21.252 67.744 20.468 67.744 17.78C67.744 16.66 67.73 16.184 67.674 15.596C68.234 15.834 68.458 15.946 68.934 16.226H71.328V13.02H66.918C66.512 13.02 66.218 13.048 65.798 13.104L65.658 12.572C66.148 12.656 66.456 12.67 66.876 12.67H71.328V11.326C71.328 10.374 71.314 9.786 71.258 9.24C72.728 9.394 72.91 9.506 72.91 9.66C72.91 9.772 72.812 9.898 72.406 10.052V12.67H76.186C76.886 11.844 76.998 11.774 77.082 11.774C77.166 11.774 77.278 11.844 77.992 12.432C78.328 12.712 78.398 12.796 78.398 12.88C78.398 12.978 78.356 13.02 78.216 13.02H72.406V16.226H74.996C75.444 15.722 75.528 15.666 75.612 15.666C75.696 15.666 75.78 15.722 76.312 16.142C76.536 16.338 76.592 16.436 76.592 16.52C76.592 16.646 76.536 16.716 76.158 16.926V18.312C76.158 20.412 76.214 21.322 76.214 21.63C76.214 21.952 75.976 22.12 75.542 22.12C75.22 22.12 75.108 21.994 75.108 21.714V21.098H68.808ZM75.108 20.748V16.576H68.808V20.748H75.108ZM82.024 14.126H90.228C90.746 13.454 90.844 13.398 90.928 13.398C91.026 13.398 91.138 13.454 91.74 13.944C92.02 14.168 92.09 14.252 92.09 14.336C92.09 14.434 92.048 14.476 91.908 14.476H86.238C85.86 15.19 85.384 15.848 84.852 16.45C86.308 16.436 87.764 16.394 89.22 16.226C88.828 15.75 88.366 15.372 87.848 15.064C87.792 15.022 87.862 14.896 87.932 14.91C89.724 15.344 90.9 16.1 90.9 17.01C90.9 17.332 90.662 17.57 90.41 17.57C90.172 17.57 90.032 17.458 89.724 16.954C89.64 16.8 89.542 16.646 89.444 16.506C87.778 16.898 86.378 17.094 83.368 17.416C83.256 17.752 83.172 17.85 83.06 17.85C82.892 17.85 82.836 17.682 82.556 16.408C82.948 16.45 83.116 16.464 83.564 16.464H84.362C84.628 15.806 84.866 15.162 85.006 14.476H82.01C81.94 15.792 81.8 16.828 81.59 17.738C81.212 19.278 80.652 20.44 79.602 21.77C79.546 21.84 79.364 21.756 79.406 21.672C80.064 20.342 80.47 19.124 80.708 17.64C80.932 16.226 81.016 14.49 81.016 11.816C81.016 10.528 80.988 10.094 80.932 9.408C81.478 9.632 81.758 9.772 82.234 10.052H90.074C90.522 9.548 90.592 9.506 90.676 9.506C90.774 9.506 90.844 9.548 91.306 9.954C91.53 10.136 91.572 10.206 91.572 10.304C91.572 10.416 91.516 10.514 91.18 10.71V11.256C91.18 12.04 91.222 12.376 91.222 12.698C91.222 12.978 90.998 13.118 90.606 13.118C90.27 13.118 90.186 13.02 90.186 12.684V12.586H82.08C82.066 13.104 82.052 13.608 82.024 14.126ZM90.186 12.236V10.402H82.08V12.236H90.186ZM87.008 21.238H90.228C90.83 20.482 90.928 20.426 91.012 20.426C91.11 20.426 91.208 20.482 91.88 21.042C92.188 21.28 92.258 21.364 92.258 21.448C92.258 21.546 92.216 21.588 92.076 21.588H82.276C81.954 21.588 81.716 21.616 81.324 21.672L81.184 21.14C81.646 21.224 81.954 21.238 82.346 21.238H86.028V19.334H83.55C83.214 19.334 82.934 19.348 82.542 19.418L82.402 18.886C82.892 18.956 83.214 18.984 83.634 18.984H86.028V18.606C86.028 18.004 86 17.71 85.944 17.332C87.316 17.472 87.47 17.584 87.47 17.724C87.47 17.85 87.386 17.948 87.008 18.102V18.984H89.514C90.074 18.34 90.172 18.27 90.256 18.27C90.354 18.27 90.466 18.34 91.054 18.802C91.334 19.012 91.404 19.096 91.404 19.18C91.404 19.292 91.362 19.334 91.222 19.334H87.008V21.238ZM104.592 14.812H102.94C103.192 16.562 103.612 17.696 104.27 18.648C104.928 19.614 105.684 20.23 106.636 20.776C106.678 20.804 106.65 20.902 106.594 20.916C106.23 21 106.062 21.182 105.88 21.672C105.824 21.812 105.768 21.84 105.67 21.84C105.614 21.84 105.516 21.77 105.362 21.63C104.62 20.958 104.102 20.16 103.626 19.236C103.178 18.27 102.8 16.912 102.618 14.812H101.288C101.232 16.618 101.092 17.57 100.84 18.494C100.434 19.992 99.748 21.182 98.698 22.12C98.642 22.162 98.516 22.064 98.558 22.008C99.272 20.986 99.664 19.936 99.944 18.718C100.224 17.458 100.322 15.89 100.322 13.272C100.322 11.158 100.308 10.5 100.238 9.66C100.742 9.884 100.966 9.996 101.442 10.276H104.494C104.914 9.828 104.984 9.786 105.068 9.786C105.166 9.786 105.236 9.828 105.698 10.22C105.894 10.402 105.95 10.472 105.95 10.556C105.95 10.668 105.88 10.766 105.586 10.962V12.362C105.586 14.182 105.642 14.91 105.642 15.176C105.642 15.512 105.446 15.638 105.012 15.638C104.718 15.638 104.592 15.54 104.592 15.274V14.812ZM104.592 14.462V10.626H101.33V12.082C101.33 13.006 101.316 13.79 101.302 14.462H104.592ZM95.212 16.73V16.856C95.212 17.108 95.03 17.248 94.666 17.248C94.372 17.248 94.26 17.15 94.26 16.912C94.26 16.576 94.33 15.68 94.33 12.516C94.33 11.004 94.316 10.612 94.246 9.674C94.708 9.856 94.89 9.954 95.31 10.206H98.11C98.586 9.618 98.656 9.576 98.74 9.576C98.852 9.576 98.922 9.618 99.454 10.094C99.636 10.262 99.706 10.346 99.706 10.43C99.706 10.514 99.636 10.556 99.496 10.556H97.396V12.25H98.026C98.376 11.732 98.488 11.676 98.558 11.676C98.656 11.676 98.74 11.732 99.174 12.138C99.314 12.278 99.384 12.39 99.384 12.46C99.384 12.544 99.342 12.6 99.202 12.6H97.396V14.266H97.984C98.376 13.776 98.474 13.706 98.558 13.706C98.642 13.706 98.726 13.776 99.16 14.168C99.3 14.294 99.37 14.406 99.37 14.476C99.37 14.574 99.328 14.616 99.188 14.616H97.396V16.38H98.194C98.544 15.946 98.628 15.89 98.712 15.89C98.796 15.89 98.88 15.946 99.3 16.324C99.496 16.506 99.552 16.59 99.552 16.674C99.552 16.758 99.496 16.828 99.174 17.024C99.062 18.844 98.894 19.978 98.6 20.762C98.46 21.126 98.278 21.42 98.04 21.616C97.76 21.84 97.438 21.952 97.13 21.952C96.962 21.952 96.892 21.896 96.85 21.686C96.78 21.294 96.682 21.21 95.716 20.888C95.646 20.86 95.66 20.706 95.73 20.72C96.514 20.818 96.878 20.846 97.2 20.846C97.536 20.846 97.676 20.692 97.858 20.034C98.096 19.166 98.194 18.27 98.292 16.73H95.212ZM95.212 16.38H96.514V14.616H95.212V16.38ZM95.212 14.266H96.514V12.6H95.212V14.266ZM95.212 12.25H96.514V10.556H95.212V12.25ZM97.536 18.844C97.382 18.844 97.326 18.76 97.242 18.522C97.116 18.116 96.892 17.766 96.57 17.472C96.528 17.43 96.584 17.36 96.64 17.374C97.354 17.556 97.83 17.962 97.83 18.382C97.83 18.648 97.704 18.844 97.536 18.844ZM93.728 20.65C93.49 20.65 93.322 20.426 93.322 20.146C93.322 19.964 93.378 19.824 93.56 19.656C93.98 19.264 94.232 18.746 94.274 17.962C94.274 17.906 94.414 17.906 94.428 17.962C94.484 18.298 94.512 18.606 94.512 18.9C94.512 19.922 94.204 20.65 93.728 20.65ZM95.366 20.062C95.198 20.062 95.058 20.006 95.086 19.628C95.1 19.418 95.114 19.166 95.114 18.914C95.1 18.634 95.058 18.298 94.96 17.962C94.946 17.906 95.03 17.864 95.072 17.906C95.562 18.438 95.8 18.97 95.8 19.446C95.8 19.768 95.604 20.062 95.366 20.062ZM96.514 19.572C96.346 19.572 96.304 19.488 96.262 19.138C96.192 18.606 96.066 18.256 95.786 17.738C95.758 17.682 95.842 17.626 95.884 17.654C96.542 18.13 96.92 18.606 96.92 18.998C96.92 19.32 96.724 19.572 96.514 19.572Z" fill="#0A0814"/>
<rect x="168.5" y="0.5" width="103" height="30" rx="15" stroke="#0A0814"/>
<path d="M182.34 18.578V17.556C181.304 18.088 180.142 18.55 178.84 18.956C178.742 18.984 178.672 18.788 178.756 18.746C182.578 17.108 185.518 14.588 187.254 11.466H183.698C183.306 11.998 182.886 12.488 182.396 12.936C183.544 13.314 184.244 13.986 184.244 14.658C184.244 15.008 183.992 15.316 183.712 15.316C183.488 15.316 183.306 15.204 183.194 14.812C182.97 14.084 182.704 13.566 182.2 13.132C181.374 13.86 180.408 14.49 179.218 15.064C179.134 15.106 179.022 14.924 179.106 14.868C180.688 13.818 182.032 12.334 182.928 10.85C183.264 10.29 183.53 9.73 183.712 9.184C184.776 9.45 185.112 9.604 185.112 9.786C185.112 9.94 184.986 10.01 184.566 10.122C184.37 10.472 184.16 10.808 183.95 11.116H187.198C187.674 10.584 187.744 10.528 187.842 10.528C187.926 10.528 188.024 10.584 188.556 11.074C188.794 11.298 188.85 11.396 188.85 11.48C188.85 11.634 188.766 11.69 188.29 11.83C186.988 14.028 185.462 15.652 183.474 16.898H188.5C188.948 16.408 189.018 16.338 189.102 16.338C189.2 16.338 189.27 16.408 189.76 16.8C189.97 16.996 190.012 17.08 190.012 17.164C190.012 17.262 189.956 17.346 189.634 17.542V18.578C189.634 20.454 189.69 21.364 189.69 21.644C189.69 21.952 189.48 22.106 189.032 22.106C188.696 22.106 188.598 21.994 188.598 21.7V21.252H183.348V21.672C183.348 21.98 183.152 22.134 182.718 22.134C182.382 22.134 182.256 22.008 182.256 21.714C182.256 21.336 182.34 20.72 182.34 18.578ZM188.598 20.902V17.248H183.348V20.902H188.598ZM196.018 10.206L195.962 10.318C197.348 10.808 198.118 11.41 198.118 12.04C198.118 12.334 197.936 12.558 197.698 12.558C197.46 12.558 197.334 12.432 197.124 11.984C196.802 11.326 196.438 10.92 195.85 10.514C195.262 11.522 194.576 12.46 193.708 13.23C194.016 13.286 194.212 13.314 194.478 13.314H196.228C196.634 12.81 196.732 12.74 196.816 12.74C196.914 12.74 197.012 12.81 197.502 13.174C197.698 13.342 197.754 13.426 197.754 13.51C197.754 13.608 197.712 13.664 197.572 13.664H195.878V15.456H196.634C197.054 14.924 197.152 14.854 197.236 14.854C197.334 14.854 197.432 14.924 197.908 15.316C198.104 15.47 198.174 15.582 198.174 15.666C198.174 15.722 198.16 15.764 198.132 15.778C198.426 15.834 198.636 15.848 198.944 15.848H200.75C200.876 14.966 200.932 14.07 200.96 13.174H199.364C199 13.874 198.566 14.49 198.02 15.022C197.964 15.078 197.824 14.994 197.866 14.924C198.342 14.154 198.776 12.894 199 11.844C199.084 11.382 199.14 10.934 199.154 10.528C200.288 10.822 200.47 10.934 200.47 11.074C200.47 11.2 200.386 11.256 200.036 11.34C199.896 11.872 199.728 12.362 199.518 12.824H200.96C200.974 12.46 200.974 12.082 200.974 11.676C200.974 10.402 200.974 10.122 200.904 9.45C202.262 9.604 202.402 9.674 202.402 9.856C202.402 9.982 202.346 10.066 201.982 10.22C201.982 10.654 201.982 11.158 201.968 11.844C201.968 12.18 201.954 12.516 201.954 12.824H203.102C203.648 12.124 203.746 12.068 203.83 12.068C203.928 12.068 204.012 12.124 204.614 12.642C204.866 12.866 204.936 12.964 204.936 13.048C204.936 13.132 204.88 13.174 204.754 13.174H201.94C201.912 14.07 201.87 14.966 201.744 15.848H203.536C204.096 15.148 204.208 15.092 204.292 15.092C204.39 15.092 204.502 15.148 205.09 15.666C205.356 15.89 205.426 15.988 205.426 16.072C205.426 16.156 205.37 16.198 205.23 16.198H201.884C202.178 17.346 202.668 18.354 203.34 19.124C203.97 19.866 204.782 20.426 205.692 20.832C205.748 20.86 205.72 20.944 205.664 20.972C205.314 21.154 205.16 21.336 205.076 21.742C205.034 21.938 205.006 21.994 204.908 21.994C204.838 21.994 204.712 21.896 204.558 21.784C203.606 21.07 202.92 20.104 202.472 19.138C202.122 18.396 201.842 17.528 201.632 16.506C201.45 17.444 201.156 18.242 200.694 18.984C199.812 20.426 198.51 21.462 196.564 22.106C196.48 22.134 196.41 21.966 196.48 21.924C198.16 20.986 199.14 20.076 199.882 18.648C200.26 17.934 200.512 17.178 200.694 16.198H198.958C198.65 16.198 198.454 16.226 198.118 16.282L197.992 15.806H195.878V20.104C196.634 19.936 197.376 19.74 198.062 19.502C198.132 19.474 198.174 19.642 198.118 19.67C196.914 20.356 195.178 21.056 193.624 21.49C193.568 21.854 193.484 21.98 193.358 21.98C193.218 21.98 193.12 21.882 192.686 20.58C193.05 20.566 193.428 20.524 193.792 20.482C194.184 20.426 194.576 20.37 194.968 20.3V15.806H193.736C193.47 15.806 193.274 15.82 192.91 15.89L192.77 15.358C193.162 15.428 193.386 15.456 193.708 15.456H194.968V13.664H194.52C194.268 13.664 194.086 13.678 193.764 13.748L193.638 13.3C193.302 13.58 192.952 13.832 192.588 14.042C192.504 14.098 192.378 13.944 192.448 13.874C193.414 13.006 194.198 11.788 194.716 10.71C194.926 10.234 195.094 9.772 195.178 9.38C196.2 9.646 196.536 9.8 196.536 9.954C196.536 10.08 196.424 10.15 196.018 10.206ZM193.862 19.474C193.596 19.474 193.498 19.306 193.47 18.858C193.4 17.948 193.33 17.542 193.022 16.898C192.994 16.828 193.12 16.772 193.176 16.814C193.96 17.514 194.352 18.214 194.352 18.816C194.352 19.18 194.142 19.474 193.862 19.474ZM196.438 19.418C196.396 19.474 196.242 19.418 196.27 19.348C196.508 18.76 196.732 18.046 196.844 17.472C196.914 17.15 196.942 16.87 196.956 16.576C197.908 16.926 198.174 17.066 198.174 17.206C198.174 17.346 198.062 17.402 197.74 17.458C197.334 18.228 196.956 18.83 196.438 19.418ZM210.34 18.578V17.556C209.304 18.088 208.142 18.55 206.84 18.956C206.742 18.984 206.672 18.788 206.756 18.746C210.578 17.108 213.518 14.588 215.254 11.466H211.698C211.306 11.998 210.886 12.488 210.396 12.936C211.544 13.314 212.244 13.986 212.244 14.658C212.244 15.008 211.992 15.316 211.712 15.316C211.488 15.316 211.306 15.204 211.194 14.812C210.97 14.084 210.704 13.566 210.2 13.132C209.374 13.86 208.408 14.49 207.218 15.064C207.134 15.106 207.022 14.924 207.106 14.868C208.688 13.818 210.032 12.334 210.928 10.85C211.264 10.29 211.53 9.73 211.712 9.184C212.776 9.45 213.112 9.604 213.112 9.786C213.112 9.94 212.986 10.01 212.566 10.122C212.37 10.472 212.16 10.808 211.95 11.116H215.198C215.674 10.584 215.744 10.528 215.842 10.528C215.926 10.528 216.024 10.584 216.556 11.074C216.794 11.298 216.85 11.396 216.85 11.48C216.85 11.634 216.766 11.69 216.29 11.83C214.988 14.028 213.462 15.652 211.474 16.898H216.5C216.948 16.408 217.018 16.338 217.102 16.338C217.2 16.338 217.27 16.408 217.76 16.8C217.97 16.996 218.012 17.08 218.012 17.164C218.012 17.262 217.956 17.346 217.634 17.542V18.578C217.634 20.454 217.69 21.364 217.69 21.644C217.69 21.952 217.48 22.106 217.032 22.106C216.696 22.106 216.598 21.994 216.598 21.7V21.252H211.348V21.672C211.348 21.98 211.152 22.134 210.718 22.134C210.382 22.134 210.256 22.008 210.256 21.714C210.256 21.336 210.34 20.72 210.34 18.578ZM216.598 20.902V17.248H211.348V20.902H216.598ZM223.808 21.098V21.686C223.808 21.994 223.584 22.148 223.15 22.148C222.842 22.148 222.688 22.022 222.688 21.756C222.688 21.252 222.744 20.468 222.744 17.78C222.744 16.66 222.73 16.184 222.674 15.596C223.234 15.834 223.458 15.946 223.934 16.226H226.328V13.02H221.918C221.512 13.02 221.218 13.048 220.798 13.104L220.658 12.572C221.148 12.656 221.456 12.67 221.876 12.67H226.328V11.326C226.328 10.374 226.314 9.786 226.258 9.24C227.728 9.394 227.91 9.506 227.91 9.66C227.91 9.772 227.812 9.898 227.406 10.052V12.67H231.186C231.886 11.844 231.998 11.774 232.082 11.774C232.166 11.774 232.278 11.844 232.992 12.432C233.328 12.712 233.398 12.796 233.398 12.88C233.398 12.978 233.356 13.02 233.216 13.02H227.406V16.226H229.996C230.444 15.722 230.528 15.666 230.612 15.666C230.696 15.666 230.78 15.722 231.312 16.142C231.536 16.338 231.592 16.436 231.592 16.52C231.592 16.646 231.536 16.716 231.158 16.926V18.312C231.158 20.412 231.214 21.322 231.214 21.63C231.214 21.952 230.976 22.12 230.542 22.12C230.22 22.12 230.108 21.994 230.108 21.714V21.098H223.808ZM230.108 20.748V16.576H223.808V20.748H230.108ZM237.024 14.126H245.228C245.746 13.454 245.844 13.398 245.928 13.398C246.026 13.398 246.138 13.454 246.74 13.944C247.02 14.168 247.09 14.252 247.09 14.336C247.09 14.434 247.048 14.476 246.908 14.476H241.238C240.86 15.19 240.384 15.848 239.852 16.45C241.308 16.436 242.764 16.394 244.22 16.226C243.828 15.75 243.366 15.372 242.848 15.064C242.792 15.022 242.862 14.896 242.932 14.91C244.724 15.344 245.9 16.1 245.9 17.01C245.9 17.332 245.662 17.57 245.41 17.57C245.172 17.57 245.032 17.458 244.724 16.954C244.64 16.8 244.542 16.646 244.444 16.506C242.778 16.898 241.378 17.094 238.368 17.416C238.256 17.752 238.172 17.85 238.06 17.85C237.892 17.85 237.836 17.682 237.556 16.408C237.948 16.45 238.116 16.464 238.564 16.464H239.362C239.628 15.806 239.866 15.162 240.006 14.476H237.01C236.94 15.792 236.8 16.828 236.59 17.738C236.212 19.278 235.652 20.44 234.602 21.77C234.546 21.84 234.364 21.756 234.406 21.672C235.064 20.342 235.47 19.124 235.708 17.64C235.932 16.226 236.016 14.49 236.016 11.816C236.016 10.528 235.988 10.094 235.932 9.408C236.478 9.632 236.758 9.772 237.234 10.052H245.074C245.522 9.548 245.592 9.506 245.676 9.506C245.774 9.506 245.844 9.548 246.306 9.954C246.53 10.136 246.572 10.206 246.572 10.304C246.572 10.416 246.516 10.514 246.18 10.71V11.256C246.18 12.04 246.222 12.376 246.222 12.698C246.222 12.978 245.998 13.118 245.606 13.118C245.27 13.118 245.186 13.02 245.186 12.684V12.586H237.08C237.066 13.104 237.052 13.608 237.024 14.126ZM245.186 12.236V10.402H237.08V12.236H245.186ZM242.008 21.238H245.228C245.83 20.482 245.928 20.426 246.012 20.426C246.11 20.426 246.208 20.482 246.88 21.042C247.188 21.28 247.258 21.364 247.258 21.448C247.258 21.546 247.216 21.588 247.076 21.588H237.276C236.954 21.588 236.716 21.616 236.324 21.672L236.184 21.14C236.646 21.224 236.954 21.238 237.346 21.238H241.028V19.334H238.55C238.214 19.334 237.934 19.348 237.542 19.418L237.402 18.886C237.892 18.956 238.214 18.984 238.634 18.984H241.028V18.606C241.028 18.004 241 17.71 240.944 17.332C242.316 17.472 242.47 17.584 242.47 17.724C242.47 17.85 242.386 17.948 242.008 18.102V18.984H244.514C245.074 18.34 245.172 18.27 245.256 18.27C245.354 18.27 245.466 18.34 246.054 18.802C246.334 19.012 246.404 19.096 246.404 19.18C246.404 19.292 246.362 19.334 246.222 19.334H242.008V21.238ZM259.592 14.812H257.94C258.192 16.562 258.612 17.696 259.27 18.648C259.928 19.614 260.684 20.23 261.636 20.776C261.678 20.804 261.65 20.902 261.594 20.916C261.23 21 261.062 21.182 260.88 21.672C260.824 21.812 260.768 21.84 260.67 21.84C260.614 21.84 260.516 21.77 260.362 21.63C259.62 20.958 259.102 20.16 258.626 19.236C258.178 18.27 257.8 16.912 257.618 14.812H256.288C256.232 16.618 256.092 17.57 255.84 18.494C255.434 19.992 254.748 21.182 253.698 22.12C253.642 22.162 253.516 22.064 253.558 22.008C254.272 20.986 254.664 19.936 254.944 18.718C255.224 17.458 255.322 15.89 255.322 13.272C255.322 11.158 255.308 10.5 255.238 9.66C255.742 9.884 255.966 9.996 256.442 10.276H259.494C259.914 9.828 259.984 9.786 260.068 9.786C260.166 9.786 260.236 9.828 260.698 10.22C260.894 10.402 260.95 10.472 260.95 10.556C260.95 10.668 260.88 10.766 260.586 10.962V12.362C260.586 14.182 260.642 14.91 260.642 15.176C260.642 15.512 260.446 15.638 260.012 15.638C259.718 15.638 259.592 15.54 259.592 15.274V14.812ZM259.592 14.462V10.626H256.33V12.082C256.33 13.006 256.316 13.79 256.302 14.462H259.592ZM250.212 16.73V16.856C250.212 17.108 250.03 17.248 249.666 17.248C249.372 17.248 249.26 17.15 249.26 16.912C249.26 16.576 249.33 15.68 249.33 12.516C249.33 11.004 249.316 10.612 249.246 9.674C249.708 9.856 249.89 9.954 250.31 10.206H253.11C253.586 9.618 253.656 9.576 253.74 9.576C253.852 9.576 253.922 9.618 254.454 10.094C254.636 10.262 254.706 10.346 254.706 10.43C254.706 10.514 254.636 10.556 254.496 10.556H252.396V12.25H253.026C253.376 11.732 253.488 11.676 253.558 11.676C253.656 11.676 253.74 11.732 254.174 12.138C254.314 12.278 254.384 12.39 254.384 12.46C254.384 12.544 254.342 12.6 254.202 12.6H252.396V14.266H252.984C253.376 13.776 253.474 13.706 253.558 13.706C253.642 13.706 253.726 13.776 254.16 14.168C254.3 14.294 254.37 14.406 254.37 14.476C254.37 14.574 254.328 14.616 254.188 14.616H252.396V16.38H253.194C253.544 15.946 253.628 15.89 253.712 15.89C253.796 15.89 253.88 15.946 254.3 16.324C254.496 16.506 254.552 16.59 254.552 16.674C254.552 16.758 254.496 16.828 254.174 17.024C254.062 18.844 253.894 19.978 253.6 20.762C253.46 21.126 253.278 21.42 253.04 21.616C252.76 21.84 252.438 21.952 252.13 21.952C251.962 21.952 251.892 21.896 251.85 21.686C251.78 21.294 251.682 21.21 250.716 20.888C250.646 20.86 250.66 20.706 250.73 20.72C251.514 20.818 251.878 20.846 252.2 20.846C252.536 20.846 252.676 20.692 252.858 20.034C253.096 19.166 253.194 18.27 253.292 16.73H250.212ZM250.212 16.38H251.514V14.616H250.212V16.38ZM250.212 14.266H251.514V12.6H250.212V14.266ZM250.212 12.25H251.514V10.556H250.212V12.25ZM252.536 18.844C252.382 18.844 252.326 18.76 252.242 18.522C252.116 18.116 251.892 17.766 251.57 17.472C251.528 17.43 251.584 17.36 251.64 17.374C252.354 17.556 252.83 17.962 252.83 18.382C252.83 18.648 252.704 18.844 252.536 18.844ZM248.728 20.65C248.49 20.65 248.322 20.426 248.322 20.146C248.322 19.964 248.378 19.824 248.56 19.656C248.98 19.264 249.232 18.746 249.274 17.962C249.274 17.906 249.414 17.906 249.428 17.962C249.484 18.298 249.512 18.606 249.512 18.9C249.512 19.922 249.204 20.65 248.728 20.65ZM250.366 20.062C250.198 20.062 250.058 20.006 250.086 19.628C250.1 19.418 250.114 19.166 250.114 18.914C250.1 18.634 250.058 18.298 249.96 17.962C249.946 17.906 250.03 17.864 250.072 17.906C250.562 18.438 250.8 18.97 250.8 19.446C250.8 19.768 250.604 20.062 250.366 20.062ZM251.514 19.572C251.346 19.572 251.304 19.488 251.262 19.138C251.192 18.606 251.066 18.256 250.786 17.738C250.758 17.682 250.842 17.626 250.884 17.654C251.542 18.13 251.92 18.606 251.92 18.998C251.92 19.32 251.724 19.572 251.514 19.572Z" fill="#0A0814"/>
</svg>
