<svg width="386" height="53" viewBox="0 0 386 53" fill="none" xmlns="http://www.w3.org/2000/svg">
<path d="M31.9342 21.764V22.448C31.9342 22.988 32.0782 23.036 33.8542 23.036C35.5102 23.036 35.8822 23 36.1342 22.808C36.3502 22.616 36.4582 22.268 36.7582 21.308C36.7702 21.248 36.9142 21.284 36.9022 21.344C36.8542 21.752 36.8182 22.28 36.8182 22.4C36.8182 22.568 36.8542 22.604 36.9622 22.664C37.1302 22.76 37.1902 22.868 37.1902 23.036C37.1902 23.3 36.9982 23.492 36.6142 23.612C36.1942 23.732 35.4142 23.792 33.6022 23.792C31.5382 23.792 31.0942 23.588 31.0942 22.592C31.0942 22.388 31.0942 22.172 31.1062 21.764H28.5982V22.076C28.5982 22.352 28.4422 22.46 28.0702 22.46C27.8182 22.46 27.7102 22.364 27.7102 22.172C27.7102 21.908 27.7582 21.44 27.7582 19.892C27.7582 19.064 27.7462 18.608 27.6862 18.044C28.1302 18.212 28.2982 18.284 28.7062 18.5H34.5142C34.8742 18.104 34.9342 18.056 35.0062 18.056C35.0902 18.056 35.1622 18.104 35.5822 18.44C35.7742 18.584 35.8102 18.656 35.8102 18.728C35.8102 18.836 35.7502 18.908 35.4862 19.088V19.748C35.4862 21.008 35.5222 21.608 35.5222 21.788C35.5222 22.064 35.3302 22.184 34.9942 22.184C34.7302 22.184 34.6222 22.1 34.6222 21.872V21.764H31.9342ZM31.1062 21.464V20.252H28.5982V21.464H31.1062ZM31.9342 21.464H34.6222V20.252H31.9342V21.464ZM31.9342 18.8V19.952H34.6222V18.8H31.9342ZM31.1062 18.8H28.5982V19.952H31.1062V18.8ZM31.1662 14.996H27.6622C27.6502 15.872 27.3622 16.556 26.7502 16.556C26.4982 16.556 26.3062 16.352 26.3062 16.1C26.3062 15.884 26.3662 15.788 26.6902 15.608C27.1702 15.32 27.3742 14.96 27.4582 14.252C27.4702 14.18 27.6022 14.168 27.6142 14.24C27.6382 14.396 27.6502 14.552 27.6622 14.696H31.1662V13.772H28.6342C28.3462 13.772 28.1542 13.784 27.8182 13.844L27.6982 13.4C28.0702 13.448 28.3102 13.472 28.6222 13.472H34.3582C34.8742 12.896 34.9582 12.836 35.0302 12.836C35.1142 12.836 35.1982 12.896 35.7502 13.316C35.9902 13.508 36.0502 13.58 36.0502 13.652C36.0502 13.736 36.0022 13.772 35.8942 13.772H31.9822V14.696H35.7502C36.0982 14.312 36.1582 14.264 36.2422 14.264C36.3262 14.264 36.3862 14.312 36.8902 14.756C37.1062 14.948 37.1542 15.032 37.1542 15.104C37.1542 15.272 37.0342 15.332 36.6502 15.332C36.5302 15.332 36.4942 15.344 36.3502 15.512C36.1342 15.74 35.9062 15.932 35.5822 16.16C35.5462 16.184 35.4862 16.136 35.4982 16.088C35.6422 15.716 35.7622 15.356 35.8462 14.996H31.9822V15.536C31.9822 16.532 32.0182 17.444 32.0182 17.708C32.0182 17.96 31.8382 18.092 31.4902 18.092C31.2022 18.092 31.1062 17.996 31.1062 17.72C31.1062 17.576 31.1662 17.06 31.1662 16.076V14.996ZM32.5822 16.316L32.4742 15.896C32.7262 15.944 32.8822 15.956 33.1222 15.956H34.0222C34.3702 15.536 34.4662 15.476 34.5262 15.476C34.5982 15.476 34.6942 15.536 35.0902 15.86C35.2462 15.992 35.2942 16.076 35.2942 16.148C35.2942 16.22 35.2582 16.256 35.1502 16.256H33.1462C32.9902 16.256 32.8462 16.268 32.5822 16.316ZM32.6062 17.552L32.4982 17.12C32.7742 17.18 32.9422 17.192 33.1822 17.192H34.5142C34.9102 16.724 34.9942 16.664 35.0662 16.664C35.1502 16.664 35.2342 16.724 35.6902 17.084C35.8702 17.228 35.9182 17.3 35.9182 17.372C35.9182 17.456 35.8822 17.492 35.7742 17.492H33.2302C33.0382 17.492 32.8822 17.516 32.6062 17.552ZM27.9622 16.316L27.8542 15.896C28.1062 15.944 28.2862 15.956 28.5142 15.956H29.3782C29.7022 15.536 29.7982 15.476 29.8582 15.476C29.9302 15.476 30.0262 15.536 30.4342 15.884C30.5782 16.004 30.6382 16.076 30.6382 16.148C30.6382 16.22 30.6022 16.256 30.4822 16.256H28.5382C28.3822 16.256 28.2382 16.268 27.9622 16.316ZM27.5422 17.552L27.4342 17.12C27.6982 17.18 27.8662 17.192 28.1062 17.192H29.3182C29.6782 16.748 29.7622 16.688 29.8342 16.688C29.9182 16.688 30.0022 16.748 30.4102 17.096C30.5902 17.228 30.6382 17.3 30.6382 17.372C30.6382 17.456 30.6022 17.492 30.4822 17.492H28.1422C27.9622 17.492 27.8182 17.516 27.5422 17.552ZM43.1062 16.088V14.828H39.5062C39.1822 14.828 38.9542 14.852 38.6062 14.9L38.4742 14.444C38.8822 14.516 39.1462 14.528 39.5062 14.528H43.1062C43.0942 13.568 43.0822 13.268 43.0342 12.92C44.2102 13.052 44.3302 13.1 44.3302 13.268C44.3302 13.376 44.2582 13.448 43.9342 13.58V14.528H47.2222C47.7382 13.928 47.8222 13.868 47.8942 13.868C47.9782 13.868 48.0862 13.904 48.6262 14.348C48.8902 14.552 48.9262 14.648 48.9262 14.72C48.9262 14.792 48.8902 14.828 48.7702 14.828H43.9342V16.088H46.4422C46.7902 15.68 46.8622 15.632 46.9342 15.632C47.0062 15.632 47.0782 15.68 47.4862 16.016C47.6782 16.172 47.7142 16.244 47.7142 16.316C47.7142 16.424 47.6662 16.484 47.3662 16.7V17.54C47.3662 19.148 47.4262 19.904 47.4262 20.132C47.4262 20.396 47.2702 20.516 46.8862 20.516C46.6462 20.516 46.5382 20.432 46.5382 20.192V19.988H43.9462C43.9462 20.444 43.9582 20.912 43.9582 21.368H47.4142C47.8942 20.768 48.0142 20.696 48.0862 20.696C48.1702 20.696 48.2662 20.744 48.8542 21.188C49.1182 21.392 49.1662 21.488 49.1662 21.56C49.1662 21.632 49.1302 21.668 49.0102 21.668H43.9702C43.9822 22.76 43.9942 23.372 43.9942 23.66C43.9942 23.936 43.8022 24.056 43.4182 24.056C43.1422 24.056 43.0342 23.96 43.0342 23.708C43.0342 23.444 43.0582 22.856 43.0702 21.668H39.3502C39.0382 21.668 38.7982 21.692 38.4382 21.74L38.3182 21.284C38.7262 21.356 39.0022 21.368 39.3502 21.368H43.0702C43.0822 21.02 43.0942 20.468 43.0942 19.988H40.6702V20.24C40.6702 20.528 40.5142 20.636 40.1542 20.636C39.8782 20.636 39.7822 20.54 39.7822 20.336C39.7822 19.94 39.8302 19.364 39.8302 17.3C39.8302 16.472 39.8182 16.076 39.7702 15.596C40.2022 15.764 40.3822 15.86 40.7902 16.088H43.1062ZM40.6702 19.688H43.0942C43.0942 19.328 43.0942 18.98 43.1062 18.152H40.6702V19.688ZM43.9462 19.688H46.5382V18.152H43.9342C43.9342 18.38 43.9342 18.896 43.9462 19.688ZM43.9342 16.388V17.852H46.5382V16.388H43.9342ZM43.1062 16.388H40.6702V17.852H43.1062V16.388ZM53.8942 12.656C53.9182 12.644 53.9662 12.632 54.0022 12.632C54.0382 12.632 54.0622 12.656 54.0622 12.692C54.0622 12.728 54.0502 12.764 54.0262 12.788C52.4062 14.432 51.6502 16.292 51.6502 18.428C51.6502 20.564 52.4062 22.424 54.0262 24.068C54.0502 24.092 54.0742 24.128 54.0742 24.164C54.0742 24.2 54.0502 24.236 54.0142 24.236C53.9782 24.236 53.9302 24.224 53.8942 24.2C52.8862 23.432 52.1302 22.556 51.5902 21.56C51.0502 20.552 50.8102 19.508 50.8102 18.428C50.8102 17.348 51.0502 16.304 51.5902 15.296C52.1302 14.3 52.8862 13.424 53.8942 12.656ZM64.2231 16.256L62.5911 16.856C62.6031 19.556 62.6391 20.816 62.6391 21.248C62.6391 21.548 62.4711 21.668 62.0871 21.668C61.8351 21.668 61.7271 21.572 61.7271 21.332C61.7391 20.636 61.7631 19.736 61.7751 17.156L60.3111 17.684V22.244C60.3111 22.796 60.5151 22.844 62.1111 22.844C64.0191 22.844 64.4631 22.772 64.6671 22.592C64.8831 22.424 65.0751 22.016 65.3391 21.008C65.3631 20.936 65.4951 20.96 65.4951 21.032C65.4711 21.404 65.4471 21.896 65.4471 22.196C65.4471 22.412 65.4831 22.46 65.6511 22.532C65.8311 22.604 65.8911 22.7 65.8911 22.88C65.8911 23.12 65.7351 23.3 65.3511 23.432C64.8351 23.588 64.1271 23.648 62.3511 23.648C59.8071 23.648 59.4591 23.408 59.4591 22.328C59.4591 20.96 59.4831 19.856 59.4831 17.984L58.8711 18.212C58.5951 18.32 58.3671 18.416 58.1391 18.548L57.8751 18.164C58.2831 18.092 58.4871 18.032 58.7631 17.936L59.4831 17.672V17.36C59.4831 15.524 59.4711 14.876 59.4111 14.348C60.4671 14.456 60.6951 14.54 60.6951 14.696C60.6951 14.804 60.6351 14.876 60.3111 15.02V17.372L61.7751 16.832V15.896C61.7751 14.096 61.7751 13.592 61.7151 13.052C62.8311 13.184 62.9751 13.244 62.9751 13.4C62.9751 13.484 62.9151 13.556 62.5911 13.7V16.532L64.1151 15.98C64.3791 15.536 64.4391 15.476 64.5231 15.476C64.5951 15.476 64.7031 15.524 65.1231 15.836C65.2791 15.932 65.3391 16.004 65.3391 16.112C65.3391 16.208 65.2791 16.268 65.0391 16.436C65.0151 18.068 64.9431 19.22 64.7871 19.88C64.6911 20.276 64.5711 20.54 64.3911 20.696C64.2111 20.852 63.9591 20.936 63.7071 20.936C63.5391 20.936 63.5031 20.888 63.4791 20.696C63.4311 20.336 63.3351 20.24 62.6991 20.012C62.6271 19.988 62.6631 19.844 62.7351 19.856C63.1671 19.916 63.4791 19.928 63.6951 19.928C63.8991 19.928 63.9831 19.808 64.0431 19.448C64.1631 18.776 64.1991 17.672 64.2231 16.256ZM57.2631 16.904V20.696C57.7791 20.516 58.3071 20.312 58.7991 20.096C58.8591 20.072 58.9191 20.204 58.8591 20.252C57.8751 20.984 56.8311 21.572 55.7151 22.04C55.6791 22.412 55.6191 22.52 55.4871 22.52C55.3431 22.52 55.2111 22.328 54.8511 21.308C55.0911 21.272 55.3431 21.236 55.6431 21.164C55.8951 21.104 56.1591 21.032 56.4351 20.948V16.904H55.6191C55.3911 16.904 55.2351 16.928 54.9591 16.976L54.8391 16.508C55.1391 16.58 55.3191 16.604 55.5951 16.604H56.4351V15.368C56.4351 14.264 56.4351 13.712 56.3871 13.208C57.5391 13.328 57.6831 13.424 57.6831 13.556C57.6831 13.664 57.6111 13.736 57.2631 13.892V16.604H57.7191C58.0671 16.1 58.1511 16.04 58.2231 16.04C58.3071 16.04 58.3911 16.1 58.7991 16.46C58.9791 16.64 59.0271 16.724 59.0271 16.796C59.0271 16.868 58.9911 16.904 58.8711 16.904H57.2631ZM72.4431 14.18V16.112C74.5551 16.64 75.7671 17.492 75.7671 18.296C75.7671 18.62 75.5751 18.872 75.2871 18.872C75.0471 18.872 74.9391 18.788 74.5551 18.2C74.0391 17.432 73.4031 16.88 72.4431 16.352V19.676C72.4431 22.076 72.5031 22.868 72.5031 23.444C72.5031 23.732 72.2991 23.852 71.9031 23.852C71.6031 23.852 71.4831 23.756 71.4831 23.528C71.4831 23.264 71.5311 22.004 71.5311 19.724V14.18H68.1831C67.7991 14.18 67.5231 14.192 67.1391 14.252L67.0191 13.808C67.4871 13.856 67.7991 13.88 68.1951 13.88H75.7431C76.4031 13.124 76.4871 13.076 76.5591 13.076C76.6431 13.076 76.7271 13.124 77.3751 13.664C77.6751 13.916 77.7351 13.988 77.7351 14.06C77.7351 14.144 77.6871 14.18 77.5671 14.18H72.4431ZM81.8151 13.748L81.7671 13.844C82.9551 14.264 83.6151 14.78 83.6151 15.32C83.6151 15.572 83.4591 15.764 83.2551 15.764C83.0511 15.764 82.9431 15.656 82.7631 15.272C82.4871 14.708 82.1751 14.36 81.6711 14.012C81.1671 14.876 80.5791 15.68 79.8351 16.34C80.0991 16.388 80.2671 16.412 80.4951 16.412H81.9951C82.3431 15.98 82.4271 15.92 82.4991 15.92C82.5831 15.92 82.6671 15.98 83.0871 16.292C83.2551 16.436 83.3031 16.508 83.3031 16.58C83.3031 16.664 83.2671 16.712 83.1471 16.712H81.6951V18.248H82.3431C82.7031 17.792 82.7871 17.732 82.8591 17.732C82.9431 17.732 83.0271 17.792 83.4351 18.128C83.6031 18.26 83.6631 18.356 83.6631 18.428C83.6631 18.476 83.6511 18.512 83.6271 18.524C83.8791 18.572 84.0591 18.584 84.3231 18.584H85.8711C85.9791 17.828 86.0271 17.06 86.0511 16.292H84.6831C84.3711 16.892 83.9991 17.42 83.5311 17.876C83.4831 17.924 83.3631 17.852 83.3991 17.792C83.8071 17.132 84.1791 16.052 84.3711 15.152C84.4431 14.756 84.4911 14.372 84.5031 14.024C85.4751 14.276 85.6311 14.372 85.6311 14.492C85.6311 14.6 85.5591 14.648 85.2591 14.72C85.1391 15.176 84.9951 15.596 84.8151 15.992H86.0511C86.0631 15.68 86.0631 15.356 86.0631 15.008C86.0631 13.916 86.0631 13.676 86.0031 13.1C87.1671 13.232 87.2871 13.292 87.2871 13.448C87.2871 13.556 87.2391 13.628 86.9271 13.76C86.9271 14.132 86.9271 14.564 86.9151 15.152C86.9151 15.44 86.9031 15.728 86.9031 15.992H87.8871C88.3551 15.392 88.4391 15.344 88.5111 15.344C88.5951 15.344 88.6671 15.392 89.1831 15.836C89.3991 16.028 89.4591 16.112 89.4591 16.184C89.4591 16.256 89.4111 16.292 89.3031 16.292H86.8911C86.8671 17.06 86.8311 17.828 86.7231 18.584H88.2591C88.7391 17.984 88.8351 17.936 88.9071 17.936C88.9911 17.936 89.0871 17.984 89.5911 18.428C89.8191 18.62 89.8791 18.704 89.8791 18.776C89.8791 18.848 89.8311 18.884 89.7111 18.884H86.8431C87.0951 19.868 87.5151 20.732 88.0911 21.392C88.6311 22.028 89.3271 22.508 90.1071 22.856C90.1551 22.88 90.1311 22.952 90.0831 22.976C89.7831 23.132 89.6511 23.288 89.5791 23.636C89.5431 23.804 89.5191 23.852 89.4351 23.852C89.3751 23.852 89.2671 23.768 89.1351 23.672C88.3191 23.06 87.7311 22.232 87.3471 21.404C87.0471 20.768 86.8071 20.024 86.6271 19.148C86.4711 19.952 86.2191 20.636 85.8231 21.272C85.0671 22.508 83.9511 23.396 82.2831 23.948C82.2111 23.972 82.1511 23.828 82.2111 23.792C83.6511 22.988 84.4911 22.208 85.1271 20.984C85.4511 20.372 85.6671 19.724 85.8231 18.884H84.3351C84.0711 18.884 83.9031 18.908 83.6151 18.956L83.5071 18.548H81.6951V22.232C82.3431 22.088 82.9791 21.92 83.5671 21.716C83.6271 21.692 83.6631 21.836 83.6151 21.86C82.5831 22.448 81.0951 23.048 79.7631 23.42C79.7151 23.732 79.6431 23.84 79.5351 23.84C79.4151 23.84 79.3311 23.756 78.9591 22.64C79.2711 22.628 79.5951 22.592 79.9071 22.556C80.2431 22.508 80.5791 22.46 80.9151 22.4V18.548H79.8591C79.6311 18.548 79.4631 18.56 79.1511 18.62L79.0311 18.164C79.3671 18.224 79.5591 18.248 79.8351 18.248H80.9151V16.712H80.5311C80.3151 16.712 80.1591 16.724 79.8831 16.784L79.7751 16.4C79.4871 16.64 79.1871 16.856 78.8751 17.036C78.8031 17.084 78.6951 16.952 78.7551 16.892C79.5831 16.148 80.2551 15.104 80.6991 14.18C80.8791 13.772 81.0231 13.376 81.0951 13.04C81.9711 13.268 82.2591 13.4 82.2591 13.532C82.2591 13.64 82.1631 13.7 81.8151 13.748ZM79.9671 21.692C79.7391 21.692 79.6551 21.548 79.6311 21.164C79.5711 20.384 79.5111 20.036 79.2471 19.484C79.2231 19.424 79.3311 19.376 79.3791 19.412C80.0511 20.012 80.3871 20.612 80.3871 21.128C80.3871 21.44 80.2071 21.692 79.9671 21.692ZM82.1751 21.644C82.1391 21.692 82.0071 21.644 82.0311 21.584C82.2351 21.08 82.4271 20.468 82.5231 19.976C82.5831 19.7 82.6071 19.46 82.6191 19.208C83.4351 19.508 83.6631 19.628 83.6631 19.748C83.6631 19.868 83.5671 19.916 83.2911 19.964C82.9431 20.624 82.6191 21.14 82.1751 21.644ZM94.0911 20.924V20.048C93.2031 20.504 92.2071 20.9 91.0911 21.248C91.0071 21.272 90.9471 21.104 91.0191 21.068C94.2951 19.664 96.8151 17.504 98.3031 14.828H95.2551C94.9191 15.284 94.5591 15.704 94.1391 16.088C95.1231 16.412 95.7231 16.988 95.7231 17.564C95.7231 17.864 95.5071 18.128 95.2671 18.128C95.0751 18.128 94.9191 18.032 94.8231 17.696C94.6311 17.072 94.4031 16.628 93.9711 16.256C93.2631 16.88 92.4351 17.42 91.4151 17.912C91.3431 17.948 91.2471 17.792 91.3191 17.744C92.6751 16.844 93.8271 15.572 94.5951 14.3C94.8831 13.82 95.1111 13.34 95.2671 12.872C96.1791 13.1 96.4671 13.232 96.4671 13.388C96.4671 13.52 96.3591 13.58 95.9991 13.676C95.8311 13.976 95.6511 14.264 95.4711 14.528H98.2551C98.6631 14.072 98.7231 14.024 98.8071 14.024C98.8791 14.024 98.9631 14.072 99.4191 14.492C99.6231 14.684 99.6711 14.768 99.6711 14.84C99.6711 14.972 99.5991 15.02 99.1911 15.14C98.0751 17.024 96.7671 18.416 95.0631 19.484H99.3711C99.7551 19.064 99.8151 19.004 99.8871 19.004C99.9711 19.004 100.031 19.064 100.451 19.4C100.631 19.568 100.667 19.64 100.667 19.712C100.667 19.796 100.619 19.868 100.343 20.036V20.924C100.343 22.532 100.391 23.312 100.391 23.552C100.391 23.816 100.211 23.948 99.8271 23.948C99.5391 23.948 99.4551 23.852 99.4551 23.6V23.216H94.9551V23.576C94.9551 23.84 94.7871 23.972 94.4151 23.972C94.1271 23.972 94.0191 23.864 94.0191 23.612C94.0191 23.288 94.0911 22.76 94.0911 20.924ZM99.4551 22.916V19.784H94.9551V22.916H99.4551ZM110.063 15.764H107.651V16.64C107.651 17.048 107.639 17.42 107.627 17.78H108.671C108.971 17.432 109.043 17.384 109.115 17.384C109.187 17.384 109.259 17.432 109.607 17.72C109.787 17.888 109.823 17.96 109.823 18.032C109.823 18.092 109.787 18.152 109.547 18.308C109.499 19.556 109.439 20.54 109.259 21.152C109.175 21.5 109.067 21.704 108.911 21.848C108.767 21.98 108.551 22.04 108.347 22.04C108.191 22.04 108.143 21.992 108.131 21.872C108.095 21.548 107.939 21.344 107.411 21.188C107.351 21.176 107.351 21.02 107.411 21.032C107.915 21.104 108.071 21.116 108.215 21.116C108.407 21.116 108.479 21.032 108.563 20.636C108.671 20.144 108.719 19.328 108.743 18.08H107.615C107.543 19.34 107.375 20.324 107.063 21.152C106.643 22.256 106.055 23.096 104.999 23.852C104.927 23.9 104.795 23.792 104.855 23.732C105.611 22.844 106.091 22.052 106.403 20.96C106.679 19.988 106.799 18.764 106.799 17.048C106.799 16.064 106.787 15.692 106.715 14.948C107.159 15.128 107.339 15.224 107.747 15.464H110.051C110.039 15.14 110.027 14.804 110.027 14.456C110.015 13.832 110.015 13.472 109.967 13.064C111.131 13.208 111.263 13.28 111.263 13.4C111.263 13.508 111.179 13.568 110.867 13.724C110.867 14.372 110.879 14.948 110.891 15.464H112.463C112.907 14.9 112.967 14.864 113.051 14.864C113.147 14.864 113.207 14.9 113.675 15.296C113.879 15.5 113.927 15.572 113.927 15.644C113.927 15.728 113.879 15.764 113.747 15.764H110.903C110.963 17.492 111.107 18.632 111.443 19.712C111.647 19.304 111.815 18.884 111.959 18.464C112.115 17.984 112.235 17.456 112.295 16.928C113.111 17.216 113.435 17.384 113.435 17.516C113.435 17.636 113.315 17.708 113.039 17.744C112.703 18.812 112.283 19.748 111.755 20.564C111.995 21.08 112.295 21.584 112.655 22.016C112.931 22.352 113.027 22.436 113.147 22.436C113.255 22.436 113.447 22.052 113.771 21.188C113.795 21.128 113.915 21.164 113.903 21.224C113.795 22.052 113.723 22.592 113.723 22.712C113.723 22.832 113.759 22.892 113.867 23.084C113.951 23.192 113.975 23.276 113.975 23.372C113.975 23.6 113.819 23.78 113.543 23.78C113.219 23.78 112.679 23.42 112.235 22.916C111.839 22.448 111.491 21.932 111.203 21.344C110.363 22.376 109.319 23.192 107.987 23.84C107.915 23.876 107.807 23.72 107.879 23.672C109.127 22.808 110.147 21.776 110.903 20.648C110.783 20.348 110.687 20.024 110.591 19.688C110.303 18.632 110.123 17.408 110.063 15.764ZM105.059 16.7V20.024C105.479 19.88 105.899 19.712 106.331 19.52C106.391 19.496 106.463 19.628 106.403 19.676C105.587 20.336 104.711 20.876 103.607 21.38C103.559 21.728 103.499 21.848 103.355 21.848C103.223 21.848 103.187 21.788 102.791 20.636C103.043 20.612 103.235 20.564 103.511 20.504C103.739 20.444 103.979 20.372 104.219 20.3V16.7H103.679C103.463 16.7 103.295 16.712 103.007 16.76L102.887 16.304C103.199 16.376 103.403 16.4 103.655 16.4H104.219V15.212C104.219 14.12 104.207 13.724 104.159 13.184C105.323 13.292 105.467 13.4 105.467 13.52C105.467 13.616 105.407 13.676 105.059 13.832V16.4H105.311C105.647 15.884 105.731 15.824 105.803 15.824C105.899 15.824 105.971 15.884 106.355 16.256C106.511 16.4 106.571 16.496 106.571 16.568C106.571 16.664 106.535 16.7 106.415 16.7H105.059ZM112.475 14.876C112.319 14.876 112.247 14.804 112.151 14.54C111.995 14.12 111.839 13.892 111.467 13.508C111.431 13.472 111.491 13.4 111.539 13.412C112.319 13.568 112.883 13.964 112.883 14.408C112.883 14.66 112.679 14.876 112.475 14.876ZM122.567 18.44L122.591 20.108C122.615 21.62 122.651 22.604 122.651 23C122.651 23.36 122.507 23.576 122.303 23.732C122.147 23.852 121.895 23.948 121.667 23.948C121.511 23.948 121.463 23.888 121.415 23.684C121.367 23.348 121.175 23.252 120.275 23.06C120.203 23.048 120.215 22.892 120.287 22.904C120.959 22.964 121.355 22.976 121.619 22.976C121.763 22.976 121.823 22.928 121.823 22.772V17.972H120.671V18.128C120.671 18.38 120.503 18.476 120.179 18.476C119.963 18.476 119.843 18.404 119.843 18.188C119.843 17.888 119.891 17.444 119.891 15.716C119.891 14.828 119.891 14.384 119.831 13.808C120.215 13.964 120.407 14.06 120.791 14.3H121.571C121.643 14.06 121.703 13.82 121.751 13.604C121.799 13.352 121.823 13.1 121.823 12.872C122.783 13.124 123.023 13.232 123.023 13.364C123.023 13.472 122.915 13.544 122.567 13.58C122.351 13.856 122.147 14.072 121.907 14.3H123.743C124.127 13.904 124.187 13.856 124.259 13.856C124.343 13.856 124.403 13.904 124.775 14.216C124.955 14.384 124.991 14.456 124.991 14.528C124.991 14.624 124.967 14.66 124.679 14.864V15.668C124.679 17.12 124.715 17.864 124.715 18.08C124.715 18.332 124.559 18.44 124.235 18.44C123.959 18.44 123.863 18.356 123.863 18.128V17.972H122.639C122.819 18.776 123.047 19.568 123.503 20.264C123.779 19.988 124.031 19.688 124.271 19.352C124.487 19.04 124.631 18.728 124.727 18.452C125.555 18.944 125.711 19.088 125.711 19.208C125.711 19.34 125.603 19.388 125.243 19.376C124.547 19.892 124.199 20.156 123.623 20.444C123.719 20.576 123.815 20.696 123.923 20.816C124.547 21.524 125.279 21.992 126.095 22.292C126.143 22.304 126.119 22.388 126.071 22.412C125.783 22.532 125.663 22.676 125.531 23.06C125.471 23.252 125.423 23.276 125.339 23.276C125.279 23.276 125.183 23.228 124.991 23.084C124.451 22.604 123.899 21.956 123.551 21.368C123.107 20.588 122.843 19.868 122.567 18.44ZM120.671 16.232V17.672H123.863V16.232H120.671ZM123.863 15.932V14.6H120.671V15.932H123.863ZM116.819 21.224V18.608C116.483 18.68 116.075 18.74 115.559 18.836C115.475 19.1 115.403 19.172 115.307 19.172C115.175 19.172 115.115 18.992 114.947 18.056C115.199 18.08 115.319 18.092 115.499 18.092C115.739 18.092 115.967 18.092 116.159 18.08C116.627 17.396 117.155 16.496 117.527 15.692C117.731 15.26 117.887 14.852 117.959 14.564C118.799 14.972 119.051 15.128 119.051 15.26C119.051 15.368 118.931 15.452 118.595 15.44C117.863 16.52 117.383 17.192 116.495 18.08C117.155 18.068 117.827 18.032 118.499 17.96C118.403 17.636 118.259 17.324 118.043 16.988C118.019 16.952 118.103 16.904 118.139 16.928C118.931 17.396 119.387 18.02 119.387 18.536C119.387 18.836 119.207 19.088 118.967 19.088C118.763 19.088 118.655 18.944 118.607 18.476C118.595 18.38 118.583 18.284 118.559 18.2C118.235 18.296 117.911 18.38 117.587 18.452V20.756C117.587 22.064 117.623 23.252 117.623 23.612C117.623 23.876 117.455 24.008 117.131 24.008C116.855 24.008 116.759 23.912 116.759 23.684C116.759 23.468 116.819 22.7 116.819 21.224ZM116.291 15.368C116.639 15.632 116.807 15.932 116.807 16.244C116.807 16.544 116.627 16.772 116.399 16.772C116.183 16.772 116.135 16.724 115.991 16.256C115.799 15.728 115.595 15.344 115.127 14.912C115.091 14.876 115.151 14.804 115.199 14.816C115.547 14.936 115.835 15.068 116.075 15.212C116.267 14.768 116.447 14.336 116.591 13.88C116.711 13.508 116.795 13.16 116.831 12.896C117.755 13.244 117.995 13.352 117.995 13.484C117.995 13.604 117.899 13.676 117.539 13.688C117.011 14.492 116.747 14.852 116.291 15.368ZM118.679 21.8C118.439 21.8 118.367 21.62 118.343 21.188C118.307 20.6 118.175 20.06 117.935 19.628C117.911 19.592 117.995 19.556 118.031 19.58C118.727 20.108 119.111 20.696 119.111 21.188C119.111 21.584 118.943 21.8 118.679 21.8ZM114.947 23.048C114.899 23.108 114.767 23.048 114.791 22.976C115.031 22.412 115.259 21.596 115.403 20.9C115.499 20.408 115.559 19.928 115.559 19.604C116.507 19.892 116.663 19.952 116.663 20.096C116.663 20.18 116.567 20.252 116.291 20.312C115.943 21.44 115.595 22.232 114.947 23.048ZM119.687 19.46H120.479C120.767 19.124 120.827 19.076 120.899 19.076C120.983 19.076 121.043 19.124 121.403 19.46C121.607 19.652 121.655 19.724 121.655 19.796C121.655 19.88 121.571 19.94 121.295 20.024C120.719 21.584 119.879 22.496 118.307 23.336C118.235 23.372 118.139 23.204 118.199 23.156C119.351 22.232 120.131 21.092 120.479 19.76H119.711C119.471 19.76 119.279 19.784 118.991 19.844L118.859 19.376C119.207 19.448 119.423 19.46 119.687 19.46ZM126.851 12.656C127.859 13.424 128.615 14.3 129.155 15.296C129.695 16.304 129.935 17.348 129.935 18.428C129.935 19.508 129.695 20.552 129.155 21.56C128.615 22.556 127.859 23.432 126.851 24.2C126.815 24.224 126.767 24.236 126.731 24.236C126.695 24.236 126.671 24.2 126.671 24.164C126.671 24.128 126.695 24.092 126.719 24.068C128.339 22.424 129.095 20.564 129.095 18.428C129.095 16.292 128.339 14.432 126.719 12.788C126.695 12.764 126.683 12.728 126.683 12.692C126.683 12.656 126.707 12.632 126.743 12.632C126.779 12.632 126.827 12.644 126.851 12.656ZM137.828 15.884L137.816 15.836C136.496 16.244 135.14 16.7 134.216 17.024C134.048 17.084 133.856 17.168 133.7 17.3C133.616 17.372 133.532 17.42 133.376 17.42C133.172 17.432 132.884 17.276 132.572 16.916C132.38 16.688 132.224 16.46 132.212 16.244C132.212 16.076 132.26 15.944 132.32 15.944C132.38 15.944 132.428 15.992 132.476 16.04C132.824 16.388 133.004 16.46 133.376 16.46C133.52 16.448 133.784 16.412 134.096 16.328C135.836 15.884 137.636 15.416 139.4 14.96C139.652 14.9 139.772 14.84 139.868 14.78C139.988 14.708 140.096 14.672 140.276 14.66C140.516 14.66 140.804 14.744 141.056 14.864C141.224 14.936 141.38 15.056 141.38 15.236C141.392 15.488 141.26 15.596 140.96 15.608C140.18 15.632 139.484 15.668 138.848 15.872C138.128 16.1 137.6 16.472 137.12 16.988C136.508 17.648 136.172 18.488 136.172 19.316C136.184 20.096 136.496 20.72 137 21.116C137.66 21.632 138.608 21.824 139.196 21.848C139.508 21.86 139.724 21.884 140.024 22.052C140.276 22.196 140.348 22.364 140.348 22.568C140.348 22.772 140.216 22.916 139.712 22.916C138.848 22.916 137.684 22.58 136.904 22.028C136.184 21.512 135.62 20.708 135.62 19.652C135.62 18.884 135.788 18.212 136.16 17.6C136.496 16.976 137.108 16.364 137.828 15.884ZM139.616 17.396C139.688 17.396 139.772 17.42 139.808 17.432C140.132 17.528 140.492 17.708 140.852 18.032C141.14 18.284 141.308 18.5 141.308 18.752C141.308 18.944 141.188 19.112 140.972 19.112C140.816 19.112 140.684 19.004 140.576 18.788C140.396 18.428 139.916 17.9 139.568 17.636C139.52 17.6 139.484 17.552 139.484 17.516C139.484 17.456 139.532 17.396 139.616 17.396ZM140.588 16.58C140.648 16.58 140.744 16.604 140.852 16.628C141.176 16.712 141.476 16.856 141.812 17.096C142.1 17.3 142.364 17.576 142.364 17.852C142.364 18.092 142.22 18.236 142.04 18.236C141.884 18.236 141.788 18.176 141.656 17.948C141.44 17.576 140.96 17.06 140.552 16.82C140.504 16.796 140.468 16.748 140.468 16.7C140.468 16.64 140.516 16.58 140.588 16.58ZM126.68 34.452L126.752 34.464C127.112 33.804 127.784 33.504 128.312 33.504C129.728 33.504 130.532 34.584 130.532 36.096C130.532 37.668 129.536 38.868 128.096 38.868C126.668 38.868 125.528 37.596 125.528 35.556C125.528 33.528 126.452 32.136 127.82 31.092C128.36 30.66 129.248 30.168 129.716 30.012C129.812 30.012 129.872 30.012 130.04 30.228C130.1 30.312 130.124 30.396 130.124 30.456C130.124 30.528 130.088 30.576 130.016 30.576C129.344 30.612 128.768 30.852 128.324 31.164C127.496 31.788 126.896 32.904 126.68 34.452ZM128.06 33.96C127.544 33.96 127.112 34.332 126.812 34.932C126.704 35.16 126.656 35.316 126.656 35.676C126.656 37.572 127.268 38.496 128.096 38.496C128.9 38.496 129.368 37.452 129.368 36.132C129.368 34.92 128.96 33.96 128.06 33.96ZM139.304 34.2H136.532C136.244 37.26 134.768 39.012 131.696 39.936C131.612 39.96 131.54 39.78 131.612 39.744C134.18 38.436 135.296 36.876 135.56 34.2H134.48C134.12 34.2 133.856 34.212 133.508 34.284L133.376 33.78C133.784 33.876 134.084 33.9 134.444 33.9H139.172C139.568 33.492 139.628 33.444 139.712 33.444C139.784 33.444 139.856 33.492 140.276 33.876C140.468 34.068 140.516 34.128 140.516 34.2C140.516 34.284 140.468 34.32 140.18 34.512C140.072 36.276 139.928 37.56 139.628 38.424C139.484 38.88 139.316 39.204 139.028 39.432C138.788 39.636 138.44 39.744 138.104 39.744C137.888 39.744 137.816 39.708 137.78 39.492C137.72 39.18 137.468 38.976 136.4 38.7C136.316 38.676 136.328 38.46 136.412 38.472C137.288 38.616 137.78 38.688 138.188 38.688C138.536 38.688 138.692 38.412 138.884 37.692C139.076 36.948 139.196 35.94 139.304 34.2ZM141.884 34.524C141.812 34.524 141.62 34.428 141.392 34.284C140.78 33.864 140.264 33.396 139.868 32.94C139.172 32.172 138.68 31.284 138.116 29.772C138.092 29.688 138.032 29.616 137.96 29.556C137.888 29.508 137.852 29.46 137.852 29.412C137.852 29.328 138.188 29.208 138.308 29.208C138.368 29.208 138.416 29.244 138.416 29.304C138.416 29.34 138.368 29.436 138.368 29.496C138.368 29.556 138.392 29.628 138.428 29.724C138.848 30.744 139.484 31.572 140.132 32.136C140.9 32.832 141.764 33.24 142.652 33.492C142.724 33.516 142.7 33.648 142.628 33.66C142.328 33.696 142.196 33.852 142.064 34.284C142.016 34.464 141.968 34.524 141.884 34.524ZM131.516 34.716C131.444 34.752 131.336 34.596 131.408 34.548C132.86 33.42 133.916 32.028 134.612 30.492C134.828 30.012 134.972 29.592 135.056 29.148C136.124 29.508 136.4 29.664 136.4 29.796C136.4 29.94 136.304 30.012 135.896 30.048C134.852 32.208 133.58 33.6 131.516 34.716Z" fill="black"/>
<path d="M148 0.5V51.5L158 40.896" stroke="#0A0814" stroke-linecap="round"/>
<path d="M193.934 21.764V22.448C193.934 22.988 194.078 23.036 195.854 23.036C197.51 23.036 197.882 23 198.134 22.808C198.35 22.616 198.458 22.268 198.758 21.308C198.77 21.248 198.914 21.284 198.902 21.344C198.854 21.752 198.818 22.28 198.818 22.4C198.818 22.568 198.854 22.604 198.962 22.664C199.13 22.76 199.19 22.868 199.19 23.036C199.19 23.3 198.998 23.492 198.614 23.612C198.194 23.732 197.414 23.792 195.602 23.792C193.538 23.792 193.094 23.588 193.094 22.592C193.094 22.388 193.094 22.172 193.106 21.764H190.598V22.076C190.598 22.352 190.442 22.46 190.07 22.46C189.818 22.46 189.71 22.364 189.71 22.172C189.71 21.908 189.758 21.44 189.758 19.892C189.758 19.064 189.746 18.608 189.686 18.044C190.13 18.212 190.298 18.284 190.706 18.5H196.514C196.874 18.104 196.934 18.056 197.006 18.056C197.09 18.056 197.162 18.104 197.582 18.44C197.774 18.584 197.81 18.656 197.81 18.728C197.81 18.836 197.75 18.908 197.486 19.088V19.748C197.486 21.008 197.522 21.608 197.522 21.788C197.522 22.064 197.33 22.184 196.994 22.184C196.73 22.184 196.622 22.1 196.622 21.872V21.764H193.934ZM193.106 21.464V20.252H190.598V21.464H193.106ZM193.934 21.464H196.622V20.252H193.934V21.464ZM193.934 18.8V19.952H196.622V18.8H193.934ZM193.106 18.8H190.598V19.952H193.106V18.8ZM193.166 14.996H189.662C189.65 15.872 189.362 16.556 188.75 16.556C188.498 16.556 188.306 16.352 188.306 16.1C188.306 15.884 188.366 15.788 188.69 15.608C189.17 15.32 189.374 14.96 189.458 14.252C189.47 14.18 189.602 14.168 189.614 14.24C189.638 14.396 189.65 14.552 189.662 14.696H193.166V13.772H190.634C190.346 13.772 190.154 13.784 189.818 13.844L189.698 13.4C190.07 13.448 190.31 13.472 190.622 13.472H196.358C196.874 12.896 196.958 12.836 197.03 12.836C197.114 12.836 197.198 12.896 197.75 13.316C197.99 13.508 198.05 13.58 198.05 13.652C198.05 13.736 198.002 13.772 197.894 13.772H193.982V14.696H197.75C198.098 14.312 198.158 14.264 198.242 14.264C198.326 14.264 198.386 14.312 198.89 14.756C199.106 14.948 199.154 15.032 199.154 15.104C199.154 15.272 199.034 15.332 198.65 15.332C198.53 15.332 198.494 15.344 198.35 15.512C198.134 15.74 197.906 15.932 197.582 16.16C197.546 16.184 197.486 16.136 197.498 16.088C197.642 15.716 197.762 15.356 197.846 14.996H193.982V15.536C193.982 16.532 194.018 17.444 194.018 17.708C194.018 17.96 193.838 18.092 193.49 18.092C193.202 18.092 193.106 17.996 193.106 17.72C193.106 17.576 193.166 17.06 193.166 16.076V14.996ZM194.582 16.316L194.474 15.896C194.726 15.944 194.882 15.956 195.122 15.956H196.022C196.37 15.536 196.466 15.476 196.526 15.476C196.598 15.476 196.694 15.536 197.09 15.86C197.246 15.992 197.294 16.076 197.294 16.148C197.294 16.22 197.258 16.256 197.15 16.256H195.146C194.99 16.256 194.846 16.268 194.582 16.316ZM194.606 17.552L194.498 17.12C194.774 17.18 194.942 17.192 195.182 17.192H196.514C196.91 16.724 196.994 16.664 197.066 16.664C197.15 16.664 197.234 16.724 197.69 17.084C197.87 17.228 197.918 17.3 197.918 17.372C197.918 17.456 197.882 17.492 197.774 17.492H195.23C195.038 17.492 194.882 17.516 194.606 17.552ZM189.962 16.316L189.854 15.896C190.106 15.944 190.286 15.956 190.514 15.956H191.378C191.702 15.536 191.798 15.476 191.858 15.476C191.93 15.476 192.026 15.536 192.434 15.884C192.578 16.004 192.638 16.076 192.638 16.148C192.638 16.22 192.602 16.256 192.482 16.256H190.538C190.382 16.256 190.238 16.268 189.962 16.316ZM189.542 17.552L189.434 17.12C189.698 17.18 189.866 17.192 190.106 17.192H191.318C191.678 16.748 191.762 16.688 191.834 16.688C191.918 16.688 192.002 16.748 192.41 17.096C192.59 17.228 192.638 17.3 192.638 17.372C192.638 17.456 192.602 17.492 192.482 17.492H190.142C189.962 17.492 189.818 17.516 189.542 17.552ZM205.106 16.088V14.828H201.506C201.182 14.828 200.954 14.852 200.606 14.9L200.474 14.444C200.882 14.516 201.146 14.528 201.506 14.528H205.106C205.094 13.568 205.082 13.268 205.034 12.92C206.21 13.052 206.33 13.1 206.33 13.268C206.33 13.376 206.258 13.448 205.934 13.58V14.528H209.222C209.738 13.928 209.822 13.868 209.894 13.868C209.978 13.868 210.086 13.904 210.626 14.348C210.89 14.552 210.926 14.648 210.926 14.72C210.926 14.792 210.89 14.828 210.77 14.828H205.934V16.088H208.442C208.79 15.68 208.862 15.632 208.934 15.632C209.006 15.632 209.078 15.68 209.486 16.016C209.678 16.172 209.714 16.244 209.714 16.316C209.714 16.424 209.666 16.484 209.366 16.7V17.54C209.366 19.148 209.426 19.904 209.426 20.132C209.426 20.396 209.27 20.516 208.886 20.516C208.646 20.516 208.538 20.432 208.538 20.192V19.988H205.946C205.946 20.444 205.958 20.912 205.958 21.368H209.414C209.894 20.768 210.014 20.696 210.086 20.696C210.17 20.696 210.266 20.744 210.854 21.188C211.118 21.392 211.166 21.488 211.166 21.56C211.166 21.632 211.13 21.668 211.01 21.668H205.97C205.982 22.76 205.994 23.372 205.994 23.66C205.994 23.936 205.802 24.056 205.418 24.056C205.142 24.056 205.034 23.96 205.034 23.708C205.034 23.444 205.058 22.856 205.07 21.668H201.35C201.038 21.668 200.798 21.692 200.438 21.74L200.318 21.284C200.726 21.356 201.002 21.368 201.35 21.368H205.07C205.082 21.02 205.094 20.468 205.094 19.988H202.67V20.24C202.67 20.528 202.514 20.636 202.154 20.636C201.878 20.636 201.782 20.54 201.782 20.336C201.782 19.94 201.83 19.364 201.83 17.3C201.83 16.472 201.818 16.076 201.77 15.596C202.202 15.764 202.382 15.86 202.79 16.088H205.106ZM202.67 19.688H205.094C205.094 19.328 205.094 18.98 205.106 18.152H202.67V19.688ZM205.946 19.688H208.538V18.152H205.934C205.934 18.38 205.934 18.896 205.946 19.688ZM205.934 16.388V17.852H208.538V16.388H205.934ZM205.106 16.388H202.67V17.852H205.106V16.388ZM215.894 12.656C215.918 12.644 215.966 12.632 216.002 12.632C216.038 12.632 216.062 12.656 216.062 12.692C216.062 12.728 216.05 12.764 216.026 12.788C214.406 14.432 213.65 16.292 213.65 18.428C213.65 20.564 214.406 22.424 216.026 24.068C216.05 24.092 216.074 24.128 216.074 24.164C216.074 24.2 216.05 24.236 216.014 24.236C215.978 24.236 215.93 24.224 215.894 24.2C214.886 23.432 214.13 22.556 213.59 21.56C213.05 20.552 212.81 19.508 212.81 18.428C212.81 17.348 213.05 16.304 213.59 15.296C214.13 14.3 214.886 13.424 215.894 12.656ZM220.091 20.924V20.048C219.203 20.504 218.207 20.9 217.091 21.248C217.007 21.272 216.947 21.104 217.019 21.068C220.295 19.664 222.815 17.504 224.303 14.828H221.255C220.919 15.284 220.559 15.704 220.139 16.088C221.123 16.412 221.723 16.988 221.723 17.564C221.723 17.864 221.507 18.128 221.267 18.128C221.075 18.128 220.919 18.032 220.823 17.696C220.631 17.072 220.403 16.628 219.971 16.256C219.263 16.88 218.435 17.42 217.415 17.912C217.343 17.948 217.247 17.792 217.319 17.744C218.675 16.844 219.827 15.572 220.595 14.3C220.883 13.82 221.111 13.34 221.267 12.872C222.179 13.1 222.467 13.232 222.467 13.388C222.467 13.52 222.359 13.58 221.999 13.676C221.831 13.976 221.651 14.264 221.471 14.528H224.255C224.663 14.072 224.723 14.024 224.807 14.024C224.879 14.024 224.963 14.072 225.419 14.492C225.623 14.684 225.671 14.768 225.671 14.84C225.671 14.972 225.599 15.02 225.191 15.14C224.075 17.024 222.767 18.416 221.063 19.484H225.371C225.755 19.064 225.815 19.004 225.887 19.004C225.971 19.004 226.031 19.064 226.451 19.4C226.631 19.568 226.667 19.64 226.667 19.712C226.667 19.796 226.619 19.868 226.343 20.036V20.924C226.343 22.532 226.391 23.312 226.391 23.552C226.391 23.816 226.211 23.948 225.827 23.948C225.539 23.948 225.455 23.852 225.455 23.6V23.216H220.955V23.576C220.955 23.84 220.787 23.972 220.415 23.972C220.127 23.972 220.019 23.864 220.019 23.612C220.019 23.288 220.091 22.76 220.091 20.924ZM225.455 22.916V19.784H220.955V22.916H225.455ZM231.815 13.748L231.767 13.844C232.955 14.264 233.615 14.78 233.615 15.32C233.615 15.572 233.459 15.764 233.255 15.764C233.051 15.764 232.943 15.656 232.763 15.272C232.487 14.708 232.175 14.36 231.671 14.012C231.167 14.876 230.579 15.68 229.835 16.34C230.099 16.388 230.267 16.412 230.495 16.412H231.995C232.343 15.98 232.427 15.92 232.499 15.92C232.583 15.92 232.667 15.98 233.087 16.292C233.255 16.436 233.303 16.508 233.303 16.58C233.303 16.664 233.267 16.712 233.147 16.712H231.695V18.248H232.343C232.703 17.792 232.787 17.732 232.859 17.732C232.943 17.732 233.027 17.792 233.435 18.128C233.603 18.26 233.663 18.356 233.663 18.428C233.663 18.476 233.651 18.512 233.627 18.524C233.879 18.572 234.059 18.584 234.323 18.584H235.871C235.979 17.828 236.027 17.06 236.051 16.292H234.683C234.371 16.892 233.999 17.42 233.531 17.876C233.483 17.924 233.363 17.852 233.399 17.792C233.807 17.132 234.179 16.052 234.371 15.152C234.443 14.756 234.491 14.372 234.503 14.024C235.475 14.276 235.631 14.372 235.631 14.492C235.631 14.6 235.559 14.648 235.259 14.72C235.139 15.176 234.995 15.596 234.815 15.992H236.051C236.063 15.68 236.063 15.356 236.063 15.008C236.063 13.916 236.063 13.676 236.003 13.1C237.167 13.232 237.287 13.292 237.287 13.448C237.287 13.556 237.239 13.628 236.927 13.76C236.927 14.132 236.927 14.564 236.915 15.152C236.915 15.44 236.903 15.728 236.903 15.992H237.887C238.355 15.392 238.439 15.344 238.511 15.344C238.595 15.344 238.667 15.392 239.183 15.836C239.399 16.028 239.459 16.112 239.459 16.184C239.459 16.256 239.411 16.292 239.303 16.292H236.891C236.867 17.06 236.831 17.828 236.723 18.584H238.259C238.739 17.984 238.835 17.936 238.907 17.936C238.991 17.936 239.087 17.984 239.591 18.428C239.819 18.62 239.879 18.704 239.879 18.776C239.879 18.848 239.831 18.884 239.711 18.884H236.843C237.095 19.868 237.515 20.732 238.091 21.392C238.631 22.028 239.327 22.508 240.107 22.856C240.155 22.88 240.131 22.952 240.083 22.976C239.783 23.132 239.651 23.288 239.579 23.636C239.543 23.804 239.519 23.852 239.435 23.852C239.375 23.852 239.267 23.768 239.135 23.672C238.319 23.06 237.731 22.232 237.347 21.404C237.047 20.768 236.807 20.024 236.627 19.148C236.471 19.952 236.219 20.636 235.823 21.272C235.067 22.508 233.951 23.396 232.283 23.948C232.211 23.972 232.151 23.828 232.211 23.792C233.651 22.988 234.491 22.208 235.127 20.984C235.451 20.372 235.667 19.724 235.823 18.884H234.335C234.071 18.884 233.903 18.908 233.615 18.956L233.507 18.548H231.695V22.232C232.343 22.088 232.979 21.92 233.567 21.716C233.627 21.692 233.663 21.836 233.615 21.86C232.583 22.448 231.095 23.048 229.763 23.42C229.715 23.732 229.643 23.84 229.535 23.84C229.415 23.84 229.331 23.756 228.959 22.64C229.271 22.628 229.595 22.592 229.907 22.556C230.243 22.508 230.579 22.46 230.915 22.4V18.548H229.859C229.631 18.548 229.463 18.56 229.151 18.62L229.031 18.164C229.367 18.224 229.559 18.248 229.835 18.248H230.915V16.712H230.531C230.315 16.712 230.159 16.724 229.883 16.784L229.775 16.4C229.487 16.64 229.187 16.856 228.875 17.036C228.803 17.084 228.695 16.952 228.755 16.892C229.583 16.148 230.255 15.104 230.699 14.18C230.879 13.772 231.023 13.376 231.095 13.04C231.971 13.268 232.259 13.4 232.259 13.532C232.259 13.64 232.163 13.7 231.815 13.748ZM229.967 21.692C229.739 21.692 229.655 21.548 229.631 21.164C229.571 20.384 229.511 20.036 229.247 19.484C229.223 19.424 229.331 19.376 229.379 19.412C230.051 20.012 230.387 20.612 230.387 21.128C230.387 21.44 230.207 21.692 229.967 21.692ZM232.175 21.644C232.139 21.692 232.007 21.644 232.031 21.584C232.235 21.08 232.427 20.468 232.523 19.976C232.583 19.7 232.607 19.46 232.619 19.208C233.435 19.508 233.663 19.628 233.663 19.748C233.663 19.868 233.567 19.916 233.291 19.964C232.943 20.624 232.619 21.14 232.175 21.644ZM240.851 12.656C241.859 13.424 242.615 14.3 243.155 15.296C243.695 16.304 243.935 17.348 243.935 18.428C243.935 19.508 243.695 20.552 243.155 21.56C242.615 22.556 241.859 23.432 240.851 24.2C240.815 24.224 240.767 24.236 240.731 24.236C240.695 24.236 240.671 24.2 240.671 24.164C240.671 24.128 240.695 24.092 240.719 24.068C242.339 22.424 243.095 20.564 243.095 18.428C243.095 16.292 242.339 14.432 240.719 12.788C240.695 12.764 240.683 12.728 240.683 12.692C240.683 12.656 240.707 12.632 240.743 12.632C240.779 12.632 240.827 12.644 240.851 12.656ZM251.828 15.884L251.816 15.836C250.496 16.244 249.14 16.7 248.216 17.024C248.048 17.084 247.856 17.168 247.7 17.3C247.616 17.372 247.532 17.42 247.376 17.42C247.172 17.432 246.884 17.276 246.572 16.916C246.38 16.688 246.224 16.46 246.212 16.244C246.212 16.076 246.26 15.944 246.32 15.944C246.38 15.944 246.428 15.992 246.476 16.04C246.824 16.388 247.004 16.46 247.376 16.46C247.52 16.448 247.784 16.412 248.096 16.328C249.836 15.884 251.636 15.416 253.4 14.96C253.652 14.9 253.772 14.84 253.868 14.78C253.988 14.708 254.096 14.672 254.276 14.66C254.516 14.66 254.804 14.744 255.056 14.864C255.224 14.936 255.38 15.056 255.38 15.236C255.392 15.488 255.26 15.596 254.96 15.608C254.18 15.632 253.484 15.668 252.848 15.872C252.128 16.1 251.6 16.472 251.12 16.988C250.508 17.648 250.172 18.488 250.172 19.316C250.184 20.096 250.496 20.72 251 21.116C251.66 21.632 252.608 21.824 253.196 21.848C253.508 21.86 253.724 21.884 254.024 22.052C254.276 22.196 254.348 22.364 254.348 22.568C254.348 22.772 254.216 22.916 253.712 22.916C252.848 22.916 251.684 22.58 250.904 22.028C250.184 21.512 249.62 20.708 249.62 19.652C249.62 18.884 249.788 18.212 250.16 17.6C250.496 16.976 251.108 16.364 251.828 15.884ZM253.616 17.396C253.688 17.396 253.772 17.42 253.808 17.432C254.132 17.528 254.492 17.708 254.852 18.032C255.14 18.284 255.308 18.5 255.308 18.752C255.308 18.944 255.188 19.112 254.972 19.112C254.816 19.112 254.684 19.004 254.576 18.788C254.396 18.428 253.916 17.9 253.568 17.636C253.52 17.6 253.484 17.552 253.484 17.516C253.484 17.456 253.532 17.396 253.616 17.396ZM254.588 16.58C254.648 16.58 254.744 16.604 254.852 16.628C255.176 16.712 255.476 16.856 255.812 17.096C256.1 17.3 256.364 17.576 256.364 17.852C256.364 18.092 256.22 18.236 256.04 18.236C255.884 18.236 255.788 18.176 255.656 17.948C255.44 17.576 254.96 17.06 254.552 16.82C254.504 16.796 254.468 16.748 254.468 16.7C254.468 16.64 254.516 16.58 254.588 16.58ZM240.236 37.692H242.204C243.2 37.692 243.428 37.62 243.656 37.428C243.944 37.176 244.112 36.876 244.292 36.492C244.328 36.408 244.364 36.396 244.484 36.432C244.592 36.468 244.616 36.504 244.604 36.576C244.448 37.188 244.208 38.04 244.004 38.664C243.236 38.628 242.552 38.628 241.784 38.628C241.004 38.628 240.32 38.628 239.552 38.664C239.444 38.664 239.408 38.64 239.408 38.448C239.408 38.256 239.42 38.244 239.492 38.136C240.176 37.02 240.608 36.384 241.592 35.112C242.576 33.84 243.14 33.192 243.14 32.1C243.14 31.152 242.744 30.432 242 30.432C241.448 30.432 241.124 30.744 240.968 31.104C240.884 31.284 240.848 31.584 240.848 31.968C240.848 32.292 240.428 32.508 240.032 32.508C239.78 32.508 239.588 32.412 239.588 32.076C239.588 31.32 240.548 30.06 242 30.06C243.476 30.06 244.316 30.996 244.316 32.148C244.316 33.648 243.344 34.224 242.216 35.34C240.968 36.564 240.596 37.092 240.236 37.692ZM253.304 34.2H250.532C250.244 37.26 248.768 39.012 245.696 39.936C245.612 39.96 245.54 39.78 245.612 39.744C248.18 38.436 249.296 36.876 249.56 34.2H248.48C248.12 34.2 247.856 34.212 247.508 34.284L247.376 33.78C247.784 33.876 248.084 33.9 248.444 33.9H253.172C253.568 33.492 253.628 33.444 253.712 33.444C253.784 33.444 253.856 33.492 254.276 33.876C254.468 34.068 254.516 34.128 254.516 34.2C254.516 34.284 254.468 34.32 254.18 34.512C254.072 36.276 253.928 37.56 253.628 38.424C253.484 38.88 253.316 39.204 253.028 39.432C252.788 39.636 252.44 39.744 252.104 39.744C251.888 39.744 251.816 39.708 251.78 39.492C251.72 39.18 251.468 38.976 250.4 38.7C250.316 38.676 250.328 38.46 250.412 38.472C251.288 38.616 251.78 38.688 252.188 38.688C252.536 38.688 252.692 38.412 252.884 37.692C253.076 36.948 253.196 35.94 253.304 34.2ZM255.884 34.524C255.812 34.524 255.62 34.428 255.392 34.284C254.78 33.864 254.264 33.396 253.868 32.94C253.172 32.172 252.68 31.284 252.116 29.772C252.092 29.688 252.032 29.616 251.96 29.556C251.888 29.508 251.852 29.46 251.852 29.412C251.852 29.328 252.188 29.208 252.308 29.208C252.368 29.208 252.416 29.244 252.416 29.304C252.416 29.34 252.368 29.436 252.368 29.496C252.368 29.556 252.392 29.628 252.428 29.724C252.848 30.744 253.484 31.572 254.132 32.136C254.9 32.832 255.764 33.24 256.652 33.492C256.724 33.516 256.7 33.648 256.628 33.66C256.328 33.696 256.196 33.852 256.064 34.284C256.016 34.464 255.968 34.524 255.884 34.524ZM245.516 34.716C245.444 34.752 245.336 34.596 245.408 34.548C246.86 33.42 247.916 32.028 248.612 30.492C248.828 30.012 248.972 29.592 249.056 29.148C250.124 29.508 250.4 29.664 250.4 29.796C250.4 29.94 250.304 30.012 249.896 30.048C248.852 32.208 247.58 33.6 245.516 34.716Z" fill="black"/>
<path d="M262 0.5V51.5L272 40.896" stroke="#0A0814" stroke-linecap="round"/>
</svg>
