<svg width="386" height="31" viewBox="0 0 386 31" fill="none" xmlns="http://www.w3.org/2000/svg">
<rect x="0.5" y="0.5" width="75" height="30" rx="15" stroke="#0A0814"/>
<path d="M14.242 16.786V17.402C15.558 17.752 16.272 18.368 16.272 18.956C16.272 19.292 16.09 19.502 15.824 19.502C15.586 19.502 15.474 19.376 15.292 18.956C15.054 18.438 14.676 17.99 14.242 17.668V18.144C14.242 20.776 14.284 21.49 14.284 21.728C14.284 22.064 14.102 22.19 13.668 22.19C13.36 22.19 13.248 22.078 13.248 21.784C13.248 21.364 13.332 19.698 13.36 18.27C12.492 19.53 11.764 20.258 10.504 21.014C10.42 21.07 10.308 20.902 10.378 20.832C11.68 19.656 12.576 18.354 13.164 16.786H11.68C11.4 16.786 11.176 16.814 10.798 16.87L10.658 16.324C11.05 16.422 11.316 16.436 11.652 16.436H13.332V16.268C13.332 15.666 13.304 15.386 13.262 14.966C14.34 15.078 14.634 15.176 14.634 15.344C14.634 15.442 14.55 15.526 14.242 15.666V16.436H15.516C15.978 15.862 16.076 15.806 16.16 15.806C16.258 15.806 16.356 15.862 16.874 16.268C17.084 16.478 17.154 16.576 17.154 16.66C17.154 16.744 17.112 16.786 16.972 16.786H14.242ZM21.508 14.28V17.724C21.508 19.628 21.536 21.21 21.536 21.7C21.536 21.994 21.312 22.148 20.878 22.148C20.584 22.148 20.444 22.036 20.444 21.77C20.444 21.49 20.5 20.496 20.5 18.424V14.28H18.694C18.652 15.82 18.512 16.842 18.274 17.822C17.854 19.614 17.112 20.748 15.67 21.882C15.586 21.938 15.432 21.798 15.488 21.728C16.622 20.37 17.182 19.166 17.462 17.318C17.644 16.212 17.714 14.966 17.714 13.16C17.714 11.816 17.7 11.48 17.63 10.808C18.12 11.004 18.358 11.102 18.834 11.354C19.702 11.032 20.416 10.57 21.116 10.024C21.326 9.856 21.522 9.674 21.718 9.436C22.586 9.982 22.88 10.248 22.88 10.388C22.88 10.514 22.726 10.598 22.208 10.5C21.116 11.088 19.912 11.494 18.722 11.69V12.894C18.722 13.258 18.708 13.608 18.708 13.93H21.83C22.376 13.258 22.488 13.188 22.572 13.188C22.67 13.188 22.754 13.258 23.342 13.762C23.594 13.972 23.664 14.056 23.664 14.14C23.664 14.238 23.608 14.28 23.468 14.28H21.508ZM14.298 11.214H15.53C15.95 10.654 16.048 10.584 16.132 10.584C16.23 10.584 16.328 10.654 16.818 11.06C17.028 11.228 17.098 11.34 17.098 11.424C17.098 11.508 17.056 11.564 16.916 11.564H11.96C11.68 11.564 11.47 11.578 11.12 11.648L10.966 11.116C11.358 11.186 11.61 11.214 11.932 11.214H13.332V10.304C13.332 9.982 13.318 9.73 13.276 9.282C14.564 9.422 14.746 9.52 14.746 9.66C14.746 9.758 14.648 9.87 14.298 10.01V11.214ZM14.494 14.308H15.642C16.146 13.692 16.244 13.636 16.328 13.636C16.426 13.636 16.51 13.692 17.056 14.126C17.294 14.336 17.364 14.434 17.364 14.518C17.364 14.616 17.322 14.658 17.182 14.658H11.624C11.344 14.658 11.134 14.686 10.77 14.742L10.63 14.21C11.022 14.28 11.274 14.308 11.624 14.308H14.172C14.452 13.664 14.648 13.118 14.788 12.642C14.872 12.32 14.928 12.012 14.956 11.732C15.852 12.012 16.244 12.222 16.244 12.376C16.244 12.53 16.132 12.586 15.754 12.614C15.278 13.342 14.984 13.762 14.494 14.308ZM12.758 14.028C12.464 14.028 12.38 13.93 12.31 13.342C12.254 12.838 12.114 12.432 11.876 11.984C11.848 11.928 11.932 11.872 11.988 11.9C12.758 12.278 13.262 12.88 13.262 13.384C13.262 13.762 13.038 14.028 12.758 14.028ZM37.09 13.678H31.308C31.784 15.708 32.596 17.192 33.856 18.466C34.85 19.502 36.152 20.216 37.412 20.692C37.482 20.72 37.454 20.818 37.384 20.846C36.992 20.986 36.824 21.182 36.656 21.63C36.6 21.784 36.53 21.854 36.432 21.854C36.306 21.854 36.068 21.728 35.69 21.476C34.682 20.832 33.702 19.866 33.058 18.998C32.12 17.752 31.434 16.086 31.07 13.944C30.776 16.114 30.216 17.528 29.278 18.746C28.172 20.188 26.758 21.196 24.616 21.952C24.518 21.98 24.434 21.784 24.518 21.742C26.674 20.608 28.018 19.208 28.956 17.416C29.46 16.45 29.81 15.274 30.006 13.678H26.03C25.624 13.678 25.33 13.706 24.868 13.762L24.728 13.23C25.246 13.3 25.596 13.328 26.044 13.328H30.034C30.118 12.516 30.16 11.592 30.16 10.542C30.16 10.178 30.146 9.954 30.104 9.52C31.532 9.73 31.756 9.814 31.756 10.01C31.756 10.136 31.686 10.22 31.28 10.388C31.28 10.934 31.266 11.452 31.238 11.942C31.21 12.432 31.182 12.894 31.14 13.328H35.102C35.788 12.502 35.886 12.418 35.97 12.418C36.068 12.418 36.194 12.502 36.894 13.076C37.202 13.342 37.272 13.454 37.272 13.538C37.272 13.636 37.23 13.678 37.09 13.678ZM45.098 13.79H48.99C49.452 13.244 49.536 13.202 49.62 13.202C49.704 13.202 49.788 13.244 50.32 13.734C50.544 13.916 50.586 14 50.586 14.098C50.586 14.196 50.488 14.28 50.152 14.448C49.746 16.058 49.144 17.416 48.29 18.536C49.354 19.656 50.544 20.356 51.748 20.692C51.818 20.706 51.776 20.832 51.706 20.86C51.342 21 51.258 21.056 51.034 21.644C50.978 21.812 50.922 21.84 50.838 21.84C50.74 21.84 50.53 21.728 50.236 21.546C49.27 20.944 48.416 20.132 47.716 19.222C46.596 20.454 45.126 21.35 43.278 21.98C43.18 22.008 43.096 21.798 43.18 21.756C44.902 20.846 46.218 19.768 47.198 18.466C46.4 17.15 45.966 15.652 45.686 14.14H45.084C45 15.736 44.804 16.898 44.524 17.892C44.076 19.418 43.194 20.79 41.696 21.91C41.612 21.966 41.458 21.826 41.528 21.756C42.592 20.58 43.334 19.292 43.698 17.626C44.006 16.226 44.118 14.546 44.118 12.096C44.118 11.102 44.104 10.71 44.02 9.842C44.566 10.066 44.79 10.164 45.294 10.472H49.396C50.054 9.73 50.124 9.688 50.208 9.688C50.32 9.688 50.404 9.73 51.048 10.262C51.384 10.5 51.44 10.584 51.44 10.668C51.44 10.766 51.384 10.822 51.244 10.822H45.14V11.62C45.14 12.418 45.126 13.146 45.098 13.79ZM49.074 14.14H45.966C46.33 15.442 46.848 16.702 47.66 17.794C48.318 16.73 48.78 15.512 49.074 14.14ZM40.24 10.472V18.354C40.24 20.538 40.268 21.21 40.268 21.574C40.268 21.882 40.044 22.022 39.652 22.022C39.33 22.022 39.204 21.91 39.204 21.644C39.204 20.748 39.274 18.368 39.274 13.426C39.274 11.158 39.274 10.29 39.204 9.604C39.708 9.8 39.932 9.884 40.38 10.122H42.144C42.508 9.688 42.592 9.632 42.676 9.632C42.802 9.632 42.886 9.688 43.292 10.122C43.502 10.332 43.558 10.43 43.558 10.514C43.558 10.626 43.446 10.724 43.152 10.836C42.606 11.97 41.976 13.006 41.178 14.014C42.396 15.022 42.956 15.932 42.956 17.262C42.956 17.85 42.83 18.27 42.564 18.578C42.326 18.9 41.906 19.054 41.5 19.054C41.29 19.054 41.248 18.998 41.22 18.774C41.15 18.382 41.052 18.214 40.366 18.032C40.296 18.018 40.31 17.878 40.38 17.878C40.856 17.92 41.276 17.934 41.514 17.934C41.682 17.934 41.808 17.878 41.878 17.752C41.99 17.612 42.032 17.318 42.032 16.898C42.032 15.792 41.724 14.952 40.884 14.07C41.486 12.838 41.934 11.606 42.172 10.472H40.24ZM63.592 14.812H61.94C62.192 16.562 62.612 17.696 63.27 18.648C63.928 19.614 64.684 20.23 65.636 20.776C65.678 20.804 65.65 20.902 65.594 20.916C65.23 21 65.062 21.182 64.88 21.672C64.824 21.812 64.768 21.84 64.67 21.84C64.614 21.84 64.516 21.77 64.362 21.63C63.62 20.958 63.102 20.16 62.626 19.236C62.178 18.27 61.8 16.912 61.618 14.812H60.288C60.232 16.618 60.092 17.57 59.84 18.494C59.434 19.992 58.748 21.182 57.698 22.12C57.642 22.162 57.516 22.064 57.558 22.008C58.272 20.986 58.664 19.936 58.944 18.718C59.224 17.458 59.322 15.89 59.322 13.272C59.322 11.158 59.308 10.5 59.238 9.66C59.742 9.884 59.966 9.996 60.442 10.276H63.494C63.914 9.828 63.984 9.786 64.068 9.786C64.166 9.786 64.236 9.828 64.698 10.22C64.894 10.402 64.95 10.472 64.95 10.556C64.95 10.668 64.88 10.766 64.586 10.962V12.362C64.586 14.182 64.642 14.91 64.642 15.176C64.642 15.512 64.446 15.638 64.012 15.638C63.718 15.638 63.592 15.54 63.592 15.274V14.812ZM63.592 14.462V10.626H60.33V12.082C60.33 13.006 60.316 13.79 60.302 14.462H63.592ZM54.212 16.73V16.856C54.212 17.108 54.03 17.248 53.666 17.248C53.372 17.248 53.26 17.15 53.26 16.912C53.26 16.576 53.33 15.68 53.33 12.516C53.33 11.004 53.316 10.612 53.246 9.674C53.708 9.856 53.89 9.954 54.31 10.206H57.11C57.586 9.618 57.656 9.576 57.74 9.576C57.852 9.576 57.922 9.618 58.454 10.094C58.636 10.262 58.706 10.346 58.706 10.43C58.706 10.514 58.636 10.556 58.496 10.556H56.396V12.25H57.026C57.376 11.732 57.488 11.676 57.558 11.676C57.656 11.676 57.74 11.732 58.174 12.138C58.314 12.278 58.384 12.39 58.384 12.46C58.384 12.544 58.342 12.6 58.202 12.6H56.396V14.266H56.984C57.376 13.776 57.474 13.706 57.558 13.706C57.642 13.706 57.726 13.776 58.16 14.168C58.3 14.294 58.37 14.406 58.37 14.476C58.37 14.574 58.328 14.616 58.188 14.616H56.396V16.38H57.194C57.544 15.946 57.628 15.89 57.712 15.89C57.796 15.89 57.88 15.946 58.3 16.324C58.496 16.506 58.552 16.59 58.552 16.674C58.552 16.758 58.496 16.828 58.174 17.024C58.062 18.844 57.894 19.978 57.6 20.762C57.46 21.126 57.278 21.42 57.04 21.616C56.76 21.84 56.438 21.952 56.13 21.952C55.962 21.952 55.892 21.896 55.85 21.686C55.78 21.294 55.682 21.21 54.716 20.888C54.646 20.86 54.66 20.706 54.73 20.72C55.514 20.818 55.878 20.846 56.2 20.846C56.536 20.846 56.676 20.692 56.858 20.034C57.096 19.166 57.194 18.27 57.292 16.73H54.212ZM54.212 16.38H55.514V14.616H54.212V16.38ZM54.212 14.266H55.514V12.6H54.212V14.266ZM54.212 12.25H55.514V10.556H54.212V12.25ZM56.536 18.844C56.382 18.844 56.326 18.76 56.242 18.522C56.116 18.116 55.892 17.766 55.57 17.472C55.528 17.43 55.584 17.36 55.64 17.374C56.354 17.556 56.83 17.962 56.83 18.382C56.83 18.648 56.704 18.844 56.536 18.844ZM52.728 20.65C52.49 20.65 52.322 20.426 52.322 20.146C52.322 19.964 52.378 19.824 52.56 19.656C52.98 19.264 53.232 18.746 53.274 17.962C53.274 17.906 53.414 17.906 53.428 17.962C53.484 18.298 53.512 18.606 53.512 18.9C53.512 19.922 53.204 20.65 52.728 20.65ZM54.366 20.062C54.198 20.062 54.058 20.006 54.086 19.628C54.1 19.418 54.114 19.166 54.114 18.914C54.1 18.634 54.058 18.298 53.96 17.962C53.946 17.906 54.03 17.864 54.072 17.906C54.562 18.438 54.8 18.97 54.8 19.446C54.8 19.768 54.604 20.062 54.366 20.062ZM55.514 19.572C55.346 19.572 55.304 19.488 55.262 19.138C55.192 18.606 55.066 18.256 54.786 17.738C54.758 17.682 54.842 17.626 54.884 17.654C55.542 18.13 55.92 18.606 55.92 18.998C55.92 19.32 55.724 19.572 55.514 19.572Z" fill="#0A0814"/>
<rect x="96.5" y="0.5" width="61" height="30" rx="15" stroke="#0A0814"/>
<path d="M113.322 12.866H116.332C116.738 12.46 116.808 12.404 116.906 12.404C117.004 12.404 117.116 12.446 117.522 12.81C117.732 12.992 117.76 13.09 117.76 13.174C117.76 13.286 117.718 13.342 117.41 13.524V14.574C117.41 16.38 117.466 17.234 117.466 17.5C117.466 17.794 117.27 17.934 116.85 17.934C116.528 17.934 116.43 17.836 116.43 17.542V17.29H113.504C114.26 18.284 115.226 18.998 116.374 19.558C117.424 20.076 118.544 20.37 119.58 20.468C119.65 20.468 119.636 20.608 119.566 20.622C119.202 20.72 118.992 20.902 118.88 21.266C118.796 21.518 118.698 21.616 118.6 21.616C118.488 21.616 118.194 21.532 117.914 21.406C117.13 21.07 116.304 20.594 115.59 20.048C114.806 19.446 114.008 18.592 113.266 17.444C113.322 19.152 113.392 21.336 113.392 21.77C113.392 22.092 113.154 22.218 112.72 22.218C112.37 22.218 112.258 22.106 112.258 21.84C112.258 21.434 112.314 19.656 112.37 18.046C110.718 19.922 108.968 20.916 106.42 21.686C106.322 21.714 106.252 21.504 106.336 21.462C108.45 20.51 110.382 19.11 111.684 17.29H109.458V17.514C109.458 17.822 109.29 17.962 108.87 17.962C108.562 17.962 108.436 17.85 108.436 17.598C108.436 17.248 108.52 16.702 108.52 14.644C108.52 13.594 108.52 12.992 108.422 12.32C108.926 12.516 109.136 12.614 109.598 12.866H112.328V11.382H107.834C107.47 11.382 107.176 11.41 106.784 11.466L106.644 10.92C107.092 11.004 107.428 11.032 107.834 11.032H112.328V10.906C112.328 9.912 112.3 9.604 112.23 9.212C113.644 9.394 113.77 9.45 113.77 9.632C113.77 9.758 113.686 9.842 113.322 9.996V11.032H117.298C117.914 10.318 118.012 10.248 118.096 10.248C118.194 10.248 118.292 10.318 118.964 10.85C119.272 11.088 119.328 11.172 119.328 11.256C119.328 11.34 119.286 11.382 119.146 11.382H113.322V12.866ZM113.322 15.204V16.94H116.43V15.204H113.322ZM112.328 15.204H109.458V16.94H112.328V15.204ZM113.322 13.216V14.854H116.43V13.216H113.322ZM112.328 13.216H109.458V14.854H112.328V13.216ZM127.476 16.52V18.34C127.476 20.09 127.504 20.622 127.504 20.958C127.504 21.49 127.322 21.714 126.958 21.91C126.72 22.036 126.398 22.134 126.146 22.134C125.95 22.134 125.908 22.12 125.88 21.854C125.824 21.434 125.46 21.224 124.354 20.972C124.284 20.958 124.284 20.776 124.354 20.79C125.152 20.874 125.754 20.902 126.216 20.902C126.37 20.902 126.426 20.832 126.426 20.678V16.52H123.906V16.674C123.906 17.024 123.724 17.178 123.304 17.178C122.982 17.178 122.842 17.052 122.842 16.772C122.842 16.492 122.912 16.044 122.912 14.42C122.912 13.65 122.898 13.258 122.828 12.698C123.346 12.894 123.556 12.992 124.032 13.272H129.842C130.276 12.824 130.346 12.768 130.43 12.768C130.528 12.768 130.612 12.824 131.074 13.202C131.284 13.37 131.354 13.454 131.354 13.538C131.354 13.664 131.284 13.748 130.962 13.93V14.602C130.962 15.974 131.004 16.618 131.004 16.814C131.004 17.094 130.794 17.248 130.402 17.248C130.052 17.248 129.954 17.136 129.954 16.814V16.52H127.476ZM129.954 16.17V13.622H123.906V16.17H129.954ZM127.42 11.382H131.228C131.928 10.612 132.026 10.542 132.11 10.542C132.208 10.542 132.306 10.612 132.978 11.172C133.272 11.424 133.342 11.508 133.342 11.592C133.342 11.69 133.286 11.732 133.146 11.732H121.89C121.526 11.732 121.274 11.76 120.882 11.816L120.742 11.284C121.19 11.354 121.498 11.382 121.89 11.382H126.37V10.318C126.37 10.052 126.356 9.828 126.3 9.324C127.728 9.478 127.896 9.59 127.896 9.758C127.896 9.856 127.798 9.954 127.42 10.122V11.382ZM131.774 21.266C131.452 21.266 131.368 21.168 130.934 20.272C130.514 19.432 129.884 18.69 128.946 17.906C128.876 17.85 128.974 17.682 129.058 17.724C131.06 18.55 132.306 19.726 132.306 20.608C132.306 21 132.082 21.266 131.774 21.266ZM120.826 21.462C120.742 21.504 120.616 21.322 120.7 21.266C121.764 20.496 122.744 19.446 123.332 18.536C123.542 18.214 123.668 17.934 123.78 17.626C124.732 18.06 125.082 18.27 125.082 18.424C125.082 18.578 124.942 18.634 124.48 18.648C123.472 19.922 122.52 20.692 120.826 21.462ZM145.592 14.812H143.94C144.192 16.562 144.612 17.696 145.27 18.648C145.928 19.614 146.684 20.23 147.636 20.776C147.678 20.804 147.65 20.902 147.594 20.916C147.23 21 147.062 21.182 146.88 21.672C146.824 21.812 146.768 21.84 146.67 21.84C146.614 21.84 146.516 21.77 146.362 21.63C145.62 20.958 145.102 20.16 144.626 19.236C144.178 18.27 143.8 16.912 143.618 14.812H142.288C142.232 16.618 142.092 17.57 141.84 18.494C141.434 19.992 140.748 21.182 139.698 22.12C139.642 22.162 139.516 22.064 139.558 22.008C140.272 20.986 140.664 19.936 140.944 18.718C141.224 17.458 141.322 15.89 141.322 13.272C141.322 11.158 141.308 10.5 141.238 9.66C141.742 9.884 141.966 9.996 142.442 10.276H145.494C145.914 9.828 145.984 9.786 146.068 9.786C146.166 9.786 146.236 9.828 146.698 10.22C146.894 10.402 146.95 10.472 146.95 10.556C146.95 10.668 146.88 10.766 146.586 10.962V12.362C146.586 14.182 146.642 14.91 146.642 15.176C146.642 15.512 146.446 15.638 146.012 15.638C145.718 15.638 145.592 15.54 145.592 15.274V14.812ZM145.592 14.462V10.626H142.33V12.082C142.33 13.006 142.316 13.79 142.302 14.462H145.592ZM136.212 16.73V16.856C136.212 17.108 136.03 17.248 135.666 17.248C135.372 17.248 135.26 17.15 135.26 16.912C135.26 16.576 135.33 15.68 135.33 12.516C135.33 11.004 135.316 10.612 135.246 9.674C135.708 9.856 135.89 9.954 136.31 10.206H139.11C139.586 9.618 139.656 9.576 139.74 9.576C139.852 9.576 139.922 9.618 140.454 10.094C140.636 10.262 140.706 10.346 140.706 10.43C140.706 10.514 140.636 10.556 140.496 10.556H138.396V12.25H139.026C139.376 11.732 139.488 11.676 139.558 11.676C139.656 11.676 139.74 11.732 140.174 12.138C140.314 12.278 140.384 12.39 140.384 12.46C140.384 12.544 140.342 12.6 140.202 12.6H138.396V14.266H138.984C139.376 13.776 139.474 13.706 139.558 13.706C139.642 13.706 139.726 13.776 140.16 14.168C140.3 14.294 140.37 14.406 140.37 14.476C140.37 14.574 140.328 14.616 140.188 14.616H138.396V16.38H139.194C139.544 15.946 139.628 15.89 139.712 15.89C139.796 15.89 139.88 15.946 140.3 16.324C140.496 16.506 140.552 16.59 140.552 16.674C140.552 16.758 140.496 16.828 140.174 17.024C140.062 18.844 139.894 19.978 139.6 20.762C139.46 21.126 139.278 21.42 139.04 21.616C138.76 21.84 138.438 21.952 138.13 21.952C137.962 21.952 137.892 21.896 137.85 21.686C137.78 21.294 137.682 21.21 136.716 20.888C136.646 20.86 136.66 20.706 136.73 20.72C137.514 20.818 137.878 20.846 138.2 20.846C138.536 20.846 138.676 20.692 138.858 20.034C139.096 19.166 139.194 18.27 139.292 16.73H136.212ZM136.212 16.38H137.514V14.616H136.212V16.38ZM136.212 14.266H137.514V12.6H136.212V14.266ZM136.212 12.25H137.514V10.556H136.212V12.25ZM138.536 18.844C138.382 18.844 138.326 18.76 138.242 18.522C138.116 18.116 137.892 17.766 137.57 17.472C137.528 17.43 137.584 17.36 137.64 17.374C138.354 17.556 138.83 17.962 138.83 18.382C138.83 18.648 138.704 18.844 138.536 18.844ZM134.728 20.65C134.49 20.65 134.322 20.426 134.322 20.146C134.322 19.964 134.378 19.824 134.56 19.656C134.98 19.264 135.232 18.746 135.274 17.962C135.274 17.906 135.414 17.906 135.428 17.962C135.484 18.298 135.512 18.606 135.512 18.9C135.512 19.922 135.204 20.65 134.728 20.65ZM136.366 20.062C136.198 20.062 136.058 20.006 136.086 19.628C136.1 19.418 136.114 19.166 136.114 18.914C136.1 18.634 136.058 18.298 135.96 17.962C135.946 17.906 136.03 17.864 136.072 17.906C136.562 18.438 136.8 18.97 136.8 19.446C136.8 19.768 136.604 20.062 136.366 20.062ZM137.514 19.572C137.346 19.572 137.304 19.488 137.262 19.138C137.192 18.606 137.066 18.256 136.786 17.738C136.758 17.682 136.842 17.626 136.884 17.654C137.542 18.13 137.92 18.606 137.92 18.998C137.92 19.32 137.724 19.572 137.514 19.572Z" fill="#0A0814"/>
</svg>
