<svg width="386" height="31" viewBox="0 0 386 31" fill="none" xmlns="http://www.w3.org/2000/svg">
<rect x="0.5" y="0.5" width="157" height="30" rx="15" stroke="#0A0814"/>
<path d="M62.004 14.448L61.864 13.972C60.884 14.728 59.75 15.358 58.49 15.862C58.392 15.904 58.308 15.722 58.392 15.666C60.478 14.448 62.368 12.614 63.418 10.85C63.712 10.318 63.936 9.814 64.076 9.31C65.504 9.674 65.742 9.772 65.742 9.94C65.742 10.052 65.644 10.122 65.266 10.206C66.148 11.396 67.058 12.264 68.136 12.95C69.228 13.636 70.362 14.014 71.468 14.238C71.538 14.252 71.524 14.392 71.454 14.406C71.062 14.49 70.894 14.658 70.712 15.232C70.656 15.386 70.586 15.442 70.488 15.442C70.418 15.442 70.25 15.386 69.984 15.246C69.326 14.896 68.444 14.308 67.786 13.748C66.764 12.88 65.896 11.844 65.014 10.332C64.23 11.718 63.18 12.95 61.92 13.93C62.298 13.986 62.536 14.014 62.858 14.014H66.064C66.554 13.384 66.652 13.328 66.736 13.328C66.834 13.328 66.932 13.384 67.492 13.86C67.73 14.056 67.786 14.14 67.786 14.224C67.786 14.322 67.744 14.364 67.604 14.364H65.224V16.674H68.304C68.836 16.016 68.948 15.946 69.046 15.946C69.13 15.946 69.242 16.016 69.802 16.506C70.054 16.716 70.124 16.8 70.124 16.884C70.124 16.968 70.082 17.024 69.942 17.024H65.224V21.084H68.934C69.606 20.342 69.704 20.272 69.788 20.272C69.886 20.272 69.984 20.342 70.628 20.874C70.908 21.112 70.978 21.21 70.978 21.294C70.978 21.392 70.936 21.434 70.796 21.434H60.044C59.722 21.434 59.484 21.462 59.134 21.518L58.98 20.986C59.4 21.056 59.68 21.084 60.044 21.084H64.174V17.024H60.73C60.408 17.024 60.17 17.038 59.82 17.108L59.68 16.576C60.086 16.646 60.352 16.674 60.73 16.674H64.174V14.364H62.886C62.592 14.364 62.354 14.378 62.004 14.448ZM62.256 20.37C61.99 20.37 61.808 20.23 61.71 19.74C61.57 18.956 61.304 18.27 60.856 17.752C60.814 17.696 60.898 17.612 60.968 17.64C62.046 18.158 62.83 18.998 62.83 19.642C62.83 20.076 62.592 20.37 62.256 20.37ZM66.246 20.608C66.176 20.664 66.036 20.538 66.092 20.468C66.54 19.922 66.988 19.138 67.282 18.494C67.464 18.102 67.604 17.738 67.66 17.472C68.836 18.018 68.976 18.116 68.976 18.256C68.976 18.41 68.85 18.466 68.43 18.508C67.814 19.362 67.1 19.992 66.246 20.608ZM74.716 20.552V21.322C74.716 21.63 74.492 21.798 74.044 21.798C73.708 21.798 73.596 21.658 73.596 21.392C73.596 20.944 73.666 19.418 73.666 15.54C73.666 13.482 73.652 12.978 73.582 12.376C74.954 12.53 75.206 12.614 75.206 12.81C75.206 12.936 75.136 13.034 74.716 13.216V20.202H78.412V12.516C78.412 11.13 78.398 10.304 78.328 9.786C79.812 9.94 79.994 10.066 79.994 10.234C79.994 10.346 79.868 10.472 79.476 10.654V20.202H83.34V15.022C83.34 13.454 83.34 12.936 83.27 12.39C84.628 12.544 84.894 12.614 84.894 12.824C84.894 12.95 84.796 13.062 84.418 13.216V15.456C84.418 19.096 84.474 20.818 84.474 21.336C84.474 21.644 84.25 21.798 83.816 21.798C83.466 21.798 83.34 21.686 83.34 21.364V20.552H74.716ZM97.592 14.812H95.94C96.192 16.562 96.612 17.696 97.27 18.648C97.928 19.614 98.684 20.23 99.636 20.776C99.678 20.804 99.65 20.902 99.594 20.916C99.23 21 99.062 21.182 98.88 21.672C98.824 21.812 98.768 21.84 98.67 21.84C98.614 21.84 98.516 21.77 98.362 21.63C97.62 20.958 97.102 20.16 96.626 19.236C96.178 18.27 95.8 16.912 95.618 14.812H94.288C94.232 16.618 94.092 17.57 93.84 18.494C93.434 19.992 92.748 21.182 91.698 22.12C91.642 22.162 91.516 22.064 91.558 22.008C92.272 20.986 92.664 19.936 92.944 18.718C93.224 17.458 93.322 15.89 93.322 13.272C93.322 11.158 93.308 10.5 93.238 9.66C93.742 9.884 93.966 9.996 94.442 10.276H97.494C97.914 9.828 97.984 9.786 98.068 9.786C98.166 9.786 98.236 9.828 98.698 10.22C98.894 10.402 98.95 10.472 98.95 10.556C98.95 10.668 98.88 10.766 98.586 10.962V12.362C98.586 14.182 98.642 14.91 98.642 15.176C98.642 15.512 98.446 15.638 98.012 15.638C97.718 15.638 97.592 15.54 97.592 15.274V14.812ZM97.592 14.462V10.626H94.33V12.082C94.33 13.006 94.316 13.79 94.302 14.462H97.592ZM88.212 16.73V16.856C88.212 17.108 88.03 17.248 87.666 17.248C87.372 17.248 87.26 17.15 87.26 16.912C87.26 16.576 87.33 15.68 87.33 12.516C87.33 11.004 87.316 10.612 87.246 9.674C87.708 9.856 87.89 9.954 88.31 10.206H91.11C91.586 9.618 91.656 9.576 91.74 9.576C91.852 9.576 91.922 9.618 92.454 10.094C92.636 10.262 92.706 10.346 92.706 10.43C92.706 10.514 92.636 10.556 92.496 10.556H90.396V12.25H91.026C91.376 11.732 91.488 11.676 91.558 11.676C91.656 11.676 91.74 11.732 92.174 12.138C92.314 12.278 92.384 12.39 92.384 12.46C92.384 12.544 92.342 12.6 92.202 12.6H90.396V14.266H90.984C91.376 13.776 91.474 13.706 91.558 13.706C91.642 13.706 91.726 13.776 92.16 14.168C92.3 14.294 92.37 14.406 92.37 14.476C92.37 14.574 92.328 14.616 92.188 14.616H90.396V16.38H91.194C91.544 15.946 91.628 15.89 91.712 15.89C91.796 15.89 91.88 15.946 92.3 16.324C92.496 16.506 92.552 16.59 92.552 16.674C92.552 16.758 92.496 16.828 92.174 17.024C92.062 18.844 91.894 19.978 91.6 20.762C91.46 21.126 91.278 21.42 91.04 21.616C90.76 21.84 90.438 21.952 90.13 21.952C89.962 21.952 89.892 21.896 89.85 21.686C89.78 21.294 89.682 21.21 88.716 20.888C88.646 20.86 88.66 20.706 88.73 20.72C89.514 20.818 89.878 20.846 90.2 20.846C90.536 20.846 90.676 20.692 90.858 20.034C91.096 19.166 91.194 18.27 91.292 16.73H88.212ZM88.212 16.38H89.514V14.616H88.212V16.38ZM88.212 14.266H89.514V12.6H88.212V14.266ZM88.212 12.25H89.514V10.556H88.212V12.25ZM90.536 18.844C90.382 18.844 90.326 18.76 90.242 18.522C90.116 18.116 89.892 17.766 89.57 17.472C89.528 17.43 89.584 17.36 89.64 17.374C90.354 17.556 90.83 17.962 90.83 18.382C90.83 18.648 90.704 18.844 90.536 18.844ZM86.728 20.65C86.49 20.65 86.322 20.426 86.322 20.146C86.322 19.964 86.378 19.824 86.56 19.656C86.98 19.264 87.232 18.746 87.274 17.962C87.274 17.906 87.414 17.906 87.428 17.962C87.484 18.298 87.512 18.606 87.512 18.9C87.512 19.922 87.204 20.65 86.728 20.65ZM88.366 20.062C88.198 20.062 88.058 20.006 88.086 19.628C88.1 19.418 88.114 19.166 88.114 18.914C88.1 18.634 88.058 18.298 87.96 17.962C87.946 17.906 88.03 17.864 88.072 17.906C88.562 18.438 88.8 18.97 88.8 19.446C88.8 19.768 88.604 20.062 88.366 20.062ZM89.514 19.572C89.346 19.572 89.304 19.488 89.262 19.138C89.192 18.606 89.066 18.256 88.786 17.738C88.758 17.682 88.842 17.626 88.884 17.654C89.542 18.13 89.92 18.606 89.92 18.998C89.92 19.32 89.724 19.572 89.514 19.572Z" fill="#0A0814"/>
<rect x="168.5" y="0.5" width="103" height="30" rx="15" stroke="#0A0814"/>
<path d="M199.028 11.928H200.82C200.82 10.374 200.806 9.968 200.75 9.212C202.094 9.366 202.276 9.422 202.276 9.632C202.276 9.772 202.192 9.87 201.8 10.024V11.928H203.746C204.18 11.438 204.25 11.396 204.348 11.396C204.446 11.396 204.516 11.438 204.964 11.816C205.16 11.998 205.202 12.082 205.202 12.18C205.202 12.292 205.132 12.39 204.824 12.572V13.986C204.824 16.45 204.894 17.752 204.894 18.144C204.894 18.452 204.698 18.592 204.292 18.592C203.97 18.592 203.858 18.48 203.858 18.2V17.836H201.814C201.828 20.062 201.856 21.182 201.856 21.644C201.856 21.994 201.674 22.162 201.24 22.162C200.876 22.162 200.75 22.064 200.75 21.714C200.75 21.294 200.778 20.258 200.806 17.836H198.902V18.102C198.902 18.424 198.72 18.55 198.342 18.55C198.02 18.55 197.88 18.438 197.88 18.2C197.88 17.724 197.95 16.898 197.95 14.266C197.95 12.852 197.936 12.124 197.88 11.326C198.356 11.564 198.566 11.662 199.028 11.928ZM198.902 17.486H200.806C200.82 16.506 200.82 15.26 200.82 14.952H198.902V17.486ZM201.814 17.486H203.858V14.952H201.8C201.8 15.792 201.8 16.646 201.814 17.486ZM201.8 12.278V14.602H203.858V12.278H201.8ZM200.82 12.278H198.902V14.602H200.82V12.278ZM195.458 15.162V15.288C196.732 15.708 197.488 16.394 197.488 16.982C197.488 17.304 197.278 17.542 197.026 17.542C196.816 17.542 196.718 17.43 196.536 17.038C196.228 16.394 195.962 15.96 195.458 15.568V18.158C195.458 20.314 195.5 21.238 195.5 21.686C195.5 22.008 195.276 22.162 194.898 22.162C194.562 22.162 194.422 22.036 194.422 21.742C194.422 21.49 194.478 20.58 194.506 17.99C194.506 17.36 194.52 16.744 194.534 16.1C193.89 16.66 193.19 17.15 192.406 17.556C192.322 17.598 192.196 17.43 192.28 17.374C193.918 16.1 195.36 14.238 196.13 12.348H193.722C193.33 12.348 193.05 12.362 192.728 12.446L192.588 11.9C192.98 11.97 193.288 11.998 193.722 11.998H194.506V10.472C194.506 10.066 194.478 9.716 194.408 9.212C195.752 9.366 195.962 9.478 195.962 9.632C195.962 9.758 195.836 9.87 195.472 10.024V11.998H196.102C196.466 11.606 196.536 11.55 196.62 11.55C196.718 11.55 196.788 11.606 197.25 12.054C197.46 12.278 197.516 12.362 197.516 12.46C197.516 12.586 197.39 12.656 197.026 12.754C196.606 13.636 196.088 14.448 195.458 15.162ZM209.458 17.822H211.726C211.922 17.178 212.062 16.52 212.132 15.848H210.396V15.946C210.396 16.31 210.228 16.45 209.808 16.45C209.472 16.45 209.36 16.338 209.36 16.016C209.36 15.778 209.402 15.414 209.402 14C209.402 13.3 209.402 12.964 209.346 12.418C209.85 12.628 210.06 12.74 210.564 13.02H215.394C215.828 12.558 215.898 12.516 215.982 12.516C216.094 12.516 216.192 12.544 216.64 12.936C216.85 13.118 216.892 13.202 216.892 13.286C216.892 13.398 216.822 13.468 216.514 13.678V14.182C216.514 15.274 216.556 15.722 216.556 15.862C216.556 16.142 216.346 16.296 215.954 16.296C215.618 16.296 215.506 16.184 215.506 15.848H213.364C213.028 16.534 212.636 17.206 212.188 17.822H216.444C216.878 17.332 216.948 17.29 217.032 17.29C217.13 17.29 217.228 17.304 217.704 17.738C217.928 17.934 217.97 18.018 217.97 18.102C217.97 18.228 217.9 18.298 217.578 18.494V19.25C217.578 20.678 217.634 21.322 217.634 21.532C217.634 21.868 217.41 22.022 217.004 22.022C216.654 22.022 216.542 21.91 216.542 21.588V21.294H209.332V21.602C209.332 21.98 209.178 22.134 208.744 22.134C208.408 22.134 208.268 21.994 208.268 21.7C208.268 21.434 208.324 20.986 208.324 19.39C208.324 18.424 208.324 17.906 208.254 17.22C208.772 17.43 208.996 17.542 209.458 17.822ZM215.506 15.498V13.37H210.396V15.498H215.506ZM216.542 20.944V18.172H209.332V20.944H216.542ZM217.648 11.494H208.576C208.576 12.614 208.058 13.384 207.414 13.384C207.078 13.384 206.84 13.146 206.84 12.81C206.84 12.544 206.952 12.376 207.232 12.222C207.918 11.83 208.212 11.382 208.268 10.514C208.268 10.43 208.45 10.43 208.464 10.514C208.52 10.738 208.548 10.948 208.562 11.144H212.398V10.262C212.398 9.982 212.398 9.744 212.328 9.226C213.784 9.38 213.952 9.492 213.952 9.646C213.952 9.772 213.84 9.884 213.462 10.052V11.144H217.494C217.9 10.64 217.998 10.584 218.096 10.584C218.208 10.584 218.32 10.668 218.908 11.214C219.216 11.494 219.244 11.592 219.244 11.69C219.244 11.886 219.146 11.956 218.698 11.956C218.544 11.956 218.46 11.998 218.362 12.096C218.054 12.432 217.76 12.684 217.312 12.992C217.256 13.034 217.158 12.964 217.186 12.894C217.368 12.516 217.522 12.012 217.648 11.494ZM225.502 18.144H222.758C222.772 20.132 222.786 20.986 222.786 21.616C222.786 21.924 222.59 22.064 222.184 22.064C221.848 22.064 221.722 21.952 221.722 21.686C221.722 21.028 221.778 19.964 221.778 16.954C221.778 14.882 221.778 13.944 221.736 12.992C222.226 13.174 222.436 13.286 222.87 13.538H225.404C225.824 13.09 225.894 13.034 225.978 13.034C226.076 13.034 226.16 13.09 226.594 13.44C226.79 13.622 226.846 13.706 226.846 13.79C226.846 13.888 226.776 13.958 226.482 14.154V15.974C226.482 19.908 226.524 20.44 226.524 20.888C226.524 21.308 226.384 21.56 226.146 21.742C225.964 21.882 225.698 21.966 225.418 21.966C225.278 21.966 225.236 21.91 225.208 21.728C225.138 21.35 224.998 21.154 223.962 20.916C223.892 20.902 223.892 20.734 223.962 20.734C224.634 20.776 225.012 20.804 225.306 20.804C225.446 20.804 225.502 20.734 225.502 20.552V18.144ZM222.758 15.988V17.794H225.502V15.988H222.758ZM225.502 15.638V13.888H222.758V15.638H225.502ZM228.33 11.732H231.284C231.928 11.018 232.04 10.962 232.124 10.962C232.208 10.962 232.32 11.018 232.964 11.536C233.258 11.774 233.328 11.858 233.328 11.942C233.328 12.04 233.286 12.082 233.146 12.082H221.96C221.61 12.082 221.344 12.096 220.952 12.18L220.812 11.634C221.26 11.704 221.554 11.732 221.946 11.732H227.868C228.204 11.144 228.456 10.556 228.652 10.094C228.792 9.758 228.862 9.52 228.918 9.24C229.898 9.576 230.402 9.814 230.402 9.954C230.402 10.136 230.234 10.206 229.786 10.22C229.212 10.906 228.918 11.228 228.33 11.732ZM225.11 11.564C224.844 11.564 224.718 11.438 224.62 11.06C224.466 10.43 224.172 9.828 223.822 9.45C223.78 9.394 223.864 9.296 223.934 9.324C225.054 9.688 225.712 10.318 225.712 10.92C225.712 11.27 225.432 11.564 225.11 11.564ZM229.282 14.238V15.428C229.282 17.528 229.31 18.592 229.31 18.914C229.31 19.25 229.1 19.39 228.68 19.39C228.33 19.39 228.232 19.306 228.232 18.97C228.232 18.662 228.288 17.626 228.288 15.33C228.288 14.308 228.274 13.972 228.218 13.454C229.534 13.622 229.758 13.692 229.758 13.874C229.758 13.986 229.646 14.084 229.282 14.238ZM232.068 13.832V17.108C232.068 19.096 232.124 20.188 232.124 20.832C232.124 21.182 231.97 21.462 231.774 21.644C231.536 21.854 231.27 21.966 230.892 21.966C230.668 21.966 230.64 21.924 230.584 21.672C230.514 21.322 230.318 21.126 229.17 20.874C229.1 20.86 229.1 20.692 229.17 20.692C229.912 20.748 230.43 20.776 230.766 20.776C231.004 20.776 231.06 20.72 231.06 20.524V14.924C231.06 13.762 231.06 13.552 230.99 13.034C232.39 13.188 232.544 13.244 232.544 13.454C232.544 13.58 232.446 13.678 232.068 13.832ZM245.592 14.812H243.94C244.192 16.562 244.612 17.696 245.27 18.648C245.928 19.614 246.684 20.23 247.636 20.776C247.678 20.804 247.65 20.902 247.594 20.916C247.23 21 247.062 21.182 246.88 21.672C246.824 21.812 246.768 21.84 246.67 21.84C246.614 21.84 246.516 21.77 246.362 21.63C245.62 20.958 245.102 20.16 244.626 19.236C244.178 18.27 243.8 16.912 243.618 14.812H242.288C242.232 16.618 242.092 17.57 241.84 18.494C241.434 19.992 240.748 21.182 239.698 22.12C239.642 22.162 239.516 22.064 239.558 22.008C240.272 20.986 240.664 19.936 240.944 18.718C241.224 17.458 241.322 15.89 241.322 13.272C241.322 11.158 241.308 10.5 241.238 9.66C241.742 9.884 241.966 9.996 242.442 10.276H245.494C245.914 9.828 245.984 9.786 246.068 9.786C246.166 9.786 246.236 9.828 246.698 10.22C246.894 10.402 246.95 10.472 246.95 10.556C246.95 10.668 246.88 10.766 246.586 10.962V12.362C246.586 14.182 246.642 14.91 246.642 15.176C246.642 15.512 246.446 15.638 246.012 15.638C245.718 15.638 245.592 15.54 245.592 15.274V14.812ZM245.592 14.462V10.626H242.33V12.082C242.33 13.006 242.316 13.79 242.302 14.462H245.592ZM236.212 16.73V16.856C236.212 17.108 236.03 17.248 235.666 17.248C235.372 17.248 235.26 17.15 235.26 16.912C235.26 16.576 235.33 15.68 235.33 12.516C235.33 11.004 235.316 10.612 235.246 9.674C235.708 9.856 235.89 9.954 236.31 10.206H239.11C239.586 9.618 239.656 9.576 239.74 9.576C239.852 9.576 239.922 9.618 240.454 10.094C240.636 10.262 240.706 10.346 240.706 10.43C240.706 10.514 240.636 10.556 240.496 10.556H238.396V12.25H239.026C239.376 11.732 239.488 11.676 239.558 11.676C239.656 11.676 239.74 11.732 240.174 12.138C240.314 12.278 240.384 12.39 240.384 12.46C240.384 12.544 240.342 12.6 240.202 12.6H238.396V14.266H238.984C239.376 13.776 239.474 13.706 239.558 13.706C239.642 13.706 239.726 13.776 240.16 14.168C240.3 14.294 240.37 14.406 240.37 14.476C240.37 14.574 240.328 14.616 240.188 14.616H238.396V16.38H239.194C239.544 15.946 239.628 15.89 239.712 15.89C239.796 15.89 239.88 15.946 240.3 16.324C240.496 16.506 240.552 16.59 240.552 16.674C240.552 16.758 240.496 16.828 240.174 17.024C240.062 18.844 239.894 19.978 239.6 20.762C239.46 21.126 239.278 21.42 239.04 21.616C238.76 21.84 238.438 21.952 238.13 21.952C237.962 21.952 237.892 21.896 237.85 21.686C237.78 21.294 237.682 21.21 236.716 20.888C236.646 20.86 236.66 20.706 236.73 20.72C237.514 20.818 237.878 20.846 238.2 20.846C238.536 20.846 238.676 20.692 238.858 20.034C239.096 19.166 239.194 18.27 239.292 16.73H236.212ZM236.212 16.38H237.514V14.616H236.212V16.38ZM236.212 14.266H237.514V12.6H236.212V14.266ZM236.212 12.25H237.514V10.556H236.212V12.25ZM238.536 18.844C238.382 18.844 238.326 18.76 238.242 18.522C238.116 18.116 237.892 17.766 237.57 17.472C237.528 17.43 237.584 17.36 237.64 17.374C238.354 17.556 238.83 17.962 238.83 18.382C238.83 18.648 238.704 18.844 238.536 18.844ZM234.728 20.65C234.49 20.65 234.322 20.426 234.322 20.146C234.322 19.964 234.378 19.824 234.56 19.656C234.98 19.264 235.232 18.746 235.274 17.962C235.274 17.906 235.414 17.906 235.428 17.962C235.484 18.298 235.512 18.606 235.512 18.9C235.512 19.922 235.204 20.65 234.728 20.65ZM236.366 20.062C236.198 20.062 236.058 20.006 236.086 19.628C236.1 19.418 236.114 19.166 236.114 18.914C236.1 18.634 236.058 18.298 235.96 17.962C235.946 17.906 236.03 17.864 236.072 17.906C236.562 18.438 236.8 18.97 236.8 19.446C236.8 19.768 236.604 20.062 236.366 20.062ZM237.514 19.572C237.346 19.572 237.304 19.488 237.262 19.138C237.192 18.606 237.066 18.256 236.786 17.738C236.758 17.682 236.842 17.626 236.884 17.654C237.542 18.13 237.92 18.606 237.92 18.998C237.92 19.32 237.724 19.572 237.514 19.572Z" fill="#0A0814"/>
</svg>
