<svg width="386" height="40" viewBox="0 0 386 40" fill="none" xmlns="http://www.w3.org/2000/svg">
<rect width="386" height="40" rx="20" fill="#0A0814"/>
<path d="M151.942 17.914V20.506C151.942 24.772 151.96 26.752 151.96 27.364C151.96 27.796 151.708 27.994 151.186 27.994C150.826 27.994 150.574 27.832 150.574 27.436C150.574 27.058 150.646 25.78 150.664 21.586C150.682 20.452 150.682 19.336 150.7 18.202C150.07 19.012 149.368 19.786 148.558 20.524C148.468 20.614 148.27 20.416 148.342 20.326C149.764 18.58 151.042 16.024 151.726 13.774C151.978 12.964 152.14 12.208 152.23 11.506C153.796 11.974 154.228 12.19 154.228 12.37C154.228 12.55 154.048 12.658 153.544 12.73C152.932 14.404 152.284 15.808 151.474 17.068C152.338 17.212 152.482 17.284 152.482 17.464C152.482 17.608 152.392 17.716 151.942 17.914ZM156.046 23.296H157.9C157.936 21.892 157.954 20.488 157.99 17.716C156.64 20.434 155.002 22.432 152.518 24.124C152.41 24.196 152.212 23.998 152.302 23.908C154.516 21.82 156.208 19.174 157.198 16.348H154.372C153.94 16.348 153.652 16.384 153.184 16.456L153.004 15.772C153.544 15.88 153.868 15.898 154.336 15.898H157.918V14.008C157.918 12.766 157.9 12.334 157.81 11.578C159.484 11.758 159.844 11.884 159.844 12.118C159.844 12.28 159.718 12.406 159.196 12.64V15.898H162.67C163.462 14.944 163.588 14.854 163.696 14.854C163.84 14.854 163.93 14.908 164.704 15.592C165.064 15.916 165.208 16.078 165.208 16.186C165.208 16.294 165.136 16.348 164.956 16.348H159.376C160.042 18.022 161.032 19.336 162.274 20.506C163.354 21.532 164.506 22.234 165.64 22.738C165.73 22.774 165.658 22.918 165.568 22.936C165.19 23.008 164.974 23.242 164.758 23.764C164.668 24.034 164.596 24.088 164.434 24.088C164.326 24.088 164.128 23.98 163.858 23.782C162.868 23.098 162.022 22.126 161.32 21.154C160.492 19.966 159.7 18.436 159.16 16.618C159.178 18.832 159.214 21.064 159.25 23.296H160.456C161.068 22.54 161.212 22.45 161.32 22.45C161.428 22.45 161.554 22.54 162.238 23.116C162.526 23.35 162.598 23.476 162.598 23.584C162.598 23.692 162.544 23.746 162.364 23.746H159.25C159.286 25.51 159.304 26.95 159.304 27.364C159.304 27.76 159.052 27.94 158.458 27.94C158.026 27.94 157.846 27.778 157.846 27.472C157.846 27.004 157.864 25.528 157.9 23.746H156.082C155.704 23.746 155.416 23.782 154.948 23.854L154.768 23.17C155.272 23.278 155.596 23.296 156.046 23.296ZM179.572 21.874V25.852C179.572 26.32 179.734 26.446 180.598 26.446C181.462 26.446 181.804 26.41 182.038 26.086C182.308 25.762 182.506 25.06 182.812 23.89C182.83 23.818 182.992 23.836 182.992 23.908C182.974 24.448 182.956 25.114 182.956 25.492C182.956 25.888 183.01 25.924 183.226 26.014C183.388 26.086 183.496 26.302 183.496 26.554C183.496 26.914 183.226 27.22 182.74 27.364C182.308 27.508 181.642 27.616 180.454 27.616C178.726 27.616 178.258 27.166 178.258 26.176C178.258 25.744 178.312 25.204 178.312 24.466V21.874H175.072V22.108C175.072 22.504 174.802 22.702 174.28 22.702C173.866 22.702 173.704 22.54 173.704 22.198C173.704 21.478 173.794 20.434 173.794 16.132C173.794 13.936 173.776 12.874 173.65 11.83C174.298 12.082 174.568 12.19 175.18 12.55H180.382C180.958 11.956 181.048 11.902 181.156 11.902C181.282 11.902 181.39 11.956 181.966 12.424C182.254 12.676 182.326 12.766 182.326 12.874C182.326 13.054 182.2 13.144 181.804 13.432V15.808C181.804 19.732 181.876 21.496 181.876 22.054C181.876 22.45 181.606 22.666 181.12 22.666C180.688 22.666 180.508 22.522 180.508 22.144V21.874H179.572ZM175.072 15.934V18.418H180.508V15.934H175.072ZM180.508 15.484V13H175.072V15.484H180.508ZM175.072 18.868V21.424H180.508V18.868H175.072ZM170.59 18.166V22.702C171.418 22.414 172.228 22.09 172.912 21.766C173.002 21.712 173.128 21.892 173.038 21.964C171.562 23.098 170.032 23.962 168.016 24.826C167.944 25.366 167.854 25.546 167.692 25.546C167.458 25.546 167.296 25.258 166.774 23.62C167.188 23.584 167.62 23.512 168.106 23.422C168.502 23.332 168.916 23.224 169.33 23.098V18.166H168.34C167.998 18.166 167.728 18.202 167.278 18.274L167.098 17.59C167.584 17.698 167.908 17.716 168.322 17.716H169.33V13.414H168.142C167.764 13.414 167.494 13.432 167.044 13.522L166.864 12.838C167.368 12.928 167.656 12.964 168.106 12.964H171.022C171.67 12.19 171.796 12.1 171.904 12.1C172.03 12.1 172.156 12.19 172.858 12.748C173.164 13 173.254 13.108 173.254 13.216C173.254 13.342 173.2 13.414 173.002 13.414H170.59V17.716H171.184C171.724 17.032 171.85 16.942 171.958 16.942C172.084 16.942 172.192 17.032 172.804 17.536C173.038 17.752 173.146 17.878 173.146 17.986C173.146 18.112 173.074 18.166 172.894 18.166H170.59ZM170.41 27.922C170.302 27.94 170.23 27.706 170.338 27.67C172.714 26.896 174.28 25.672 175.072 24.232C175.396 23.638 175.558 22.972 175.594 22.252C177.016 22.504 177.394 22.648 177.394 22.882C177.394 23.062 177.286 23.134 176.8 23.296C176.098 25.816 174.1 27.31 170.41 27.922ZM199.21 17.968H186.844C186.862 19.372 186.322 20.47 185.458 20.47C185.044 20.47 184.738 20.128 184.738 19.678C184.738 19.372 184.864 19.192 185.224 18.958C185.998 18.454 186.43 17.752 186.484 16.726C186.484 16.636 186.682 16.618 186.7 16.708C186.772 16.978 186.808 17.248 186.826 17.518H194.26C194.656 16.798 195.034 16.096 195.25 15.502C195.412 15.088 195.52 14.728 195.592 14.386C196.942 14.872 197.374 15.106 197.374 15.304C197.374 15.538 197.158 15.628 196.672 15.628C196.096 16.312 195.412 16.978 194.746 17.518H199.012C199.57 16.888 199.678 16.834 199.786 16.834C199.912 16.834 200.02 16.888 200.776 17.608C201.136 17.95 201.208 18.058 201.208 18.184C201.208 18.418 201.028 18.526 200.596 18.526C200.326 18.526 200.182 18.58 199.912 18.85C199.552 19.21 199.174 19.552 198.706 19.894C198.652 19.93 198.526 19.858 198.562 19.786C198.832 19.228 199.084 18.544 199.21 17.968ZM193.432 20.632H196.942C197.518 20.002 197.608 19.93 197.716 19.93C197.842 19.93 197.932 20.002 198.544 20.524C198.814 20.758 198.868 20.866 198.868 20.974C198.868 21.118 198.814 21.208 198.382 21.478V22.36C198.382 23.656 198.4 24.358 198.4 25.06C198.4 25.654 198.166 26.014 197.824 26.23C197.59 26.374 197.248 26.464 196.906 26.464C196.69 26.464 196.618 26.41 196.582 26.158C196.528 25.708 196.168 25.42 195.052 25.204C194.944 25.186 194.944 24.952 195.052 24.952C195.916 25.024 196.402 25.042 196.87 25.042C197.014 25.042 197.086 24.952 197.086 24.772V21.082H193.432V21.568C193.432 25.222 193.504 26.914 193.504 27.454C193.504 27.886 193.234 28.048 192.676 28.048C192.262 28.048 192.1 27.922 192.1 27.526C192.1 27.022 192.172 25.456 192.172 21.496V21.082H188.86V22.774C188.86 24.574 188.878 25.258 188.878 25.726C188.878 26.212 188.626 26.392 188.086 26.392C187.636 26.392 187.492 26.266 187.492 25.852C187.492 25.456 187.546 24.862 187.546 23.098C187.546 21.568 187.546 20.722 187.474 19.804C188.14 20.11 188.536 20.308 189.004 20.632H192.172C192.172 19.48 192.154 19.012 192.082 18.4C193.882 18.598 194.026 18.652 194.026 18.904C194.026 19.048 193.936 19.156 193.432 19.39V20.632ZM193.504 13.756H198.022C198.904 12.784 199.03 12.712 199.138 12.712C199.264 12.712 199.39 12.784 200.218 13.504C200.578 13.81 200.668 13.936 200.668 14.044C200.668 14.152 200.614 14.206 200.434 14.206H186.862C186.412 14.206 186.088 14.242 185.566 14.314L185.386 13.612C185.98 13.72 186.34 13.756 186.826 13.756H192.172V12.604C192.172 12.298 192.154 12.01 192.082 11.38C193.9 11.578 194.116 11.722 194.116 11.92C194.116 12.064 193.972 12.19 193.504 12.388V13.756ZM190.516 17.356C190.138 17.356 189.994 17.176 189.904 16.492C189.796 15.754 189.508 15.07 189.022 14.512C188.968 14.458 189.076 14.386 189.148 14.404C190.48 14.89 191.254 15.736 191.254 16.51C191.254 16.996 190.912 17.356 190.516 17.356ZM210.1 18.958V15.664H207.4C207.022 15.664 206.698 15.682 206.23 15.772L206.05 15.088C206.572 15.196 206.932 15.214 207.382 15.214H213.754C214.384 14.44 214.528 14.35 214.636 14.35C214.744 14.35 214.888 14.44 215.626 15.016C215.932 15.286 216.022 15.394 216.022 15.502C216.022 15.61 215.968 15.664 215.788 15.664H211.378V18.958H213.304C213.898 18.184 214.024 18.094 214.132 18.094C214.258 18.094 214.384 18.184 215.086 18.742C215.374 19.012 215.482 19.138 215.482 19.246C215.482 19.354 215.41 19.408 215.23 19.408H211.378V23.566H214.204C214.798 22.774 214.924 22.702 215.032 22.702C215.158 22.702 215.284 22.774 216.004 23.368C216.292 23.62 216.382 23.746 216.382 23.854C216.382 23.962 216.328 24.016 216.148 24.016H207.04C206.68 24.016 206.356 24.052 205.906 24.142L205.726 23.458C206.23 23.548 206.59 23.566 207.04 23.566H210.1V19.408H207.778C207.436 19.408 207.112 19.444 206.698 19.516L206.5 18.832C206.986 18.922 207.31 18.958 207.742 18.958H210.1ZM214.078 22.54C213.808 22.54 213.682 22.414 213.52 21.982C213.25 21.298 212.926 20.794 212.386 20.308C212.332 20.254 212.404 20.164 212.476 20.182C213.934 20.524 214.672 21.136 214.672 21.82C214.672 22.216 214.42 22.54 214.078 22.54ZM204.97 26.572V27.094C204.97 27.49 204.7 27.67 204.142 27.67C203.746 27.67 203.584 27.526 203.584 27.202C203.584 26.248 203.674 24.88 203.674 18.508C203.674 15.016 203.674 13.324 203.584 11.812C204.25 12.082 204.538 12.208 205.186 12.604H216.832C217.444 11.938 217.534 11.884 217.642 11.884C217.768 11.884 217.876 11.938 218.488 12.496C218.758 12.73 218.812 12.838 218.812 12.946C218.812 13.09 218.722 13.216 218.308 13.486V17.356C218.308 23.548 218.416 26.194 218.416 27.022C218.416 27.454 218.128 27.634 217.57 27.634C217.156 27.634 216.994 27.49 216.994 27.148V26.572H204.97ZM216.994 26.122V13.054H204.97V26.122H216.994ZM222.106 25.924V20.416C222.106 18.67 222.106 17.302 222.016 16.024C221.62 16.312 221.188 16.6 220.72 16.87C220.612 16.942 220.486 16.726 220.576 16.636C221.8 15.574 222.754 14.26 223.42 13.126C223.78 12.496 224.032 11.902 224.158 11.38C225.526 11.938 225.958 12.154 225.958 12.298C225.958 12.46 225.796 12.514 225.31 12.568C227.02 13.252 227.794 13.882 227.794 14.602C227.794 14.962 227.542 15.304 227.254 15.304C226.966 15.304 226.876 15.25 226.57 14.584C226.174 13.846 225.778 13.342 225.112 12.784C224.284 13.99 223.294 15.088 222.106 15.952C222.628 16.168 222.88 16.294 223.402 16.582H224.32V15.574C224.32 15.196 224.302 14.926 224.248 14.44C225.832 14.584 226.012 14.728 226.012 14.89C226.012 14.998 225.904 15.142 225.49 15.322V16.582H226.246C226.696 16.096 226.804 16.024 226.912 16.024C227.038 16.024 227.164 16.096 227.668 16.492C227.902 16.69 227.974 16.798 227.974 16.906C227.974 17.032 227.92 17.122 227.542 17.374V18.472C227.542 20.776 227.596 21.712 227.596 22C227.596 22.414 227.398 22.576 226.876 22.576C226.462 22.576 226.354 22.45 226.354 22.072V21.856H223.276V25.726C224.266 25.51 225.22 25.222 226.174 24.898C225.868 24.25 225.49 23.728 224.95 23.152C224.896 23.098 224.986 23.008 225.058 23.026C226.714 23.62 227.92 24.916 227.92 25.978C227.92 26.536 227.632 26.932 227.218 26.932C226.912 26.932 226.786 26.77 226.66 26.248C226.57 25.906 226.462 25.582 226.354 25.294C224.878 26.158 224.032 26.536 222.052 27.256C221.962 27.742 221.854 27.922 221.692 27.922C221.512 27.922 221.386 27.688 220.882 26.086C221.35 26.05 221.746 25.996 222.106 25.924ZM226.354 18.94V17.032H223.276V18.94H226.354ZM223.276 19.39V21.406H226.354V19.39H223.276ZM230.692 22.432H234.886C235.444 21.802 235.534 21.748 235.642 21.748C235.768 21.748 235.876 21.784 236.434 22.252C236.722 22.504 236.776 22.63 236.776 22.738C236.776 22.846 236.74 22.918 236.326 23.224V24.232C236.326 26.266 236.38 27.076 236.38 27.328C236.38 27.742 236.11 27.958 235.606 27.958C235.174 27.958 235.048 27.796 235.048 27.382V26.734H230.692V27.472C230.692 27.94 230.422 28.12 229.918 28.12C229.504 28.12 229.342 27.958 229.342 27.598C229.342 26.734 229.432 25.474 229.432 19.786C229.432 18.112 229.432 17.032 229.36 15.898C229.162 16.186 228.892 16.33 228.604 16.33C228.19 16.33 227.92 16.06 227.92 15.664C227.92 15.304 228.046 15.142 228.406 14.926C229.018 14.548 229.324 13.99 229.396 13.144C229.396 13.072 229.576 13.072 229.594 13.144C229.666 13.414 229.702 13.684 229.738 13.918H232.006V12.748C232.006 12.352 231.988 12.028 231.916 11.452C233.644 11.632 233.842 11.758 233.842 11.938C233.842 12.082 233.716 12.19 233.284 12.406V13.918H235.552C236.092 13.324 236.182 13.234 236.29 13.234C236.434 13.234 236.578 13.342 237.19 13.9C237.514 14.206 237.586 14.296 237.586 14.422C237.586 14.638 237.406 14.746 237.01 14.764C236.866 14.764 236.758 14.854 236.542 15.034C236.236 15.322 236.002 15.52 235.48 15.88C235.426 15.916 235.39 15.934 235.354 15.934C235.462 16.006 235.606 16.096 235.786 16.24C236.074 16.456 236.128 16.582 236.128 16.69C236.128 16.798 236.074 16.888 235.678 17.158V17.878C235.678 19.39 235.714 20.056 235.714 20.272C235.714 20.704 235.48 20.884 234.994 20.884C234.58 20.884 234.436 20.74 234.436 20.326V20.092H230.692V22.432ZM230.692 22.882V26.284H235.048V22.882H230.692ZM235.714 14.368H229.756C229.774 14.8 229.702 15.25 229.522 15.664C230.062 15.916 230.386 16.096 230.818 16.366H234.31C234.814 15.844 234.904 15.772 235.012 15.772C235.066 15.772 235.138 15.79 235.246 15.862C235.246 15.826 235.246 15.808 235.264 15.754C235.462 15.286 235.606 14.836 235.714 14.368ZM234.436 19.642V16.816H230.692V19.642H234.436Z" fill="#F5F4F9"/>
</svg>
