<svg width="99" height="29" viewBox="0 0 99 29" fill="none" xmlns="http://www.w3.org/2000/svg">
<path d="M27.0359 27.6839V27.7199C27.0359 28.2239 26.3879 28.5479 25.8119 28.5479C25.3799 28.5479 24.9839 28.3319 24.9839 27.8639V27.8279L25.0559 26.1719H17.1719L17.2079 27.7559C17.2079 28.3319 16.5959 28.6559 16.0559 28.6559C15.6239 28.6559 15.2279 28.4399 15.2279 27.9359V27.8279C15.4439 25.9559 15.5159 23.7239 15.5159 21.7439C15.5159 19.2599 15.4079 17.0279 15.1919 15.4439C15.1919 15.1559 15.2999 15.1559 15.2999 15.1559C15.6599 15.1559 16.9199 15.9119 17.4959 16.2719H24.2279C24.7679 16.2719 24.8399 16.0199 25.1279 15.7319C25.3799 15.4799 25.5599 15.2999 25.8119 15.2999C25.9199 15.2999 26.0279 15.3359 26.1719 15.4079C26.4959 15.5159 28.1879 16.3799 28.1879 16.9919C28.1879 17.2439 27.9359 17.4959 27.3239 17.7839C26.8199 18.0719 26.7839 18.1439 26.7839 19.9799C26.7839 22.1759 26.9279 25.7039 27.0359 27.6839ZM32.1839 13.4639H18.5039C16.3799 13.4639 13.4639 13.6799 12.3119 13.8599C11.6999 13.9319 10.4399 12.2759 10.4399 11.8439C10.4399 11.7719 10.4759 11.7359 10.5479 11.7359H10.5839C11.6639 11.8799 15.0479 12.0959 17.6039 12.1679C17.6039 10.8719 17.6399 9.14395 17.6399 7.48795C16.3799 7.55995 15.3719 7.70395 14.3999 7.84795C13.7879 7.91995 12.5639 6.37195 12.5639 5.90395C12.5639 5.79595 12.6359 5.75995 12.7079 5.75995H12.7439C13.7519 5.90395 15.9479 6.11995 17.6039 6.19195C17.6039 4.96795 17.5679 1.87195 17.2799 0.755948C17.2079 0.539948 17.1719 0.359949 17.1719 0.251948C17.1719 0.107948 17.2439 0.0719481 17.5319 0.0719481C18.2519 0.0719481 20.6999 0.287947 20.6999 1.00795C20.6999 1.33195 20.3039 1.61995 19.7999 1.83595C19.4759 1.97995 19.3679 2.23195 19.3679 2.59195C19.2959 3.34795 19.2959 4.67995 19.2959 6.19195H22.8959C22.8959 4.96795 22.8599 1.87195 22.5719 0.755948C22.4999 0.503949 22.4639 0.359949 22.4639 0.251948C22.4639 0.107948 22.5359 0.0719481 22.7879 0.0719481C22.8599 0.0719481 25.9559 0.215948 25.9559 1.00795C25.9559 1.29595 25.5599 1.61995 25.0559 1.83595C24.7679 1.97995 24.6599 2.23195 24.6599 2.59195C24.5879 3.34795 24.5879 4.67995 24.5879 6.19195H25.3439C25.9919 6.19195 26.1719 6.04795 26.4599 5.68795C26.7839 5.36395 27.2519 4.78795 27.5399 4.57195C27.7199 4.42795 27.8639 4.35595 28.0079 4.35595C28.7639 4.35595 30.5999 6.08395 30.5999 6.94795C30.5999 7.27195 30.3479 7.48795 29.7359 7.48795H24.5879C24.5879 9.14395 24.6239 10.8719 24.6599 12.1679H27.5399C28.1879 12.1679 28.3679 11.9879 28.6559 11.6639C28.9799 11.3399 29.6279 10.6199 29.8799 10.4039C30.0599 10.2599 30.2039 10.1879 30.3839 10.1879C31.6079 10.1879 33.0479 12.3479 33.0479 12.9239C33.0479 13.2479 32.7959 13.4639 32.1839 13.4639ZM6.98394 27.7559V27.6119C7.27194 24.6239 7.73994 15.5879 7.73994 10.8359V9.50395C4.57194 14.1119 1.29594 16.9559 0.791939 16.9559C0.395939 16.9559 -6.05136e-05 16.5599 -6.05136e-05 16.1999C-6.05136e-05 16.0919 0.0359395 15.9839 0.14394 15.9119C5.50794 11.3039 9.79194 2.84395 10.3319 0.323947C10.3679 0.0719481 10.4039 -5.10216e-05 10.5839 -5.10216e-05C10.6199 -5.10216e-05 10.6919 -5.10216e-05 10.7999 0.0359485C11.4479 0.215948 13.5359 1.15195 13.5359 1.94395C13.5359 2.30395 13.1039 2.55595 12.4199 2.55595H12.3479C11.9159 2.55595 11.7719 2.80795 11.5559 3.16795C10.9079 4.31995 10.1519 5.68795 9.28794 7.09195C10.5479 7.41595 10.5479 7.81195 10.5479 7.84795C10.5479 7.99195 10.4039 8.20795 9.89994 8.49595C9.64794 8.60395 9.53994 8.89195 9.50394 9.39595C9.35994 12.7439 9.32394 23.2559 9.21594 27.5399C9.17994 28.2239 8.49594 28.6559 7.88394 28.6559C7.41594 28.6559 6.98394 28.4039 6.98394 27.7559ZM25.0919 24.7679V21.7079H17.0999C17.1359 22.6799 17.1359 23.7239 17.1359 24.7679H25.0919ZM25.0919 20.3399V18.1079C25.0919 17.8919 25.0199 17.6039 24.5519 17.6039H17.7119L17.4959 17.7839C17.2439 17.9639 17.0999 18.1439 17.0999 18.3599V20.3399H25.0919ZM22.8959 8.96395V7.48795H19.2959C19.2959 9.14395 19.3319 10.8719 19.3679 12.1679H22.8599C22.8959 11.2679 22.8959 10.1159 22.8959 8.96395ZM50.6159 5.65195C49.2839 7.63195 48.3839 10.2959 48.3839 12.0239C48.3839 13.3199 48.8879 13.6799 48.8879 13.6799C48.9599 13.6799 48.9959 13.6079 49.0319 13.4639C49.5359 10.9799 50.7599 7.66795 51.5159 6.44395C52.4879 4.93195 53.6399 4.28395 54.7919 4.28395C57.8519 4.28395 60.0479 8.92795 60.0479 13.4639C60.0479 22.8239 51.2279 28.0439 48.8519 28.0439C48.3119 28.0439 48.0239 27.7919 48.0239 27.4319C48.0239 26.8919 48.6719 26.1719 49.7159 25.9919C52.6319 25.5239 58.1039 20.2319 58.1039 13.3919C58.1039 9.57595 56.4479 5.68795 54.4319 5.68795C51.5519 5.68795 50.3279 14.1479 50.3279 14.7959C50.3279 15.2999 50.4359 15.7319 50.5439 16.1279C50.5799 16.3439 50.6159 16.5599 50.6159 16.7399C50.6159 17.7479 49.6799 17.7479 49.6439 17.7479C48.5639 17.7479 47.0159 15.3359 47.0159 12.5639C47.0159 10.2599 47.8439 7.81195 48.7439 5.68795C48.8159 5.54395 48.9239 5.36395 48.9599 5.21995C49.0679 4.93195 49.1399 4.67995 49.1399 4.39195C49.1399 3.52795 48.2759 2.84395 48.0959 2.73595C47.8079 2.55595 47.6639 2.33995 47.6639 2.12395C47.6639 1.97995 47.7359 1.83595 47.8799 1.72795C48.0239 1.58395 48.2759 1.47595 48.5279 1.47595C49.4639 1.47595 51.1559 2.95195 51.1559 4.24795C51.1559 4.46395 51.1199 4.78795 50.6159 5.65195ZM92.4021 7.19995L91.8981 7.63195C90.9981 8.42395 84.5901 14.2919 84.5901 14.6159V14.6519C84.5901 14.6519 84.6621 14.6519 84.7701 14.5799C85.9941 13.6439 88.2621 12.8519 90.6021 12.8519C94.2741 12.8519 98.0901 15.2639 98.0901 19.0799C98.0901 23.8679 92.9061 27.1079 87.8301 27.1079C82.8261 27.1079 81.3861 24.9839 81.3861 23.3639C81.3861 21.7799 82.6821 20.5199 84.5181 20.5199C87.0741 20.5199 88.1901 22.5359 88.1901 24.3719C88.1901 24.8399 88.1181 25.3079 88.0101 25.6679C92.6181 25.4879 96.1101 22.2839 96.1101 19.1519C96.1101 16.7039 94.1301 14.2919 90.3141 14.2919C86.4981 14.2919 82.8261 16.5959 81.3501 18.8999C80.5581 20.1239 79.8021 20.5919 79.1901 20.5919C78.2181 20.5919 78.1821 19.6559 78.1821 19.4399C78.1821 18.7919 78.5781 18.0359 79.5141 17.5319C79.9101 17.3159 81.6381 16.4159 90.6021 6.55195C90.6381 6.51595 90.6741 6.47995 90.6741 6.44395C90.6741 6.40795 90.6381 6.37195 90.6021 6.37195C90.5661 6.37195 90.4941 6.37195 90.4221 6.40795C89.1981 6.80395 84.1941 8.17195 83.3661 8.17195C81.9621 8.17195 81.0261 7.01995 81.0261 5.86795C81.0261 4.96795 81.5301 4.93195 81.6741 4.93195C81.9981 4.93195 82.3581 5.11195 83.1141 5.72395C83.4741 6.01195 83.9421 6.26395 84.5181 6.26395C86.1021 6.26395 90.0981 5.25595 90.6741 4.78795C90.9621 4.49995 91.2141 4.39195 91.4661 4.39195H91.5741C91.7181 4.39195 91.8621 4.39195 92.0061 4.46395C92.9421 4.67995 93.9141 5.18395 93.9141 5.79595C93.9141 6.19195 93.5181 6.55195 92.9421 6.83995C92.7981 6.91195 92.5821 7.05595 92.4021 7.19995ZM86.0301 25.5599C86.2461 25.1639 86.3541 24.6599 86.3541 24.1919C86.3541 22.9679 85.7421 21.9239 84.3381 21.9239C83.5101 21.9239 82.8261 22.5359 82.8261 23.3639C82.8261 25.0559 85.7781 25.5599 86.0301 25.5599Z" fill="#0A0814"/>
</svg>
