<svg width="239" height="32" viewBox="0 0 239 32" fill="none" xmlns="http://www.w3.org/2000/svg">
<path d="M27.6839 28.2961H10.9439C8.2079 28.2961 3.8159 28.6201 2.2679 28.8001C1.5479 28.8361 -9.76026e-05 27.1081 -9.76026e-05 26.5321C-9.76026e-05 26.4241 0.0719025 26.3521 0.179902 26.3521H0.215903C1.8719 26.5681 8.0639 26.9281 11.2679 26.9281H12.9599C13.0679 22.8961 13.1039 18.7561 13.1039 14.9401C13.1039 6.15607 12.9959 3.88806 12.6719 2.73606C12.5999 2.52007 12.5639 2.34007 12.5639 2.23206C12.5639 2.05206 12.6719 1.98007 13.0679 1.98007C13.2119 1.98007 16.5959 2.12407 16.5959 3.02407C16.5959 3.31207 16.2359 3.67207 15.6239 3.88806C15.0839 4.06806 15.0839 4.96807 14.9759 13.7881H20.1959C20.8439 13.7881 21.0599 13.6081 21.3839 13.2121C21.6719 12.8521 22.3559 11.9881 22.6439 11.7721C22.8239 11.5921 22.9679 11.5201 23.1479 11.5201C24.2279 11.5201 26.1719 13.6801 26.1719 14.6161C26.1719 14.9761 25.9199 15.1921 25.2719 15.1921H14.9759V18.5401C14.9759 21.2761 14.9759 24.0841 15.0119 26.9281H22.1759C22.9319 26.9281 23.1479 26.7481 23.5439 26.3521C24.9119 24.6601 25.1999 24.5881 25.4879 24.5881C26.4239 24.5881 28.7279 26.8561 28.7279 27.7201C28.7279 28.0801 28.4399 28.2961 27.6839 28.2961ZM59.2559 24.8401V24.7681C59.2919 24.3361 59.2919 23.9041 59.2919 23.4001H49.3919C49.3919 24.0121 49.3919 24.5881 49.4279 25.1641C49.4279 25.7041 48.8159 26.0281 48.2759 26.0281C47.8439 26.0281 47.4479 25.8481 47.4479 25.3441V25.2361C47.6279 23.2921 47.7359 20.8801 47.7359 18.7561C47.7359 16.0921 47.6279 15.3001 47.3759 13.4641V13.3201C47.3759 13.1761 47.4119 13.0681 47.5559 13.0681C47.5919 13.0681 47.6639 13.1041 47.7719 13.1401C48.1319 13.2481 48.9599 13.6441 49.8239 14.1841H53.3879C53.3879 13.5361 53.3879 13.0321 53.3519 12.7801C53.3519 12.1681 53.3159 12.1321 53.2439 11.7361C53.2439 11.6281 53.2079 11.5561 53.2079 11.4841C51.9119 11.5201 49.7879 11.7001 48.8159 11.8441H48.7799C48.3839 11.8441 47.6999 11.1961 47.3399 10.5841L47.2319 10.7641C46.6559 11.5201 46.0439 11.8441 45.5399 11.8441C44.9639 11.8441 44.5319 11.3761 44.5319 10.8361C44.5319 10.4401 44.7839 9.97207 45.3239 9.57606C46.7639 8.53207 47.2319 7.12807 47.2679 4.78807C47.2679 4.53607 47.5559 4.39206 47.8799 4.39206C48.4919 4.39206 48.5279 4.53607 48.5279 6.15607H53.3519C53.3519 4.28407 53.2439 2.91606 53.0279 1.94406C52.9919 1.76406 52.9559 1.62007 52.9559 1.51207C52.9559 1.33207 53.0639 1.26006 53.3519 1.26006H53.5319C55.9079 1.69207 56.4119 1.80007 56.4119 2.26806C56.4119 2.55606 56.0159 2.80807 55.4399 3.02407C55.1519 3.13207 54.9719 3.34807 54.9719 6.15607H61.1279C61.5239 6.15607 61.5959 5.97607 61.8119 5.72406C62.0279 5.47207 62.1719 5.29207 62.4239 5.29207C62.9639 5.29207 65.0879 6.58806 65.0879 7.48807C65.0879 7.88406 64.6199 8.17207 63.6839 8.31607C62.7119 8.49607 62.4599 8.96407 61.5599 9.90006C61.8839 10.2601 62.0999 10.6561 62.0999 10.9801C62.0999 11.2681 61.8839 11.4841 61.2359 11.4841H55.3319C55.4759 11.5561 55.5479 11.6281 55.5479 11.7001C55.5479 11.8081 55.4039 11.9521 55.1879 12.0241C54.9359 12.1321 54.9359 12.3121 54.9359 12.6361V14.1841H58.4999C59.1119 14.1841 59.1119 14.0041 59.4719 13.6441C59.6879 13.4641 59.7959 13.2841 60.0479 13.2841C60.1199 13.2841 60.1919 13.2841 60.2999 13.3201C60.9119 13.6441 62.3159 14.3281 62.3159 15.0121C62.3159 15.3001 62.0639 15.5881 61.4519 15.8761C60.9839 16.1281 60.9119 16.2361 60.9119 17.7481C60.9119 19.4761 61.0199 22.5361 61.1999 24.5881C61.2359 25.2361 60.5519 25.5961 60.0479 25.5961C59.6159 25.5961 59.2559 25.3801 59.2559 24.8401ZM39.0599 27.2161V27.0721C39.0599 26.7121 39.0959 26.3161 39.0959 25.9561C39.0959 24.2281 38.7719 22.7881 35.9999 22.7161C35.7119 22.7161 35.5679 22.4281 35.5679 22.1041C35.5679 21.7081 35.7479 21.3121 35.9999 21.3121C36.4679 21.3121 36.8999 21.3481 37.2599 21.3481C38.1239 21.3481 38.6279 21.2041 38.8439 20.4121C40.2839 14.5081 43.3799 6.94807 45.3959 2.52007C45.4679 2.34007 45.6119 2.30407 45.7919 2.30407C46.1879 2.30407 46.7279 2.62807 46.7279 2.91606V2.98807C45.0359 6.84007 40.7159 16.7401 40.7159 23.2921C40.7159 24.4441 40.8599 25.4521 41.1479 26.3521C41.7239 28.0441 40.9319 29.0521 40.1759 29.0521C39.6359 29.0521 39.0599 28.4761 39.0599 27.2161ZM60.9839 7.52407H48.4199C48.3119 8.38806 48.0959 9.18007 47.7719 9.86407C49.3559 10.0801 51.6599 10.2601 53.4599 10.2601H57.2399C57.8159 10.2601 57.8879 10.0801 58.1759 9.75606C58.4639 9.39606 58.8959 8.96407 59.1839 8.74806C59.3639 8.60407 59.5079 8.53207 59.6519 8.53207C59.9759 8.53207 60.5159 8.85607 60.6599 9.00007C60.8759 8.71206 61.0199 8.42406 61.2719 7.84807C61.2719 7.81207 61.3079 7.77607 61.3079 7.74006C61.3079 7.59606 61.1999 7.52407 60.9839 7.52407ZM53.7119 27.5401C53.7119 27.8281 53.4959 28.0081 53.0639 28.0081C52.8479 28.0081 52.5959 27.9361 52.2719 27.8641C52.0919 27.7921 51.9479 27.7921 51.7679 27.7921C51.5519 27.7921 51.3719 27.8281 51.1919 27.9361C45.8279 30.4201 39.6359 31.1401 39.4559 31.1401C39.0239 31.1401 38.7719 30.7081 38.7719 30.3481C38.7719 30.0961 38.8799 29.8801 39.1319 29.8441C44.5679 29.0521 50.2199 26.8561 51.1199 25.5601C51.2279 25.4161 51.2999 25.3801 51.4079 25.3801C51.6239 25.3801 53.7119 26.7121 53.7119 27.5401ZM63.7559 30.3481C63.3239 30.3481 62.7839 30.1321 62.1359 29.5561C60.9479 28.5121 58.2479 27.3601 56.0159 26.6761C55.8359 26.6401 55.7639 26.4601 55.7639 26.3161C55.7639 26.0281 55.9799 25.7041 56.3399 25.7041C57.3479 25.7041 64.6559 26.9281 64.6559 29.4481C64.6559 29.9521 64.3319 30.3481 63.7559 30.3481ZM59.3639 19.2961H54.9359C54.9359 20.3401 54.9719 21.3481 54.9719 22.1761H59.3279C59.3279 21.2041 59.3639 20.2321 59.3639 19.2961ZM53.4239 19.2961H49.3199C49.3559 20.2321 49.3559 21.2041 49.3559 22.1761H53.3879C53.3879 21.2761 53.3879 20.3041 53.4239 19.2961ZM41.6879 6.94807C41.3279 6.94807 40.9319 6.76807 40.5359 6.30007C39.6719 5.29207 38.4479 4.24806 37.1519 3.78007C37.0439 3.74406 37.0079 3.63607 37.0079 3.52807C37.0079 3.20407 37.3679 2.70007 37.6559 2.70007C37.9079 2.70007 42.5879 3.63607 42.5879 5.83207C42.5879 6.44407 42.1919 6.94807 41.6879 6.94807ZM59.3279 18.0001V15.9481C59.3279 15.7321 59.2919 15.4801 58.8239 15.4801H54.9359V18.0001H59.3279ZM39.4199 13.8961C39.1319 13.8961 38.7719 13.7521 38.4119 13.4281C37.2239 12.3481 36.1439 11.5561 34.8119 11.2321C34.6679 11.1961 34.6319 11.0881 34.6319 10.9441C34.6319 10.6201 34.9559 10.1161 35.2079 10.1161C35.2439 10.1161 40.3199 10.4041 40.3199 12.8161C40.3199 13.4281 39.9599 13.8961 39.4199 13.8961ZM53.4239 18.0001V15.4801H49.8599L49.6799 15.6241C49.4279 15.7681 49.3199 16.0201 49.3199 16.2001V18.0001H53.4239ZM101.772 1.47607C91.7639 11.1241 81.9359 20.9521 72.2879 30.9241C72.1439 31.0681 72.0359 31.1761 71.8919 31.1761C71.8559 31.1761 71.7839 31.1401 71.7119 31.1041C70.9559 30.5281 70.8119 30.2041 70.8119 30.0601C70.8119 29.9161 70.9199 29.8081 71.0639 29.7001C81.0359 20.0521 90.8639 10.2241 100.512 0.252064C100.656 0.0720646 100.764 6.55651e-05 100.872 6.55651e-05C101.16 6.55651e-05 101.988 0.864065 101.988 1.11606C101.988 1.26006 101.88 1.36807 101.772 1.47607ZM133.74 19.9081H124.344C124.884 20.9881 125.604 22.0681 126.468 23.0041C127.26 22.7161 129.168 22.0681 130.968 20.4841C131.076 20.3761 131.112 20.3401 131.184 20.3401C131.58 20.3401 132.84 22.5001 132.84 22.7881C132.84 23.0041 132.696 23.1121 132.408 23.1121C132.192 23.1121 131.868 23.0401 131.508 22.8961C131.4 22.8601 131.292 22.8601 131.184 22.8601C131.004 22.8601 130.86 22.8961 130.644 22.9681C129.708 23.2921 128.412 23.6881 127.44 23.9761C129.96 26.1721 133.74 27.7201 139.572 27.8281C139.752 27.8281 139.824 28.0081 139.824 28.2241C139.824 28.5481 139.644 28.9441 139.428 28.9441C138.96 28.9801 137.016 29.5201 136.296 30.1321C136.188 30.2041 135.972 30.2761 135.792 30.2761C135.144 30.2761 126.468 28.4401 122.976 19.9081H121.068C121.14 19.9441 121.14 20.0161 121.14 20.0881C121.14 20.2681 120.924 20.4841 120.6 20.6281C120.312 20.7721 120.24 20.9521 120.24 21.3841C120.132 23.0041 120.132 24.9121 120.132 26.6401C121.788 26.1721 123.516 25.5961 125.172 25.0201C125.208 25.0201 125.244 24.9841 125.316 24.9841C125.604 24.9841 125.856 25.3801 125.856 25.7041C125.856 25.8841 125.784 26.0641 125.604 26.1361C121.212 28.0441 117.756 28.9441 114.444 30.0601C114.12 30.1321 113.976 31.1041 113.544 31.1041C113.076 31.1041 112.248 29.7001 111.888 28.7281C111.852 28.6921 111.852 28.6201 111.852 28.5841C111.852 28.4761 111.96 28.4041 112.104 28.4041C112.86 28.3681 115.632 27.9001 118.548 27.0721C118.548 26.1001 118.584 24.9121 118.584 23.7601C118.584 21.3481 118.44 20.3761 118.332 19.9441C117.108 20.0161 116.208 20.1601 115.344 20.3041H115.308C114.732 20.3041 113.796 19.1161 113.616 18.5761C111.744 25.6681 106.308 29.5201 105.804 29.5201C105.372 29.5201 104.868 29.1961 104.868 28.8361C104.868 28.6921 104.94 28.5841 105.084 28.4761C110.664 24.2281 112.644 18.2521 112.644 10.4761C112.644 7.41606 112.284 3.45607 111.888 1.72806C111.852 1.65607 111.852 1.58406 111.852 1.51207C111.852 1.40406 111.888 1.29607 112.068 1.29607C112.32 1.29607 114.372 2.08806 115.02 2.62807L115.056 2.66407H129.42C130.032 2.66407 130.032 2.48407 130.356 2.12407C130.536 1.87207 130.752 1.69207 131.004 1.69207C131.364 1.69207 133.524 2.66407 133.524 3.49207C133.524 3.78007 133.236 4.06806 132.552 4.39206C132.264 4.53607 132.012 4.68007 132.012 6.04806C132.012 7.12807 132.156 8.28007 132.264 9.18007C132.336 9.86407 131.4 10.0081 131.04 10.0081C130.608 10.0081 130.212 9.82807 130.212 9.39606V9.32407C130.212 9.10807 130.212 8.89206 130.248 8.64007H114.48C114.516 9.28807 114.516 9.93607 114.516 10.5841C114.516 13.1401 114.3 15.7321 113.688 18.2881H113.76C114.912 18.4681 117.288 18.7201 119.592 18.7561V15.0121C118.404 15.0841 117.216 15.2281 116.388 15.3001C115.848 15.3721 114.624 14.0041 114.624 13.5721C114.624 13.5001 114.66 13.4641 114.768 13.4641H114.804C115.668 13.5721 117.828 13.7161 119.592 13.7881C119.412 11.1601 119.376 10.8721 119.232 10.1161C119.196 9.93607 119.16 9.79207 119.16 9.64807C119.16 9.46807 119.232 9.36007 119.484 9.36007C119.7 9.36007 122.436 9.68407 122.436 10.3681C122.436 10.6201 122.076 10.8721 121.608 11.0881C121.284 11.2321 121.248 11.3761 121.212 12.0601L121.14 13.8601H124.884C124.884 13.2841 124.848 12.7441 124.848 12.2401C124.776 11.3761 124.704 10.8361 124.56 10.1161C124.524 9.93607 124.488 9.75606 124.488 9.64807C124.488 9.46807 124.56 9.36007 124.776 9.36007C124.92 9.36007 127.728 9.75606 127.728 10.4041C127.728 10.6561 127.44 10.9081 126.936 11.0881C126.72 11.1601 126.468 11.4121 126.468 13.8601H127.872C128.484 13.8601 128.628 13.7161 128.952 13.3561C129.6 12.5641 129.924 12.1681 130.284 12.1681C130.968 12.1681 132.66 13.7881 132.66 14.5081C132.66 14.7961 132.444 14.9761 131.832 14.9761H126.432V18.7561H129.348C129.924 18.7561 130.104 18.5761 130.428 18.2161C131.328 17.2081 131.688 16.8121 132.084 16.8121C132.876 16.8121 134.64 18.6121 134.64 19.3681C134.64 19.6921 134.388 19.9081 133.74 19.9081ZM129.744 4.03207H114.804C114.48 4.21206 114.336 4.42806 114.336 4.75206V4.86007L114.444 7.30807H130.284C130.32 6.22806 130.32 5.18407 130.32 4.53607C130.284 4.32007 130.248 4.03207 129.744 4.03207ZM124.92 18.7561V14.9761H121.104V18.7561H124.92ZM159.552 26.9641V27.1441C159.552 30.0961 156.348 30.4561 155.988 30.4561C155.772 30.4561 155.664 30.3481 155.484 30.1321C154.98 29.4121 152.784 29.2321 151.848 29.0521C151.668 29.0161 151.56 28.7641 151.56 28.4761C151.56 28.0801 151.74 27.6481 151.956 27.6481H151.992C153.54 27.8281 154.728 27.9721 155.592 27.9721C157.104 27.9721 157.68 27.5761 157.716 26.2801C157.716 14.8681 157.716 14.4001 157.536 13.3201H154.764C152.028 13.3201 148.14 13.6801 146.556 13.8601C145.728 13.9681 144.072 12.1321 144.072 11.4841C144.072 11.3401 144.144 11.2681 144.324 11.2681H144.396C146.088 11.4841 151.848 11.8801 155.088 11.8801H166.608C167.364 11.8801 167.58 11.7001 167.976 11.2681C169.056 9.93607 169.488 9.46807 169.884 9.46807C170.748 9.46807 173.16 11.6641 173.16 12.7081C173.16 13.0681 172.872 13.3201 172.116 13.3201H160.02C160.38 13.5001 160.488 13.7161 160.488 13.8241C160.488 13.9681 160.344 14.1841 159.804 14.4001C159.444 14.5441 159.444 14.7241 159.444 16.4521C159.444 19.3321 159.48 25.3441 159.552 26.9641ZM167.256 6.08406H156.996C155.772 6.08406 152.172 6.44407 150.768 6.58806C149.94 6.73206 148.464 4.82407 148.464 4.24806C148.464 4.14007 148.536 4.06806 148.68 4.06806H148.752C150.3 4.24806 154.836 4.68007 156.6 4.68007H162.288C162.936 4.68007 163.116 4.46407 163.44 4.10406C164.628 2.44806 164.988 2.34007 165.204 2.34007C166.032 2.34007 168.156 4.39206 168.156 5.50807C168.156 5.83207 167.904 6.08406 167.256 6.08406ZM154.44 18.4681C154.44 18.8281 154.008 19.0441 153.18 19.0801C152.784 19.0801 152.496 19.4041 152.28 19.6921C147.852 25.2361 143.316 28.1881 142.812 28.1881C142.38 28.1881 141.948 27.7201 141.948 27.3601C141.948 27.2161 142.02 27.1081 142.128 27.0361C146.052 24.5521 150.768 18.8281 151.416 16.7401C151.488 16.5601 151.524 16.4521 151.668 16.4521C152.172 16.4521 154.44 17.8201 154.44 18.4681ZM171.792 26.1721C171.36 26.1721 170.82 25.8841 170.316 25.0921C168.516 22.2841 165.744 19.8361 162.432 17.9641C162.324 17.8921 162.288 17.8201 162.288 17.7121C162.288 17.3521 162.72 16.8481 163.116 16.8481C163.656 16.8481 172.764 21.7441 172.764 24.8761C172.764 25.6321 172.368 26.1721 171.792 26.1721ZM188.1 27.1801H188.244C191.376 27.1801 196.092 23.8321 196.74 19.9441C196.272 20.9521 195.336 21.5281 194.256 21.5281C192.456 21.5281 190.44 20.0521 190.44 17.6401C190.44 16.0921 191.412 14.6521 193.932 14.6521C194.184 14.6521 194.76 14.6521 195.732 14.8681C195.732 14.0761 195.768 13.2481 195.768 12.5281V11.1961C193.932 11.4121 188.028 12.3121 186.156 13.0681C185.22 13.3921 184.5 13.5721 183.924 13.5721C183.132 13.5721 182.592 13.2841 182.196 12.7801C181.512 11.9881 180.648 11.0161 180.648 9.90006C180.648 9.32407 180.864 8.85607 181.224 8.85607C181.548 8.85607 181.62 8.89206 182.556 10.0801C183.348 10.9801 183.924 11.6641 184.86 11.6641C185.04 11.6641 185.22 11.6281 185.4 11.5921C188.28 10.9441 192.168 10.2961 195.804 9.82807V9.39606C195.804 6.12007 195.408 5.61607 193.356 5.29207C192.996 5.22006 192.492 5.00407 192.492 4.64407C192.492 4.24806 193.104 3.63607 193.968 3.63607C194.472 3.63607 196.092 4.24806 197.136 4.75206C197.64 4.96807 197.82 5.25606 197.82 5.61607V5.76006C197.82 5.90406 197.82 6.01207 197.784 6.15607C197.64 6.87607 197.532 7.48807 197.352 9.68407C198.9 9.50407 200.376 9.39606 201.672 9.36007C201.78 9.36007 201.888 9.28807 201.888 9.21606C201.888 9.10807 201.384 8.82007 200.556 8.38806C200.304 8.28007 200.196 8.06406 200.196 7.88406C200.196 7.63207 200.412 7.38006 200.772 7.38006C200.88 7.38006 201.024 7.38006 203.22 8.35207C203.868 8.64007 204.516 8.92807 205.2 9.07206C207.936 9.75606 208.152 10.4041 208.152 10.8361C208.152 11.3041 207.684 11.7361 207.072 11.7361C206.964 11.7361 206.856 11.7361 206.712 11.7001C203.292 10.8721 203.04 10.8361 200.736 10.8361C199.656 10.8361 198.468 10.9081 197.244 11.0161C197.244 11.5201 197.208 12.0601 197.208 12.6001L197.1 15.7321C197.532 16.1641 197.892 16.7041 198.18 17.3521C198.396 17.9281 198.54 18.5401 198.54 19.1881C198.54 22.7521 195.228 27.4321 188.46 28.9081C188.028 29.0161 187.668 29.0521 187.344 29.0521C186.552 29.0521 186.192 28.7641 186.192 28.3681C186.192 27.9361 186.732 27.1801 188.1 27.1801ZM195.696 16.4161C195.12 15.9121 194.292 15.8761 194.004 15.8761C192.528 15.8761 191.952 16.7041 191.952 17.6041C191.952 18.8641 193.068 19.8361 194.184 19.8361C195.552 19.8361 195.588 18.6481 195.696 16.4161ZM232.359 8.82007L231.855 9.25206C230.955 10.0441 224.547 15.9121 224.547 16.2361V16.2721C224.547 16.2721 224.619 16.2721 224.727 16.2001C225.951 15.2641 228.219 14.4721 230.559 14.4721C234.231 14.4721 238.047 16.8841 238.047 20.7001C238.047 25.4881 232.863 28.7281 227.787 28.7281C222.783 28.7281 221.343 26.6041 221.343 24.9841C221.343 23.4001 222.639 22.1401 224.475 22.1401C227.031 22.1401 228.147 24.1561 228.147 25.9921C228.147 26.4601 228.075 26.9281 227.967 27.2881C232.575 27.1081 236.067 23.9041 236.067 20.7721C236.067 18.3241 234.087 15.9121 230.271 15.9121C226.455 15.9121 222.783 18.2161 221.307 20.5201C220.515 21.7441 219.759 22.2121 219.147 22.2121C218.175 22.2121 218.139 21.2761 218.139 21.0601C218.139 20.4121 218.535 19.6561 219.471 19.1521C219.867 18.9361 221.595 18.0361 230.559 8.17207C230.595 8.13607 230.631 8.10007 230.631 8.06406C230.631 8.02807 230.595 7.99207 230.559 7.99207C230.523 7.99207 230.451 7.99207 230.379 8.02807C229.155 8.42406 224.151 9.79207 223.323 9.79207C221.919 9.79207 220.983 8.64007 220.983 7.48807C220.983 6.58806 221.487 6.55206 221.631 6.55206C221.955 6.55206 222.315 6.73206 223.071 7.34407C223.431 7.63207 223.899 7.88406 224.475 7.88406C226.059 7.88406 230.055 6.87607 230.631 6.40806C230.919 6.12007 231.171 6.01207 231.423 6.01207H231.531C231.675 6.01207 231.819 6.01207 231.963 6.08406C232.899 6.30007 233.871 6.80407 233.871 7.41606C233.871 7.81207 233.475 8.17207 232.899 8.46007C232.755 8.53207 232.539 8.67607 232.359 8.82007ZM225.987 27.1801C226.203 26.7841 226.311 26.2801 226.311 25.8121C226.311 24.5881 225.699 23.5441 224.295 23.5441C223.467 23.5441 222.783 24.1561 222.783 24.9841C222.783 26.6761 225.735 27.1801 225.987 27.1801Z" fill="#0A0814"/>
</svg>
