<svg width="132" height="31" viewBox="0 0 132 31" fill="none" xmlns="http://www.w3.org/2000/svg">
<path d="M24.7321 27.0359V26.8559C24.7681 25.4519 24.9121 22.8599 24.9481 20.7359C24.7321 20.9159 24.3361 21.0599 24.0841 21.1319C23.7961 21.2039 23.6521 21.7079 23.5441 21.9239C20.0521 29.5199 10.1881 30.5639 8.56809 30.5639C8.20809 30.5639 7.95609 30.0959 7.95609 29.7359C7.95609 29.4479 8.06409 29.2319 8.31609 29.2319C16.5241 28.6919 21.8161 23.7599 22.4641 19.6559C22.5361 19.4759 22.5721 19.2959 22.8241 19.2959C22.8601 19.2959 23.4001 19.2959 24.7321 20.0159L24.9841 20.1959V18.3239H21.6721V20.0519C21.7081 20.8079 20.8081 21.0239 20.5561 21.0239C20.1601 21.0239 19.7641 20.8079 19.7641 20.2679V20.1239C19.9801 17.8199 20.0881 14.3999 20.0881 11.0519C20.0881 6.76791 19.9081 3.45591 19.7281 2.08791V1.94391C19.7281 1.83591 19.7281 1.76391 19.8361 1.76391C20.1961 1.76391 22.0321 2.80791 22.3921 3.02391H26.8201C27.3241 3.02391 27.3961 2.87991 27.6481 2.55591C27.8641 2.30391 28.0801 2.05191 28.3681 2.05191C28.8361 2.05191 30.5281 3.20391 30.5281 3.81591C30.5281 4.10391 30.3121 4.39191 29.7001 4.67991C29.2681 4.93191 29.1601 5.32791 29.1601 9.53991C29.1601 13.2119 29.3761 16.8839 29.4841 19.5839V19.6199C29.4841 20.1239 28.8721 20.4839 28.3681 20.4839C27.9361 20.4839 27.5761 20.2679 27.5761 19.7639V19.7279C27.6121 19.3679 27.6121 18.8999 27.6121 18.3239H27.1801L27.0001 18.4319C26.7121 18.5759 26.7121 18.6839 26.6401 19.0439C26.4961 20.7359 26.3521 23.9399 26.3521 25.9559C26.3521 27.5399 26.3521 27.9719 28.2601 27.9719C28.9081 27.9719 29.6281 27.9359 30.0601 27.8639C30.8161 27.6839 31.2841 27.4319 31.6081 22.1759C31.6441 21.8519 31.8961 21.7079 32.1481 21.7079C32.4721 21.7079 32.7601 21.9239 32.7601 22.2479C32.7241 22.6439 32.6161 25.2719 32.6161 25.5599C32.6161 26.1719 32.7241 26.6759 33.1921 26.9639C33.6241 27.2519 33.9481 27.3239 33.9481 27.8279C33.9121 28.6199 33.1561 29.5919 28.2601 29.5919C25.8121 29.5919 24.7321 29.0519 24.7321 27.0359ZM17.4241 25.9559H7.77609C7.77609 26.4959 7.77609 26.9999 7.81209 27.4679C7.81209 28.0079 7.23609 28.3319 6.69609 28.3319C6.30009 28.3319 5.94009 28.1159 5.94009 27.6479V27.5399C6.26409 24.8759 6.37209 21.0239 6.37209 18.0359C6.37209 17.1719 6.33609 16.3799 6.33609 15.7319V15.1919C3.45609 18.4679 0.936094 19.9439 0.792094 19.9439C0.432094 19.9439 9.37656e-05 19.4759 9.37656e-05 19.1519C9.37656e-05 19.0799 0.0360938 19.0079 0.108094 18.9719C3.52809 16.6319 6.44409 13.1039 8.38809 10.0439C7.16409 10.0799 5.36409 10.2239 4.50009 10.3319C3.92409 10.4399 2.88009 9.03591 2.88009 8.60391C2.88009 8.53191 2.91609 8.49591 2.98809 8.49591H3.02409C4.17609 8.63991 7.16409 8.85591 8.74809 8.85591H9.07209C9.86409 7.48791 10.2601 6.62391 10.5841 5.61591H8.02809C7.38009 6.37191 5.76009 8.27991 5.29209 8.27991C4.96809 8.27991 4.53609 7.91991 4.53609 7.63191C4.53609 7.55991 4.57209 7.48791 4.60809 7.45191C6.76809 5.36391 8.92809 1.47591 9.14409 0.32391C9.21609 0.0359116 9.28809 -9.01222e-05 9.39609 -9.01222e-05H9.50409C9.82809 0.107911 12.0241 1.22391 12.0241 1.83591C12.0241 2.08791 11.7361 2.23191 11.3041 2.23191C11.1961 2.23191 11.0521 2.23191 10.9441 2.19591H10.8001C10.5121 2.19591 10.3321 2.37591 9.97209 2.91591C9.68409 3.38391 9.32409 3.88791 8.89209 4.46391H12.8881C13.4281 4.46391 13.5361 4.31991 13.7881 3.95991C14.0401 3.63591 14.5441 2.98791 14.7961 2.80791C14.9401 2.66391 15.0841 2.59191 15.2281 2.59191C15.9841 2.59191 17.6041 4.35591 17.6041 5.14791C17.6041 5.43591 17.3881 5.61591 16.8481 5.61591H13.0681C13.3561 5.79591 13.4641 5.93991 13.4641 6.08391C13.4641 6.29991 13.1041 6.40791 12.6361 6.40791H12.4921C12.1321 6.40791 11.9881 6.73191 11.7361 7.23591L10.8361 8.85591H14.0401C14.5801 8.85591 14.7241 8.71191 15.0121 8.35191C15.5161 7.70391 16.2001 6.87591 16.5241 6.87591C17.1721 6.87591 19.0081 8.71191 19.0081 9.53991C19.0081 9.82791 18.8281 10.0439 18.3601 10.0439H10.1161C9.43209 11.1239 8.64009 12.3479 7.74009 13.4999C7.99209 13.6439 8.24409 13.7879 8.49609 14.0039H10.7641C11.5921 12.6359 12.4201 11.1599 12.5281 10.4399C12.5641 10.2959 12.6001 10.2239 12.7081 10.2239C12.9241 10.2239 15.0121 11.1239 15.0121 11.7359C15.0121 11.9879 14.7601 12.1679 14.2561 12.1679H13.8961C13.6081 12.1679 13.5721 12.2759 13.3921 12.4919L11.9881 14.0039H13.6441C14.1481 14.0039 14.3281 13.8239 14.6161 13.4999C14.7601 13.3199 15.5161 12.3839 15.9481 12.3839C16.6681 12.3839 18.1441 13.9319 18.1441 14.6159C18.1441 14.9039 17.9281 15.0839 17.3521 15.0839H12.2401C12.3841 15.1199 12.4921 15.1559 12.6001 15.2279C12.7441 15.2999 12.9241 15.4079 12.9241 15.5519C12.9241 15.6599 12.8161 15.8039 12.5281 15.9479C12.3481 16.0559 12.0961 16.2359 12.0961 16.8479V17.6399H12.9601C13.4281 17.6399 13.5721 17.4599 13.8241 17.1359C14.0761 16.8119 14.6881 16.0919 14.9401 16.0919C15.5881 16.0919 17.0281 17.7119 17.0281 18.2879C17.0281 18.5399 16.8481 18.7199 16.3441 18.7199H12.0601V21.1319H12.9601C13.4281 21.1319 13.5721 20.9879 13.8241 20.6639C14.0401 20.3399 14.3641 19.9799 14.5801 19.7999C14.7241 19.6559 14.8321 19.5839 14.9761 19.5839C15.1201 19.5839 15.3001 19.6559 15.5521 19.7999C15.9481 20.0519 17.0281 21.1679 17.0281 21.8159C17.0281 22.0679 16.8481 22.2479 16.3441 22.2479H12.0601C12.0601 23.1119 12.0601 23.9759 12.0961 24.8759H13.7161C14.2561 24.8759 14.4361 24.6959 14.7241 24.3719C15.7321 23.3639 15.8761 23.2199 16.1281 23.2199C16.8121 23.2199 18.2161 24.7679 18.2161 25.4879C18.2161 25.7759 18.0001 25.9559 17.4241 25.9559ZM27.6841 13.5359H21.6361C21.6361 14.6519 21.6361 15.8039 21.6721 16.9919H27.6481C27.6481 15.9479 27.6481 14.7599 27.6841 13.5359ZM27.1441 4.35591H22.1041L21.9601 4.46391C21.6361 4.75191 21.6001 4.96791 21.6001 5.25591V7.59591H27.6841C27.6481 6.40791 27.6481 5.43591 27.6481 4.89591C27.6481 4.67991 27.6121 4.35591 27.1441 4.35591ZM27.6841 12.1319V8.96391H21.6001V12.1319H27.6841ZM10.7281 22.2479H7.70409C7.70409 23.1119 7.74009 24.0119 7.74009 24.8759H10.6921C10.7281 24.0839 10.7281 23.1839 10.7281 22.2479ZM10.7281 17.6399V16.8479L10.6561 15.0839H8.24409C8.24409 15.1199 8.20809 15.1199 8.17209 15.1559C7.95609 15.2999 7.81209 15.5519 7.81209 15.7319C7.77609 16.2719 7.74009 16.9199 7.74009 17.6399H10.7281ZM10.7281 18.7199H7.74009C7.70409 19.4759 7.70409 20.3039 7.70409 21.1319H10.7641C10.7641 20.3399 10.7641 19.5119 10.7281 18.7199ZM46.6201 11.0879C45.5041 13.2839 44.0641 16.2359 44.0641 19.2959C44.0641 20.6279 44.5681 21.7079 44.7481 21.7079C44.8201 21.7079 44.8561 21.5999 44.8921 21.4199C45.2881 20.0879 46.5841 16.5959 47.9521 13.7879C48.1321 13.4639 48.4201 13.2839 48.6721 13.2839C48.9961 13.2839 49.2481 13.5359 49.2481 13.8599C49.2481 14.0039 49.2121 14.1479 49.1041 14.2919C47.6641 16.4879 46.3681 21.9239 46.3681 23.7959C46.3681 24.3719 46.4401 24.9119 46.7281 25.6319C46.8361 25.9199 46.9441 26.2079 46.9441 26.4239C46.9441 26.9279 46.5121 27.0719 46.1881 27.0719C44.7481 27.0719 42.7321 23.4719 42.7321 19.8359C42.7321 16.9559 43.6681 13.8959 44.6761 11.1599C45.0361 9.93591 45.0361 9.82791 45.0361 9.61191C45.0361 8.13591 43.8481 7.23591 43.4881 7.09191C43.0921 6.91191 42.9121 6.65991 42.9121 6.40791C42.9121 5.93991 43.3801 5.65191 43.8121 5.65191C44.9281 5.65191 47.1601 8.35191 47.1601 9.68391C47.1601 10.1879 46.9081 10.6199 46.6201 11.0879ZM52.1281 20.3759V20.4119C52.1281 22.1759 55.2241 24.0839 60.8401 24.0839C61.2361 24.0839 62.2081 24.0839 62.7481 23.8679C63.7201 23.3999 64.7641 23.2199 65.0881 23.2199C66.4921 23.2199 66.7441 23.9759 66.7441 24.3359C66.7441 25.8479 62.4601 25.9919 61.0561 25.9919C54.3241 25.9919 50.5441 22.7519 50.5441 20.3039C50.5441 19.8719 50.7961 19.2599 51.4081 19.2599C51.8041 19.2599 52.1281 19.6559 52.1281 20.3759ZM63.8281 10.9439V10.9799C63.8281 11.4119 63.3961 11.6999 62.7121 11.6999C61.7761 11.6999 59.3641 11.6999 55.6921 14.2559C55.5481 14.3639 55.3681 14.4359 55.2241 14.4359C55.0081 14.4359 54.6121 14.2919 54.6121 13.8599C54.6121 13.6799 54.6841 13.4639 54.9361 13.3199C55.5841 12.9239 56.7721 12.2759 57.7081 11.6279L57.9961 11.3759V11.3399C57.9961 11.3039 57.9601 11.3039 57.8161 11.2679C57.3121 11.2679 56.7361 11.3039 56.1241 11.3399C52.3081 11.7719 52.1641 11.8079 51.7681 11.8079C50.8321 11.8079 50.0401 11.6279 50.0401 10.8719C50.0401 10.4399 50.3641 10.1519 50.7601 10.1519C50.9041 10.1519 51.0481 10.1879 51.2281 10.2599C51.5161 10.3679 51.8761 10.4039 52.2721 10.4039C52.9201 10.4039 53.7121 10.2959 54.6481 10.1879C56.0521 9.97191 57.7081 9.71991 59.5441 9.71991H59.8681C60.4441 9.71991 63.6121 9.71991 63.8281 10.9439ZM97.3441 26.8559V26.9639C97.3441 29.0159 94.7521 30.1319 93.6361 30.1319C93.4921 30.1319 93.3481 30.0599 93.2041 29.8079C92.7001 29.0159 90.2161 28.8719 89.3161 28.6919C89.1001 28.6559 89.0281 28.4399 89.0281 28.1879C89.0281 27.8279 89.2081 27.4319 89.4241 27.4679C91.0081 27.6119 92.2681 27.7919 93.2401 27.7919C94.5721 27.7919 95.2561 27.4679 95.2921 26.3519C95.2921 25.7399 95.3281 24.9839 95.3281 24.2279C95.3281 20.6639 95.1841 14.9759 95.0401 12.9959H94.1761C91.9441 12.9959 88.9201 13.2119 87.6961 13.3559C87.0121 13.4639 85.8241 11.6999 85.8241 11.2679C85.8241 11.1599 85.8601 11.1239 85.9321 11.1239H85.9681C87.2641 11.3039 91.1521 11.5919 93.7081 11.5919H98.7481C99.3961 11.5919 99.5761 11.4119 99.9001 11.0519C100.224 10.6919 101.016 9.64791 101.304 9.43191C101.484 9.28791 101.628 9.21591 101.808 9.21591C102.744 9.21591 104.688 11.4839 104.688 12.4199C104.688 12.7799 104.472 12.9959 103.86 12.9959H98.1001C98.1361 13.0319 98.1361 13.1039 98.1361 13.1399C98.1361 13.3199 97.9201 13.5359 97.4161 13.7159C97.2361 13.7879 97.1641 14.0399 97.1641 14.2559C97.0921 15.7679 97.0921 17.2439 97.0921 18.6479C97.0921 21.6719 97.2001 24.4079 97.3441 26.8559ZM80.6041 29.6999V29.5559C80.8921 26.6759 81.2521 21.2039 81.2521 17.0639C81.2521 16.3799 81.2521 15.7679 81.2161 15.1919V14.9759C77.2561 19.0799 74.1601 20.3759 74.0881 20.3759C73.6921 20.3759 73.2961 19.8719 73.2961 19.5479C73.2961 19.4039 73.3681 19.2959 73.4761 19.2239C79.0561 16.0199 83.5201 9.61191 84.3481 7.81191C84.4201 7.66791 84.4561 7.59591 84.5281 7.59591C84.7441 7.59591 87.0481 9.03591 87.0481 9.75591C87.0481 10.0439 86.7601 10.1879 86.2921 10.1879C86.1481 10.1879 85.9681 10.1879 85.7881 10.1519H85.6801C85.3921 10.1519 85.2481 10.3679 85.0321 10.6199L83.1601 12.8519C83.3761 12.9239 83.6281 13.0319 83.8441 13.1759C83.9521 13.2479 84.1681 13.3559 84.1681 13.5359C84.1681 13.7159 83.9881 13.8959 83.4481 14.1479C83.1241 14.2919 83.0521 14.4359 83.0521 14.7959C82.9081 18.2159 82.9081 25.1279 82.8001 29.4839C82.7641 30.1679 82.0801 30.6359 81.4681 30.6359C81.0001 30.6359 80.6041 30.3479 80.6041 29.6999ZM100.908 6.11991L95.4361 6.15591C93.7441 6.15591 91.9081 6.40791 90.6481 6.55191C90.0001 6.62391 88.7041 5.03991 88.7041 4.49991C88.7041 4.39191 88.7401 4.35591 88.8481 4.35591H88.8841C90.1081 4.53591 92.9161 4.82391 94.6441 4.82391H95.1121L96.1201 4.78791C96.7681 4.78791 96.9481 4.64391 97.2721 4.24791C97.5961 3.88791 98.2081 3.05991 98.4961 2.84391C98.6761 2.66391 98.8201 2.59191 99.0001 2.59191C99.7561 2.59191 101.808 4.46391 101.808 5.54391C101.808 5.90391 101.556 6.11991 100.908 6.11991ZM85.1041 4.13991H85.0321C84.7441 4.13991 84.5641 4.31991 84.3841 4.53591C81.6841 7.59591 76.4281 11.1599 75.8521 11.1599C75.4561 11.1599 74.9881 10.6559 74.9881 10.2959C74.9881 10.1879 75.0241 10.0799 75.1321 10.0439C77.9761 8.45991 82.6561 4.28391 83.8081 1.76391C83.8801 1.61991 83.9161 1.54791 83.9881 1.54791C84.3121 1.54791 86.3641 3.13191 86.3641 3.67191C86.3641 3.95991 86.0401 4.17591 85.4641 4.17591C85.3561 4.17591 85.2481 4.13991 85.1041 4.13991ZM130.032 6.80391L129.384 7.30791C128.592 7.91991 126.684 9.25191 124.776 10.6559C124.56 10.7999 120.024 14.1479 120.024 14.8679C120.024 15.0119 120.132 15.1199 120.348 15.2279C123.912 17.6039 131.076 24.3719 131.076 27.1799C131.076 27.9719 130.536 28.7999 129.888 28.7999C128.988 28.7999 128.628 27.3959 128.304 26.2439C127.548 23.2199 121.068 16.9559 119.34 16.5959C118.8 16.4159 118.224 16.0559 118.224 15.2999C118.224 14.3999 118.656 13.6799 122.796 10.1879C124.416 8.81991 126.18 7.37991 127.368 6.29991C127.836 5.86791 128.088 5.47191 128.088 5.03991C128.088 4.57191 127.8 4.06791 127.188 3.52791C127.044 3.41991 126.972 3.27591 126.972 3.16791C126.972 2.69991 127.872 2.66391 128.016 2.66391C128.52 2.66391 128.952 2.87991 129.384 3.52791C130.176 5.00391 130.5 5.68791 130.5 5.93991C130.5 6.19191 130.392 6.37191 130.032 6.80391Z" fill="#0A0814"/>
</svg>
